<svg width="28" height="20" viewBox="0 0 28 20" fill="none" xmlns="http://www.w3.org/2000/svg">
<rect width="28" height="20" rx="2" fill="white"/>
<mask id="mask0_2004_13" style="mask-type:luminance" maskUnits="userSpaceOnUse" x="0" y="0" width="28" height="20">
<rect width="28" height="20" rx="2" fill="white"/>
</mask>
<g mask="url(#mask0_2004_13)">
<rect width="28" height="20" fill="#424242"/>
<path fill-rule="evenodd" clip-rule="evenodd" d="M14 17.3333C18.0501 17.3333 21.3333 14.05 21.3333 9.99996C21.3333 5.94987 18.0501 2.66663 14 2.66663C9.94992 2.66663 6.66667 5.94987 6.66667 9.99996C6.66667 14.05 9.94992 17.3333 14 17.3333ZM19.9634 10.6666C19.6318 13.6666 17.0884 16 14 16C10.9116 16 8.36825 13.6666 8.03662 10.6666H19.9634ZM19.9634 9.33329H8.03662C8.36825 6.33333 10.9116 3.99996 14 3.99996C17.0884 3.99996 19.6318 6.33333 19.9634 9.33329Z" fill="white"/>
</g>
</svg>
