<svg width="19" height="20" viewBox="0 0 19 20" fill="none" xmlns="http://www.w3.org/2000/svg">
<g id="big_thumb_up" clip-path="url(#clip0_1021_9783)">
<path id="Vector" d="M10.387 2.13085L6.00116 6.51668C5.70824 6.8096 5.54199 7.21335 5.54199 7.63293V15.5417C5.54199 16.4125 6.25449 17.125 7.12533 17.125H14.2503C14.8837 17.125 15.4537 16.745 15.707 16.1671L18.2878 10.1425C18.9528 8.57502 17.8049 6.83335 16.1028 6.83335H11.6299L12.382 3.20752C12.4612 2.81168 12.3424 2.40793 12.0574 2.12293C11.5903 1.66377 10.8462 1.66377 10.387 2.13085ZM2.37533 17.125C3.24616 17.125 3.95866 16.4125 3.95866 15.5417V9.20835C3.95866 8.33752 3.24616 7.62502 2.37533 7.62502C1.50449 7.62502 0.791992 8.33752 0.791992 9.20835V15.5417C0.791992 16.4125 1.50449 17.125 2.37533 17.125Z" fill="white"/>
</g>
<defs>
<clipPath id="clip0_1021_9783">
<rect width="19" height="19" fill="white" transform="translate(0 0.5)"/>
</clipPath>
</defs>
</svg>
