<svg width="22" height="23" viewBox="0 0 22 23" fill="none" xmlns="http://www.w3.org/2000/svg">
<path d="M17.8651 5.26686C20.0941 8.53576 21.195 12.223 20.7835 16.4678C20.7817 16.4858 20.7724 16.5023 20.7575 16.5131C19.0696 17.7494 17.4341 18.4997 15.8216 18.9973C15.8091 19.0011 15.7956 19.0009 15.7832 18.9967C15.7708 18.9925 15.76 18.9845 15.7523 18.9739C15.3798 18.4569 15.0413 17.9118 14.7447 17.3394C14.7277 17.3057 14.7433 17.2651 14.7783 17.2518C15.3159 17.0498 15.827 16.8077 16.3187 16.521C16.3575 16.4983 16.3599 16.443 16.3242 16.4164C16.2198 16.3391 16.1164 16.2579 16.0175 16.1767C15.999 16.1617 15.9741 16.1588 15.9531 16.1688C12.7609 17.6392 9.26407 17.6392 6.03414 16.1688C6.01317 16.1595 5.98825 16.1627 5.97024 16.1775C5.87156 16.2587 5.76794 16.3391 5.66457 16.4164C5.6288 16.443 5.63176 16.4983 5.67074 16.521C6.16243 16.8022 6.67361 17.0498 7.21045 17.2528C7.24524 17.2661 7.26177 17.3057 7.2445 17.3394C6.95437 17.9126 6.61588 18.4576 6.23644 18.9746C6.21991 18.9955 6.19278 19.0051 6.16712 18.9973C4.56227 18.4997 2.92683 17.7494 1.23884 16.5131C1.22477 16.5023 1.21466 16.4851 1.21318 16.4671C0.869266 12.7954 1.57017 9.07762 4.1288 5.26612C4.13497 5.25603 4.14434 5.24816 4.1552 5.24348C5.41416 4.66717 6.76292 4.24318 8.17262 4.00104C8.19828 3.9971 8.22394 4.00891 8.23726 4.03155C8.41144 4.33915 8.61053 4.73361 8.74524 5.05597C10.2312 4.82958 11.7403 4.82958 13.2573 5.05597C13.392 4.7405 13.5842 4.33915 13.7576 4.03155C13.7638 4.02032 13.7734 4.01132 13.785 4.00584C13.7966 4.00036 13.8097 3.99868 13.8223 4.00104C15.2327 4.24392 16.5815 4.66791 17.8395 5.24348C17.8506 5.24816 17.8597 5.25603 17.8651 5.26686ZM9.50066 12.2481C9.51621 11.1626 8.72279 10.2645 7.72682 10.2645C6.73899 10.2645 5.95322 11.1548 5.95322 12.2481C5.95322 13.3412 6.75453 14.2315 7.72682 14.2315C8.71489 14.2315 9.50066 13.3412 9.50066 12.2481ZM16.0587 12.2481C16.0743 11.1626 15.2808 10.2645 14.2851 10.2645C13.297 10.2645 12.5113 11.1548 12.5113 12.2481C12.5113 13.3412 13.3126 14.2315 14.2851 14.2315C15.2808 14.2315 16.0587 13.3412 16.0587 12.2481Z" fill="white"/>
</svg>
