<svg width="17" height="13" viewBox="0 0 17 13" fill="none" xmlns="http://www.w3.org/2000/svg">
<path d="M13.992 1.51349C15.7753 4.12861 16.6559 7.07839 16.3267 10.4743C16.3253 10.4886 16.3178 10.5018 16.306 10.5105C14.9556 11.4995 13.6472 12.0998 12.3572 12.4978C12.3472 12.5009 12.3365 12.5007 12.3265 12.4973C12.3166 12.494 12.3079 12.4876 12.3018 12.4791C12.0038 12.0655 11.733 11.6295 11.4957 11.1715C11.4821 11.1446 11.4946 11.1121 11.5226 11.1015C11.9526 10.9398 12.3616 10.7461 12.7549 10.5168C12.7859 10.4987 12.7879 10.4544 12.7593 10.4331C12.6758 10.3713 12.5931 10.3063 12.514 10.2414C12.4992 10.2294 12.4792 10.227 12.4624 10.2351C9.9087 11.4113 7.11121 11.4113 4.52726 10.2351C4.51049 10.2276 4.49055 10.2302 4.47615 10.242C4.3972 10.3069 4.3143 10.3713 4.23161 10.4331C4.20299 10.4544 4.20536 10.4987 4.23654 10.5168C4.6299 10.7418 5.03884 10.9398 5.46831 11.1023C5.49614 11.1129 5.50937 11.1446 5.49555 11.1715C5.26345 11.63 4.99266 12.0661 4.68911 12.4797C4.67588 12.4964 4.65417 12.5041 4.63364 12.4978C3.34977 12.0998 2.04141 11.4995 0.691021 10.5105C0.679771 10.5018 0.671679 10.488 0.670495 10.4737C0.395364 7.53629 0.956086 4.5621 3.00299 1.5129C3.00792 1.50483 3.01542 1.49853 3.02411 1.49479C4.03128 1.03374 5.11029 0.694542 6.23805 0.50083C6.25858 0.49768 6.2791 0.507129 6.28976 0.525241C6.4291 0.771319 6.58838 1.08689 6.69614 1.34478C7.88489 1.16366 9.09219 1.16366 10.3058 1.34478C10.4136 1.0924 10.5673 0.771319 10.7061 0.525241C10.711 0.516256 10.7187 0.509058 10.728 0.504674C10.7372 0.50029 10.7477 0.498945 10.7578 0.50083C11.8861 0.695133 12.9651 1.03433 13.9715 1.49479C13.9804 1.49853 13.9877 1.50483 13.992 1.51349V1.51349ZM7.30048 7.09847C7.31292 6.23011 6.67818 5.51156 5.88141 5.51156C5.09114 5.51156 4.46253 6.22381 4.46253 7.09847C4.46253 7.97293 5.10358 8.68518 5.88141 8.68518C6.67186 8.68518 7.30048 7.97293 7.30048 7.09847V7.09847ZM12.5469 7.09847C12.5594 6.23011 11.9246 5.51156 11.128 5.51156C10.3376 5.51156 9.70896 6.22381 9.70896 7.09847C9.70896 7.97293 10.35 8.68518 11.128 8.68518C11.9246 8.68518 12.5469 7.97293 12.5469 7.09847V7.09847Z" fill="#90A9A3"/>
</svg>
