<svg width="16" height="12" viewBox="0 0 16 12" fill="none" xmlns="http://www.w3.org/2000/svg">
<path d="M13.492 1.01349C15.2753 3.62861 16.1559 6.57839 15.8267 9.97426C15.8253 9.98863 15.8178 10.0018 15.806 10.0105C14.4556 10.9995 13.1472 11.5998 11.8572 11.9978C11.8472 12.0009 11.8365 12.0007 11.8265 11.9973C11.8166 11.994 11.8079 11.9876 11.8018 11.9791C11.5038 11.5655 11.233 11.1295 10.9957 10.6715C10.9821 10.6446 10.9946 10.6121 11.0226 10.6015C11.4526 10.4398 11.8616 10.2461 12.2549 10.0168C12.2859 9.99867 12.2879 9.95438 12.2593 9.93312C12.1758 9.8713 12.0931 9.80634 12.014 9.74137C11.9992 9.72937 11.9792 9.727 11.9624 9.73508C9.4087 10.9113 6.61121 10.9113 4.02726 9.73508C4.01049 9.72759 3.99055 9.73015 3.97615 9.74197C3.8972 9.80693 3.8143 9.8713 3.73161 9.93312C3.70299 9.95438 3.70536 9.99867 3.73654 10.0168C4.1299 10.2418 4.53884 10.4398 4.96831 10.6023C4.99614 10.6129 5.00937 10.6446 4.99555 10.6715C4.76345 11.13 4.49266 11.5661 4.18911 11.9797C4.17588 11.9964 4.15417 12.0041 4.13364 11.9978C2.84977 11.5998 1.54141 10.9995 0.191021 10.0105C0.179771 10.0018 0.171679 9.98804 0.170495 9.97367C-0.104636 7.03629 0.456086 4.0621 2.50299 1.0129C2.50792 1.00483 2.51542 0.998527 2.52411 0.994787C3.53128 0.533736 4.61029 0.194542 5.73805 0.000829876C5.75858 -0.00231992 5.7791 0.00712947 5.78976 0.0252408C5.9291 0.271319 6.08838 0.586889 6.19614 0.844778C7.38489 0.663665 8.59219 0.663665 9.80581 0.844778C9.91357 0.592401 10.0673 0.271319 10.2061 0.0252408C10.211 0.016256 10.2187 0.00905779 10.228 0.00467396C10.2372 0.000290119 10.2477 -0.00105527 10.2578 0.000829876C11.3861 0.195133 12.4651 0.534326 13.4715 0.994787C13.4804 0.998527 13.4877 1.00483 13.492 1.01349V1.01349ZM6.80048 6.59847C6.81292 5.73011 6.17818 5.01156 5.38141 5.01156C4.59114 5.01156 3.96253 5.72381 3.96253 6.59847C3.96253 7.47293 4.60358 8.18518 5.38141 8.18518C6.17186 8.18518 6.80048 7.47293 6.80048 6.59847V6.59847ZM12.0469 6.59847C12.0594 5.73011 11.4246 5.01156 10.628 5.01156C9.83758 5.01156 9.20896 5.72381 9.20896 6.59847C9.20896 7.47293 9.85001 8.18518 10.628 8.18518C11.4246 8.18518 12.0469 7.47293 12.0469 6.59847V6.59847Z" fill="white"/>
</svg>
