<svg width="19" height="19" viewBox="0 0 19 19" fill="none" xmlns="http://www.w3.org/2000/svg">
<path d="M5.6999 9.50001C5.6999 10.5493 4.84924 11.4 3.7999 11.4C2.75056 11.4 1.8999 10.5493 1.8999 9.50001C1.8999 8.45067 2.75056 7.60001 3.7999 7.60001C4.84924 7.60001 5.6999 8.45067 5.6999 9.50001Z" fill="#90A9A3"/>
<path d="M11.3999 9.50001C11.3999 10.5493 10.5492 11.4 9.4999 11.4C8.45056 11.4 7.5999 10.5493 7.5999 9.50001C7.5999 8.45067 8.45056 7.60001 9.4999 7.60001C10.5492 7.60001 11.3999 8.45067 11.3999 9.50001Z" fill="#90A9A3"/>
<path d="M17.0999 9.50001C17.0999 10.5493 16.2492 11.4 15.1999 11.4C14.1506 11.4 13.2999 10.5493 13.2999 9.50001C13.2999 8.45067 14.1506 7.60001 15.1999 7.60001C16.2492 7.60001 17.0999 8.45067 17.0999 9.50001Z" fill="#90A9A3"/>
</svg>
