<svg width="23" height="22" viewBox="0 0 23 22" fill="none" xmlns="http://www.w3.org/2000/svg">
<g clip-path="url(#clip0_525_4422)">
<path fill-rule="evenodd" clip-rule="evenodd" d="M18.8335 2.75H4.16683C3.1585 2.75 2.3335 3.575 2.3335 4.58333V17.4167C2.3335 18.425 3.1585 19.25 4.16683 19.25H18.8335C19.8418 19.25 20.6668 18.425 20.6668 17.4167V4.58333C20.6668 3.575 19.8418 2.75 18.8335 2.75ZM8.75016 15.5833H6.00016C5.496 15.5833 5.0835 15.1708 5.0835 14.6667C5.0835 14.1625 5.496 13.75 6.00016 13.75H8.75016C9.25433 13.75 9.66683 14.1625 9.66683 14.6667C9.66683 15.1708 9.25433 15.5833 8.75016 15.5833ZM8.75016 11.9167H6.00016C5.496 11.9167 5.0835 11.5042 5.0835 11C5.0835 10.4958 5.496 10.0833 6.00016 10.0833H8.75016C9.25433 10.0833 9.66683 10.4958 9.66683 11C9.66683 11.5042 9.25433 11.9167 8.75016 11.9167ZM8.75016 8.25H6.00016C5.496 8.25 5.0835 7.8375 5.0835 7.33333C5.0835 6.82917 5.496 6.41667 6.00016 6.41667H8.75016C9.25433 6.41667 9.66683 6.82917 9.66683 7.33333C9.66683 7.8375 9.25433 8.25 8.75016 8.25ZM17.6418 10.1933L14.736 13.0992C14.3785 13.4567 13.7918 13.4567 13.4343 13.0992L12.1418 11.7975C11.7843 11.44 11.7843 10.8625 12.1418 10.505C12.4993 10.1475 13.0768 10.1475 13.4343 10.505L14.0852 11.1558L16.3493 8.89167C16.7068 8.53417 17.2843 8.53417 17.6418 8.89167L17.651 8.90083C17.9993 9.25833 17.9993 9.845 17.6418 10.1933Z" fill="white"/>
</g>
<defs>
<clipPath id="clip0_525_4422">
<rect width="22" height="22" fill="white" transform="translate(0.5)"/>
</clipPath>
</defs>
</svg>
