<svg width="22" height="22" viewBox="0 0 22 22" fill="none" xmlns="http://www.w3.org/2000/svg">
<g clip-path="url(#clip0_564_4407)">
<path d="M8.25002 4.58317V4.9315C7.48919 4.629 6.67335 4.47317 5.85752 4.47317C4.55585 4.47317 3.25419 4.86734 2.14502 5.65567C1.67752 5.98567 1.62252 6.65484 2.02585 7.05817L4.38169 9.414H5.39919V10.4315C6.18752 11.2198 7.21419 11.6323 8.25002 11.6782V13.7498H6.41669C5.91252 13.7498 5.50002 14.1623 5.50002 14.6665V16.4998C5.50002 17.5082 6.32502 18.3332 7.33335 18.3332H16.5C18.0217 18.3332 19.25 17.1048 19.25 15.5832V4.58317C19.25 4.079 18.8375 3.6665 18.3334 3.6665H9.16669C8.66252 3.6665 8.25002 4.079 8.25002 4.58317ZM7.23252 9.54234V7.5715H5.14252L4.18919 6.61817C4.71169 6.4165 5.28002 6.3065 5.85752 6.3065C7.08585 6.3065 8.23169 6.78317 9.10252 7.64484L10.395 8.93734L10.2117 9.12067C9.74419 9.58817 9.12085 9.854 8.45169 9.854C8.02085 9.854 7.59919 9.744 7.23252 9.54234ZM17.4167 15.5832C17.4167 16.0873 17.0042 16.4998 16.5 16.4998C15.9959 16.4998 15.5834 16.0873 15.5834 15.5832V14.6665C15.5834 14.1623 15.1709 13.7498 14.6667 13.7498H10.0834V11.3757C10.6059 11.1648 11.0917 10.8532 11.5134 10.4315L11.6967 10.2482L14.2909 12.8332H15.5834V11.5407L10.0834 6.06817V5.49984H17.4167V15.5832Z" fill="white"/>
</g>
<defs>
<clipPath id="clip0_564_4407">
<rect width="22" height="22" fill="white"/>
</clipPath>
</defs>
</svg>
