<svg width="22" height="23" viewBox="0 0 22 23" fill="none" xmlns="http://www.w3.org/2000/svg">
<g clip-path="url(#clip0_462_4367)">
<path d="M11.5959 14.8642C11.7242 14.5342 11.6417 14.1584 11.385 13.9017L9.46919 12.0134L9.49669 11.9859C11.0917 10.2075 12.2284 8.16337 12.8975 6.00004H14.6759C15.1709 6.00004 15.5834 5.58754 15.5834 5.09254V5.07421C15.5834 4.57921 15.1709 4.16671 14.6759 4.16671H9.16669V3.25004C9.16669 2.74587 8.75419 2.33337 8.25002 2.33337C7.74585 2.33337 7.33335 2.74587 7.33335 3.25004V4.16671H1.82419C1.32919 4.16671 0.916687 4.57921 0.916687 5.07421C0.916687 5.57837 1.32919 5.98171 1.82419 5.98171H11.1559C10.5417 7.76004 9.57002 9.43754 8.25002 10.9042C7.50752 10.0884 6.88419 9.19921 6.36169 8.26421C6.21502 7.99837 5.94919 7.83337 5.64669 7.83337C5.01419 7.83337 4.61085 8.52087 4.92252 9.07087C5.50002 10.1067 6.20585 11.0967 7.03085 12.0134L3.02502 15.9642C2.65835 16.3217 2.65835 16.9084 3.02502 17.2659C3.38252 17.6234 3.96002 17.6234 4.32669 17.2659L8.25002 13.3334L10.1017 15.185C10.5692 15.6525 11.3667 15.4784 11.5959 14.8642ZM16.0417 9.66671C15.4917 9.66671 14.9967 10.0059 14.8042 10.5284L11.44 19.5117C11.22 20.0709 11.6417 20.6667 12.2375 20.6667C12.595 20.6667 12.9159 20.4467 13.0442 20.1075L13.86 17.9167H18.2142L19.0392 20.1075C19.1675 20.4375 19.4884 20.6667 19.8459 20.6667C20.4417 20.6667 20.8634 20.0709 20.6525 19.5117L17.2884 10.5284C17.0867 10.0059 16.5917 9.66671 16.0417 9.66671ZM14.5567 16.0834L16.0417 12.1142L17.5267 16.0834H14.5567Z" fill="white"/>
</g>
<defs>
<clipPath id="clip0_462_4367">
<rect width="22" height="22" fill="white" transform="translate(0 0.5)"/>
</clipPath>
</defs>
</svg>
