<svg width="15" height="15" viewBox="0 0 15 15" fill="none" xmlns="http://www.w3.org/2000/svg">
<g clip-path="url(#clip0_193_1917)">
<path d="M5.30542 0C5.58157 0 5.80542 0.245698 5.80542 0.548781V1.03017C5.80542 1.33325 6.02928 1.57895 6.30542 1.57895H9.65948C9.93563 1.57895 10.1595 1.82465 10.1595 2.12773V2.60912C10.1595 2.9122 9.93563 3.1579 9.65948 3.1579H9.09112C8.8762 3.1579 8.68623 3.30902 8.61233 3.53051C8.10583 5.0488 7.36803 6.46314 6.43017 7.7143C6.25442 7.94876 6.27193 8.29678 6.48745 8.48709C6.78953 8.75387 7.10467 9.00269 7.43148 9.23245C7.6403 9.37926 7.73083 9.66703 7.63805 9.91945L7.46743 10.3836C7.35458 10.6906 7.02115 10.8196 6.7653 10.6443C6.29497 10.322 5.84513 9.96545 5.41888 9.57714C5.22282 9.39853 4.93693 9.39887 4.74108 9.57778C3.65042 10.574 2.40675 11.353 1.06749 11.8788C0.802322 11.9829 0.51704 11.8118 0.441023 11.5142L0.321458 11.0461C0.248645 10.761 0.395498 10.4652 0.64879 10.3633C1.74455 9.92268 2.76632 9.28919 3.67325 8.48828C3.8889 8.29786 3.90613 7.94958 3.73008 7.71518C3.2133 7.02714 2.75685 6.28828 2.36657 5.50828C2.18998 5.15539 2.4303 4.73684 2.79713 4.73684H3.33693C3.51975 4.73684 3.68723 4.84687 3.77902 5.02041C4.05722 5.54642 4.36978 6.04987 4.71423 6.52689C4.90202 6.78695 5.25735 6.78682 5.4451 6.52672C6.02995 5.71646 6.52235 4.83229 6.91167 3.8936C7.05678 3.5437 6.81595 3.15863 6.46565 3.1586L0.49995 3.15796C0.223827 3.15792 0 2.91223 0 2.60918V2.12773C0 1.82465 0.223858 1.57895 0.5 1.57895H3.85407C4.13022 1.57895 4.35407 1.33325 4.35407 1.03017V0.548781C4.35407 0.245698 4.57792 0 4.85407 0H5.30542Z" fill="#90A9A3"/>
<path d="M14.8895 14.2459C15.0221 14.6066 14.7802 15 14.4258 15H13.9402C13.7364 15 13.5529 14.8642 13.4766 14.6567L12.8577 12.9749C12.7814 12.7674 12.5979 12.6316 12.3941 12.6316H10.1009C9.89693 12.6316 9.71341 12.7676 9.63714 12.9752L9.01949 14.6565C8.94323 14.8641 8.75971 15 8.55576 15H8.07106C7.71668 15 7.47478 14.6066 7.60738 14.2459L10.3962 6.65926C10.4725 6.45171 10.6559 6.3158 10.8599 6.3158H11.4915C11.7246 6.3158 11.8857 6.57164 11.8033 6.81096L10.5989 10.3099C10.4753 10.6689 10.717 11.0527 11.0666 11.0527H11.8673C12.0435 11.0527 12.2068 10.9508 12.2969 10.7845L12.7395 9.96813C12.8805 9.70803 13.2319 9.73763 13.3351 10.0183L14.8895 14.2459Z" fill="#90A9A3"/>
</g>
<defs>
<clipPath id="clip0_193_1917">
<rect width="15" height="15" fill="white"/>
</clipPath>
</defs>
</svg>
