<svg width="15" height="15" viewBox="0 0 15 15" fill="none" xmlns="http://www.w3.org/2000/svg">
<path d="M9.15441 4.875V3.5625C9.15441 3.2144 9.01497 2.88056 8.76676 2.63442C8.51855 2.38828 8.1819 2.25 7.83088 2.25H3.19853C2.84751 2.25 2.51086 2.38828 2.26265 2.63442C2.01444 2.88056 1.875 3.2144 1.875 3.5625V11.4375C1.875 11.7856 2.01444 12.1194 2.26265 12.3656C2.51086 12.6117 2.84751 12.75 3.19853 12.75H7.83088C8.1819 12.75 8.51855 12.6117 8.76676 12.3656C9.01497 12.1194 9.15441 11.7856 9.15441 11.4375V10.125M5.18382 7.5H13.125M13.125 7.5L11.1397 5.53125M13.125 7.5L11.1397 9.46875" stroke="#E1B8B8" stroke-width="2" stroke-linecap="round" stroke-linejoin="round"/>
</svg>
