<svg width="23" height="22" viewBox="0 0 23 22" fill="none" xmlns="http://www.w3.org/2000/svg">
<g clip-path="url(#clip0_527_4674)">
<path d="M16.5415 4.125C14.754 4.125 12.829 4.49167 11.4998 5.5C10.1707 4.49167 8.24567 4.125 6.45817 4.125C5.129 4.125 3.71734 4.32667 2.53484 4.84917C1.86567 5.15167 1.4165 5.8025 1.4165 6.545V16.885C1.4165 18.0767 2.53484 18.9567 3.68984 18.6633C4.58817 18.4342 5.5415 18.3333 6.45817 18.3333C7.88817 18.3333 9.40984 18.5717 10.6382 19.1767C11.1882 19.4517 11.8115 19.4517 12.3523 19.1767C13.5807 18.5625 15.1023 18.3333 16.5323 18.3333C17.449 18.3333 18.4023 18.4342 19.3007 18.6633C20.4557 18.9658 21.574 18.0858 21.574 16.885V6.545C21.574 5.8025 21.1248 5.15167 20.4557 4.84917C19.2823 4.32667 17.8707 4.125 16.5415 4.125ZM19.7498 15.7942C19.7498 16.3717 19.2182 16.7933 18.6498 16.6925C17.9623 16.5642 17.2473 16.5092 16.5415 16.5092C14.9832 16.5092 12.7373 17.105 11.4998 17.8842V7.33333C12.7373 6.55417 14.9832 5.95833 16.5415 5.95833C17.3848 5.95833 18.219 6.04083 19.0165 6.215C19.4382 6.30667 19.7498 6.6825 19.7498 7.11333V15.7942Z" fill="white"/>
<path d="M13.3151 10.0924C13.0217 10.0924 12.7559 9.90911 12.6642 9.61578C12.5451 9.25828 12.7467 8.86412 13.1042 8.75412C14.5159 8.29578 16.3401 8.14912 18.0176 8.34162C18.3934 8.38745 18.6684 8.72662 18.6226 9.10245C18.5767 9.47828 18.2376 9.75328 17.8617 9.70745C16.3767 9.53328 14.7542 9.67078 13.5259 10.0649C13.4526 10.0741 13.3792 10.0924 13.3151 10.0924Z" fill="white"/>
<path d="M13.3151 12.5309C13.0217 12.5309 12.7559 12.3476 12.6642 12.0543C12.5451 11.6968 12.7467 11.3026 13.1042 11.1926C14.5067 10.7343 16.3401 10.5876 18.0176 10.7801C18.3934 10.8259 18.6684 11.1651 18.6226 11.5409C18.5767 11.9168 18.2376 12.1918 17.8617 12.1459C16.3767 11.9718 14.7542 12.1093 13.5259 12.5034C13.4526 12.5218 13.3792 12.5309 13.3151 12.5309Z" fill="white"/>
<path d="M13.3151 14.9692C13.0217 14.9692 12.7559 14.7858 12.6642 14.4925C12.5451 14.135 12.7467 13.7408 13.1042 13.6308C14.5067 13.1725 16.3401 13.0258 18.0176 13.2183C18.3934 13.2642 18.6684 13.6033 18.6226 13.9792C18.5767 14.355 18.2376 14.6208 17.8617 14.5842C16.3767 14.41 14.7542 14.5475 13.5259 14.9417C13.4526 14.96 13.3792 14.9692 13.3151 14.9692Z" fill="white"/>
</g>
<defs>
<clipPath id="clip0_527_4674">
<rect width="22" height="22" fill="white" transform="translate(0.5)"/>
</clipPath>
</defs>
</svg>
