<svg width="44" height="44" viewBox="0 0 44 44" fill="none" xmlns="http://www.w3.org/2000/svg">
    <path d="M10.4813 27.1164C9.78561 27.1164 9.17823 27.006 8.65921 26.7851C8.15122 26.5532 7.72606 26.2385 7.38372 25.8409C7.05243 25.4323 6.79844 24.9575 6.62175 24.4164C6.4561 23.8753 6.37328 23.29 6.37328 22.6605C6.37328 22.0311 6.4561 21.4402 6.62175 20.8881C6.79844 20.3359 7.05243 19.8611 7.38372 19.4635C7.72606 19.0549 8.15122 18.7347 8.65921 18.5028C9.17823 18.2709 9.78561 18.1549 10.4813 18.1549C11.177 18.1549 11.7844 18.2709 12.3034 18.5028C12.8225 18.7347 13.2532 19.0549 13.5955 19.4635C13.9378 19.8611 14.1918 20.3359 14.3575 20.8881C14.5231 21.4402 14.6059 22.0311 14.6059 22.6605C14.6059 23.29 14.5231 23.8753 14.3575 24.4164C14.1918 24.9575 13.9378 25.4323 13.5955 25.8409C13.2532 26.2385 12.8225 26.5532 12.3034 26.7851C11.7844 27.006 11.177 27.1164 10.4813 27.1164ZM10.4813 25.3274C11.0997 25.3274 11.5415 25.101 11.8065 24.6483C12.0826 24.1845 12.2206 23.5219 12.2206 22.6605C12.2206 21.7991 12.0826 21.1421 11.8065 20.6893C11.5415 20.2255 11.0997 19.9936 10.4813 19.9936C9.87395 19.9936 9.43223 20.2255 9.15615 20.6893C8.89111 21.1421 8.75859 21.7991 8.75859 22.6605C8.75859 23.5219 8.89111 24.1845 9.15615 24.6483C9.43223 25.101 9.87395 25.3274 10.4813 25.3274Z" fill="#64E9BF"/>
    <path d="M18.2846 23.1906C17.6662 23.0139 17.1803 22.7544 16.8269 22.412C16.4846 22.0587 16.3134 21.5341 16.3134 20.8384C16.3134 19.9991 16.6116 19.342 17.2079 18.8672C17.8153 18.3923 18.638 18.1549 19.676 18.1549C20.1067 18.1549 20.5319 18.1936 20.9515 18.2709C21.3712 18.3482 21.7963 18.4641 22.227 18.6187C22.2049 18.9058 22.1497 19.204 22.0613 19.5132C21.973 19.8224 21.8681 20.093 21.7466 20.3249C21.4816 20.2145 21.1889 20.1206 20.8687 20.0433C20.5484 19.9549 20.2116 19.9108 19.8582 19.9108C19.4828 19.9108 19.1901 19.9715 18.9803 20.093C18.7705 20.2034 18.6656 20.3856 18.6656 20.6396C18.6656 20.8826 18.7374 21.0537 18.8809 21.1531C19.0355 21.2525 19.2509 21.3464 19.5269 21.4347L20.4711 21.7163C20.7803 21.8047 21.0564 21.9151 21.2994 22.0476C21.5534 22.1691 21.7687 22.3237 21.9454 22.5114C22.1221 22.6992 22.2601 22.9311 22.3595 23.2071C22.4589 23.4832 22.5086 23.82 22.5086 24.2176C22.5086 24.6262 22.4202 25.0072 22.2436 25.3606C22.0779 25.7139 21.8294 26.0231 21.4981 26.2882C21.1779 26.5422 20.7859 26.7465 20.3221 26.9011C19.8582 27.0446 19.3337 27.1164 18.7484 27.1164C18.4834 27.1164 18.2404 27.1054 18.0196 27.0833C17.7987 27.0722 17.5834 27.0446 17.3735 27.0005C17.1748 26.9673 16.976 26.9232 16.7772 26.8679C16.5784 26.8127 16.3631 26.741 16.1312 26.6526C16.1533 26.3544 16.203 26.0563 16.2803 25.7581C16.3686 25.4489 16.479 25.1507 16.6116 24.8636C16.976 25.0072 17.3183 25.1176 17.6386 25.1949C17.9699 25.2612 18.3122 25.2943 18.6656 25.2943C18.8202 25.2943 18.9858 25.2833 19.1625 25.2612C19.3503 25.228 19.5214 25.1783 19.676 25.1121C19.8306 25.0348 19.9576 24.9409 20.057 24.8305C20.1675 24.709 20.2227 24.5544 20.2227 24.3667C20.2227 24.1016 20.1398 23.9139 19.9742 23.8035C19.8196 23.682 19.5987 23.5771 19.3116 23.4887L18.2846 23.1906Z" fill="#64E9BF"/>
    <path d="M24.3798 14.8088C24.7773 14.7426 25.1638 14.7095 25.5393 14.7095C25.9258 14.7095 26.3178 14.7426 26.7154 14.8088V19.1819C26.881 18.8838 27.1571 18.6408 27.5436 18.4531C27.9301 18.2543 28.3719 18.1549 28.8688 18.1549C29.3657 18.1549 29.824 18.2433 30.2437 18.4199C30.6743 18.5966 31.0443 18.8672 31.3535 19.2316C31.6627 19.585 31.9057 20.0322 32.0824 20.5734C32.259 21.1145 32.3474 21.755 32.3474 22.4949C32.3474 23.2127 32.237 23.8587 32.0161 24.4329C31.7952 24.9961 31.475 25.4765 31.0553 25.8741C30.6357 26.2716 30.1222 26.5808 29.5148 26.8017C28.9074 27.0115 28.2228 27.1164 27.4608 27.1164C27.2178 27.1164 26.9583 27.1054 26.6823 27.0833C26.4172 27.0612 26.1467 27.0281 25.8706 26.9839C25.5945 26.9508 25.3295 26.9066 25.0755 26.8514C24.8215 26.7851 24.5896 26.7133 24.3798 26.636V14.8088ZM26.7154 25.0624C26.8479 25.1066 26.9859 25.1342 27.1295 25.1452C27.2841 25.1563 27.4387 25.1618 27.5933 25.1618C28.3111 25.1618 28.8743 24.952 29.2829 24.5323C29.6915 24.1127 29.8958 23.4556 29.8958 22.5611C29.8958 21.766 29.7688 21.1642 29.5148 20.7556C29.2608 20.3359 28.8301 20.1261 28.2228 20.1261C27.781 20.1261 27.4166 20.2752 27.1295 20.5734C26.8534 20.8605 26.7154 21.3188 26.7154 21.9482V25.0624Z" fill="#64E9BF"/>
    <path d="M34.3823 15.0076C34.8129 14.9414 35.2381 14.9082 35.6577 14.9082C36.0884 14.9082 36.5191 14.9414 36.9498 15.0076L36.7841 23.1078C36.3976 23.174 36.0277 23.2071 35.6743 23.2071C35.2988 23.2071 34.9234 23.174 34.5479 23.1078L34.3823 15.0076ZM34.4485 26.9176C34.3823 26.509 34.3491 26.106 34.3491 25.7084C34.3491 25.3109 34.3823 24.9023 34.4485 24.4826C34.8571 24.4164 35.2602 24.3832 35.6577 24.3832C36.0553 24.3832 36.4639 24.4164 36.8835 24.4826C36.9498 24.9023 36.9829 25.3053 36.9829 25.6919C36.9829 26.1005 36.9498 26.509 36.8835 26.9176C36.4639 26.9839 36.0608 27.017 35.6743 27.017C35.2657 27.017 34.8571 26.9839 34.4485 26.9176Z" fill="#64E9BF"/>
    <path fill-rule="evenodd" clip-rule="evenodd" d="M22 44C34.1503 44 44 34.1503 44 22C44 9.84974 34.1503 0 22 0C9.84974 0 0 9.84974 0 22C0 34.1503 9.84974 44 22 44ZM22 41.4118C32.7208 41.4118 41.4118 32.7208 41.4118 22C41.4118 11.2792 32.7208 2.58824 22 2.58824C11.2792 2.58824 2.58824 11.2792 2.58824 22C2.58824 32.7208 11.2792 41.4118 22 41.4118Z" fill="#64E9BF"/>
</svg>
