<svg width="61" height="61" viewBox="0 0 61 61" fill="none" xmlns="http://www.w3.org/2000/svg">
<path d="M14.5309 37.5932C13.5664 37.5932 12.7244 37.4401 12.0048 37.1339C11.3006 36.8124 10.7111 36.3761 10.2365 35.8249C9.77723 35.2585 9.42511 34.6001 9.18015 33.85C8.9505 33.0998 8.83568 32.2884 8.83568 31.4157C8.83568 30.543 8.9505 29.724 9.18015 28.9585C9.42511 28.193 9.77723 27.5347 10.2365 26.9835C10.7111 26.4171 11.3006 25.9731 12.0048 25.6516C12.7244 25.3301 13.5664 25.1693 14.5309 25.1693C15.4954 25.1693 16.3375 25.3301 17.057 25.6516C17.7766 25.9731 18.3737 26.4171 18.8483 26.9835C19.3229 27.5347 19.675 28.193 19.9047 28.9585C20.1343 29.724 20.2491 30.543 20.2491 31.4157C20.2491 32.2884 20.1343 33.0998 19.9047 33.85C19.675 34.6001 19.3229 35.2585 18.8483 35.8249C18.3737 36.3761 17.7766 36.8124 17.057 37.1339C16.3375 37.4401 15.4954 37.5932 14.5309 37.5932ZM14.5309 35.113C15.3883 35.113 16.0007 34.7992 16.3681 34.1715C16.7508 33.5285 16.9422 32.6099 16.9422 31.4157C16.9422 30.2215 16.7508 29.3106 16.3681 28.6829C16.0007 28.0399 15.3883 27.7184 14.5309 27.7184C13.6889 27.7184 13.0765 28.0399 12.6937 28.6829C12.3263 29.3106 12.1426 30.2215 12.1426 31.4157C12.1426 32.6099 12.3263 33.5285 12.6937 34.1715C13.0765 34.7992 13.6889 35.113 14.5309 35.113Z" fill="#64E9BF"/>
<path d="M25.3491 32.1506C24.4917 31.9056 23.8181 31.5458 23.3282 31.0712C22.8536 30.5813 22.6163 29.8541 22.6163 28.8896C22.6163 27.726 23.0297 26.8151 23.8564 26.1568C24.6984 25.4985 25.839 25.1693 27.2781 25.1693C27.8752 25.1693 28.4646 25.2229 29.0464 25.3301C29.6282 25.4372 30.2176 25.598 30.8147 25.8123C30.7841 26.2104 30.7075 26.6237 30.5851 27.0524C30.4626 27.4811 30.3171 27.8562 30.1487 28.1777C29.7813 28.0246 29.3756 27.8945 28.9316 27.7873C28.4876 27.6648 28.0207 27.6036 27.5307 27.6036C27.0102 27.6036 26.6045 27.6878 26.3136 27.8562C26.0227 28.0093 25.8773 28.2619 25.8773 28.614C25.8773 28.9508 25.9768 29.1881 26.1758 29.3259C26.3902 29.4637 26.6887 29.5938 27.0714 29.7163L28.3804 30.1067C28.8091 30.2292 29.1919 30.3823 29.5287 30.566C29.8808 30.7344 30.1793 30.9488 30.4243 31.209C30.6693 31.4693 30.8606 31.7908 30.9984 32.1735C31.1362 32.5563 31.2051 33.0232 31.2051 33.5744C31.2051 34.1409 31.0826 34.669 30.8377 35.159C30.608 35.6489 30.2635 36.0775 29.8042 36.445C29.3603 36.7971 28.8168 37.0803 28.1738 37.2947C27.5307 37.4937 26.8035 37.5932 25.9921 37.5932C25.6247 37.5932 25.2879 37.5779 24.9817 37.5473C24.6755 37.532 24.3769 37.4937 24.086 37.4325C23.8105 37.3865 23.5349 37.3253 23.2593 37.2487C22.9837 37.1722 22.6852 37.0727 22.3637 36.9502C22.3943 36.5368 22.4632 36.1235 22.5704 35.7101C22.6928 35.2814 22.8459 34.8681 23.0297 34.47C23.5349 34.669 24.0095 34.8221 24.4535 34.9293C24.9128 35.0212 25.3874 35.0671 25.8773 35.0671C26.0916 35.0671 26.3213 35.0518 26.5662 35.0212C26.8265 34.9752 27.0638 34.9063 27.2781 34.8145C27.4925 34.7073 27.6685 34.5772 27.8063 34.4241C27.9594 34.2557 28.036 34.0413 28.036 33.7811C28.036 33.4136 27.9211 33.1534 27.6915 33.0003C27.4772 32.8319 27.171 32.6864 26.7729 32.5639L25.3491 32.1506Z" fill="#64E9BF"/>
<path d="M33.7992 20.5304C34.3504 20.4386 34.8862 20.3926 35.4067 20.3926C35.9426 20.3926 36.4861 20.4386 37.0372 20.5304V26.5931C37.2669 26.1798 37.6496 25.8429 38.1855 25.5827C38.7213 25.3071 39.3337 25.1693 40.0226 25.1693C40.7116 25.1693 41.3469 25.2918 41.9287 25.5367C42.5258 25.7817 43.0387 26.1568 43.4674 26.662C43.896 27.1519 44.2328 27.772 44.4778 28.5222C44.7228 29.2723 44.8452 30.1603 44.8452 31.1861C44.8452 32.1812 44.6921 33.0768 44.3859 33.8729C44.0797 34.6537 43.6358 35.3197 43.054 35.8709C42.4722 36.422 41.7603 36.8507 40.9183 37.1569C40.0762 37.4478 39.127 37.5932 38.0706 37.5932C37.7338 37.5932 37.3741 37.5779 36.9913 37.5473C36.6239 37.5167 36.2488 37.4707 35.866 37.4095C35.4833 37.3636 35.1159 37.3023 34.7637 37.2258C34.4116 37.1339 34.0901 37.0344 33.7992 36.9272V20.5304ZM37.0372 34.7456C37.221 34.8068 37.4123 34.8451 37.6114 34.8604C37.8257 34.8757 38.04 34.8834 38.2544 34.8834C39.2495 34.8834 40.0303 34.5925 40.5968 34.0107C41.1632 33.4289 41.4465 32.518 41.4465 31.2779C41.4465 30.1756 41.2704 29.3412 40.9183 28.7748C40.5661 28.193 39.9691 27.9021 39.127 27.9021C38.5146 27.9021 38.0094 28.1088 37.6114 28.5222C37.2286 28.9202 37.0372 29.5556 37.0372 30.4282V34.7456Z" fill="#64E9BF"/>
<path d="M47.6663 20.806C48.2634 20.7142 48.8528 20.6682 49.4346 20.6682C50.0317 20.6682 50.6288 20.7142 51.2258 20.806L50.9962 32.0358C50.4603 32.1276 49.9475 32.1735 49.4576 32.1735C48.937 32.1735 48.4165 32.1276 47.896 32.0358L47.6663 20.806ZM47.7582 37.3176C47.6663 36.7512 47.6204 36.1924 47.6204 35.6412C47.6204 35.0901 47.6663 34.5236 47.7582 33.9418C48.3246 33.85 48.8834 33.804 49.4346 33.804C49.9857 33.804 50.5522 33.85 51.134 33.9418C51.2258 34.5236 51.2718 35.0824 51.2718 35.6183C51.2718 36.1847 51.2258 36.7512 51.134 37.3176C50.5522 37.4095 49.9934 37.4554 49.4576 37.4554C48.8911 37.4554 48.3246 37.4095 47.7582 37.3176Z" fill="#64E9BF"/>
<path fill-rule="evenodd" clip-rule="evenodd" d="M30.5 61C47.3447 61 61 47.3447 61 30.5C61 13.6553 47.3447 0 30.5 0C13.6553 0 0 13.6553 0 30.5C0 47.3447 13.6553 61 30.5 61ZM30.5 57.4118C45.363 57.4118 57.4118 45.363 57.4118 30.5C57.4118 15.637 45.363 3.58824 30.5 3.58824C15.637 3.58824 3.58824 15.637 3.58824 30.5C3.58824 45.363 15.637 57.4118 30.5 57.4118Z" fill="#64E9BF"/>
</svg>
