<svg width="41" height="42" viewBox="0 0 41 42" fill="none" xmlns="http://www.w3.org/2000/svg">
<path d="M9.76669 25.7676C9.11841 25.7676 8.55245 25.6647 8.06881 25.4589C7.59546 25.2428 7.19928 24.9495 6.88029 24.5791C6.57158 24.1983 6.33491 23.7558 6.17026 23.2516C6.01591 22.7474 5.93874 22.202 5.93874 21.6155C5.93874 21.0289 6.01591 20.4784 6.17026 19.9639C6.33491 19.4494 6.57158 19.0069 6.88029 18.6365C7.19928 18.2557 7.59546 17.9573 8.06881 17.7412C8.55245 17.5251 9.11841 17.4171 9.76669 17.4171C10.415 17.4171 10.9809 17.5251 11.4646 17.7412C11.9482 17.9573 12.3495 18.2557 12.6685 18.6365C12.9875 19.0069 13.2242 19.4494 13.3785 19.9639C13.5329 20.4784 13.6101 21.0289 13.6101 21.6155C13.6101 22.202 13.5329 22.7474 13.3785 23.2516C13.2242 23.7558 12.9875 24.1983 12.6685 24.5791C12.3495 24.9495 11.9482 25.2428 11.4646 25.4589C10.9809 25.6647 10.415 25.7676 9.76669 25.7676ZM9.76669 24.1006C10.3429 24.1006 10.7545 23.8896 11.0015 23.4677C11.2588 23.0355 11.3874 22.4181 11.3874 21.6155C11.3874 20.8128 11.2588 20.2006 11.0015 19.7787C10.7545 19.3465 10.3429 19.1304 9.76669 19.1304C9.20073 19.1304 8.78912 19.3465 8.53186 19.7787C8.2849 20.2006 8.16142 20.8128 8.16142 21.6155C8.16142 22.4181 8.2849 23.0355 8.53186 23.4677C8.78912 23.8896 9.20073 24.1006 9.76669 24.1006Z" fill="white"/>
<path d="M17.0379 22.1094C16.4617 21.9448 16.0089 21.7029 15.6796 21.3839C15.3606 21.0547 15.2011 20.5659 15.2011 19.9176C15.2011 19.1355 15.479 18.5233 16.0346 18.0808C16.6006 17.6383 17.3672 17.4171 18.3345 17.4171C18.7358 17.4171 19.132 17.4531 19.523 17.5251C19.914 17.5972 20.3102 17.7052 20.7115 17.8493C20.6909 18.1168 20.6395 18.3946 20.5572 18.6828C20.4748 18.9709 20.3771 19.223 20.2639 19.4391C20.0169 19.3362 19.7442 19.2487 19.4458 19.1767C19.1474 19.0944 18.8336 19.0532 18.5043 19.0532C18.1544 19.0532 17.8817 19.1098 17.6862 19.223C17.4907 19.3259 17.3929 19.4957 17.3929 19.7324C17.3929 19.9588 17.4598 20.1183 17.5936 20.2109C17.7376 20.3035 17.9383 20.3909 18.1956 20.4733L19.0754 20.7357C19.3635 20.818 19.6208 20.9209 19.8471 21.0444C20.0838 21.1576 20.2845 21.3016 20.4491 21.4766C20.6138 21.6515 20.7424 21.8676 20.835 22.1248C20.9276 22.3821 20.9739 22.6959 20.9739 23.0664C20.9739 23.4471 20.8916 23.8021 20.727 24.1314C20.5726 24.4607 20.3411 24.7488 20.0324 24.9958C19.7339 25.2325 19.3686 25.4228 18.9365 25.5669C18.5043 25.7007 18.0155 25.7676 17.4701 25.7676C17.2231 25.7676 16.9968 25.7573 16.791 25.7367C16.5851 25.7264 16.3845 25.7007 16.189 25.6595C16.0038 25.6287 15.8185 25.5875 15.6333 25.536C15.4481 25.4846 15.2474 25.4177 15.0313 25.3354C15.0519 25.0575 15.0982 24.7797 15.1702 24.5019C15.2526 24.2138 15.3555 23.9359 15.479 23.6684C15.8185 23.8021 16.1375 23.905 16.4359 23.9771C16.7446 24.0388 17.0636 24.0697 17.3929 24.0697C17.537 24.0697 17.6913 24.0594 17.856 24.0388C18.0309 24.0079 18.1904 23.9616 18.3345 23.8999C18.4785 23.8279 18.5969 23.7404 18.6895 23.6375C18.7924 23.5243 18.8438 23.3802 18.8438 23.2053C18.8438 22.9583 18.7667 22.7834 18.6123 22.6805C18.4683 22.5673 18.2625 22.4696 17.9949 22.3872L17.0379 22.1094Z" fill="white"/>
<path d="M22.7175 14.2991C23.0879 14.2374 23.4481 14.2065 23.798 14.2065C24.1581 14.2065 24.5234 14.2374 24.8939 14.2991V18.3741C25.0482 18.0962 25.3055 17.8698 25.6656 17.6949C26.0258 17.5097 26.4374 17.4171 26.9005 17.4171C27.3635 17.4171 27.7906 17.4994 28.1816 17.664C28.5829 17.8287 28.9276 18.0808 29.2158 18.4204C29.5039 18.7497 29.7303 19.1664 29.8949 19.6706C30.0596 20.1748 30.1419 20.7717 30.1419 21.4611C30.1419 22.13 30.039 22.732 29.8332 23.2671C29.6274 23.7919 29.329 24.2395 28.9379 24.6099C28.5469 24.9804 28.0684 25.2685 27.5024 25.4743C26.9365 25.6698 26.2985 25.7676 25.5885 25.7676C25.3621 25.7676 25.1203 25.7573 24.863 25.7367C24.616 25.7161 24.3639 25.6852 24.1067 25.6441C23.8494 25.6132 23.6025 25.5721 23.3658 25.5206C23.1291 25.4589 22.913 25.392 22.7175 25.3199V14.2991ZM24.8939 23.8536C25.0174 23.8948 25.146 23.9205 25.2798 23.9308C25.4238 23.9411 25.5679 23.9462 25.712 23.9462C26.3808 23.9462 26.9056 23.7507 27.2864 23.3597C27.6671 22.9686 27.8575 22.3564 27.8575 21.5229C27.8575 20.782 27.7391 20.2212 27.5024 19.8404C27.2658 19.4494 26.8645 19.2539 26.2985 19.2539C25.8869 19.2539 25.5473 19.3928 25.2798 19.6706C25.0225 19.9382 24.8939 20.3652 24.8939 20.9518V23.8536Z" fill="white"/>
<path d="M32.038 14.4844C32.4393 14.4226 32.8355 14.3918 33.2265 14.3918C33.6278 14.3918 34.0292 14.4226 34.4305 14.4844L34.2761 22.0322C33.916 22.094 33.5712 22.1248 33.242 22.1248C32.8921 22.1248 32.5422 22.094 32.1924 22.0322L32.038 14.4844ZM32.0998 25.5823C32.038 25.2016 32.0071 24.826 32.0071 24.4556C32.0071 24.0851 32.038 23.7044 32.0998 23.3134C32.4805 23.2516 32.8561 23.2207 33.2265 23.2207C33.597 23.2207 33.9777 23.2516 34.3687 23.3134C34.4305 23.7044 34.4613 24.08 34.4613 24.4401C34.4613 24.8209 34.4305 25.2016 34.3687 25.5823C33.9777 25.6441 33.6021 25.675 33.242 25.675C32.8612 25.675 32.4805 25.6441 32.0998 25.5823Z" fill="white"/>
<path fill-rule="evenodd" clip-rule="evenodd" d="M20.5 41.5C31.8218 41.5 41 32.3218 41 21C41 9.67816 31.8218 0.5 20.5 0.5C9.17816 0.5 0 9.67816 0 21C0 32.3218 9.17816 41.5 20.5 41.5ZM20.5 39.0882C30.4899 39.0882 38.5882 30.9899 38.5882 21C38.5882 11.0101 30.4899 2.91176 20.5 2.91176C10.5101 2.91176 2.41176 11.0101 2.41176 21C2.41176 30.9899 10.5101 39.0882 20.5 39.0882Z" fill="white"/>
</svg>
