<svg width="34" height="34" viewBox="0 0 34 34" fill="none" xmlns="http://www.w3.org/2000/svg">    <path d="M8.09921 20.9536C7.56161 20.9536 7.09227 20.8683 6.6912 20.6976C6.29867 20.5184 5.97014 20.2752 5.7056 19.968C5.4496 19.6523 5.25334 19.2853 5.1168 18.8672C4.9888 18.4491 4.9248 17.9968 4.9248 17.5104C4.9248 17.024 4.9888 16.5675 5.1168 16.1408C5.25334 15.7141 5.4496 15.3472 5.7056 15.04C5.97014 14.7243 6.29867 14.4768 6.6912 14.2976C7.09227 14.1184 7.56161 14.0288 8.09921 14.0288C8.63681 14.0288 9.10614 14.1184 9.50721 14.2976C9.90827 14.4768 10.2411 14.7243 10.5056 15.04C10.7701 15.3472 10.9664 15.7141 11.0944 16.1408C11.2224 16.5675 11.2864 17.024 11.2864 17.5104C11.2864 17.9968 11.2224 18.4491 11.0944 18.8672C10.9664 19.2853 10.7701 19.6523 10.5056 19.968C10.2411 20.2752 9.90827 20.5184 9.50721 20.6976C9.10614 20.8683 8.63681 20.9536 8.09921 20.9536ZM8.09921 19.5712C8.57707 19.5712 8.91841 19.3963 9.1232 19.0464C9.33654 18.688 9.44321 18.176 9.44321 17.5104C9.44321 16.8448 9.33654 16.3371 9.1232 15.9872C8.91841 15.6288 8.57707 15.4496 8.09921 15.4496C7.62987 15.4496 7.28854 15.6288 7.0752 15.9872C6.8704 16.3371 6.768 16.8448 6.768 17.5104C6.768 18.176 6.8704 18.688 7.0752 19.0464C7.28854 19.3963 7.62987 19.5712 8.09921 19.5712Z" fill="white"/>    <path d="M14.129 17.92C13.6511 17.7835 13.2757 17.5829 13.0026 17.3184C12.7381 17.0453 12.6058 16.64 12.6058 16.1024C12.6058 15.4539 12.8362 14.9461 13.297 14.5792C13.7663 14.2123 14.4021 14.0288 15.2042 14.0288C15.537 14.0288 15.8655 14.0587 16.1898 14.1184C16.5141 14.1781 16.8426 14.2677 17.1754 14.3872C17.1583 14.6091 17.1157 14.8395 17.0474 15.0784C16.9791 15.3173 16.8981 15.5264 16.8042 15.7056C16.5994 15.6203 16.3733 15.5477 16.1258 15.488C15.8783 15.4197 15.6181 15.3856 15.345 15.3856C15.0549 15.3856 14.8287 15.4325 14.6666 15.5264C14.5045 15.6117 14.4234 15.7525 14.4234 15.9488C14.4234 16.1365 14.4789 16.2688 14.5898 16.3456C14.7093 16.4224 14.8757 16.4949 15.089 16.5632L15.8186 16.7808C16.0575 16.8491 16.2709 16.9344 16.4586 17.0368C16.6549 17.1307 16.8213 17.2501 16.9578 17.3952C17.0943 17.5403 17.201 17.7195 17.2778 17.9328C17.3546 18.1461 17.393 18.4064 17.393 18.7136C17.393 19.0293 17.3247 19.3237 17.1882 19.5968C17.0602 19.8699 16.8682 20.1088 16.6122 20.3136C16.3647 20.5099 16.0618 20.6677 15.7034 20.7872C15.345 20.8981 14.9397 20.9536 14.4874 20.9536C14.2826 20.9536 14.0949 20.9451 13.9242 20.928C13.7535 20.9195 13.5871 20.8981 13.425 20.864C13.2714 20.8384 13.1178 20.8043 12.9642 20.7616C12.8106 20.7189 12.6442 20.6635 12.465 20.5952C12.4821 20.3648 12.5205 20.1344 12.5802 19.904C12.6485 19.6651 12.7338 19.4347 12.8362 19.2128C13.1178 19.3237 13.3823 19.4091 13.6298 19.4688C13.8858 19.52 14.1503 19.5456 14.4234 19.5456C14.5429 19.5456 14.6709 19.5371 14.8074 19.52C14.9525 19.4944 15.0847 19.456 15.2042 19.4048C15.3237 19.3451 15.4218 19.2725 15.4986 19.1872C15.5839 19.0933 15.6266 18.9739 15.6266 18.8288C15.6266 18.624 15.5626 18.4789 15.4346 18.3936C15.3151 18.2997 15.1445 18.2187 14.9226 18.1504L14.129 17.92Z" fill="white"/>    <path d="M18.8389 11.4432C19.1461 11.392 19.4448 11.3664 19.7349 11.3664C20.0336 11.3664 20.3365 11.392 20.6437 11.4432V14.8224C20.7717 14.592 20.985 14.4043 21.2837 14.2592C21.5824 14.1056 21.9237 14.0288 22.3077 14.0288C22.6917 14.0288 23.0458 14.0971 23.3701 14.2336C23.7029 14.3701 23.9888 14.5792 24.2277 14.8608C24.4666 15.1339 24.6544 15.4795 24.7909 15.8976C24.9274 16.3157 24.9957 16.8107 24.9957 17.3824C24.9957 17.9371 24.9104 18.4363 24.7397 18.88C24.569 19.3152 24.3216 19.6864 23.9973 19.9936C23.673 20.3008 23.2762 20.5397 22.8069 20.7104C22.3376 20.8725 21.8085 20.9536 21.2197 20.9536C21.032 20.9536 20.8314 20.9451 20.6181 20.928C20.4133 20.9109 20.2042 20.8853 19.9909 20.8512C19.7776 20.8256 19.5728 20.7915 19.3765 20.7488C19.1802 20.6976 19.001 20.6421 18.8389 20.5824V11.4432ZM20.6437 19.3664C20.7461 19.4005 20.8528 19.4219 20.9637 19.4304C21.0832 19.4389 21.2026 19.4432 21.3221 19.4432C21.8768 19.4432 22.312 19.2811 22.6277 18.9568C22.9434 18.6325 23.1013 18.1248 23.1013 17.4336C23.1013 16.8192 23.0032 16.3541 22.8069 16.0384C22.6106 15.7141 22.2778 15.552 21.8085 15.552C21.4672 15.552 21.1856 15.6672 20.9637 15.8976C20.7504 16.1195 20.6437 16.4736 20.6437 16.96V19.3664Z" fill="white"/>    <path d="M26.5681 11.5968C26.9009 11.5456 27.2294 11.52 27.5537 11.52C27.8865 11.52 28.2193 11.5456 28.5521 11.5968L28.4241 17.856C28.1254 17.9072 27.8396 17.9328 27.5665 17.9328C27.2764 17.9328 26.9862 17.9072 26.6961 17.856L26.5681 11.5968ZM26.6193 20.8C26.5681 20.4843 26.5425 20.1728 26.5425 19.8656C26.5425 19.5584 26.5681 19.2427 26.6193 18.9184C26.935 18.8672 27.2465 18.8416 27.5537 18.8416C27.8609 18.8416 28.1766 18.8672 28.5009 18.9184C28.5521 19.2427 28.5777 19.5541 28.5777 19.8528C28.5777 20.1685 28.5521 20.4843 28.5009 20.8C28.1766 20.8512 27.8652 20.8768 27.5665 20.8768C27.2508 20.8768 26.935 20.8512 26.6193 20.8Z" fill="white"/>    <path fill-rule="evenodd" clip-rule="evenodd" d="M17 34C26.3888 34 34 26.3888 34 17C34 7.61116 26.3888 0 17 0C7.61116 0 0 7.61116 0 17C0 26.3888 7.61116 34 17 34ZM17 32C25.2843 32 32 25.2843 32 17C32 8.71573 25.2843 2 17 2C8.71573 2 2 8.71573 2 17C2 25.2843 8.71573 32 17 32Z" fill="white"/></svg>