<svg width="41" height="41" viewBox="0 0 41 41" fill="none" xmlns="http://www.w3.org/2000/svg">
<path d="M9.76669 25.2676C9.11841 25.2676 8.55245 25.1647 8.06881 24.9589C7.59546 24.7428 7.19928 24.4495 6.88029 24.0791C6.57158 23.6983 6.33491 23.2558 6.17026 22.7516C6.01591 22.2474 5.93874 21.702 5.93874 21.1155C5.93874 20.5289 6.01591 19.9784 6.17026 19.4639C6.33491 18.9494 6.57158 18.5069 6.88029 18.1365C7.19928 17.7557 7.59546 17.4573 8.06881 17.2412C8.55245 17.0251 9.11841 16.9171 9.76669 16.9171C10.415 16.9171 10.9809 17.0251 11.4646 17.2412C11.9482 17.4573 12.3495 17.7557 12.6685 18.1365C12.9875 18.5069 13.2242 18.9494 13.3785 19.4639C13.5329 19.9784 13.6101 20.5289 13.6101 21.1155C13.6101 21.702 13.5329 22.2474 13.3785 22.7516C13.2242 23.2558 12.9875 23.6983 12.6685 24.0791C12.3495 24.4495 11.9482 24.7428 11.4646 24.9589C10.9809 25.1647 10.415 25.2676 9.76669 25.2676ZM9.76669 23.6006C10.3429 23.6006 10.7545 23.3896 11.0015 22.9677C11.2588 22.5355 11.3874 21.9181 11.3874 21.1155C11.3874 20.3128 11.2588 19.7006 11.0015 19.2787C10.7545 18.8465 10.3429 18.6304 9.76669 18.6304C9.20073 18.6304 8.78912 18.8465 8.53186 19.2787C8.2849 19.7006 8.16142 20.3128 8.16142 21.1155C8.16142 21.9181 8.2849 22.5355 8.53186 22.9677C8.78912 23.3896 9.20073 23.6006 9.76669 23.6006Z" fill="#90A9A3"/>
<path d="M17.0379 21.6094C16.4617 21.4448 16.0089 21.2029 15.6796 20.8839C15.3606 20.5547 15.2011 20.0659 15.2011 19.4176C15.2011 18.6355 15.479 18.0233 16.0346 17.5808C16.6006 17.1383 17.3672 16.9171 18.3345 16.9171C18.7358 16.9171 19.132 16.9531 19.523 17.0251C19.914 17.0972 20.3102 17.2052 20.7115 17.3493C20.6909 17.6168 20.6395 17.8946 20.5572 18.1828C20.4748 18.4709 20.3771 18.723 20.2639 18.9391C20.0169 18.8362 19.7442 18.7487 19.4458 18.6767C19.1474 18.5944 18.8336 18.5532 18.5043 18.5532C18.1544 18.5532 17.8817 18.6098 17.6862 18.723C17.4907 18.8259 17.3929 18.9957 17.3929 19.2324C17.3929 19.4588 17.4598 19.6183 17.5936 19.7109C17.7377 19.8035 17.9383 19.8909 18.1956 19.9733L19.0754 20.2357C19.3635 20.318 19.6208 20.4209 19.8471 20.5444C20.0838 20.6576 20.2845 20.8016 20.4491 20.9766C20.6138 21.1515 20.7424 21.3676 20.835 21.6248C20.9276 21.8821 20.9739 22.1959 20.9739 22.5664C20.9739 22.9471 20.8916 23.3021 20.727 23.6314C20.5726 23.9607 20.3411 24.2488 20.0324 24.4958C19.7339 24.7325 19.3686 24.9228 18.9365 25.0669C18.5043 25.2007 18.0155 25.2676 17.4701 25.2676C17.2231 25.2676 16.9968 25.2573 16.791 25.2367C16.5851 25.2264 16.3845 25.2007 16.189 25.1595C16.0038 25.1287 15.8185 25.0875 15.6333 25.036C15.4481 24.9846 15.2474 24.9177 15.0313 24.8354C15.0519 24.5575 15.0982 24.2797 15.1702 24.0019C15.2526 23.7138 15.3555 23.4359 15.479 23.1684C15.8185 23.3021 16.1375 23.405 16.4359 23.4771C16.7446 23.5388 17.0636 23.5697 17.3929 23.5697C17.537 23.5697 17.6913 23.5594 17.856 23.5388C18.0309 23.5079 18.1904 23.4616 18.3345 23.3999C18.4785 23.3279 18.5969 23.2404 18.6895 23.1375C18.7924 23.0243 18.8438 22.8802 18.8438 22.7053C18.8438 22.4583 18.7667 22.2834 18.6123 22.1805C18.4683 22.0673 18.2625 21.9696 17.9949 21.8872L17.0379 21.6094Z" fill="#90A9A3"/>
<path d="M22.7175 13.7991C23.0879 13.7374 23.4481 13.7065 23.798 13.7065C24.1581 13.7065 24.5234 13.7374 24.8939 13.7991V17.8741C25.0482 17.5962 25.3055 17.3698 25.6656 17.1949C26.0258 17.0097 26.4374 16.9171 26.9005 16.9171C27.3635 16.9171 27.7906 16.9994 28.1816 17.164C28.5829 17.3287 28.9276 17.5808 29.2158 17.9204C29.5039 18.2497 29.7303 18.6664 29.8949 19.1706C30.0596 19.6748 30.1419 20.2717 30.1419 20.9611C30.1419 21.63 30.039 22.232 29.8332 22.7671C29.6274 23.2919 29.329 23.7395 28.9379 24.1099C28.5469 24.4804 28.0684 24.7685 27.5024 24.9743C26.9365 25.1698 26.2985 25.2676 25.5885 25.2676C25.3621 25.2676 25.1203 25.2573 24.863 25.2367C24.616 25.2161 24.3639 25.1852 24.1067 25.1441C23.8494 25.1132 23.6025 25.0721 23.3658 25.0206C23.1291 24.9589 22.913 24.892 22.7175 24.8199V13.7991ZM24.8939 23.3536C25.0174 23.3948 25.146 23.4205 25.2798 23.4308C25.4238 23.4411 25.5679 23.4462 25.712 23.4462C26.3808 23.4462 26.9056 23.2507 27.2864 22.8597C27.6671 22.4686 27.8575 21.8564 27.8575 21.0229C27.8575 20.282 27.7391 19.7212 27.5024 19.3404C27.2658 18.9494 26.8645 18.7539 26.2985 18.7539C25.8869 18.7539 25.5473 18.8928 25.2798 19.1706C25.0225 19.4382 24.8939 19.8652 24.8939 20.4518V23.3536Z" fill="#90A9A3"/>
<path d="M32.038 13.9844C32.4393 13.9226 32.8355 13.8918 33.2265 13.8918C33.6278 13.8918 34.0292 13.9226 34.4305 13.9844L34.2761 21.5322C33.916 21.594 33.5712 21.6248 33.242 21.6248C32.8921 21.6248 32.5422 21.594 32.1924 21.5322L32.038 13.9844ZM32.0998 25.0823C32.038 24.7016 32.0071 24.326 32.0071 23.9556C32.0071 23.5851 32.038 23.2044 32.0998 22.8134C32.4805 22.7516 32.8561 22.7207 33.2265 22.7207C33.597 22.7207 33.9777 22.7516 34.3687 22.8134C34.4305 23.2044 34.4613 23.58 34.4613 23.9401C34.4613 24.3209 34.4305 24.7016 34.3687 25.0823C33.9777 25.1441 33.6021 25.175 33.242 25.175C32.8612 25.175 32.4805 25.1441 32.0998 25.0823Z" fill="#90A9A3"/>
<path fill-rule="evenodd" clip-rule="evenodd" d="M20.5 41C31.8218 41 41 31.8218 41 20.5C41 9.17816 31.8218 0 20.5 0C9.17816 0 0 9.17816 0 20.5C0 31.8218 9.17816 41 20.5 41ZM20.5 38.5882C30.4899 38.5882 38.5882 30.4899 38.5882 20.5C38.5882 10.5101 30.4899 2.41176 20.5 2.41176C10.5101 2.41176 2.41176 10.5101 2.41176 20.5C2.41176 30.4899 10.5101 38.5882 20.5 38.5882Z" fill="#90A9A3"/>
</svg>
