<svg width="55" height="55" viewBox="0 0 55 55" fill="none" xmlns="http://www.w3.org/2000/svg">
<path d="M13.1017 33.8955C12.232 33.8955 11.4728 33.7575 10.824 33.4814C10.189 33.1915 9.65758 32.7981 9.22965 32.3012C8.81554 31.7904 8.49805 31.1969 8.27718 30.5205C8.07013 29.8441 7.9666 29.1125 7.9666 28.3256C7.9666 27.5388 8.07013 26.8003 8.27718 26.1101C8.49805 25.4199 8.81554 24.8263 9.22965 24.3294C9.65758 23.8187 10.189 23.4183 10.824 23.1285C11.4728 22.8386 12.232 22.6936 13.1017 22.6936C13.9713 22.6936 14.7305 22.8386 15.3793 23.1285C16.0281 23.4183 16.5664 23.8187 16.9944 24.3294C17.4223 24.8263 17.7398 25.4199 17.9468 26.1101C18.1539 26.8003 18.2574 27.5388 18.2574 28.3256C18.2574 29.1125 18.1539 29.8441 17.9468 30.5205C17.7398 31.1969 17.4223 31.7904 16.9944 32.3012C16.5664 32.7981 16.0281 33.1915 15.3793 33.4814C14.7305 33.7575 13.9713 33.8955 13.1017 33.8955ZM13.1017 31.6593C13.8747 31.6593 14.4268 31.3763 14.7581 30.8103C15.1032 30.2306 15.2758 29.4023 15.2758 28.3256C15.2758 27.2489 15.1032 26.4276 14.7581 25.8616C14.4268 25.2819 13.8747 24.992 13.1017 24.992C12.3424 24.992 11.7903 25.2819 11.4452 25.8616C11.1139 26.4276 10.9482 27.2489 10.9482 28.3256C10.9482 29.4023 11.1139 30.2306 11.4452 30.8103C11.7903 31.3763 12.3424 31.6593 13.1017 31.6593Z" fill="#C8DDD7"/>
<path d="M22.8557 28.9882C22.0827 28.7674 21.4754 28.443 21.0336 28.0151C20.6057 27.5733 20.3917 26.9176 20.3917 26.048C20.3917 24.9989 20.7644 24.1776 21.5099 23.584C22.2691 22.9904 23.2975 22.6936 24.595 22.6936C25.1334 22.6936 25.6648 22.742 26.1894 22.8386C26.7139 22.9352 27.2454 23.0801 27.7837 23.2734C27.7561 23.6323 27.6871 24.005 27.5767 24.3915C27.4663 24.778 27.3351 25.1162 27.1833 25.4061C26.852 25.2681 26.4862 25.1507 26.0859 25.0541C25.6855 24.9437 25.2645 24.8885 24.8228 24.8885C24.3535 24.8885 23.9877 24.9644 23.7254 25.1162C23.4631 25.2543 23.332 25.482 23.332 25.7995C23.332 26.1032 23.4217 26.3172 23.6012 26.4414C23.7944 26.5656 24.0636 26.683 24.4087 26.7934L25.5889 27.1454C25.9754 27.2558 26.3205 27.3939 26.6242 27.5595C26.9417 27.7114 27.2109 27.9046 27.4317 28.1393C27.6526 28.374 27.8252 28.6638 27.9494 29.0089C28.0736 29.354 28.1357 29.7751 28.1357 30.272C28.1357 30.7827 28.0253 31.259 27.8045 31.7007C27.5974 32.1424 27.2868 32.5289 26.8727 32.8602C26.4724 33.1777 25.9823 33.4331 25.4026 33.6263C24.8228 33.8058 24.1671 33.8955 23.4355 33.8955C23.1042 33.8955 22.8005 33.8817 22.5245 33.8541C22.2484 33.8403 21.9792 33.8058 21.7169 33.7506C21.4684 33.7092 21.22 33.654 20.9715 33.5849C20.723 33.5159 20.4539 33.4262 20.164 33.3158C20.1916 32.9431 20.2537 32.5703 20.3503 32.1976C20.4608 31.8111 20.5988 31.4384 20.7644 31.0795C21.22 31.259 21.6479 31.397 22.0482 31.4936C22.4623 31.5765 22.8903 31.6179 23.332 31.6179C23.5252 31.6179 23.7323 31.6041 23.9532 31.5765C24.1878 31.5351 24.4018 31.4729 24.595 31.3901C24.7883 31.2935 24.947 31.1761 25.0713 31.0381C25.2093 30.8863 25.2783 30.693 25.2783 30.4583C25.2783 30.1271 25.1748 29.8924 24.9677 29.7543C24.7745 29.6025 24.4984 29.4714 24.1395 29.3609L22.8557 28.9882Z" fill="#C8DDD7"/>
<path d="M30.4747 18.5111C30.9716 18.4282 31.4548 18.3868 31.9241 18.3868C32.4072 18.3868 32.8973 18.4282 33.3942 18.5111V23.9774C33.6013 23.6047 33.9464 23.301 34.4295 23.0663C34.9127 22.8179 35.4648 22.6936 36.086 22.6936C36.7072 22.6936 37.28 22.8041 37.8046 23.0249C38.3429 23.2458 38.8054 23.584 39.1919 24.0395C39.5784 24.4812 39.8821 25.0403 40.1029 25.7167C40.3238 26.3931 40.4342 27.1937 40.4342 28.1186C40.4342 29.0158 40.2962 29.8234 40.0201 30.5412C39.744 31.2452 39.3437 31.8456 38.8192 32.3426C38.2946 32.8395 37.6527 33.226 36.8935 33.5021C36.1343 33.7644 35.2785 33.8955 34.326 33.8955C34.0223 33.8955 33.6979 33.8817 33.3528 33.8541C33.0215 33.8265 32.6833 33.7851 32.3382 33.7299C31.9931 33.6885 31.6618 33.6332 31.3443 33.5642C31.0269 33.4814 30.737 33.3917 30.4747 33.2951V18.5111ZM33.3942 31.328C33.5599 31.3832 33.7324 31.4177 33.9119 31.4315C34.1051 31.4453 34.2984 31.4522 34.4916 31.4522C35.3889 31.4522 36.0929 31.19 36.6036 30.6654C37.1144 30.1409 37.3698 29.3195 37.3698 28.2014C37.3698 27.2075 37.211 26.4552 36.8935 25.9445C36.576 25.4199 36.0377 25.1576 35.2785 25.1576C34.7263 25.1576 34.2708 25.344 33.9119 25.7167C33.5668 26.0756 33.3942 26.6485 33.3942 27.4353V31.328Z" fill="#C8DDD7"/>
<path d="M42.9778 18.7595C43.5162 18.6767 44.0476 18.6353 44.5722 18.6353C45.1105 18.6353 45.6489 18.6767 46.1872 18.7595L45.9802 28.8847C45.497 28.9675 45.0346 29.0089 44.5929 29.0089C44.1235 29.0089 43.6542 28.9675 43.1849 28.8847L42.9778 18.7595ZM43.0606 33.6471C42.9778 33.1363 42.9364 32.6325 42.9364 32.1355C42.9364 31.6386 42.9778 31.1278 43.0606 30.6033C43.5714 30.5205 44.0752 30.4791 44.5722 30.4791C45.0691 30.4791 45.5799 30.5205 46.1044 30.6033C46.1872 31.1278 46.2286 31.6317 46.2286 32.1148C46.2286 32.6256 46.1872 33.1363 46.1044 33.6471C45.5799 33.7299 45.076 33.7713 44.5929 33.7713C44.0821 33.7713 43.5714 33.7299 43.0606 33.6471Z" fill="#C8DDD7"/>
<path fill-rule="evenodd" clip-rule="evenodd" d="M27.5 55C42.6878 55 55 42.6878 55 27.5C55 12.3122 42.6878 0 27.5 0C12.3122 0 0 12.3122 0 27.5C0 42.6878 12.3122 55 27.5 55ZM27.5 51.7647C40.901 51.7647 51.7647 40.901 51.7647 27.5C51.7647 14.099 40.901 3.23529 27.5 3.23529C14.099 3.23529 3.23529 14.099 3.23529 27.5C3.23529 40.901 14.099 51.7647 27.5 51.7647Z" fill="#C8DDD7"/>
</svg>
