<svg width="45" height="45" viewBox="0 0 45 45" fill="none" xmlns="http://www.w3.org/2000/svg">
<path d="M36.0577 23.2414C36.4358 23.2393 36.8131 23.2055 37.1856 23.1404L37.3558 14.9106C36.9206 14.8426 36.4808 14.8088 36.0404 14.8096C35.6067 14.8094 35.1736 14.8431 34.7452 14.9106L34.9154 23.1404C35.2925 23.207 35.6747 23.2407 36.0577 23.2414Z" fill="#C8DDD7"/>
<path d="M37.2894 24.5366C36.8773 24.4708 36.4606 24.437 36.0433 24.4356C35.6326 24.4366 35.2226 24.4704 34.8173 24.5366C34.7502 24.9486 34.7165 25.3653 34.7163 25.7827C34.716 26.1944 34.7498 26.6054 34.8173 27.0116C35.2273 27.079 35.6421 27.1138 36.0577 27.1154C36.4693 27.1134 36.8801 27.0796 37.2865 27.0144C37.3545 26.6026 37.3883 26.1857 37.3875 25.7683C37.388 25.3557 37.3552 24.9438 37.2894 24.5366Z" fill="#C8DDD7"/>
<path d="M30.1702 18.3087V25.125C29.8292 25.2121 29.4778 25.2519 29.126 25.2433C28.8583 25.2492 28.5915 25.2122 28.3356 25.1337C28.1121 25.0679 27.912 24.9398 27.7586 24.7644C27.5905 24.5597 27.4746 24.3172 27.4212 24.0577C27.3407 23.6844 27.3039 23.303 27.3115 22.9212V18.3058C26.5211 18.1712 25.7135 18.1712 24.9231 18.3058V22.9846C24.8936 23.7466 25.0131 24.507 25.275 25.2231C25.4691 25.7291 25.7983 26.1721 26.2269 26.5039C26.6375 26.8028 27.1129 27.0005 27.6144 27.0808C28.1597 27.1721 28.7116 27.2174 29.2644 27.2164C29.8831 27.2175 30.5004 27.1586 31.1077 27.0404C31.589 26.9498 32.064 26.8284 32.5298 26.6769V18.3116C32.1352 18.2455 31.7357 18.2117 31.3356 18.2106C30.9451 18.2119 30.5554 18.2447 30.1702 18.3087Z" fill="#C8DDD7"/>
<path d="M22.748 22.5346C22.5618 22.3378 22.342 22.1757 22.099 22.0558C21.828 21.9182 21.5439 21.808 21.2509 21.7269L20.2903 21.4385C20.0633 21.3709 19.8461 21.274 19.6442 21.15C19.5643 21.0902 19.5013 21.0106 19.4613 20.9191C19.4214 20.8275 19.4059 20.7272 19.4163 20.6279C19.41 20.5133 19.4368 20.3993 19.4936 20.2995C19.5504 20.1997 19.6347 20.1185 19.7365 20.0654C20.0144 19.9335 20.3207 19.8731 20.6279 19.8894C20.974 19.8875 21.319 19.9292 21.6548 20.0135C21.9581 20.0892 22.2559 20.1856 22.5461 20.3019C22.6808 20.0386 22.7881 19.7622 22.8663 19.4769C22.952 19.1803 23.008 18.876 23.0336 18.5683C22.6127 18.4138 22.1794 18.2951 21.7384 18.2135C21.3111 18.1351 20.8776 18.0955 20.4432 18.0952C19.3875 18.0952 18.5538 18.3366 17.9423 18.8192C17.6412 19.056 17.401 19.3611 17.2415 19.7092C17.0819 20.0574 17.0077 20.4386 17.025 20.8212C17.025 21.5308 17.2009 22.0587 17.5557 22.4135C17.9715 22.8004 18.4787 23.0754 19.0298 23.2125L20.0711 23.5154C20.3141 23.5823 20.5449 23.6875 20.7548 23.8269C20.8391 23.8961 20.9053 23.9848 20.9475 24.0853C20.9897 24.1859 21.0068 24.2952 20.9971 24.4039C21.0055 24.5733 20.9487 24.7395 20.8384 24.8683C20.7277 24.9903 20.5932 25.0885 20.4432 25.1568C20.2802 25.2313 20.1073 25.2818 19.9298 25.3068C19.76 25.3343 19.5883 25.3488 19.4163 25.35C19.0682 25.3508 18.721 25.314 18.3807 25.2404C18.0215 25.1594 17.6693 25.0495 17.3279 24.9116C17.1962 25.203 17.0863 25.5039 16.999 25.8116C16.9173 26.1126 16.8642 26.4207 16.8404 26.7318C17.0769 26.8202 17.2961 26.8923 17.498 26.9481C17.7 27.0058 17.9048 27.052 18.1125 27.0923C18.3261 27.1327 18.5418 27.1606 18.7586 27.176C18.9836 27.1933 19.2317 27.2019 19.5 27.2019C20.0413 27.2102 20.5806 27.1333 21.098 26.9741C21.5344 26.8433 21.9424 26.6319 22.3009 26.351C22.621 26.1044 22.8795 25.7869 23.0562 25.4235C23.2329 25.0602 23.3229 24.6608 23.3192 24.2568C23.3282 23.9084 23.2775 23.5611 23.1692 23.2298C23.0774 22.9719 22.9341 22.7354 22.748 22.5346Z" fill="#C8DDD7"/>
<path d="M14.423 19.4279C14.0641 19.0108 13.6154 18.6804 13.1105 18.4615C12.5253 18.2136 11.8941 18.0927 11.2586 18.1067C10.6259 18.0921 9.99741 18.2131 9.41535 18.4615C8.91472 18.6792 8.47137 19.01 8.12015 19.4279C7.76834 19.8524 7.50456 20.3427 7.34419 20.8702C7.16804 21.4538 7.08052 22.0606 7.08458 22.6702C7.07945 23.2751 7.167 23.8773 7.34419 24.4558C7.50506 24.9831 7.76879 25.4733 8.12015 25.8981C8.47056 26.3147 8.91432 26.6428 9.41535 26.8558C9.99889 27.0985 10.6268 27.2164 11.2586 27.2019C11.8932 27.2158 12.5238 27.0979 13.1105 26.8558C13.616 26.642 14.0652 26.3142 14.423 25.8981C14.7765 25.4751 15.0395 24.9843 15.1961 24.4558C15.3685 23.8764 15.4541 23.2747 15.45 22.6702C15.453 22.0611 15.3675 21.4547 15.1961 20.8702C15.0402 20.3414 14.7771 19.8504 14.423 19.4279ZM12.6115 24.6981C12.4594 24.9135 12.2578 25.0894 12.0236 25.2107C11.7895 25.332 11.5296 25.3954 11.2658 25.3954C11.0021 25.3954 10.7422 25.332 10.508 25.2107C10.2738 25.0894 10.0722 24.9135 9.92016 24.6981C9.64806 24.0622 9.50776 23.3777 9.50776 22.6861C9.50776 21.9944 9.64806 21.3099 9.92016 20.674C10.0722 20.4586 10.2738 20.2828 10.508 20.1614C10.7422 20.0401 11.0021 19.9767 11.2658 19.9767C11.5296 19.9767 11.7895 20.0401 12.0236 20.1614C12.2578 20.2828 12.4594 20.4586 12.6115 20.674C12.8836 21.3099 13.0239 21.9944 13.0239 22.6861C13.0239 23.3777 12.8836 24.0622 12.6115 24.6981Z" fill="#C8DDD7"/>
<path d="M45 22.5C45 18.0499 43.6804 13.6998 41.2081 9.99968C38.7357 6.29957 35.2217 3.41569 31.1104 1.71272C26.999 0.00975144 22.475 -0.435827 18.1105 0.43234C13.7459 1.30051 9.73679 3.44343 6.59011 6.59011C3.44343 9.73679 1.30051 13.7459 0.43234 18.1105C-0.435827 22.475 0.00975114 26.999 1.71272 31.1104C3.41569 35.2217 6.29957 38.7357 9.99968 41.2081C13.6998 43.6804 18.0499 45 22.5 45C28.4674 45 34.1903 42.6295 38.4099 38.4099C42.6295 34.1903 45 28.4674 45 22.5ZM22.5 42.75C18.4949 42.75 14.5798 41.5624 11.2497 39.3373C7.91961 37.1122 5.32412 33.9495 3.79144 30.2493C2.25877 26.5491 1.85775 22.4775 2.6391 18.5494C3.42045 14.6213 5.34909 11.0131 8.1811 8.1811C11.0131 5.34909 14.6213 3.42045 18.5494 2.6391C22.4775 1.85775 26.5491 2.25877 30.2493 3.79144C33.9495 5.32412 37.1122 7.91961 39.3373 11.2497C41.5624 14.5798 42.75 18.4949 42.75 22.5C42.75 25.1593 42.2262 27.7925 41.2086 30.2493C40.1909 32.7062 38.6993 34.9385 36.8189 36.8189C34.9385 38.6993 32.7062 40.1909 30.2493 41.2086C27.7925 42.2262 25.1593 42.75 22.5 42.75Z" fill="#C8DDD7"/>
</svg>
