<svg width="46" height="45" viewBox="0 0 46 45" fill="none" xmlns="http://www.w3.org/2000/svg">
<path d="M36.5577 23.2414C36.9358 23.2393 37.3131 23.2055 37.6856 23.1404L37.8558 14.9106C37.4206 14.8426 36.9808 14.8088 36.5404 14.8096C36.1067 14.8094 35.6736 14.8431 35.2452 14.9106L35.4154 23.1404C35.7925 23.207 36.1747 23.2407 36.5577 23.2414Z" fill="#90A9A3"/>
<path d="M37.7894 24.5366C37.3773 24.4708 36.9606 24.437 36.5433 24.4356C36.1326 24.4366 35.7226 24.4704 35.3173 24.5366C35.2502 24.9486 35.2165 25.3653 35.2163 25.7827C35.216 26.1944 35.2498 26.6054 35.3173 27.0116C35.7273 27.079 36.1421 27.1138 36.5577 27.1154C36.9693 27.1134 37.3801 27.0796 37.7865 27.0144C37.8545 26.6026 37.8883 26.1857 37.8875 25.7683C37.888 25.3557 37.8552 24.9438 37.7894 24.5366Z" fill="#90A9A3"/>
<path d="M30.6702 18.3087V25.125C30.3292 25.2121 29.9778 25.2519 29.626 25.2433C29.3583 25.2492 29.0915 25.2122 28.8356 25.1337C28.6121 25.0679 28.412 24.9398 28.2586 24.7644C28.0905 24.5597 27.9746 24.3172 27.9212 24.0577C27.8407 23.6844 27.8039 23.303 27.8115 22.9212V18.3058C27.0211 18.1712 26.2135 18.1712 25.4231 18.3058V22.9846C25.3936 23.7466 25.5131 24.507 25.775 25.2231C25.9691 25.7291 26.2983 26.1721 26.7269 26.5039C27.1375 26.8028 27.6129 27.0005 28.1144 27.0808C28.6597 27.1721 29.2116 27.2174 29.7644 27.2164C30.3831 27.2175 31.0004 27.1586 31.6077 27.0404C32.089 26.9498 32.564 26.8284 33.0298 26.6769V18.3116C32.6352 18.2455 32.2357 18.2117 31.8356 18.2106C31.4451 18.2119 31.0554 18.2447 30.6702 18.3087Z" fill="#90A9A3"/>
<path d="M23.248 22.5346C23.0618 22.3378 22.842 22.1757 22.599 22.0558C22.328 21.9182 22.0439 21.808 21.7509 21.7269L20.7903 21.4385C20.5633 21.3709 20.3461 21.274 20.1442 21.15C20.0643 21.0902 20.0013 21.0106 19.9613 20.9191C19.9214 20.8275 19.9059 20.7272 19.9163 20.6279C19.91 20.5133 19.9368 20.3993 19.9936 20.2995C20.0504 20.1997 20.1347 20.1185 20.2365 20.0654C20.5144 19.9335 20.8207 19.8731 21.1279 19.8894C21.474 19.8875 21.819 19.9292 22.1548 20.0135C22.4581 20.0892 22.7559 20.1856 23.0461 20.3019C23.1808 20.0386 23.2881 19.7622 23.3663 19.4769C23.452 19.1803 23.508 18.876 23.5336 18.5683C23.1127 18.4138 22.6794 18.2951 22.2384 18.2135C21.8111 18.1351 21.3776 18.0955 20.9432 18.0952C19.8875 18.0952 19.0538 18.3366 18.4423 18.8192C18.1412 19.056 17.901 19.3611 17.7415 19.7092C17.5819 20.0574 17.5077 20.4386 17.525 20.8212C17.525 21.5308 17.7009 22.0587 18.0557 22.4135C18.4715 22.8004 18.9787 23.0754 19.5298 23.2125L20.5711 23.5154C20.8141 23.5823 21.0449 23.6875 21.2548 23.8269C21.3391 23.8961 21.4053 23.9848 21.4475 24.0853C21.4897 24.1859 21.5068 24.2952 21.4971 24.4039C21.5055 24.5733 21.4487 24.7395 21.3384 24.8683C21.2277 24.9903 21.0932 25.0885 20.9432 25.1568C20.7802 25.2313 20.6073 25.2818 20.4298 25.3068C20.26 25.3343 20.0883 25.3488 19.9163 25.35C19.5682 25.3508 19.221 25.314 18.8807 25.2404C18.5215 25.1594 18.1693 25.0495 17.8279 24.9116C17.6962 25.203 17.5863 25.5039 17.499 25.8116C17.4173 26.1126 17.3642 26.4207 17.3404 26.7318C17.5769 26.8202 17.7961 26.8923 17.998 26.9481C18.2 27.0058 18.4048 27.052 18.6125 27.0923C18.8261 27.1327 19.0418 27.1606 19.2586 27.176C19.4836 27.1933 19.7317 27.2019 20 27.2019C20.5413 27.2102 21.0806 27.1333 21.598 26.9741C22.0344 26.8433 22.4424 26.6319 22.8009 26.351C23.121 26.1044 23.3795 25.7869 23.5562 25.4235C23.7329 25.0602 23.8229 24.6608 23.8192 24.2568C23.8282 23.9084 23.7775 23.5611 23.6692 23.2298C23.5774 22.9719 23.4341 22.7354 23.248 22.5346Z" fill="#90A9A3"/>
<path d="M14.923 19.4279C14.5641 19.0108 14.1154 18.6804 13.6105 18.4615C13.0253 18.2136 12.3941 18.0927 11.7586 18.1067C11.1259 18.0921 10.4974 18.2131 9.91535 18.4615C9.41472 18.6792 8.97137 19.01 8.62015 19.4279C8.26834 19.8524 8.00456 20.3427 7.84419 20.8702C7.66804 21.4538 7.58052 22.0606 7.58458 22.6702C7.57945 23.2751 7.667 23.8773 7.84419 24.4558C8.00506 24.9831 8.26879 25.4733 8.62015 25.8981C8.97056 26.3147 9.41432 26.6428 9.91535 26.8558C10.4989 27.0985 11.1268 27.2164 11.7586 27.2019C12.3932 27.2158 13.0238 27.0979 13.6105 26.8558C14.116 26.642 14.5652 26.3142 14.923 25.8981C15.2765 25.4751 15.5395 24.9843 15.6961 24.4558C15.8685 23.8764 15.9541 23.2747 15.95 22.6702C15.953 22.0611 15.8675 21.4547 15.6961 20.8702C15.5402 20.3414 15.2771 19.8504 14.923 19.4279ZM13.1115 24.6981C12.9594 24.9135 12.7578 25.0894 12.5236 25.2107C12.2895 25.332 12.0296 25.3954 11.7658 25.3954C11.5021 25.3954 11.2422 25.332 11.008 25.2107C10.7738 25.0894 10.5722 24.9135 10.4202 24.6981C10.1481 24.0622 10.0078 23.3777 10.0078 22.6861C10.0078 21.9944 10.1481 21.3099 10.4202 20.674C10.5722 20.4586 10.7738 20.2828 11.008 20.1614C11.2422 20.0401 11.5021 19.9767 11.7658 19.9767C12.0296 19.9767 12.2895 20.0401 12.5236 20.1614C12.7578 20.2828 12.9594 20.4586 13.1115 20.674C13.3836 21.3099 13.5239 21.9944 13.5239 22.6861C13.5239 23.3777 13.3836 24.0622 13.1115 24.6981Z" fill="#90A9A3"/>
<path d="M45.5 22.5C45.5 18.0499 44.1804 13.6998 41.7081 9.99968C39.2357 6.29957 35.7217 3.41569 31.6104 1.71272C27.499 0.00975144 22.975 -0.435827 18.6105 0.43234C14.2459 1.30051 10.2368 3.44343 7.09011 6.59011C3.94343 9.73679 1.80051 13.7459 0.93234 18.1105C0.064173 22.475 0.509751 26.999 2.21272 31.1104C3.91569 35.2217 6.79957 38.7357 10.4997 41.2081C14.1998 43.6804 18.5499 45 23 45C28.9674 45 34.6903 42.6295 38.9099 38.4099C43.1295 34.1903 45.5 28.4674 45.5 22.5ZM23 42.75C18.9949 42.75 15.0798 41.5624 11.7497 39.3373C8.41961 37.1122 5.82412 33.9495 4.29144 30.2493C2.75877 26.5491 2.35775 22.4775 3.1391 18.5494C3.92045 14.6213 5.84909 11.0131 8.6811 8.1811C11.5131 5.34909 15.1213 3.42045 19.0494 2.6391C22.9775 1.85775 27.0491 2.25877 30.7493 3.79144C34.4495 5.32412 37.6122 7.91961 39.8373 11.2497C42.0624 14.5798 43.25 18.4949 43.25 22.5C43.25 25.1593 42.7262 27.7925 41.7086 30.2493C40.6909 32.7062 39.1993 34.9385 37.3189 36.8189C35.4385 38.6993 33.2062 40.1909 30.7493 41.2086C28.2925 42.2262 25.6593 42.75 23 42.75Z" fill="#90A9A3"/>
</svg>
