<svg width="23" height="22" viewBox="0 0 23 22" fill="none" xmlns="http://www.w3.org/2000/svg">
<g clip-path="url(#clip0_527_4664)">
<path d="M9.66667 11.0001C11.6917 11.0001 13.3333 9.35846 13.3333 7.33341C13.3333 5.30837 11.6917 3.66675 9.66667 3.66675C7.64162 3.66675 6 5.30837 6 7.33341C6 9.35846 7.64162 11.0001 9.66667 11.0001Z" fill="white"/>
<path d="M9.98766 12.8426C7.48516 12.7509 2.3335 13.9976 2.3335 16.5001V17.4168C2.3335 17.9209 2.746 18.3334 3.25016 18.3334H11.0785C8.81433 15.8034 9.951 12.9343 9.98766 12.8426Z" fill="white"/>
<path d="M18.3109 16.5183C18.7417 15.785 18.9526 14.8958 18.7509 13.9333C18.4392 12.43 17.1742 11.2292 15.6526 11.0367C13.2417 10.725 11.2067 12.7508 11.5276 15.1617C11.7292 16.6833 12.9209 17.9483 14.4242 18.26C15.3867 18.4617 16.2759 18.2508 17.0092 17.82L18.7142 19.525C19.0717 19.8825 19.6492 19.8825 20.0067 19.525C20.3642 19.1675 20.3642 18.59 20.0067 18.2325L18.3109 16.5183ZM15.1667 16.5C14.1584 16.5 13.3334 15.675 13.3334 14.6667C13.3334 13.6583 14.1584 12.8333 15.1667 12.8333C16.1751 12.8333 17.0001 13.6583 17.0001 14.6667C17.0001 15.675 16.1751 16.5 15.1667 16.5Z" fill="white"/>
</g>
<defs>
<clipPath id="clip0_527_4664">
<rect width="22" height="22" fill="white" transform="translate(0.5)"/>
</clipPath>
</defs>
</svg>
