<svg width="24" height="24" viewBox="0 0 24 24" fill="none" xmlns="http://www.w3.org/2000/svg">    <g clip-path="url(#clip0_1019_6532)">        <path d="M15.4999 14H14.7099L14.4299 13.73C15.6299 12.33 16.2499 10.42 15.9099 8.39C15.4399 5.61 13.1199 3.39 10.3199 3.05C6.08989 2.53 2.52989 6.09 3.04989 10.32C3.38989 13.12 5.60989 15.44 8.38989 15.91C10.4199 16.25 12.3299 15.63 13.7299 14.43L13.9999 14.71V15.5L18.2499 19.75C18.6599 20.16 19.3299 20.16 19.7399 19.75C20.1499 19.34 20.1499 18.67 19.7399 18.26L15.4999 14ZM9.49989 14C7.00989 14 4.99989 11.99 4.99989 9.5C4.99989 7.01 7.00989 5 9.49989 5C11.9899 5 13.9999 7.01 13.9999 9.5C13.9999 11.99 11.9899 14 9.49989 14Z" fill="#8B9F95"/>    </g>    <defs>        <clipPath id="clip0_1019_6532">            <rect width="24" height="24" fill="white"/>        </clipPath>    </defs></svg>