<svg width="17" height="15" viewBox="0 0 17 15" fill="none" xmlns="http://www.w3.org/2000/svg">
<path d="M3.84715 10.3472C2.62987 10.3472 1.64307 9.51702 1.64307 8.29974C1.64307 7.08246 2.62987 6.09566 3.84715 6.09566C3.92993 6.09566 4.01164 6.10023 4.09205 6.10912V6.09566H4.12236C4.10235 5.93521 4.09205 5.77174 4.09205 5.60587C4.09205 3.44181 5.84636 1.6875 8.01041 1.6875C9.47585 1.6875 10.7534 2.49196 11.4255 3.68336C11.5898 3.6592 11.7578 3.64668 11.9288 3.64668C13.8223 3.64668 15.3574 5.18171 15.3574 7.07525C15.3574 8.634 14.3172 9.82225 12.8931 10.2139M8.392 13.3125V7.6875M8.392 7.6875L6.14307 10.0073M8.392 7.6875L10.6431 10.0073" stroke="#B8E1D7" stroke-width="2" stroke-linecap="round" stroke-linejoin="round"/>
</svg>
