<svg width="22" height="22" viewBox="0 0 22 22" fill="none" xmlns="http://www.w3.org/2000/svg">
<g clip-path="url(#clip0_587_4424)">
<path d="M3.66667 16.5H13.75C14.2542 16.5 14.6667 16.0875 14.6667 15.5833C14.6667 15.0792 14.2542 14.6667 13.75 14.6667H3.66667C3.1625 14.6667 2.75 15.0792 2.75 15.5833C2.75 16.0875 3.1625 16.5 3.66667 16.5ZM3.66667 11.9167H11C11.5042 11.9167 11.9167 11.5042 11.9167 11C11.9167 10.4958 11.5042 10.0833 11 10.0833H3.66667C3.1625 10.0833 2.75 10.4958 2.75 11C2.75 11.5042 3.1625 11.9167 3.66667 11.9167ZM2.75 6.41667C2.75 6.92083 3.1625 7.33333 3.66667 7.33333H13.75C14.2542 7.33333 14.6667 6.92083 14.6667 6.41667C14.6667 5.9125 14.2542 5.5 13.75 5.5H3.66667C3.1625 5.5 2.75 5.9125 2.75 6.41667ZM18.6083 13.64L15.9683 11L18.6083 8.36C18.9658 8.0025 18.9658 7.425 18.6083 7.0675C18.2508 6.71 17.6733 6.71 17.3158 7.0675L14.025 10.3583C13.6675 10.7158 13.6675 11.2933 14.025 11.6508L17.3158 14.9417C17.6733 15.2992 18.2508 15.2992 18.6083 14.9417C18.9567 14.5842 18.9658 13.9975 18.6083 13.64Z" fill="white"/>
</g>
<defs>
<clipPath id="clip0_587_4424">
<rect width="22" height="22" fill="white"/>
</clipPath>
</defs>
</svg>
