<svg width="89" height="62" viewBox="0 0 89 62" fill="none" xmlns="http://www.w3.org/2000/svg">
<g clip-path="url(#clip0_786_4839)">
<rect x="2" y="2" width="85" height="58" rx="10" fill="#DC425D" fill-opacity="0.1"/>
<g clip-path="url(#clip1_786_4839)">
<path d="M1.57567 9.34884C1.85007 9.11775 1.88517 8.70797 1.65408 8.43357C1.42299 8.15918 1.01322 8.12407 0.73882 8.35516C0.464425 8.58625 0.429319 8.99603 0.660408 9.27042C0.891498 9.54482 1.30128 9.57993 1.57567 9.34884Z" fill="#DC425D" fill-opacity="0.23"/>
<path d="M4.36519 12.6611C4.63959 12.43 4.67469 12.0202 4.4436 11.7458C4.21251 11.4714 3.80274 11.4363 3.52834 11.6674C3.25394 11.8985 3.21884 12.3083 3.44993 12.5827C3.68102 12.8571 4.0908 12.8922 4.36519 12.6611Z" fill="#DC425D" fill-opacity="0.23"/>
<path d="M7.15468 15.9733C7.42908 15.7422 7.46418 15.3325 7.23309 15.0581C7.002 14.7837 6.59223 14.7486 6.31783 14.9797C6.04343 15.2107 6.00833 15.6205 6.23942 15.8949C6.47051 16.1693 6.88029 16.2044 7.15468 15.9733Z" fill="#DC425D" fill-opacity="0.23"/>
<path d="M9.9442 19.2856C10.2186 19.0545 10.2537 18.6447 10.0226 18.3703C9.79152 18.0959 9.38175 18.0608 9.10735 18.2919C8.83295 18.523 8.79785 18.9328 9.02894 19.2072C9.26003 19.4816 9.66981 19.5167 9.9442 19.2856Z" fill="#DC425D" fill-opacity="0.23"/>
<path d="M12.7337 22.5978C13.0081 22.3667 13.0432 21.957 12.8121 21.6826C12.581 21.4082 12.1712 21.3731 11.8968 21.6042C11.6224 21.8352 11.5873 22.245 11.8184 22.5194C12.0495 22.7938 12.4593 22.8289 12.7337 22.5978Z" fill="#DC425D" fill-opacity="0.23"/>
<path d="M15.5232 25.9101C15.7976 25.679 15.8327 25.2692 15.6016 24.9948C15.3705 24.7204 14.9607 24.6853 14.6863 24.9164C14.4119 25.1475 14.3768 25.5573 14.6079 25.8317C14.839 26.1061 15.2488 26.1412 15.5232 25.9101Z" fill="#DC425D" fill-opacity="0.23"/>
<path d="M18.3127 29.2223C18.5871 28.9912 18.6222 28.5815 18.3911 28.3071C18.16 28.0327 17.7502 27.9976 17.4758 28.2287C17.2014 28.4597 17.1663 28.8695 17.3974 29.1439C17.6285 29.4183 18.0383 29.4534 18.3127 29.2223Z" fill="#DC425D" fill-opacity="0.23"/>
<path d="M21.1022 32.5346C21.3766 32.3035 21.4117 31.8937 21.1806 31.6193C20.9495 31.3449 20.5397 31.3098 20.2653 31.5409C19.9909 31.772 19.9558 32.1818 20.1869 32.4562C20.418 32.7305 20.8278 32.7657 21.1022 32.5346Z" fill="#DC425D" fill-opacity="0.23"/>
<path d="M23.8917 35.8468C24.1661 35.6157 24.2012 35.2059 23.9701 34.9315C23.739 34.6571 23.3293 34.622 23.0549 34.8531C22.7805 35.0842 22.7454 35.494 22.9764 35.7684C23.2075 36.0428 23.6173 36.0779 23.8917 35.8468Z" fill="#DC425D" fill-opacity="0.23"/>
<path d="M26.6812 39.159C26.9556 38.928 26.9907 38.5182 26.7596 38.2438C26.5285 37.9694 26.1187 37.9343 25.8443 38.1654C25.57 38.3965 25.5348 38.8062 25.7659 39.0806C25.997 39.355 26.4068 39.3901 26.6812 39.159Z" fill="#DC425D" fill-opacity="0.23"/>
<path d="M29.4707 42.4713C29.7451 42.2402 29.7802 41.8304 29.5491 41.556C29.318 41.2816 28.9082 41.2465 28.6338 41.4776C28.3594 41.7087 28.3243 42.1185 28.5554 42.3929C28.7865 42.6673 29.1963 42.7024 29.4707 42.4713Z" fill="#DC425D" fill-opacity="0.23"/>
<path d="M32.2602 45.7836C32.5346 45.5525 32.5697 45.1427 32.3386 44.8683C32.1075 44.5939 31.6977 44.5588 31.4233 44.7899C31.1489 45.021 31.1138 45.4308 31.3449 45.7051C31.576 45.9795 31.9858 46.0146 32.2602 45.7836Z" fill="#DC425D" fill-opacity="0.23"/>
<path d="M3.84242 18.7628C4.11682 18.5317 4.15193 18.122 3.92084 17.8476C3.68975 17.5732 3.27997 17.5381 3.00557 17.7692C2.73118 18.0003 2.69607 18.41 2.92716 18.6844C3.15825 18.9588 3.56803 18.9939 3.84242 18.7628Z" fill="#DC425D" fill-opacity="0.23"/>
<path d="M6.63194 22.0751C6.90634 21.844 6.94145 21.4342 6.71036 21.1598C6.47927 20.8854 6.06949 20.8503 5.79509 21.0814C5.5207 21.3125 5.48559 21.7223 5.71668 21.9967C5.94777 22.2711 6.35755 22.3062 6.63194 22.0751Z" fill="#DC425D" fill-opacity="0.23"/>
<path d="M9.42143 25.3873C9.69583 25.1562 9.73094 24.7465 9.49985 24.4721C9.26876 24.1977 8.85898 24.1626 8.58458 24.3937C8.31019 24.6247 8.27508 25.0345 8.50617 25.3089C8.73726 25.5833 9.14704 25.6184 9.42143 25.3873Z" fill="#DC425D" fill-opacity="0.23"/>
<path d="M12.2109 28.6996C12.4853 28.4685 12.5204 28.0587 12.2893 27.7843C12.0582 27.5099 11.6485 27.4748 11.3741 27.7059C11.0997 27.937 11.0646 28.3468 11.2957 28.6212C11.5268 28.8956 11.9365 28.9307 12.2109 28.6996Z" fill="#DC425D" fill-opacity="0.23"/>
<path d="M15.0004 32.0118C15.2748 31.7807 15.3099 31.3709 15.0788 31.0966C14.8477 30.8222 14.438 30.7871 14.1636 31.0181C13.8892 31.2492 13.8541 31.659 14.0852 31.9334C14.3162 32.2078 14.726 32.2429 15.0004 32.0118Z" fill="#DC425D" fill-opacity="0.23"/>
<path d="M17.79 35.3241C18.0644 35.093 18.0995 34.6832 17.8684 34.4088C17.6373 34.1344 17.2275 34.0993 16.9531 34.3304C16.6787 34.5615 16.6436 34.9713 16.8747 35.2457C17.1058 35.5201 17.5156 35.5552 17.79 35.3241Z" fill="#DC425D" fill-opacity="0.23"/>
<path d="M20.5795 38.6363C20.8539 38.4052 20.889 37.9954 20.6579 37.721C20.4268 37.4467 20.017 37.4115 19.7426 37.6426C19.4682 37.8737 19.4331 38.2835 19.6642 38.5579C19.8953 38.8323 20.3051 38.8674 20.5795 38.6363Z" fill="#DC425D" fill-opacity="0.23"/>
<path d="M23.3689 41.9486C23.6433 41.7175 23.6784 41.3077 23.4474 41.0333C23.2163 40.7589 22.8065 40.7238 22.5321 40.9549C22.2577 41.186 22.2226 41.5957 22.4537 41.8701C22.6848 42.1445 23.0945 42.1796 23.3689 41.9486Z" fill="#DC425D" fill-opacity="0.23"/>
<path d="M26.1584 45.2608C26.4328 45.0297 26.4679 44.6199 26.2368 44.3455C26.0058 44.0712 25.596 44.036 25.3216 44.2671C25.0472 44.4982 25.0121 44.908 25.2432 45.1824C25.4743 45.4568 25.884 45.4919 26.1584 45.2608Z" fill="#DC425D" fill-opacity="0.23"/>
<path d="M28.9479 48.5731C29.2223 48.342 29.2574 47.9322 29.0263 47.6578C28.7952 47.3834 28.3855 47.3483 28.1111 47.5794C27.8367 47.8105 27.8016 48.2203 28.0327 48.4947C28.2638 48.769 28.6735 48.8042 28.9479 48.5731Z" fill="#DC425D" fill-opacity="0.23"/>
<path d="M3.31969 24.8646C3.59408 24.6335 3.62919 24.2237 3.3981 23.9493C3.16701 23.6749 2.75723 23.6398 2.48284 23.8709C2.20844 24.102 2.17334 24.5118 2.40443 24.7862C2.63552 25.0606 3.04529 25.0957 3.31969 24.8646Z" fill="#DC425D" fill-opacity="0.23"/>
<path d="M6.10918 28.1768C6.38357 27.9457 6.41868 27.536 6.18759 27.2616C5.9565 26.9872 5.54672 26.9521 5.27233 27.1831C4.99793 27.4142 4.96283 27.824 5.19392 28.0984C5.42501 28.3728 5.83478 28.4079 6.10918 28.1768Z" fill="#DC425D" fill-opacity="0.23"/>
<path d="M8.89867 31.4891C9.17306 31.258 9.20817 30.8482 8.97708 30.5738C8.74599 30.2994 8.33621 30.2643 8.06182 30.4954C7.78742 30.7265 7.75232 31.1363 7.98341 31.4107C8.2145 31.6851 8.62427 31.7202 8.89867 31.4891Z" fill="#DC425D" fill-opacity="0.23"/>
<path d="M11.6882 34.8013C11.9626 34.5702 11.9977 34.1605 11.7666 33.8861C11.5355 33.6117 11.1258 33.5766 10.8514 33.8076C10.577 34.0387 10.5419 34.4485 10.773 34.7229C11.004 34.9973 11.4138 35.0324 11.6882 34.8013Z" fill="#DC425D" fill-opacity="0.23"/>
<path d="M14.4777 38.1136C14.7521 37.8825 14.7872 37.4727 14.5561 37.1983C14.325 36.9239 13.9153 36.8888 13.6409 37.1199C13.3665 37.351 13.3314 37.7608 13.5624 38.0352C13.7935 38.3096 14.2033 38.3447 14.4777 38.1136Z" fill="#DC425D" fill-opacity="0.23"/>
<path d="M17.2672 41.4258C17.5416 41.1947 17.5767 40.785 17.3456 40.5106C17.1145 40.2362 16.7047 40.2011 16.4303 40.4321C16.156 40.6632 16.1208 41.073 16.3519 41.3474C16.583 41.6218 16.9928 41.6569 17.2672 41.4258Z" fill="#DC425D" fill-opacity="0.23"/>
<path d="M20.0567 44.7381C20.3311 44.507 20.3662 44.0972 20.1351 43.8228C19.904 43.5484 19.4942 43.5133 19.2198 43.7444C18.9454 43.9755 18.9103 44.3852 19.1414 44.6596C19.3725 44.934 19.7823 44.9691 20.0567 44.7381Z" fill="#DC425D" fill-opacity="0.23"/>
<path d="M22.8462 48.0503C23.1206 47.8192 23.1557 47.4094 22.9246 47.135C22.6935 46.8606 22.2837 46.8255 22.0093 47.0566C21.7349 47.2877 21.6998 47.6975 21.9309 47.9719C22.162 48.2463 22.5718 48.2814 22.8462 48.0503Z" fill="#DC425D" fill-opacity="0.23"/>
<path d="M25.6357 51.3626C25.9101 51.1315 25.9452 50.7217 25.7141 50.4473C25.4831 50.1729 25.0733 50.1378 24.7989 50.3689C24.5245 50.6 24.4894 51.0097 24.7205 51.2841C24.9516 51.5585 25.3613 51.5936 25.6357 51.3626Z" fill="#DC425D" fill-opacity="0.23"/>
<path d="M2.79695 30.9663C3.07135 30.7352 3.10645 30.3255 2.87536 30.0511C2.64428 29.7767 2.2345 29.7416 1.9601 29.9727C1.68571 30.2037 1.6506 30.6135 1.88169 30.8879C2.11278 31.1623 2.52256 31.1974 2.79695 30.9663Z" fill="#DC425D" fill-opacity="0.23"/>
<path d="M5.58644 34.2786C5.86084 34.0475 5.89594 33.6377 5.66485 33.3633C5.43376 33.0889 5.02399 33.0538 4.74959 33.2849C4.4752 33.516 4.44009 33.9258 4.67118 34.2002C4.90227 34.4746 5.31205 34.5097 5.58644 34.2786Z" fill="#DC425D" fill-opacity="0.23"/>
<path d="M8.37596 37.5908C8.65036 37.3597 8.68546 36.95 8.45437 36.6756C8.22329 36.4012 7.81351 36.3661 7.53911 36.5972C7.26472 36.8282 7.22961 37.238 7.4607 37.5124C7.69179 37.7868 8.10157 37.8219 8.37596 37.5908Z" fill="#DC425D" fill-opacity="0.23"/>
<path d="M11.1655 40.9031C11.4398 40.672 11.475 40.2622 11.2439 39.9878C11.0128 39.7134 10.603 39.6783 10.3286 39.9094C10.0542 40.1405 10.0191 40.5503 10.2502 40.8247C10.4813 41.099 10.8911 41.1342 11.1655 40.9031Z" fill="#DC425D" fill-opacity="0.23"/>
<path d="M13.9549 44.2153C14.2293 43.9842 14.2644 43.5744 14.0334 43.3C13.8023 43.0256 13.3925 42.9905 13.1181 43.2216C12.8437 43.4527 12.8086 43.8625 13.0397 44.1369C13.2708 44.4113 13.6805 44.4464 13.9549 44.2153Z" fill="#DC425D" fill-opacity="0.23"/>
<path d="M16.7444 47.5276C17.0188 47.2965 17.0539 46.8867 16.8228 46.6123C16.5918 46.3379 16.182 46.3028 15.9076 46.5339C15.6332 46.765 15.5981 47.1748 15.8292 47.4492C16.0603 47.7235 16.47 47.7587 16.7444 47.5276Z" fill="#DC425D" fill-opacity="0.23"/>
<path d="M19.5339 50.8398C19.8083 50.6087 19.8434 50.1989 19.6123 49.9245C19.3812 49.6501 18.9715 49.615 18.6971 49.8461C18.4227 50.0772 18.3876 50.487 18.6187 50.7614C18.8497 51.0358 19.2595 51.0709 19.5339 50.8398Z" fill="#DC425D" fill-opacity="0.23"/>
<path d="M22.3235 54.1521C22.5979 53.921 22.633 53.5112 22.4019 53.2368C22.1708 52.9624 21.761 52.9273 21.4866 53.1584C21.2122 53.3895 21.1771 53.7993 21.4082 54.0736C21.6393 54.348 22.0491 54.3831 22.3235 54.1521Z" fill="#DC425D" fill-opacity="0.23"/>
<path d="M2.27419 37.0681C2.54858 36.837 2.58369 36.4272 2.3526 36.1528C2.12151 35.8784 1.71173 35.8433 1.43734 36.0744C1.16294 36.3055 1.12784 36.7153 1.35893 36.9897C1.59002 37.2641 1.99979 37.2992 2.27419 37.0681Z" fill="#DC425D" fill-opacity="0.23"/>
<path d="M5.06371 40.3803C5.3381 40.1492 5.37321 39.7395 5.14212 39.4651C4.91103 39.1907 4.50125 39.1556 4.22686 39.3867C3.95246 39.6177 3.91736 40.0275 4.14845 40.3019C4.37954 40.5763 4.78931 40.6114 5.06371 40.3803Z" fill="#DC425D" fill-opacity="0.23"/>
<path d="M7.8532 43.6926C8.12759 43.4615 8.1627 43.0517 7.93161 42.7773C7.70052 42.5029 7.29074 42.4678 7.01635 42.6989C6.74195 42.93 6.70685 43.3398 6.93794 43.6142C7.16903 43.8886 7.5788 43.9237 7.8532 43.6926Z" fill="#DC425D" fill-opacity="0.23"/>
<path d="M10.6427 47.0048C10.9171 46.7737 10.9522 46.3639 10.7211 46.0895C10.49 45.8152 10.0802 45.78 9.80584 46.0111C9.53144 46.2422 9.49634 46.652 9.72743 46.9264C9.95851 47.2008 10.3683 47.2359 10.6427 47.0048Z" fill="#DC425D" fill-opacity="0.23"/>
<path d="M13.4322 50.3171C13.7066 50.086 13.7417 49.6762 13.5106 49.4018C13.2795 49.1274 12.8697 49.0923 12.5953 49.3234C12.3209 49.5545 12.2858 49.9642 12.5169 50.2386C12.748 50.513 13.1578 50.5481 13.4322 50.3171Z" fill="#DC425D" fill-opacity="0.23"/>
<path d="M16.2217 53.6293C16.4961 53.3982 16.5312 52.9884 16.3001 52.714C16.069 52.4397 15.6593 52.4045 15.3849 52.6356C15.1105 52.8667 15.0754 53.2765 15.3065 53.5509C15.5376 53.8253 15.9473 53.8604 16.2217 53.6293Z" fill="#DC425D" fill-opacity="0.23"/>
<path d="M19.0112 56.9416C19.2856 56.7105 19.3207 56.3007 19.0896 56.0263C18.8585 55.7519 18.4488 55.7168 18.1744 55.9479C17.9 56.179 17.8649 56.5888 18.096 56.8632C18.327 57.1375 18.7368 57.1727 19.0112 56.9416Z" fill="#DC425D" fill-opacity="0.23"/>
<path d="M1.75145 43.1698C2.02585 42.9387 2.06095 42.529 1.82986 42.2546C1.59877 41.9802 1.189 41.9451 0.914601 42.1761C0.640206 42.4072 0.6051 42.817 0.83619 43.0914C1.06728 43.3658 1.47706 43.4009 1.75145 43.1698Z" fill="#DC425D" fill-opacity="0.23"/>
<path d="M4.54094 46.4821C4.81534 46.251 4.85044 45.8412 4.61935 45.5668C4.38826 45.2924 3.97849 45.2573 3.70409 45.4884C3.4297 45.7195 3.39459 46.1293 3.62568 46.4037C3.85677 46.6781 4.26655 46.7132 4.54094 46.4821Z" fill="#DC425D" fill-opacity="0.23"/>
<path d="M7.33046 49.7943C7.60486 49.5632 7.63996 49.1535 7.40887 48.8791C7.17778 48.6047 6.76801 48.5696 6.49361 48.8006C6.21922 49.0317 6.18411 49.4415 6.4152 49.7159C6.64629 49.9903 7.05607 50.0254 7.33046 49.7943Z" fill="#DC425D" fill-opacity="0.23"/>
<path d="M10.12 53.1066C10.3944 52.8755 10.4295 52.4657 10.1984 52.1913C9.9673 51.9169 9.55753 51.8818 9.28313 52.1129C9.00874 52.344 8.97363 52.7537 9.20472 53.0281C9.43581 53.3025 9.84559 53.3376 10.12 53.1066Z" fill="#DC425D" fill-opacity="0.23"/>
<path d="M12.9095 56.4188C13.1839 56.1877 13.219 55.7779 12.9879 55.5036C12.7568 55.2292 12.347 55.194 12.0726 55.4251C11.7982 55.6562 11.7631 56.066 11.9942 56.3404C12.2253 56.6148 12.6351 56.6499 12.9095 56.4188Z" fill="#DC425D" fill-opacity="0.23"/>
<path d="M15.699 59.7311C15.9734 59.5 16.0085 59.0902 15.7774 58.8158C15.5463 58.5414 15.1365 58.5063 14.8621 58.7374C14.5877 58.9685 14.5526 59.3783 14.7837 59.6527C15.0148 59.9271 15.4246 59.9622 15.699 59.7311Z" fill="#DC425D" fill-opacity="0.23"/>
<path d="M4.01821 52.5838C4.2926 52.3527 4.32771 51.9429 4.09662 51.6685C3.86553 51.3941 3.45575 51.359 3.18136 51.5901C2.90696 51.8212 2.87185 52.231 3.10294 52.5054C3.33403 52.7798 3.74381 52.8149 4.01821 52.5838Z" fill="#DC425D" fill-opacity="0.23"/>
<path d="M6.8077 55.8961C7.08209 55.665 7.1172 55.2552 6.88611 54.9808C6.65502 54.7064 6.24524 54.6713 5.97085 54.9024C5.69645 55.1335 5.66134 55.5433 5.89243 55.8177C6.12352 56.092 6.5333 56.1272 6.8077 55.8961Z" fill="#DC425D" fill-opacity="0.23"/>
<path d="M9.59722 59.2083C9.87161 58.9772 9.90672 58.5674 9.67563 58.293C9.44454 58.0186 9.03476 57.9835 8.76037 58.2146C8.48597 58.4457 8.45086 58.8555 8.68195 59.1299C8.91304 59.4043 9.32282 59.4394 9.59722 59.2083Z" fill="#DC425D" fill-opacity="0.23"/>
</g>
<g clip-path="url(#clip2_786_4839)">
<path d="M83.9967 2.72434C84.2711 2.49325 84.3062 2.08347 84.0751 1.80908C83.844 1.53468 83.4342 1.49958 83.1598 1.73067C82.8854 1.96176 82.8503 2.37153 83.0814 2.64593C83.3125 2.92032 83.7223 2.95543 83.9967 2.72434Z" fill="#DC425D" fill-opacity="0.23"/>
<path d="M86.7862 6.0366C87.0606 5.80551 87.0957 5.39573 86.8646 5.12133C86.6335 4.84694 86.2237 4.81183 85.9493 5.04292C85.6749 5.27401 85.6398 5.68379 85.8709 5.95818C86.102 6.23258 86.5118 6.26769 86.7862 6.0366Z" fill="#DC425D" fill-opacity="0.23"/>
<path d="M77.8949 2.2016C78.1693 1.97051 78.2044 1.56074 77.9734 1.28634C77.7423 1.01195 77.3325 0.97684 77.0581 1.20793C76.7837 1.43902 76.7486 1.8488 76.9797 2.12319C77.2108 2.39759 77.6206 2.43269 77.8949 2.2016Z" fill="#DC425D" fill-opacity="0.23"/>
<path d="M80.6844 5.51384C80.9588 5.28275 80.9939 4.87298 80.7628 4.59858C80.5318 4.32419 80.122 4.28908 79.8476 4.52017C79.5732 4.75126 79.5381 5.16104 79.7692 5.43543C80.0003 5.70983 80.41 5.74493 80.6844 5.51384Z" fill="#DC425D" fill-opacity="0.23"/>
<path d="M83.474 8.8261C83.7484 8.59501 83.7835 8.18523 83.5524 7.91084C83.3213 7.63644 82.9115 7.60134 82.6371 7.83243C82.3627 8.06352 82.3276 8.47329 82.5587 8.74769C82.7898 9.02208 83.1996 9.05719 83.474 8.8261Z" fill="#DC425D" fill-opacity="0.23"/>
<path d="M86.2635 12.1383C86.5379 11.9073 86.573 11.4975 86.3419 11.2231C86.1108 10.9487 85.701 10.9136 85.4266 11.1447C85.1522 11.3758 85.1171 11.7855 85.3482 12.0599C85.5793 12.3343 85.9891 12.3694 86.2635 12.1383Z" fill="#DC425D" fill-opacity="0.23"/>
<path d="M74.5827 4.99109C74.8571 4.76 74.8922 4.35023 74.6611 4.07583C74.43 3.80144 74.0202 3.76633 73.7458 3.99742C73.4714 4.22851 73.4363 4.63829 73.6674 4.91268C73.8985 5.18708 74.3083 5.22218 74.5827 4.99109Z" fill="#DC425D" fill-opacity="0.23"/>
<path d="M77.3722 8.30335C77.6466 8.07226 77.6817 7.66248 77.4507 7.38809C77.2196 7.11369 76.8098 7.07859 76.5354 7.30968C76.261 7.54077 76.2259 7.95054 76.457 8.22494C76.6881 8.49933 77.0978 8.53444 77.3722 8.30335Z" fill="#DC425D" fill-opacity="0.23"/>
<path d="M80.1617 11.6156C80.4361 11.3845 80.4712 10.9747 80.2401 10.7003C80.0091 10.4259 79.5993 10.3908 79.3249 10.6219C79.0505 10.853 79.0154 11.2628 79.2465 11.5372C79.4776 11.8116 79.8873 11.8467 80.1617 11.6156Z" fill="#DC425D" fill-opacity="0.23"/>
<path d="M82.9512 14.9278C83.2256 14.6968 83.2607 14.287 83.0296 14.0126C82.7985 13.7382 82.3888 13.7031 82.1144 13.9342C81.84 14.1653 81.8049 14.575 82.036 14.8494C82.267 15.1238 82.6768 15.1589 82.9512 14.9278Z" fill="#DC425D" fill-opacity="0.23"/>
<path d="M85.7407 18.2401C86.0151 18.009 86.0502 17.5992 85.8191 17.3248C85.588 17.0504 85.1783 17.0153 84.9039 17.2464C84.6295 17.4775 84.5944 17.8873 84.8254 18.1617C85.0565 18.4361 85.4663 18.4712 85.7407 18.2401Z" fill="#DC425D" fill-opacity="0.23"/>
<path d="M71.2705 7.7806C71.5449 7.54951 71.58 7.13973 71.3489 6.86534C71.1178 6.59094 70.708 6.55584 70.4336 6.78692C70.1592 7.01801 70.1241 7.42779 70.3552 7.70219C70.5863 7.97658 70.9961 8.01169 71.2705 7.7806Z" fill="#DC425D" fill-opacity="0.23"/>
<path d="M74.06 11.0929C74.3344 10.8618 74.3695 10.452 74.1384 10.1776C73.9073 9.9032 73.4975 9.86809 73.2231 10.0992C72.9487 10.3303 72.9136 10.74 73.1447 11.0144C73.3758 11.2888 73.7856 11.3239 74.06 11.0929Z" fill="#DC425D" fill-opacity="0.23"/>
<path d="M76.8495 14.4051C77.1239 14.174 77.159 13.7642 76.9279 13.4898C76.6968 13.2154 76.287 13.1803 76.0126 13.4114C75.7382 13.6425 75.7031 14.0523 75.9342 14.3267C76.1653 14.6011 76.5751 14.6362 76.8495 14.4051Z" fill="#DC425D" fill-opacity="0.23"/>
<path d="M79.639 17.7173C79.9134 17.4862 79.9485 17.0765 79.7174 16.8021C79.4863 16.5277 79.0765 16.4926 78.8021 16.7237C78.5277 16.9548 78.4926 17.3645 78.7237 17.6389C78.9548 17.9133 79.3646 17.9484 79.639 17.7173Z" fill="#DC425D" fill-opacity="0.23"/>
<path d="M82.4285 21.0296C82.7028 20.7985 82.738 20.3887 82.5069 20.1143C82.2758 19.8399 81.866 19.8048 81.5916 20.0359C81.3172 20.267 81.2821 20.6768 81.5132 20.9512C81.7443 21.2256 82.1541 21.2607 82.4285 21.0296Z" fill="#DC425D" fill-opacity="0.23"/>
<path d="M85.2179 24.3418C85.4923 24.1107 85.5274 23.701 85.2964 23.4266C85.0653 23.1522 84.6555 23.1171 84.3811 23.3482C84.1067 23.5792 84.0716 23.989 84.3027 24.2634C84.5338 24.5378 84.9435 24.5729 85.2179 24.3418Z" fill="#DC425D" fill-opacity="0.23"/>
<path d="M88.0075 27.6541C88.2819 27.423 88.317 27.0132 88.0859 26.7388C87.8548 26.4644 87.445 26.4293 87.1706 26.6604C86.8962 26.8915 86.8611 27.3013 87.0922 27.5757C87.3233 27.8501 87.7331 27.8852 88.0075 27.6541Z" fill="#DC425D" fill-opacity="0.23"/>
<path d="M67.9582 10.5701C68.2326 10.339 68.2677 9.92924 68.0367 9.65484C67.8056 9.38045 67.3958 9.34534 67.1214 9.57643C66.847 9.80752 66.8119 10.2173 67.043 10.4917C67.2741 10.7661 67.6838 10.8012 67.9582 10.5701Z" fill="#DC425D" fill-opacity="0.23"/>
<path d="M70.7477 13.8823C71.0221 13.6513 71.0572 13.2415 70.8261 12.9671C70.5951 12.6927 70.1853 12.6576 69.9109 12.8887C69.6365 13.1198 69.6014 13.5295 69.8325 13.8039C70.0636 14.0783 70.4733 14.1134 70.7477 13.8823Z" fill="#DC425D" fill-opacity="0.23"/>
<path d="M73.5372 17.1946C73.8116 16.9635 73.8467 16.5537 73.6156 16.2793C73.3845 16.0049 72.9748 15.9698 72.7004 16.2009C72.426 16.432 72.3909 16.8418 72.622 17.1162C72.853 17.3906 73.2628 17.4257 73.5372 17.1946Z" fill="#DC425D" fill-opacity="0.23"/>
<path d="M76.3267 20.5068C76.6011 20.2758 76.6362 19.866 76.4051 19.5916C76.174 19.3172 75.7643 19.2821 75.4899 19.5132C75.2155 19.7443 75.1804 20.154 75.4114 20.4284C75.6425 20.7028 76.0523 20.7379 76.3267 20.5068Z" fill="#DC425D" fill-opacity="0.23"/>
<path d="M79.1162 23.8191C79.3906 23.588 79.4257 23.1782 79.1946 22.9038C78.9635 22.6294 78.5537 22.5943 78.2793 22.8254C78.005 23.0565 77.9698 23.4663 78.2009 23.7407C78.432 24.0151 78.8418 24.0502 79.1162 23.8191Z" fill="#DC425D" fill-opacity="0.23"/>
<path d="M81.9057 27.1313C82.1801 26.9002 82.2153 26.4905 81.9842 26.2161C81.7531 25.9417 81.3433 25.9066 81.0689 26.1377C80.7945 26.3688 80.7594 26.7785 80.9905 27.0529C81.2216 27.3273 81.6314 27.3624 81.9057 27.1313Z" fill="#DC425D" fill-opacity="0.23"/>
<path d="M84.6952 30.4436C84.9696 30.2125 85.0047 29.8027 84.7736 29.5283C84.5426 29.2539 84.1328 29.2188 83.8584 29.4499C83.584 29.681 83.5489 30.0908 83.78 30.3652C84.0111 30.6396 84.4208 30.6747 84.6952 30.4436Z" fill="#DC425D" fill-opacity="0.23"/>
<path d="M87.4847 33.7558C87.7591 33.5247 87.7942 33.115 87.5631 32.8406C87.332 32.5662 86.9223 32.5311 86.6479 32.7622C86.3735 32.9932 86.3384 33.403 86.5695 33.6774C86.8006 33.9518 87.2103 33.9869 87.4847 33.7558Z" fill="#DC425D" fill-opacity="0.23"/>
<path d="M64.646 13.3596C64.9204 13.1285 64.9555 12.7187 64.7244 12.4443C64.4933 12.17 64.0835 12.1348 63.8091 12.3659C63.5347 12.597 63.4996 13.0068 63.7307 13.2812C63.9618 13.5556 64.3716 13.5907 64.646 13.3596Z" fill="#DC425D" fill-opacity="0.23"/>
<path d="M67.4355 16.6718C67.7099 16.4408 67.745 16.031 67.5139 15.7566C67.2828 15.4822 66.873 15.4471 66.5986 15.6782C66.3242 15.9093 66.2891 16.319 66.5202 16.5934C66.7513 16.8678 67.1611 16.9029 67.4355 16.6718Z" fill="#DC425D" fill-opacity="0.23"/>
<path d="M70.225 19.9841C70.4994 19.753 70.5345 19.3432 70.3034 19.0688C70.0723 18.7944 69.6625 18.7593 69.3881 18.9904C69.1137 19.2215 69.0786 19.6313 69.3097 19.9057C69.5408 20.1801 69.9506 20.2152 70.225 19.9841Z" fill="#DC425D" fill-opacity="0.23"/>
<path d="M73.0145 23.2963C73.2888 23.0653 73.324 22.6555 73.0929 22.3811C72.8618 22.1067 72.452 22.0716 72.1776 22.3027C71.9032 22.5338 71.8681 22.9435 72.0992 23.2179C72.3303 23.4923 72.7401 23.5274 73.0145 23.2963Z" fill="#DC425D" fill-opacity="0.23"/>
<path d="M75.804 26.6086C76.0784 26.3775 76.1135 25.9677 75.8824 25.6933C75.6513 25.4189 75.2415 25.3838 74.9672 25.6149C74.6928 25.846 74.6577 26.2558 74.8887 26.5302C75.1198 26.8046 75.5296 26.8397 75.804 26.6086Z" fill="#DC425D" fill-opacity="0.23"/>
<path d="M78.5935 29.9208C78.8679 29.6898 78.903 29.28 78.6719 29.0056C78.4408 28.7312 78.031 28.6961 77.7566 28.9272C77.4822 29.1583 77.4471 29.568 77.6782 29.8424C77.9093 30.1168 78.3191 30.1519 78.5935 29.9208Z" fill="#DC425D" fill-opacity="0.23"/>
<path d="M81.383 33.2331C81.6574 33.002 81.6925 32.5922 81.4614 32.3178C81.2303 32.0434 80.8205 32.0083 80.5461 32.2394C80.2717 32.4705 80.2366 32.8803 80.4677 33.1547C80.6988 33.4291 81.1086 33.4642 81.383 33.2331Z" fill="#DC425D" fill-opacity="0.23"/>
<path d="M84.1725 36.5453C84.4469 36.3142 84.482 35.9045 84.2509 35.6301C84.0198 35.3557 83.61 35.3206 83.3356 35.5517C83.0612 35.7828 83.0261 36.1925 83.2572 36.4669C83.4883 36.7413 83.8981 36.7764 84.1725 36.5453Z" fill="#DC425D" fill-opacity="0.23"/>
<path d="M86.962 39.8576C87.2364 39.6265 87.2715 39.2167 87.0404 38.9423C86.8093 38.6679 86.3995 38.6328 86.1251 38.8639C85.8507 39.095 85.8156 39.5048 86.0467 39.7792C86.2778 40.0536 86.6876 40.0887 86.962 39.8576Z" fill="#DC425D" fill-opacity="0.23"/>
<path d="M61.3337 16.1491C61.6081 15.918 61.6432 15.5082 61.4121 15.2338C61.181 14.9594 60.7713 14.9243 60.4969 15.1554C60.2225 15.3865 60.1874 15.7963 60.4185 16.0707C60.6496 16.3451 61.0593 16.3802 61.3337 16.1491Z" fill="#DC425D" fill-opacity="0.23"/>
<path d="M64.1232 19.4614C64.3976 19.2303 64.4327 18.8205 64.2016 18.5461C63.9705 18.2717 63.5608 18.2366 63.2864 18.4677C63.012 18.6988 62.9769 19.1085 63.208 19.3829C63.439 19.6573 63.8488 19.6924 64.1232 19.4614Z" fill="#DC425D" fill-opacity="0.23"/>
<path d="M66.9127 22.7736C67.1871 22.5425 67.2222 22.1327 66.9911 21.8583C66.76 21.5839 66.3503 21.5488 66.0759 21.7799C65.8015 22.011 65.7664 22.4208 65.9974 22.6952C66.2285 22.9696 66.6383 23.0047 66.9127 22.7736Z" fill="#DC425D" fill-opacity="0.23"/>
<path d="M69.7023 26.0858C69.9767 25.8547 70.0118 25.445 69.7807 25.1706C69.5496 24.8962 69.1398 24.8611 68.8654 25.0922C68.591 25.3233 68.5559 25.733 68.787 26.0074C69.0181 26.2818 69.4279 26.3169 69.7023 26.0858Z" fill="#DC425D" fill-opacity="0.23"/>
<path d="M72.4917 29.3981C72.7661 29.167 72.8012 28.7572 72.5702 28.4828C72.3391 28.2084 71.9293 28.1733 71.6549 28.4044C71.3805 28.6355 71.3454 29.0453 71.5765 29.3197C71.8076 29.5941 72.2174 29.6292 72.4917 29.3981Z" fill="#DC425D" fill-opacity="0.23"/>
<path d="M75.2812 32.7103C75.5556 32.4792 75.5907 32.0695 75.3596 31.7951C75.1286 31.5207 74.7188 31.4856 74.4444 31.7167C74.17 31.9477 74.1349 32.3575 74.366 32.6319C74.5971 32.9063 75.0068 32.9414 75.2812 32.7103Z" fill="#DC425D" fill-opacity="0.23"/>
<path d="M78.0707 36.0226C78.3451 35.7915 78.3802 35.3817 78.1491 35.1073C77.918 34.8329 77.5083 34.7978 77.2339 35.0289C76.9595 35.26 76.9244 35.6698 77.1555 35.9442C77.3866 36.2186 77.7963 36.2537 78.0707 36.0226Z" fill="#DC425D" fill-opacity="0.23"/>
<path d="M80.8602 39.3348C81.1346 39.1037 81.1697 38.694 80.9386 38.4196C80.7075 38.1452 80.2978 38.1101 80.0234 38.3412C79.749 38.5722 79.7139 38.982 79.945 39.2564C80.176 39.5308 80.5858 39.5659 80.8602 39.3348Z" fill="#DC425D" fill-opacity="0.23"/>
<path d="M83.6498 42.6471C83.9242 42.416 83.9593 42.0062 83.7282 41.7318C83.4971 41.4574 83.0873 41.4223 82.8129 41.6534C82.5385 41.8845 82.5034 42.2943 82.7345 42.5687C82.9656 42.8431 83.3754 42.8782 83.6498 42.6471Z" fill="#DC425D" fill-opacity="0.23"/>
<path d="M86.4393 45.9593C86.7137 45.7282 86.7488 45.3185 86.5177 45.0441C86.2866 44.7697 85.8768 44.7346 85.6024 44.9657C85.328 45.1967 85.2929 45.6065 85.524 45.8809C85.7551 46.1553 86.1649 46.1904 86.4393 45.9593Z" fill="#DC425D" fill-opacity="0.23"/>
</g>
<path d="M27.8336 40.1453C27.8336 38.2933 29.2922 36.76 31.1443 36.76V36.76V36.76C33.021 36.76 34.5003 38.3138 34.5003 40.1906V42.3347C34.5003 44.1862 33.041 45.72 31.1896 45.72V45.72V45.72C29.3122 45.72 27.8336 44.1668 27.8336 42.2894V40.1453Z" fill="#DC425D"/>
<path d="M27.8333 34.2C27.8333 33.5021 28.3944 32.9337 29.0923 32.9282C29.782 32.9227 30.4659 32.92 31.144 32.92C31.831 32.92 32.53 32.9228 33.2411 32.9284C33.9388 32.9338 34.5 33.5022 34.5 34.2V34.2C34.5 34.8978 33.9388 35.4662 33.2411 35.4717C32.5392 35.4772 31.8553 35.48 31.1893 35.48C30.4903 35.48 29.7913 35.4773 29.0923 35.4718C28.3944 35.4663 27.8333 34.8979 27.8333 34.2V34.2Z" fill="#DC425D"/>
<path d="M27.8333 30.36C27.8333 29.6621 28.3944 29.0937 29.0923 29.0882C29.782 29.0827 30.4659 29.08 31.144 29.08C31.831 29.08 32.53 29.0828 33.2411 29.0884C33.9388 29.0938 34.5 29.6622 34.5 30.36V30.36C34.5 31.0578 33.9388 31.6262 33.2411 31.6317C32.5392 31.6372 31.8553 31.64 31.1893 31.64C30.4903 31.64 29.7913 31.6373 29.0923 31.6318C28.3944 31.6263 27.8333 31.0579 27.8333 30.36V30.36Z" fill="#DC425D"/>
<path d="M27.8333 26.52C27.8333 25.8221 28.3944 25.2537 29.0923 25.2482C29.782 25.2427 30.4659 25.24 31.144 25.24C31.831 25.24 32.53 25.2428 33.2411 25.2484C33.9388 25.2538 34.5 25.8222 34.5 26.52V26.52C34.5 27.2178 33.9388 27.7862 33.2411 27.7917C32.5392 27.7972 31.8553 27.8 31.1893 27.8C30.4903 27.8 29.7913 27.7973 29.0923 27.7918C28.3944 27.7863 27.8333 27.2179 27.8333 26.52V26.52Z" fill="#DC425D"/>
<path d="M27.8333 22.68C27.8333 21.9821 28.3944 21.4137 29.0923 21.4082C29.782 21.4027 30.4659 21.4 31.144 21.4C31.831 21.4 32.53 21.4028 33.2411 21.4084C33.9388 21.4138 34.5 21.9822 34.5 22.68V22.68C34.5 23.3778 33.9388 23.9462 33.2411 23.9517C32.5392 23.9572 31.8553 23.96 31.1893 23.96C30.4903 23.96 29.7913 23.9573 29.0923 23.9518C28.3944 23.9463 27.8333 23.3779 27.8333 22.68V22.68Z" fill="#DC425D"/>
<path d="M27.8333 18.84C27.8333 18.1421 28.3944 17.5737 29.0923 17.5682C29.782 17.5627 30.4659 17.56 31.144 17.56C31.831 17.56 32.53 17.5628 33.2411 17.5684C33.9388 17.5738 34.5 18.1422 34.5 18.84V18.84C34.5 19.5378 33.9388 20.1062 33.2411 20.1117C32.5392 20.1172 31.8553 20.12 31.1893 20.12C30.4903 20.12 29.7913 20.1173 29.0923 20.1118C28.3944 20.1063 27.8333 19.5379 27.8333 18.84V18.84Z" fill="#DC425D"/>
<path d="M14.5 43.8C14.5 42.046 15.8929 40.603 17.6469 40.6001C17.7015 40.6 17.7561 40.6 17.8107 40.6C17.8802 40.6 17.9499 40.6001 18.0197 40.6002C19.7733 40.6038 21.1667 42.0464 21.1667 43.8V43.8C21.1667 45.5536 19.7733 46.9969 18.0197 46.9999C17.965 47 17.9105 47 17.856 47C17.7863 47 17.7166 46.9999 17.6469 46.9998C15.8929 46.9964 14.5 45.554 14.5 43.8V43.8Z" fill="#DC425D"/>
<path d="M14.5 38.04C14.5 37.3421 15.0611 36.7737 15.7589 36.7682C16.4487 36.7627 17.1326 36.76 17.8107 36.76C18.4976 36.76 19.1967 36.7628 19.9077 36.7684C20.6055 36.7738 21.1667 37.3422 21.1667 38.04V38.04C21.1667 38.7378 20.6055 39.3062 19.9077 39.3117C19.2059 39.3172 18.522 39.32 17.856 39.32C17.157 39.32 16.458 39.3173 15.7589 39.3118C15.0611 39.3063 14.5 38.7379 14.5 38.04V38.04Z" fill="#DC425D"/>
<path d="M14.5 34.2C14.5 33.5021 15.0611 32.9337 15.7589 32.9282C16.4487 32.9227 17.1326 32.92 17.8107 32.92C18.4976 32.92 19.1967 32.9228 19.9077 32.9284C20.6055 32.9338 21.1667 33.5022 21.1667 34.2V34.2C21.1667 34.8978 20.6055 35.4662 19.9077 35.4717C19.2059 35.4772 18.522 35.48 17.856 35.48C17.157 35.48 16.458 35.4773 15.7589 35.4718C15.0611 35.4663 14.5 34.8979 14.5 34.2V34.2Z" fill="#DC425D"/>
<path d="M14.5 30.36C14.5 29.6621 15.0611 29.0937 15.7589 29.0882C16.4487 29.0827 17.1326 29.08 17.8107 29.08C18.4976 29.08 19.1967 29.0828 19.9077 29.0884C20.6055 29.0938 21.1667 29.6622 21.1667 30.36V30.36C21.1667 31.0578 20.6055 31.6262 19.9077 31.6317C19.2059 31.6372 18.522 31.64 17.856 31.64C17.157 31.64 16.458 31.6373 15.7589 31.6318C15.0611 31.6263 14.5 31.0579 14.5 30.36V30.36Z" fill="#DC425D"/>
<path d="M14.5 26.52C14.5 25.8221 15.0611 25.2537 15.7589 25.2482C16.4487 25.2427 17.1326 25.24 17.8107 25.24C18.4976 25.24 19.1967 25.2428 19.9077 25.2484C20.6055 25.2538 21.1667 25.8222 21.1667 26.52V26.52C21.1667 27.2178 20.6055 27.7862 19.9077 27.7917C19.2059 27.7972 18.522 27.8 17.856 27.8C17.157 27.8 16.458 27.7973 15.7589 27.7918C15.0611 27.7863 14.5 27.2179 14.5 26.52V26.52Z" fill="#DC425D"/>
<path d="M14.5 22.68C14.5 21.9821 15.0611 21.4137 15.7589 21.4082C16.4487 21.4027 17.1326 21.4 17.8107 21.4C18.4976 21.4 19.1967 21.4028 19.9077 21.4084C20.6055 21.4138 21.1667 21.9822 21.1667 22.68V22.68C21.1667 23.3778 20.6055 23.9462 19.9077 23.9517C19.2059 23.9572 18.522 23.96 17.856 23.96C17.157 23.96 16.458 23.9573 15.7589 23.9518C15.0611 23.9463 14.5 23.3779 14.5 22.68V22.68Z" fill="#DC425D"/>
<path d="M41.1667 37.607C41.1667 35.7482 42.6185 34.2 44.4773 34.2V34.2V34.2C46.3608 34.2 47.8333 35.7688 47.8333 37.6523V42.313C47.8333 44.1711 46.3807 45.72 44.5227 45.72V45.72V45.72C42.6384 45.72 41.1667 44.1519 41.1667 42.2677V37.607Z" fill="#DC425D"/>
<path d="M41.1667 31.64C41.1667 30.9421 41.7278 30.3737 42.4256 30.3682C43.1154 30.3627 43.7993 30.36 44.4773 30.36C45.1643 30.36 45.8633 30.3628 46.5744 30.3684C47.2722 30.3738 47.8333 30.9422 47.8333 31.64V31.64C47.8333 32.3378 47.2722 32.9062 46.5744 32.9117C45.8725 32.9172 45.1886 32.92 44.5227 32.92C43.8236 32.92 43.1246 32.9173 42.4256 32.9118C41.7278 32.9063 41.1667 32.3379 41.1667 31.64V31.64Z" fill="#DC425D"/>
<path d="M41.1667 27.8C41.1667 27.1021 41.7278 26.5337 42.4256 26.5282C43.1154 26.5227 43.7993 26.52 44.4773 26.52C45.1643 26.52 45.8633 26.5228 46.5744 26.5284C47.2722 26.5338 47.8333 27.1022 47.8333 27.8V27.8C47.8333 28.4978 47.2722 29.0662 46.5744 29.0717C45.8725 29.0772 45.1886 29.08 44.5227 29.08C43.8236 29.08 43.1246 29.0773 42.4256 29.0718C41.7278 29.0663 41.1667 28.4979 41.1667 27.8V27.8Z" fill="#DC425D"/>
<path d="M41.1667 23.96C41.1667 23.2621 41.7278 22.6937 42.4256 22.6882C43.1154 22.6827 43.7993 22.68 44.4773 22.68C45.1643 22.68 45.8633 22.6828 46.5744 22.6884C47.2722 22.6938 47.8333 23.2622 47.8333 23.96V23.96C47.8333 24.6578 47.2722 25.2262 46.5744 25.2317C45.8725 25.2372 45.1886 25.24 44.5227 25.24C43.8236 25.24 43.1246 25.2373 42.4256 25.2318C41.7278 25.2263 41.1667 24.6579 41.1667 23.96V23.96Z" fill="#DC425D"/>
<path d="M41.1667 20.12C41.1667 19.4221 41.7278 18.8537 42.4256 18.8482C43.1154 18.8427 43.7993 18.84 44.4773 18.84C45.1643 18.84 45.8633 18.8428 46.5744 18.8484C47.2722 18.8538 47.8333 19.4222 47.8333 20.12V20.12C47.8333 20.8178 47.2722 21.3862 46.5744 21.3917C45.8725 21.3972 45.1886 21.4 44.5227 21.4C43.8236 21.4 43.1246 21.3973 42.4256 21.3918C41.7278 21.3863 41.1667 20.8179 41.1667 20.12V20.12Z" fill="#DC425D"/>
<path d="M41.1667 16.28C41.1667 15.5821 41.7278 15.0137 42.4256 15.0082C43.1154 15.0027 43.7993 15 44.4773 15C45.1643 15 45.8633 15.0028 46.5744 15.0084C47.2722 15.0138 47.8333 15.5822 47.8333 16.28V16.28C47.8333 16.9778 47.2722 17.5462 46.5744 17.5517C45.8725 17.5572 45.1886 17.56 44.5227 17.56C43.8236 17.56 43.1246 17.5573 42.4256 17.5518C41.7278 17.5463 41.1667 16.9779 41.1667 16.28V16.28Z" fill="#DC425D"/>
<path d="M54.5 43.8C54.5 42.046 55.8929 40.603 57.6469 40.6001C57.7015 40.6 57.7561 40.6 57.8107 40.6C57.8802 40.6 57.9499 40.6001 58.0197 40.6002C59.7733 40.6038 61.1667 42.0464 61.1667 43.8V43.8C61.1667 45.5536 59.7733 46.9969 58.0197 46.9999C57.965 47 57.9105 47 57.856 47C57.7863 47 57.7166 46.9999 57.6469 46.9998C55.8929 46.9964 54.5 45.554 54.5 43.8V43.8Z" fill="#DC425D"/>
<path d="M54.5 38.04C54.5 37.3421 55.0611 36.7737 55.7589 36.7682C56.4487 36.7627 57.1326 36.76 57.8107 36.76C58.4976 36.76 59.1967 36.7628 59.9077 36.7684C60.6055 36.7738 61.1667 37.3422 61.1667 38.04V38.04C61.1667 38.7378 60.6055 39.3062 59.9077 39.3117C59.2059 39.3172 58.522 39.32 57.856 39.32C57.157 39.32 56.4579 39.3173 55.7589 39.3118C55.0611 39.3063 54.5 38.7379 54.5 38.04V38.04Z" fill="#DC425D"/>
<path d="M54.5 34.2C54.5 33.5021 55.0611 32.9337 55.7589 32.9282C56.4487 32.9227 57.1326 32.92 57.8107 32.92C58.4976 32.92 59.1967 32.9228 59.9077 32.9284C60.6055 32.9338 61.1667 33.5022 61.1667 34.2V34.2C61.1667 34.8978 60.6055 35.4662 59.9077 35.4717C59.2059 35.4772 58.522 35.48 57.856 35.48C57.157 35.48 56.4579 35.4773 55.7589 35.4718C55.0611 35.4663 54.5 34.8979 54.5 34.2V34.2Z" fill="#DC425D"/>
<path d="M54.5 30.36C54.5 29.6621 55.0611 29.0937 55.7589 29.0882C56.4487 29.0827 57.1326 29.08 57.8107 29.08C58.4976 29.08 59.1967 29.0828 59.9077 29.0884C60.6055 29.0938 61.1667 29.6622 61.1667 30.36V30.36C61.1667 31.0578 60.6055 31.6262 59.9077 31.6317C59.2059 31.6372 58.522 31.64 57.856 31.64C57.157 31.64 56.4579 31.6373 55.7589 31.6318C55.0611 31.6263 54.5 31.0579 54.5 30.36V30.36Z" fill="#DC425D"/>
<path d="M54.5 26.52C54.5 25.8221 55.0611 25.2537 55.7589 25.2482C56.4487 25.2427 57.1326 25.24 57.8107 25.24C58.4976 25.24 59.1967 25.2428 59.9077 25.2484C60.6055 25.2538 61.1667 25.8222 61.1667 26.52V26.52C61.1667 27.2178 60.6055 27.7862 59.9077 27.7917C59.2059 27.7972 58.522 27.8 57.856 27.8C57.157 27.8 56.4579 27.7973 55.7589 27.7918C55.0611 27.7863 54.5 27.2179 54.5 26.52V26.52Z" fill="#DC425D"/>
<path d="M54.5 22.68C54.5 21.9821 55.0611 21.4137 55.7589 21.4082C56.4487 21.4027 57.1326 21.4 57.8107 21.4C58.4976 21.4 59.1967 21.4028 59.9077 21.4084C60.6055 21.4138 61.1667 21.9822 61.1667 22.68V22.68C61.1667 23.3778 60.6055 23.9462 59.9077 23.9517C59.2059 23.9572 58.522 23.96 57.856 23.96C57.157 23.96 56.4579 23.9573 55.7589 23.9518C55.0611 23.9463 54.5 23.3779 54.5 22.68V22.68Z" fill="#DC425D"/>
<path d="M54.5 18.84C54.5 18.1421 55.0611 17.5737 55.7589 17.5682C56.4487 17.5627 57.1326 17.56 57.8107 17.56C58.4976 17.56 59.1967 17.5628 59.9077 17.5684C60.6055 17.5738 61.1667 18.1422 61.1667 18.84V18.84C61.1667 19.5378 60.6055 20.1062 59.9077 20.1117C59.2059 20.1172 58.522 20.12 57.856 20.12C57.157 20.12 56.4579 20.1173 55.7589 20.1118C55.0611 20.1063 54.5 19.5379 54.5 18.84V18.84Z" fill="#DC425D"/>
<path d="M67.8331 44.44C67.8331 43.0393 68.95 41.8911 70.3507 41.8825C70.6159 41.8808 70.8803 41.88 71.1437 41.88C71.4212 41.88 71.7007 41.8809 71.9821 41.8827C73.3825 41.8918 74.4997 43.0395 74.4997 44.44V44.44C74.4997 45.8405 73.3825 46.9885 71.9821 46.9974C71.715 46.9991 71.4506 47 71.1891 47C70.9096 47 70.6302 46.9991 70.3507 46.9974C68.95 46.9886 67.8331 45.8407 67.8331 44.44V44.44Z" fill="#DC425D"/>
<path d="M67.8333 39.32C67.8333 38.6221 68.3944 38.0537 69.0923 38.0482C69.782 38.0427 70.4659 38.04 71.144 38.04C71.831 38.04 72.53 38.0428 73.2411 38.0484C73.9388 38.0538 74.5 38.6222 74.5 39.32V39.32C74.5 40.0178 73.9388 40.5862 73.2411 40.5917C72.5392 40.5972 71.8553 40.6 71.1893 40.6C70.4903 40.6 69.7913 40.5973 69.0923 40.5918C68.3944 40.5863 67.8333 40.0179 67.8333 39.32V39.32Z" fill="#DC425D"/>
<path d="M67.8333 35.48C67.8333 34.7821 68.3944 34.2137 69.0923 34.2082C69.782 34.2027 70.4659 34.2 71.144 34.2C71.831 34.2 72.53 34.2028 73.2411 34.2084C73.9388 34.2138 74.5 34.7822 74.5 35.48V35.48C74.5 36.1778 73.9388 36.7462 73.2411 36.7517C72.5392 36.7572 71.8553 36.76 71.1893 36.76C70.4903 36.76 69.7913 36.7573 69.0923 36.7518C68.3944 36.7463 67.8333 36.1779 67.8333 35.48V35.48Z" fill="#DC425D"/>
<path d="M67.8333 31.64C67.8333 30.9421 68.3944 30.3737 69.0923 30.3682C69.782 30.3627 70.4659 30.36 71.144 30.36C71.831 30.36 72.53 30.3628 73.2411 30.3684C73.9388 30.3738 74.5 30.9422 74.5 31.64V31.64C74.5 32.3378 73.9388 32.9062 73.2411 32.9117C72.5392 32.9172 71.8553 32.92 71.1893 32.92C70.4903 32.92 69.7913 32.9173 69.0923 32.9118C68.3944 32.9063 67.8333 32.3379 67.8333 31.64V31.64Z" fill="#DC425D"/>
<path d="M67.8333 27.8C67.8333 27.1021 68.3944 26.5337 69.0923 26.5282C69.782 26.5227 70.4659 26.52 71.144 26.52C71.831 26.52 72.53 26.5228 73.2411 26.5284C73.9388 26.5338 74.5 27.1022 74.5 27.8V27.8C74.5 28.4978 73.9388 29.0662 73.2411 29.0717C72.5392 29.0772 71.8553 29.08 71.1893 29.08C70.4903 29.08 69.7913 29.0773 69.0923 29.0718C68.3944 29.0663 67.8333 28.4979 67.8333 27.8V27.8Z" fill="#DC425D"/>
<path d="M67.8333 23.96C67.8333 23.2621 68.3944 22.6937 69.0923 22.6882C69.782 22.6827 70.4659 22.68 71.144 22.68C71.831 22.68 72.53 22.6828 73.2411 22.6884C73.9388 22.6938 74.5 23.2622 74.5 23.96V23.96C74.5 24.6578 73.9388 25.2262 73.2411 25.2317C72.5392 25.2372 71.8553 25.24 71.1893 25.24C70.4903 25.24 69.7913 25.2373 69.0923 25.2318C68.3944 25.2263 67.8333 24.6579 67.8333 23.96V23.96Z" fill="#DC425D"/>
</g>
<rect x="2" y="2" width="85" height="58" rx="10" stroke="#DC425D" stroke-width="3" stroke-linecap="round" stroke-dasharray="18 18"/>
<defs>
<clipPath id="clip0_786_4839">
<rect x="2" y="2" width="85" height="58" rx="10" fill="white"/>
</clipPath>
<clipPath id="clip1_786_4839">
<rect width="61.9246" height="27.2815" fill="white" transform="translate(-7.13284 -2) rotate(49.8967)"/>
</clipPath>
<clipPath id="clip2_786_4839">
<rect width="61.9246" height="27.2815" fill="white" transform="translate(80.8672 -2) rotate(49.8967)"/>
</clipPath>
</defs>
</svg>
