<svg width="45" height="31" viewBox="0 0 45 31" fill="none" xmlns="http://www.w3.org/2000/svg">
<g clip-path="url(#clip0_1186_11788)">
<mask id="mask0_1186_11788" style="mask-type:luminance" maskUnits="userSpaceOnUse" x="1" y="1" width="43" height="29">
<path d="M38.9331 1H6.0679C3.27545 1 1.01172 3.23858 1.01172 6V25C1.01172 27.7614 3.27545 30 6.0679 30H38.9331C41.7255 30 43.9892 27.7614 43.9892 25V6C43.9892 3.23858 41.7255 1 38.9331 1Z" fill="white"/>
</mask>
<g mask="url(#mask0_1186_11788)">
<path d="M38.9331 1H6.0679C3.27545 1 1.01172 3.23858 1.01172 6V25C1.01172 27.7614 3.27545 30 6.0679 30H38.9331C41.7255 30 43.9892 27.7614 43.9892 25V6C43.9892 3.23858 41.7255 1 38.9331 1Z" fill="#DEFF5B" fill-opacity="0.1"/>
<path d="M4.47789 13.5812C4.54984 12.6302 5.799 12.309 6.33025 13.1048L6.61956 13.5382C6.79203 13.7966 7.07583 13.9614 7.38805 13.9845L7.91167 14.0233C8.87331 14.0944 9.19812 15.3297 8.39332 15.855L7.9551 16.1411C7.6938 16.3117 7.52715 16.5923 7.50379 16.9011L7.4646 17.4189C7.39265 18.3699 6.14352 18.6911 5.61222 17.8952L5.32296 17.4618C5.15044 17.2034 4.86668 17.0386 4.55446 17.0155L4.03081 16.9768C3.06917 16.9056 2.74436 15.6704 3.54915 15.145L3.9874 14.8589C4.24869 14.6884 4.41535 14.4077 4.43871 14.099L4.47789 13.5812Z" fill="#D9D9D9"/>
<path d="M4.47789 13.5812C4.54984 12.6302 5.799 12.309 6.33025 13.1048L6.61956 13.5382C6.79203 13.7966 7.07583 13.9614 7.38805 13.9845L7.91167 14.0233C8.87331 14.0944 9.19812 15.3297 8.39332 15.855L7.9551 16.1411C7.6938 16.3117 7.52715 16.5923 7.50379 16.9011L7.4646 17.4189C7.39265 18.3699 6.14352 18.6911 5.61222 17.8952L5.32296 17.4618C5.15044 17.2034 4.86668 17.0386 4.55446 17.0155L4.03081 16.9768C3.06917 16.9056 2.74436 15.6704 3.54915 15.145L3.9874 14.8589C4.24869 14.6884 4.41535 14.4077 4.43871 14.099L4.47789 13.5812Z" fill="#DEFF5B"/>
<path d="M21.6703 23.3781C21.9659 24.2138 23.1642 24.205 23.4472 23.3651L25.0626 18.5714C25.1545 18.2986 25.3689 18.0834 25.6433 17.9885L30.4664 16.3202C31.3115 16.0279 31.3027 14.843 30.4533 14.5631L25.6057 12.9656C25.3299 12.8748 25.1123 12.6627 25.0163 12.3914L23.3293 7.6219C23.0337 6.7862 21.8354 6.79495 21.5524 7.6349L19.937 12.4286C19.8451 12.7013 19.6307 12.9165 19.3563 13.0114L14.5332 14.6797C13.6881 14.972 13.6969 16.157 14.5463 16.4369L19.3939 18.0343C19.6697 18.1252 19.8873 18.3372 19.9833 18.6086L21.6703 23.3781Z" fill="#D9D9D9"/>
<path d="M21.6703 23.3781C21.9659 24.2138 23.1642 24.205 23.4472 23.3651L25.0626 18.5714C25.1545 18.2986 25.3689 18.0834 25.6433 17.9885L30.4664 16.3202C31.3115 16.0279 31.3027 14.843 30.4533 14.5631L25.6057 12.9656C25.3299 12.8748 25.1123 12.6627 25.0163 12.3914L23.3293 7.6219C23.0337 6.7862 21.8354 6.79495 21.5524 7.6349L19.937 12.4286C19.8451 12.7013 19.6307 12.9165 19.3563 13.0114L14.5332 14.6797C13.6881 14.972 13.6969 16.157 14.5463 16.4369L19.3939 18.0343C19.6697 18.1252 19.8873 18.3372 19.9833 18.6086L21.6703 23.3781Z" fill="#DEFF5B"/>
<path d="M37.5355 13.5812C37.6074 12.6302 38.8566 12.309 39.3879 13.1048L39.6771 13.5382C39.8496 13.7966 40.1334 13.9614 40.4456 13.9845L40.9693 14.0233C41.9309 14.0944 42.2557 15.3297 41.4509 15.855L41.0127 16.1411C40.7514 16.3117 40.5848 16.5923 40.5614 16.9011L40.5222 17.4189C40.4503 18.3699 39.2011 18.6911 38.6698 17.8952L38.3806 17.4618C38.2081 17.2034 37.9243 17.0386 37.6121 17.0155L37.0884 16.9768C36.1268 16.9056 35.802 15.6704 36.6068 15.145L37.045 14.8589C37.3063 14.6884 37.4729 14.4077 37.4963 14.099L37.5355 13.5812Z" fill="#D9D9D9"/>
<path d="M37.5355 13.5812C37.6074 12.6302 38.8566 12.309 39.3879 13.1048L39.6771 13.5382C39.8496 13.7966 40.1334 13.9614 40.4456 13.9845L40.9693 14.0233C41.9309 14.0944 42.2557 15.3297 41.4509 15.855L41.0127 16.1411C40.7514 16.3117 40.5848 16.5923 40.5614 16.9011L40.5222 17.4189C40.4503 18.3699 39.2011 18.6911 38.6698 17.8952L38.3806 17.4618C38.2081 17.2034 37.9243 17.0386 37.6121 17.0155L37.0884 16.9768C36.1268 16.9056 35.802 15.6704 36.6068 15.145L37.045 14.8589C37.3063 14.6884 37.4729 14.4077 37.4963 14.099L37.5355 13.5812Z" fill="#DEFF5B"/>
<mask id="mask1_1186_11788" style="mask-type:luminance" maskUnits="userSpaceOnUse" x="-15" y="-1" width="32" height="33">
<path d="M16.5626 22.6826L-3.60645 -1L-14.1573 7.78693L6.01174 31.4695L16.5626 22.6826Z" fill="white"/>
</mask>
<g mask="url(#mask1_1186_11788)">
<path d="M2.20699 6.33055C2.34573 6.215 2.36348 6.0101 2.24664 5.8729C2.12979 5.7357 1.92261 5.71815 1.78387 5.8337C1.64512 5.94925 1.62738 6.15415 1.74422 6.29135C1.86106 6.42855 2.06825 6.4461 2.20699 6.33055Z" fill="#DEFF5B" fill-opacity="0.23"/>
<path d="M3.61812 7.98663C3.75686 7.87108 3.77461 7.66623 3.65777 7.52903C3.54092 7.39183 3.33374 7.37428 3.195 7.48983C3.05626 7.60533 3.03851 7.81023 3.15535 7.94743C3.27219 8.08463 3.47939 8.10218 3.61812 7.98663Z" fill="#DEFF5B" fill-opacity="0.23"/>
<path d="M5.02828 9.6428C5.16704 9.52725 5.18479 9.32235 5.06794 9.18515C4.95108 9.04795 4.74389 9.0304 4.60515 9.14595C4.46642 9.2615 4.44866 9.4664 4.56551 9.6036C4.68235 9.7408 4.88954 9.75835 5.02828 9.6428Z" fill="#DEFF5B" fill-opacity="0.23"/>
<path d="M6.43846 11.2989C6.5772 11.1833 6.59495 10.9785 6.4781 10.8413C6.36125 10.7041 6.15405 10.6865 6.01531 10.8021C5.87657 10.9176 5.85882 11.1225 5.97567 11.2597C6.09252 11.3969 6.29972 11.4144 6.43846 11.2989Z" fill="#DEFF5B" fill-opacity="0.23"/>
<path d="M7.84857 12.9551C7.98731 12.8395 8.00506 12.6346 7.88826 12.4974C7.77141 12.3602 7.56421 12.3427 7.42547 12.4582C7.28672 12.5738 7.26898 12.7787 7.38583 12.9159C7.50267 13.0531 7.70983 13.0706 7.84857 12.9551Z" fill="#DEFF5B" fill-opacity="0.23"/>
<path d="M9.25975 14.6111C9.39849 14.4956 9.41624 14.2907 9.29939 14.1535C9.18254 14.0163 8.97534 13.9988 8.8366 14.1143C8.69786 14.2298 8.68011 14.4347 8.79696 14.5719C8.91381 14.7091 9.12101 14.7267 9.25975 14.6111Z" fill="#DEFF5B" fill-opacity="0.23"/>
<path d="M10.6699 16.2673C10.8086 16.1518 10.8263 15.9469 10.7095 15.8097C10.5926 15.6725 10.3855 15.6549 10.2468 15.7705C10.108 15.886 10.0903 16.0909 10.2071 16.2281C10.3239 16.3653 10.5311 16.3829 10.6699 16.2673Z" fill="#DEFF5B" fill-opacity="0.23"/>
<path d="M12.0801 17.9234C12.2188 17.8078 12.2366 17.6029 12.1197 17.4657C12.0029 17.3285 11.7957 17.311 11.6569 17.4265C11.5182 17.5421 11.5004 17.747 11.6173 17.8842C11.7341 18.0214 11.9413 18.0389 12.0801 17.9234Z" fill="#DEFF5B" fill-opacity="0.23"/>
<path d="M13.4902 19.5795C13.6289 19.464 13.6467 19.2591 13.5298 19.1219C13.413 18.9847 13.2058 18.9671 13.0671 19.0827C12.9284 19.1982 12.9106 19.4031 13.0274 19.5403C13.1443 19.6775 13.3515 19.695 13.4902 19.5795Z" fill="#DEFF5B" fill-opacity="0.23"/>
<path d="M14.9014 21.2356C15.04 21.1201 15.0578 20.9152 14.941 20.778C14.8241 20.6408 14.6169 20.6232 14.4782 20.7388C14.3395 20.8543 14.3217 21.0592 14.4386 21.1964C14.5554 21.3336 14.7626 21.3512 14.9014 21.2356Z" fill="#DEFF5B" fill-opacity="0.23"/>
<path d="M16.3115 22.8918C16.4502 22.7762 16.468 22.5713 16.3511 22.4341C16.2343 22.2969 16.0271 22.2794 15.8884 22.3949C15.7496 22.5105 15.7319 22.7154 15.8487 22.8525C15.9656 22.9897 16.1728 23.0073 16.3115 22.8918Z" fill="#DEFF5B" fill-opacity="0.23"/>
<path d="M1.94332 9.3814C2.08206 9.26585 2.09981 9.061 1.98297 8.9238C1.86613 8.7866 1.65893 8.76905 1.52019 8.8846C1.38145 9.00015 1.3637 9.205 1.48055 9.3422C1.59739 9.4794 1.80458 9.49695 1.94332 9.3814Z" fill="#DEFF5B" fill-opacity="0.23"/>
<path d="M3.35348 11.0375C3.49222 10.922 3.50997 10.7171 3.39312 10.5799C3.27628 10.4427 3.06909 10.4251 2.93035 10.5407C2.79161 10.6562 2.77386 10.8611 2.8907 10.9983C3.00755 11.1355 3.21474 11.1531 3.35348 11.0375Z" fill="#DEFF5B" fill-opacity="0.23"/>
<path d="M4.76363 12.6937C4.90237 12.5781 4.92012 12.3733 4.80328 12.2361C4.68644 12.0989 4.47925 12.0813 4.3405 12.1969C4.20177 12.3124 4.18402 12.5173 4.30086 12.6545C4.4177 12.7917 4.62489 12.8092 4.76363 12.6937Z" fill="#DEFF5B" fill-opacity="0.23"/>
<path d="M6.17381 14.3498C6.31255 14.2342 6.3303 14.0293 6.21345 13.8921C6.0966 13.7549 5.8894 13.7374 5.75066 13.8529C5.61192 13.9685 5.59417 14.1734 5.71102 14.3106C5.82787 14.4478 6.03507 14.4653 6.17381 14.3498Z" fill="#DEFF5B" fill-opacity="0.23"/>
<path d="M7.58489 16.0059C7.72364 15.8903 7.74138 15.6854 7.62454 15.5483C7.50769 15.4111 7.30054 15.3935 7.16179 15.509C7.02305 15.6246 7.00531 15.8295 7.12215 15.9667C7.23895 16.1039 7.44615 16.1214 7.58489 16.0059Z" fill="#DEFF5B" fill-opacity="0.23"/>
<path d="M8.9951 17.662C9.13384 17.5465 9.15159 17.3416 9.03474 17.2044C8.91789 17.0672 8.71069 17.0496 8.57195 17.1652C8.43321 17.2807 8.41546 17.4856 8.53231 17.6228C8.64916 17.76 8.85636 17.7776 8.9951 17.662Z" fill="#DEFF5B" fill-opacity="0.23"/>
<path d="M10.4052 19.3181C10.5439 19.2026 10.5617 18.9977 10.4448 18.8605C10.328 18.7233 10.1208 18.7057 9.98211 18.8213C9.84336 18.9368 9.82562 19.1417 9.94247 19.2789C10.0593 19.4161 10.2665 19.4337 10.4052 19.3181Z" fill="#DEFF5B" fill-opacity="0.23"/>
<path d="M11.8163 20.9743C11.9551 20.8587 11.9728 20.6538 11.856 20.5166C11.7392 20.3794 11.532 20.3619 11.3932 20.4774C11.2545 20.593 11.2368 20.7978 11.3536 20.935C11.4704 21.0722 11.6776 21.0898 11.8163 20.9743Z" fill="#DEFF5B" fill-opacity="0.23"/>
<path d="M13.2265 22.6304C13.3653 22.5148 13.383 22.3099 13.2662 22.1727C13.1493 22.0356 12.9421 22.018 12.8034 22.1335C12.6647 22.2491 12.6469 22.454 12.7638 22.5912C12.8806 22.7284 13.0878 22.7459 13.2265 22.6304Z" fill="#DEFF5B" fill-opacity="0.23"/>
<path d="M14.6367 24.2865C14.7754 24.171 14.7931 23.9661 14.6763 23.8289C14.5594 23.6917 14.3523 23.6741 14.2136 23.7897C14.0748 23.9052 14.0571 24.1101 14.1739 24.2473C14.2908 24.3845 14.4979 24.4021 14.6367 24.2865Z" fill="#DEFF5B" fill-opacity="0.23"/>
<path d="M1.67867 12.4323C1.81741 12.3167 1.83516 12.1118 1.71832 11.9746C1.60147 11.8374 1.39428 11.8199 1.25554 11.9354C1.1168 12.051 1.09906 12.2559 1.2159 12.3931C1.33274 12.5303 1.53993 12.5478 1.67867 12.4323Z" fill="#DEFF5B" fill-opacity="0.23"/>
<path d="M3.08883 14.0884C3.22756 13.9728 3.24532 13.768 3.12847 13.6308C3.01163 13.4936 2.80444 13.476 2.6657 13.5915C2.52696 13.7071 2.50921 13.912 2.62606 14.0492C2.7429 14.1864 2.95009 14.2039 3.08883 14.0884Z" fill="#DEFF5B" fill-opacity="0.23"/>
<path d="M4.49996 15.7445C4.6387 15.629 4.65645 15.4241 4.53961 15.2869C4.42276 15.1497 4.21557 15.1321 4.07683 15.2477C3.93809 15.3632 3.92035 15.5681 4.03719 15.7053C4.15403 15.8425 4.36122 15.8601 4.49996 15.7445Z" fill="#DEFF5B" fill-opacity="0.23"/>
<path d="M5.91014 17.4006C6.04888 17.2851 6.06663 17.0802 5.94978 16.943C5.83293 16.8058 5.62573 16.7883 5.48699 16.9038C5.34825 17.0193 5.3305 17.2242 5.44735 17.3614C5.5642 17.4986 5.7714 17.5162 5.91014 17.4006Z" fill="#DEFF5B" fill-opacity="0.23"/>
<path d="M7.32026 19.0568C7.459 18.9413 7.47674 18.7364 7.3599 18.5992C7.24305 18.462 7.0359 18.4444 6.89715 18.56C6.75841 18.6755 6.74067 18.8804 6.85746 19.0176C6.97431 19.1548 7.18151 19.1724 7.32026 19.0568Z" fill="#DEFF5B" fill-opacity="0.23"/>
<path d="M8.73045 20.7129C8.86919 20.5973 8.88694 20.3925 8.77009 20.2553C8.65325 20.1181 8.44604 20.1005 8.3073 20.216C8.16856 20.3316 8.15081 20.5365 8.26766 20.6737C8.38451 20.8109 8.59171 20.8284 8.73045 20.7129Z" fill="#DEFF5B" fill-opacity="0.23"/>
<path d="M10.1416 22.3691C10.2803 22.2535 10.2981 22.0486 10.1812 21.9114C10.0644 21.7742 9.85718 21.7567 9.71843 21.8722C9.57969 21.9878 9.56195 22.1926 9.67879 22.3298C9.79564 22.467 10.0028 22.4846 10.1416 22.3691Z" fill="#DEFF5B" fill-opacity="0.23"/>
<path d="M11.5517 24.0251C11.6904 23.9096 11.7082 23.7047 11.5914 23.5675C11.4745 23.4303 11.2673 23.4127 11.1286 23.5283C10.9898 23.6438 10.9721 23.8487 11.089 23.9859C11.2058 24.1231 11.413 24.1407 11.5517 24.0251Z" fill="#DEFF5B" fill-opacity="0.23"/>
<path d="M12.9619 25.6813C13.1006 25.5657 13.1184 25.3608 13.0015 25.2236C12.8847 25.0864 12.6775 25.0689 12.5387 25.1844C12.4 25.3 12.3823 25.5048 12.4991 25.642C12.616 25.7792 12.8232 25.7968 12.9619 25.6813Z" fill="#DEFF5B" fill-opacity="0.23"/>
<path d="M1.41402 15.4831C1.55276 15.3676 1.57051 15.1627 1.45367 15.0255C1.33682 14.8883 1.12964 14.8708 0.990895 14.9863C0.852158 15.1018 0.834406 15.3067 0.951249 15.4439C1.06809 15.5811 1.27528 15.5987 1.41402 15.4831Z" fill="#DEFF5B" fill-opacity="0.23"/>
<path d="M2.82515 17.1393C2.9639 17.0237 2.98165 16.8188 2.8648 16.6816C2.74796 16.5444 2.54077 16.5269 2.40203 16.6424C2.26329 16.758 2.24554 16.9629 2.36238 17.1001C2.47923 17.2373 2.68642 17.2548 2.82515 17.1393Z" fill="#DEFF5B" fill-opacity="0.23"/>
<path d="M4.23531 18.7954C4.37405 18.6799 4.3918 18.475 4.27496 18.3378C4.15812 18.2006 3.95093 18.1831 3.81218 18.2986C3.67345 18.4141 3.6557 18.619 3.77254 18.7562C3.88938 18.8934 4.09657 18.911 4.23531 18.7954Z" fill="#DEFF5B" fill-opacity="0.23"/>
<path d="M5.64549 20.4515C5.78418 20.336 5.80198 20.1311 5.68513 19.9939C5.56828 19.8567 5.36108 19.8391 5.22234 19.9547C5.0836 20.0702 5.06585 20.2751 5.1827 20.4123C5.29955 20.5495 5.50675 20.5671 5.64549 20.4515Z" fill="#DEFF5B" fill-opacity="0.23"/>
<path d="M7.05561 22.1076C7.19435 21.9921 7.2121 21.7872 7.09525 21.65C6.9784 21.5128 6.7712 21.4952 6.63251 21.6108C6.49376 21.7263 6.47602 21.9312 6.59281 22.0684C6.70966 22.2056 6.91687 22.2232 7.05561 22.1076Z" fill="#DEFF5B" fill-opacity="0.23"/>
<path d="M8.46673 23.7638C8.60547 23.6482 8.62322 23.4433 8.50637 23.3061C8.38957 23.1689 8.18237 23.1514 8.04363 23.2669C7.90489 23.3825 7.88714 23.5874 8.00399 23.7246C8.12084 23.8617 8.32799 23.8793 8.46673 23.7638Z" fill="#DEFF5B" fill-opacity="0.23"/>
<path d="M9.87694 25.4199C10.0157 25.3044 10.0334 25.0995 9.91658 24.9623C9.79973 24.8251 9.59253 24.8075 9.45379 24.9231C9.31504 25.0386 9.2973 25.2435 9.41415 25.3807C9.53099 25.5179 9.7382 25.5355 9.87694 25.4199Z" fill="#DEFF5B" fill-opacity="0.23"/>
<path d="M11.287 27.076C11.4258 26.9605 11.4435 26.7556 11.3267 26.6184C11.2099 26.4812 11.0027 26.4636 10.8639 26.5792C10.7252 26.6947 10.7075 26.8996 10.8243 27.0368C10.9412 27.174 11.1483 27.1915 11.287 27.076Z" fill="#DEFF5B" fill-opacity="0.23"/>
<path d="M1.15035 18.534C1.28909 18.4185 1.30684 18.2136 1.19 18.0764C1.07315 17.9392 0.865961 17.9216 0.727224 18.0372C0.588483 18.1527 0.570736 18.3576 0.687579 18.4948C0.804422 18.632 1.01161 18.6496 1.15035 18.534Z" fill="#DEFF5B" fill-opacity="0.23"/>
<path d="M2.56051 20.1901C2.69924 20.0746 2.717 19.8697 2.60015 19.7325C2.48331 19.5953 2.27612 19.5778 2.13738 19.6933C1.99864 19.8088 1.98089 20.0137 2.09774 20.1509C2.21458 20.2881 2.42177 20.3057 2.56051 20.1901Z" fill="#DEFF5B" fill-opacity="0.23"/>
<path d="M3.97066 21.8463C4.1094 21.7307 4.12715 21.5258 4.01031 21.3886C3.89347 21.2514 3.68627 21.2339 3.54754 21.3494C3.4088 21.465 3.39105 21.6699 3.50789 21.8071C3.62473 21.9443 3.83192 21.9618 3.97066 21.8463Z" fill="#DEFF5B" fill-opacity="0.23"/>
<path d="M5.38079 23.5024C5.51954 23.3869 5.53728 23.182 5.42049 23.0448C5.30364 22.9076 5.09643 22.89 4.95769 23.0056C4.81895 23.1211 4.8012 23.326 4.91805 23.4632C5.03489 23.6004 5.2421 23.618 5.38079 23.5024Z" fill="#DEFF5B" fill-opacity="0.23"/>
<path d="M6.79198 25.1586C6.93072 25.043 6.94847 24.8381 6.83162 24.7009C6.71477 24.5637 6.50757 24.5462 6.36883 24.6617C6.23008 24.7773 6.21234 24.9821 6.32918 25.1193C6.44603 25.2565 6.65324 25.2741 6.79198 25.1586Z" fill="#DEFF5B" fill-opacity="0.23"/>
<path d="M8.20208 26.8147C8.34082 26.6991 8.35857 26.4942 8.24172 26.357C8.12487 26.2199 7.91772 26.2023 7.77898 26.3178C7.64024 26.4334 7.62249 26.6383 7.73934 26.7755C7.85619 26.9127 8.06334 26.9302 8.20208 26.8147Z" fill="#DEFF5B" fill-opacity="0.23"/>
<path d="M9.61229 28.4708C9.75103 28.3553 9.76878 28.1504 9.65193 28.0132C9.53508 27.876 9.32788 27.8584 9.18914 27.974C9.0504 28.0895 9.03265 28.2944 9.1495 28.4316C9.26635 28.5688 9.47355 28.5864 9.61229 28.4708Z" fill="#DEFF5B" fill-opacity="0.23"/>
<path d="M0.885701 21.5849C1.02444 21.4694 1.04219 21.2645 0.925346 21.1273C0.808503 20.9901 0.601316 20.9726 0.462575 21.0881C0.323836 21.2036 0.306086 21.4085 0.422929 21.5457C0.539772 21.6829 0.746964 21.7005 0.885701 21.5849Z" fill="#DEFF5B" fill-opacity="0.23"/>
<path d="M2.29586 23.241C2.4346 23.1255 2.45235 22.9206 2.3355 22.7834C2.21866 22.6462 2.01147 22.6286 1.87273 22.7442C1.73399 22.8597 1.71624 23.0646 1.83309 23.2018C1.94993 23.339 2.15712 23.3566 2.29586 23.241Z" fill="#DEFF5B" fill-opacity="0.23"/>
<path d="M3.70699 24.8972C3.84573 24.7816 3.86348 24.5768 3.74664 24.4396C3.62979 24.3024 3.42261 24.2848 3.28386 24.4003C3.14513 24.5159 3.12737 24.7208 3.24422 24.858C3.36106 24.9952 3.56825 25.0127 3.70699 24.8972Z" fill="#DEFF5B" fill-opacity="0.23"/>
<path d="M5.11713 26.5533C5.25587 26.4377 5.27361 26.2328 5.15682 26.0956C5.03995 25.9584 4.83276 25.9409 4.69402 26.0564C4.55528 26.172 4.53753 26.3768 4.65437 26.514C4.77122 26.6512 4.97841 26.6688 5.11713 26.5533Z" fill="#DEFF5B" fill-opacity="0.23"/>
<path d="M6.52733 28.2094C6.66607 28.0938 6.68382 27.8889 6.56697 27.7518C6.45012 27.6146 6.24292 27.597 6.10418 27.7125C5.96544 27.8281 5.94769 28.033 6.06454 28.1702C6.18138 28.3074 6.38859 28.3249 6.52733 28.2094Z" fill="#DEFF5B" fill-opacity="0.23"/>
<path d="M7.93743 29.8655C8.07618 29.75 8.09392 29.5451 7.97707 29.4079C7.86023 29.2707 7.65307 29.2531 7.51433 29.3687C7.37559 29.4842 7.35784 29.6891 7.47469 29.8263C7.59154 29.9635 7.79869 29.9811 7.93743 29.8655Z" fill="#DEFF5B" fill-opacity="0.23"/>
<path d="M2.03219 26.2919C2.17093 26.1764 2.18868 25.9715 2.07184 25.8343C1.95499 25.6971 1.7478 25.6795 1.60906 25.7951C1.47032 25.9106 1.45257 26.1155 1.56941 26.2527C1.68626 26.3899 1.89345 26.4075 2.03219 26.2919Z" fill="#DEFF5B" fill-opacity="0.23"/>
<path d="M3.44234 27.948C3.58108 27.8325 3.59883 27.6276 3.48199 27.4904C3.36515 27.3532 3.15795 27.3356 3.01922 27.4512C2.88048 27.5667 2.86273 27.7716 2.97957 27.9088C3.09641 28.046 3.3036 28.0636 3.44234 27.948Z" fill="#DEFF5B" fill-opacity="0.23"/>
<path d="M4.8525 29.6041C4.99124 29.4886 5.00899 29.2837 4.89215 29.1465C4.7753 29.0093 4.56811 28.9917 4.42938 29.1073C4.29063 29.2228 4.27288 29.4277 4.38973 29.5649C4.50657 29.7021 4.71376 29.7197 4.8525 29.6041Z" fill="#DEFF5B" fill-opacity="0.23"/>
</g>
<mask id="mask2_1186_11788" style="mask-type:luminance" maskUnits="userSpaceOnUse" x="30" y="-1" width="32" height="33">
<path d="M61.0567 22.6826L40.8877 -1L30.3369 7.78693L50.5059 31.4695L61.0567 22.6826Z" fill="white"/>
</mask>
<g mask="url(#mask2_1186_11788)">
<path d="M42.4707 1.36214C42.6094 1.2466 42.6272 1.04171 42.5103 0.904515C42.3935 0.767315 42.1863 0.749765 42.0475 0.86531C41.9088 0.980855 41.891 1.18574 42.0079 1.32294C42.1247 1.46013 42.3319 1.47769 42.4707 1.36214Z" fill="#DEFF5B" fill-opacity="0.23"/>
<path d="M43.8808 3.01828C44.0196 2.90273 44.0373 2.69784 43.9205 2.56064C43.8036 2.42345 43.5964 2.40589 43.4577 2.52144C43.319 2.63698 43.3012 2.84187 43.4181 2.97907C43.5349 3.11627 43.7421 3.13382 43.8808 3.01828Z" fill="#DEFF5B" fill-opacity="0.23"/>
<path d="M39.3857 1.10079C39.5244 0.985246 39.5422 0.780361 39.4254 0.643161C39.3085 0.505966 39.1013 0.488411 38.9626 0.603956C38.8238 0.719501 38.8061 0.924391 38.9229 1.06159C39.0398 1.19879 39.247 1.21634 39.3857 1.10079Z" fill="#DEFF5B" fill-opacity="0.23"/>
<path d="M40.7959 2.75692C40.9346 2.64137 40.9524 2.43649 40.8355 2.29929C40.7187 2.16209 40.5115 2.14454 40.3727 2.26008C40.234 2.37563 40.2162 2.58052 40.3331 2.71771C40.4499 2.85491 40.6571 2.87246 40.7959 2.75692Z" fill="#DEFF5B" fill-opacity="0.23"/>
<path d="M42.206 4.41305C42.3447 4.2975 42.3625 4.09261 42.2456 3.95542C42.1288 3.81822 41.9216 3.80067 41.7829 3.91621C41.6441 4.03176 41.6264 4.23664 41.7432 4.37384C41.8601 4.51104 42.0672 4.52859 42.206 4.41305Z" fill="#DEFF5B" fill-opacity="0.23"/>
<path d="M43.6162 6.06915C43.7549 5.95365 43.7727 5.74875 43.6558 5.61155C43.539 5.47435 43.3318 5.4568 43.193 5.57235C43.0543 5.6879 43.0366 5.89275 43.1534 6.02995C43.2703 6.16715 43.4775 6.1847 43.6162 6.06915Z" fill="#DEFF5B" fill-opacity="0.23"/>
<path d="M37.7109 2.49557C37.8497 2.38002 37.8674 2.17514 37.7506 2.03794C37.6337 1.90074 37.4265 1.88319 37.2878 1.99873C37.149 2.11428 37.1313 2.31917 37.2481 2.45636C37.365 2.59356 37.5722 2.61111 37.7109 2.49557Z" fill="#DEFF5B" fill-opacity="0.23"/>
<path d="M39.121 4.1517C39.2598 4.03615 39.2775 3.83126 39.1607 3.69407C39.0439 3.55687 38.8367 3.53932 38.6979 3.65486C38.5592 3.77041 38.5414 3.97529 38.6583 4.11249C38.7751 4.24969 38.9823 4.26724 39.121 4.1517Z" fill="#DEFF5B" fill-opacity="0.23"/>
<path d="M40.5312 5.80778C40.67 5.69223 40.6877 5.48733 40.5709 5.35013C40.454 5.21293 40.2468 5.19538 40.1081 5.31093C39.9693 5.42648 39.9516 5.63138 40.0684 5.76858C40.1853 5.90578 40.3925 5.92333 40.5312 5.80778Z" fill="#DEFF5B" fill-opacity="0.23"/>
<path d="M41.9423 7.46392C42.0811 7.34842 42.0988 7.14352 41.982 7.00632C41.8651 6.86912 41.658 6.85157 41.5192 6.96712C41.3805 7.08267 41.3627 7.28752 41.4796 7.42472C41.5964 7.56192 41.8036 7.57947 41.9423 7.46392Z" fill="#DEFF5B" fill-opacity="0.23"/>
<path d="M43.3525 9.12004C43.4913 9.00449 43.509 8.79959 43.3922 8.66239C43.2753 8.52519 43.0681 8.50764 42.9294 8.62319C42.7906 8.73874 42.7729 8.94364 42.8897 9.08084C43.0066 9.21804 43.2138 9.23559 43.3525 9.12004Z" fill="#DEFF5B" fill-opacity="0.23"/>
<path d="M36.0361 3.89028C36.1748 3.77474 36.1926 3.56985 36.0757 3.43265C35.9589 3.29545 35.7517 3.2779 35.613 3.39344C35.4742 3.50899 35.4565 3.71388 35.5733 3.85108C35.6902 3.98827 35.8973 4.00583 36.0361 3.89028Z" fill="#DEFF5B" fill-opacity="0.23"/>
<path d="M37.4463 5.54643C37.585 5.43088 37.6028 5.22598 37.4859 5.08878C37.3691 4.95158 37.1619 4.93403 37.0231 5.04958C36.8844 5.16513 36.8666 5.36998 36.9835 5.50718C37.1003 5.64438 37.3075 5.66193 37.4463 5.54643Z" fill="#DEFF5B" fill-opacity="0.23"/>
<path d="M38.8564 7.20256C38.9951 7.08701 39.0129 6.88211 38.896 6.74491C38.7792 6.60771 38.572 6.59016 38.4333 6.70571C38.2945 6.82126 38.2768 7.02616 38.3936 7.16336C38.5104 7.30056 38.7176 7.31811 38.8564 7.20256Z" fill="#DEFF5B" fill-opacity="0.23"/>
<path d="M40.2676 8.85864C40.4063 8.74309 40.4241 8.53823 40.3072 8.40103C40.1904 8.26383 39.9832 8.24628 39.8444 8.36183C39.7057 8.47738 39.6879 8.68224 39.8048 8.81944C39.9216 8.95664 40.1288 8.97419 40.2676 8.85864Z" fill="#DEFF5B" fill-opacity="0.23"/>
<path d="M41.6777 10.5148C41.8164 10.3993 41.8342 10.1944 41.7173 10.0572C41.6005 9.91996 41.3933 9.90241 41.2546 10.018C41.1158 10.1335 41.0981 10.3384 41.2149 10.4756C41.3317 10.6128 41.5389 10.6304 41.6777 10.5148Z" fill="#DEFF5B" fill-opacity="0.23"/>
<path d="M43.0878 12.1709C43.2266 12.0553 43.2443 11.8505 43.1275 11.7133C43.0107 11.5761 42.8035 11.5585 42.6647 11.6741C42.526 11.7896 42.5082 11.9945 42.6251 12.1317C42.7419 12.2689 42.9491 12.2864 43.0878 12.1709Z" fill="#DEFF5B" fill-opacity="0.23"/>
<path d="M44.498 13.8271C44.6368 13.7115 44.6545 13.5066 44.5377 13.3694C44.4208 13.2322 44.2136 13.2147 44.0749 13.3302C43.9361 13.4458 43.9184 13.6507 44.0352 13.7879C44.1521 13.9251 44.3593 13.9426 44.498 13.8271Z" fill="#DEFF5B" fill-opacity="0.23"/>
<path d="M34.3613 5.28506C34.5001 5.16951 34.5178 4.96463 34.401 4.82743C34.2841 4.69023 34.0769 4.67268 33.9382 4.78822C33.7994 4.90377 33.7817 5.10866 33.8985 5.24586C34.0154 5.38306 34.2226 5.40061 34.3613 5.28506Z" fill="#DEFF5B" fill-opacity="0.23"/>
<path d="M35.7714 6.94115C35.9102 6.82565 35.9279 6.62075 35.8111 6.48355C35.6943 6.34635 35.4871 6.3288 35.3483 6.44435C35.2096 6.5599 35.1918 6.76475 35.3087 6.90195C35.4255 7.03915 35.6327 7.0567 35.7714 6.94115Z" fill="#DEFF5B" fill-opacity="0.23"/>
<path d="M37.1816 8.59727C37.3204 8.48172 37.3381 8.27682 37.2213 8.13962C37.1044 8.00242 36.8972 7.98487 36.7585 8.10042C36.6197 8.21597 36.602 8.42087 36.7188 8.55807C36.8357 8.69527 37.0429 8.71282 37.1816 8.59727Z" fill="#DEFF5B" fill-opacity="0.23"/>
<path d="M38.5927 10.2534C38.7315 10.1379 38.7492 9.93301 38.6324 9.79581C38.5155 9.65861 38.3084 9.64106 38.1696 9.75661C38.0309 9.87216 38.0131 10.077 38.1299 10.2142C38.2468 10.3514 38.454 10.369 38.5927 10.2534Z" fill="#DEFF5B" fill-opacity="0.23"/>
<path d="M40.0029 11.9095C40.1417 11.794 40.1594 11.5891 40.0426 11.4519C39.9257 11.3147 39.7185 11.2971 39.5798 11.4127C39.441 11.5282 39.4233 11.7331 39.5401 11.8703C39.657 12.0075 39.8642 12.0251 40.0029 11.9095Z" fill="#DEFF5B" fill-opacity="0.23"/>
<path d="M41.4131 13.5657C41.5518 13.4501 41.5696 13.2453 41.4527 13.1081C41.3359 12.9709 41.1287 12.9533 40.9899 13.0689C40.8512 13.1844 40.8334 13.3893 40.9503 13.5265C41.0671 13.6637 41.2743 13.6812 41.4131 13.5657Z" fill="#DEFF5B" fill-opacity="0.23"/>
<path d="M42.8232 15.2218C42.9619 15.1062 42.9797 14.9013 42.8628 14.7641C42.746 14.6269 42.5388 14.6094 42.4001 14.7249C42.2613 14.8405 42.2436 15.0454 42.3604 15.1826C42.4773 15.3198 42.6844 15.3373 42.8232 15.2218Z" fill="#DEFF5B" fill-opacity="0.23"/>
<path d="M44.2344 16.8779C44.3731 16.7623 44.3908 16.5575 44.274 16.4203C44.1572 16.2831 43.9499 16.2655 43.8112 16.3811C43.6725 16.4966 43.6547 16.7015 43.7716 16.8387C43.8884 16.9759 44.0956 16.9934 44.2344 16.8779Z" fill="#DEFF5B" fill-opacity="0.23"/>
<path d="M32.6865 6.67977C32.8252 6.56422 32.8429 6.35932 32.7261 6.22212C32.6092 6.08497 32.4021 6.06737 32.2634 6.18292C32.1246 6.29847 32.1069 6.50337 32.2237 6.64057C32.3405 6.77777 32.5477 6.79532 32.6865 6.67977Z" fill="#DEFF5B" fill-opacity="0.23"/>
<path d="M34.0967 8.33587C34.2354 8.22037 34.2532 8.01547 34.1363 7.87827C34.0195 7.74107 33.8123 7.72352 33.6735 7.83907C33.5348 7.95462 33.517 8.15947 33.6339 8.29667C33.7507 8.43387 33.9579 8.45142 34.0967 8.33587Z" fill="#DEFF5B" fill-opacity="0.23"/>
<path d="M35.5068 9.99205C35.6455 9.8765 35.6633 9.6716 35.5464 9.5344C35.4296 9.3972 35.2224 9.37965 35.0837 9.4952C34.9449 9.61075 34.9272 9.81565 35.044 9.95285C35.1609 10.09 35.368 10.1076 35.5068 9.99205Z" fill="#DEFF5B" fill-opacity="0.23"/>
<path d="M36.918 11.6481C37.0566 11.5326 37.0744 11.3277 36.9576 11.1905C36.8407 11.0533 36.6335 11.0358 36.4948 11.1513C36.3561 11.2669 36.3383 11.4717 36.4552 11.6089C36.572 11.7461 36.7792 11.7637 36.918 11.6481Z" fill="#DEFF5B" fill-opacity="0.23"/>
<path d="M38.3281 13.3043C38.4668 13.1888 38.4846 12.9839 38.3677 12.8467C38.2509 12.7095 38.0437 12.6919 37.905 12.8075C37.7662 12.923 37.7485 13.1279 37.8653 13.2651C37.9821 13.4023 38.1893 13.4199 38.3281 13.3043Z" fill="#DEFF5B" fill-opacity="0.23"/>
<path d="M39.7382 14.9604C39.877 14.8449 39.8947 14.64 39.7779 14.5028C39.6611 14.3656 39.4539 14.348 39.3151 14.4636C39.1764 14.5791 39.1586 14.784 39.2755 14.9212C39.3923 15.0584 39.5995 15.0759 39.7382 14.9604Z" fill="#DEFF5B" fill-opacity="0.23"/>
<path d="M41.1494 16.6166C41.2881 16.501 41.3059 16.2961 41.189 16.1589C41.0722 16.0217 40.865 16.0042 40.7262 16.1197C40.5875 16.2353 40.5698 16.4402 40.6866 16.5774C40.8035 16.7146 41.0107 16.7321 41.1494 16.6166Z" fill="#DEFF5B" fill-opacity="0.23"/>
<path d="M42.5595 18.2726C42.6982 18.1571 42.716 17.9522 42.5991 17.815C42.4823 17.6778 42.2751 17.6603 42.1364 17.7758C41.9977 17.8914 41.9799 18.0962 42.0968 18.2334C42.2136 18.3706 42.4208 18.3882 42.5595 18.2726Z" fill="#DEFF5B" fill-opacity="0.23"/>
<path d="M43.9697 19.9288C44.1085 19.8133 44.1262 19.6084 44.0094 19.4712C43.8925 19.334 43.6853 19.3164 43.5466 19.432C43.4078 19.5475 43.3901 19.7524 43.5069 19.8896C43.6238 20.0268 43.831 20.0444 43.9697 19.9288Z" fill="#DEFF5B" fill-opacity="0.23"/>
<path d="M31.0117 8.07457C31.1504 7.95902 31.1682 7.75412 31.0513 7.61692C30.9345 7.47972 30.7273 7.46217 30.5886 7.57772C30.4498 7.69327 30.4321 7.89817 30.5489 8.03537C30.6658 8.17257 30.873 8.19012 31.0117 8.07457Z" fill="#DEFF5B" fill-opacity="0.23"/>
<path d="M32.4218 9.73069C32.5606 9.61514 32.5783 9.41024 32.4614 9.27304C32.3446 9.13584 32.1374 9.11829 31.9987 9.23384C31.86 9.34939 31.8422 9.55424 31.9591 9.69144C32.0759 9.82864 32.2831 9.84619 32.4218 9.73069Z" fill="#DEFF5B" fill-opacity="0.23"/>
<path d="M33.833 11.3868C33.9717 11.2712 33.9895 11.0663 33.8726 10.9291C33.7558 10.7919 33.5486 10.7744 33.4098 10.8899C33.2711 11.0055 33.2534 11.2104 33.3702 11.3476C33.487 11.4848 33.6943 11.5023 33.833 11.3868Z" fill="#DEFF5B" fill-opacity="0.23"/>
<path d="M35.2431 13.0429C35.3819 12.9274 35.3996 12.7225 35.2828 12.5853C35.1659 12.4481 34.9587 12.4305 34.82 12.5461C34.6813 12.6616 34.6635 12.8665 34.7803 13.0037C34.8972 13.1409 35.1044 13.1585 35.2431 13.0429Z" fill="#DEFF5B" fill-opacity="0.23"/>
<path d="M36.6533 14.699C36.792 14.5835 36.8097 14.3786 36.6929 14.2414C36.5761 14.1042 36.3689 14.0866 36.2302 14.2022C36.0914 14.3177 36.0737 14.5226 36.1905 14.6598C36.3074 14.797 36.5146 14.8146 36.6533 14.699Z" fill="#DEFF5B" fill-opacity="0.23"/>
<path d="M38.0635 16.3552C38.2022 16.2396 38.2199 16.0348 38.1031 15.8976C37.9863 15.7604 37.7791 15.7428 37.6403 15.8584C37.5016 15.9739 37.4838 16.1788 37.6007 16.316C37.7175 16.4532 37.9247 16.4707 38.0635 16.3552Z" fill="#DEFF5B" fill-opacity="0.23"/>
<path d="M39.4745 18.0113C39.6133 17.8957 39.631 17.6908 39.5142 17.5536C39.3973 17.4164 39.1902 17.3989 39.0514 17.5144C38.9127 17.63 38.895 17.8349 39.0118 17.9721C39.1287 18.1093 39.3358 18.1268 39.4745 18.0113Z" fill="#DEFF5B" fill-opacity="0.23"/>
<path d="M40.8847 19.6674C41.0235 19.5519 41.0412 19.347 40.9244 19.2098C40.8075 19.0726 40.6003 19.0551 40.4616 19.1706C40.3229 19.2861 40.3051 19.491 40.422 19.6282C40.5388 19.7654 40.746 19.783 40.8847 19.6674Z" fill="#DEFF5B" fill-opacity="0.23"/>
<path d="M42.2949 21.3235C42.4336 21.208 42.4514 21.0031 42.3345 20.8659C42.2177 20.7287 42.0105 20.7111 41.8718 20.8267C41.733 20.9422 41.7153 21.1471 41.8321 21.2843C41.9489 21.4215 42.1561 21.4391 42.2949 21.3235Z" fill="#DEFF5B" fill-opacity="0.23"/>
<path d="M43.7051 22.9797C43.8438 22.8641 43.8616 22.6593 43.7447 22.5221C43.6279 22.3849 43.4207 22.3673 43.2819 22.4829C43.1432 22.5984 43.1254 22.8033 43.2423 22.9405C43.3591 23.0777 43.5663 23.0952 43.7051 22.9797Z" fill="#DEFF5B" fill-opacity="0.23"/>
</g>
</g>
<path d="M38.9331 1H6.0679C3.27545 1 1.01172 3.23858 1.01172 6V25C1.01172 27.7614 3.27545 30 6.0679 30H38.9331C41.7255 30 43.9892 27.7614 43.9892 25V6C43.9892 3.23858 41.7255 1 38.9331 1Z" stroke="#DEFF5B" stroke-width="3" stroke-linecap="round"/>
</g>
<defs>
<clipPath id="clip0_1186_11788">
<rect width="45" height="31" fill="white"/>
</clipPath>
</defs>
</svg>
