<svg width="89" height="62" viewBox="0 0 89 62" fill="none" xmlns="http://www.w3.org/2000/svg">
<g clip-path="url(#clip0_788_4843)">
<rect x="2" y="2" width="85" height="58" rx="10" fill="#B251FE" fill-opacity="0.1"/>
<g opacity="0.34">
<g clip-path="url(#clip1_788_4843)">
<path d="M18.4246 2.58186C18.7057 2.38731 18.7759 2.00169 18.5813 1.72055C18.3868 1.43941 18.0012 1.36922 17.72 1.56377C17.4389 1.75832 17.3687 2.14394 17.5632 2.42508C17.7578 2.70622 18.1434 2.77641 18.4246 2.58186Z" fill="#B251FE"/>
<path d="M20.773 5.97551C21.0541 5.78096 21.1243 5.39533 20.9298 5.11419C20.7352 4.83306 20.3496 4.76286 20.0685 4.95742C19.7873 5.15197 19.7171 5.53759 19.9117 5.81873C20.1062 6.09987 20.4919 6.17006 20.773 5.97551Z" fill="#B251FE"/>
<path d="M23.1215 9.36915C23.4026 9.1746 23.4728 8.78898 23.2782 8.50784C23.0837 8.2267 22.6981 8.15651 22.4169 8.35106C22.1358 8.54561 22.0656 8.93124 22.2601 9.21237C22.4547 9.49351 22.8403 9.56371 23.1215 9.36915Z" fill="#B251FE"/>
<path d="M25.4699 12.7628C25.751 12.5682 25.8212 12.1826 25.6267 11.9015C25.4321 11.6203 25.0465 11.5501 24.7654 11.7447C24.4842 11.9392 24.414 12.3249 24.6086 12.606C24.8031 12.8871 25.1888 12.9573 25.4699 12.7628Z" fill="#B251FE"/>
<path d="M27.8184 16.1564C28.0995 15.9619 28.1697 15.5762 27.9751 15.2951C27.7806 15.014 27.395 14.9438 27.1138 15.1383C26.8327 15.3329 26.7625 15.7185 26.957 15.9996C27.1516 16.2808 27.5372 16.351 27.8184 16.1564Z" fill="#B251FE"/>
<path d="M30.1668 19.5501C30.4479 19.3555 30.5181 18.9699 30.3236 18.6887C30.129 18.4076 29.7434 18.3374 29.4623 18.532C29.1811 18.7265 29.1109 19.1121 29.3055 19.3933C29.5 19.6744 29.8857 19.7446 30.1668 19.5501Z" fill="#B251FE"/>
<path d="M32.5153 22.9437C32.7964 22.7492 32.8666 22.3635 32.672 22.0824C32.4775 21.8013 32.0919 21.7311 31.8107 21.9256C31.5296 22.1202 31.4594 22.5058 31.6539 22.7869C31.8485 23.0681 32.2341 23.1383 32.5153 22.9437Z" fill="#B251FE"/>
<path d="M15.0309 4.93031C15.3121 4.73576 15.3823 4.35014 15.1877 4.069C14.9932 3.78786 14.6075 3.71767 14.3264 3.91222C14.0453 4.10677 13.9751 4.49239 14.1696 4.77353C14.3642 5.05467 14.7498 5.12486 15.0309 4.93031Z" fill="#B251FE"/>
<path d="M17.3794 8.32396C17.6605 8.12941 17.7307 7.74378 17.5362 7.46264C17.3416 7.18151 16.956 7.11131 16.6749 7.30587C16.3937 7.50042 16.3235 7.88604 16.5181 8.16718C16.7126 8.44832 17.0982 8.51851 17.3794 8.32396Z" fill="#B251FE"/>
<path d="M19.7278 11.7176C20.009 11.5231 20.0792 11.1374 19.8846 10.8563C19.6901 10.5752 19.3044 10.505 19.0233 10.6995C18.7422 10.8941 18.672 11.2797 18.8665 11.5608C19.0611 11.842 19.4467 11.9122 19.7278 11.7176Z" fill="#B251FE"/>
<path d="M22.0762 15.1112C22.3574 14.9167 22.4276 14.5311 22.233 14.2499C22.0385 13.9688 21.6528 13.8986 21.3717 14.0931C21.0906 14.2877 21.0204 14.6733 21.2149 14.9545C21.4095 15.2356 21.7951 15.3058 22.0762 15.1112Z" fill="#B251FE"/>
<path d="M24.4247 18.5049C24.7058 18.3103 24.776 17.9247 24.5815 17.6436C24.3869 17.3624 24.0013 17.2922 23.7201 17.4868C23.439 17.6813 23.3688 18.0669 23.5634 18.3481C23.7579 18.6292 24.1435 18.6994 24.4247 18.5049Z" fill="#B251FE"/>
<path d="M26.7731 21.8985C27.0543 21.704 27.1245 21.3183 26.9299 21.0372C26.7354 20.7561 26.3497 20.6859 26.0686 20.8804C25.7875 21.075 25.7173 21.4606 25.9118 21.7417C26.1064 22.0229 26.492 22.0931 26.7731 21.8985Z" fill="#B251FE"/>
<path d="M29.1216 25.2922C29.4027 25.0976 29.4729 24.712 29.2784 24.4308C29.0838 24.1497 28.6982 24.0795 28.417 24.2741C28.1359 24.4686 28.0657 24.8542 28.2603 25.1354C28.4548 25.4165 28.8404 25.4867 29.1216 25.2922Z" fill="#B251FE"/>
<path d="M9.28881 3.88513C9.56995 3.69058 9.64014 3.30495 9.44559 3.02382C9.25104 2.74268 8.86542 2.67249 8.58428 2.86704C8.30314 3.06159 8.23295 3.44721 8.4275 3.72835C8.62205 4.00949 9.00767 4.07968 9.28881 3.88513Z" fill="#B251FE"/>
<path d="M11.6373 7.27876C11.9184 7.08421 11.9886 6.69859 11.794 6.41745C11.5995 6.13631 11.2139 6.06612 10.9327 6.26067C10.6516 6.45522 10.5814 6.84084 10.7759 7.12198C10.9705 7.40312 11.3561 7.47331 11.6373 7.27876Z" fill="#B251FE"/>
<path d="M13.9857 10.6724C14.2668 10.4779 14.337 10.0922 14.1425 9.81109C13.9479 9.52996 13.5623 9.45976 13.2812 9.65431C13 9.84887 12.9298 10.2345 13.1244 10.5156C13.319 10.7968 13.7046 10.867 13.9857 10.6724Z" fill="#B251FE"/>
<path d="M16.3342 14.0661C16.6153 13.8715 16.6855 13.4859 16.4909 13.2047C16.2964 12.9236 15.9108 12.8534 15.6296 13.048C15.3485 13.2425 15.2783 13.6281 15.4728 13.9093C15.6674 14.1904 16.053 14.2606 16.3342 14.0661Z" fill="#B251FE"/>
<path d="M18.6826 17.4597C18.9637 17.2651 19.0339 16.8795 18.8394 16.5984C18.6448 16.3172 18.2592 16.247 17.9781 16.4416C17.6969 16.6361 17.6267 17.0218 17.8213 17.3029C18.0158 17.584 18.4015 17.6542 18.6826 17.4597Z" fill="#B251FE"/>
<path d="M21.0311 20.8533C21.3122 20.6588 21.3824 20.2731 21.1878 19.992C20.9933 19.7109 20.6077 19.6407 20.3265 19.8352C20.0454 20.0298 19.9752 20.4154 20.1697 20.6965C20.3643 20.9777 20.7499 21.0479 21.0311 20.8533Z" fill="#B251FE"/>
<path d="M23.3795 24.247C23.6606 24.0524 23.7308 23.6668 23.5363 23.3856C23.3417 23.1045 22.9561 23.0343 22.675 23.2289C22.3938 23.4234 22.3236 23.809 22.5182 24.0902C22.7127 24.3713 23.0984 24.4415 23.3795 24.247Z" fill="#B251FE"/>
<path d="M25.728 27.6406C26.0091 27.4461 26.0793 27.0604 25.8847 26.7793C25.6902 26.4982 25.3046 26.428 25.0234 26.6225C24.7423 26.8171 24.6721 27.2027 24.8666 27.4838C25.0612 27.765 25.4468 27.8352 25.728 27.6406Z" fill="#B251FE"/>
<path d="M3.54675 2.83993C3.82788 2.64538 3.89808 2.25976 3.70352 1.97862C3.50897 1.69748 3.12335 1.62729 2.84221 1.82184C2.56107 2.01639 2.49088 2.40202 2.68543 2.68315C2.87998 2.96429 3.26561 3.03449 3.54675 2.83993Z" fill="#B251FE"/>
<path d="M5.8952 6.23358C6.17633 6.03903 6.24653 5.6534 6.05197 5.37227C5.85742 5.09113 5.4718 5.02094 5.19066 5.21549C4.90952 5.41004 4.83933 5.79566 5.03388 6.0768C5.22843 6.35794 5.61406 6.42813 5.8952 6.23358Z" fill="#B251FE"/>
<path d="M8.24365 9.62721C8.52478 9.43266 8.59498 9.04704 8.40042 8.7659C8.20587 8.48476 7.82025 8.41457 7.53911 8.60912C7.25797 8.80367 7.18778 9.18929 7.38233 9.47043C7.57688 9.75157 7.96251 9.82176 8.24365 9.62721Z" fill="#B251FE"/>
<path d="M10.5921 13.0209C10.8732 12.8263 10.9434 12.4407 10.7489 12.1595C10.5543 11.8784 10.1687 11.8082 9.88756 12.0028C9.60642 12.1973 9.53623 12.5829 9.73078 12.8641C9.92533 13.1452 10.311 13.2154 10.5921 13.0209Z" fill="#B251FE"/>
<path d="M12.9405 16.4145C13.2217 16.2199 13.2919 15.8343 13.0973 15.5532C12.9028 15.272 12.5171 15.2018 12.236 15.3964C11.9549 15.5909 11.8847 15.9766 12.0792 16.2577C12.2738 16.5388 12.6594 16.609 12.9405 16.4145Z" fill="#B251FE"/>
<path d="M15.289 19.8081C15.5701 19.6136 15.6403 19.2279 15.4458 18.9468C15.2512 18.6657 14.8656 18.5955 14.5845 18.79C14.3033 18.9846 14.2331 19.3702 14.4277 19.6513C14.6222 19.9325 15.0079 20.0027 15.289 19.8081Z" fill="#B251FE"/>
<path d="M17.6374 23.2018C17.9186 23.0072 17.9888 22.6216 17.7942 22.3405C17.5997 22.0593 17.214 21.9891 16.9329 22.1837C16.6518 22.3782 16.5816 22.7638 16.7761 23.045C16.9707 23.3261 17.3563 23.3963 17.6374 23.2018Z" fill="#B251FE"/>
<path d="M19.9859 26.5954C20.267 26.4009 20.3372 26.0152 20.1427 25.7341C19.9481 25.453 19.5625 25.3828 19.2814 25.5773C19.0002 25.7719 18.93 26.1575 19.1246 26.4386C19.3191 26.7198 19.7048 26.79 19.9859 26.5954Z" fill="#B251FE"/>
<path d="M22.3343 29.9891C22.6155 29.7945 22.6857 29.4089 22.4911 29.1277C22.2966 28.8466 21.9109 28.7764 21.6298 28.971C21.3487 29.1655 21.2785 29.5511 21.473 29.8323C21.6676 30.1134 22.0532 30.1836 22.3343 29.9891Z" fill="#B251FE"/>
<path d="M2.50152 8.58203C2.78266 8.38748 2.85285 8.00185 2.6583 7.72072C2.46375 7.43958 2.07812 7.36939 1.79698 7.56394C1.51585 7.75849 1.44565 8.14411 1.64021 8.42525C1.83476 8.70639 2.22038 8.77658 2.50152 8.58203Z" fill="#B251FE"/>
<path d="M4.84997 11.9757C5.13111 11.7811 5.2013 11.3955 5.00675 11.1143C4.8122 10.8332 4.42657 10.763 4.14543 10.9576C3.8643 11.1521 3.7941 11.5377 3.98866 11.8189C4.18321 12.1 4.56883 12.1702 4.84997 11.9757Z" fill="#B251FE"/>
<path d="M7.19842 15.3693C7.47956 15.1748 7.54975 14.7891 7.3552 14.508C7.16065 14.2269 6.77502 14.1567 6.49388 14.3512C6.21275 14.5458 6.14255 14.9314 6.33711 15.2125C6.53166 15.4937 6.91728 15.5639 7.19842 15.3693Z" fill="#B251FE"/>
<path d="M9.54687 18.7629C9.82801 18.5684 9.8982 18.1828 9.70365 17.9016C9.50909 17.6205 9.12347 17.5503 8.84233 17.7448C8.5612 17.9394 8.491 18.325 8.68556 18.6062C8.88011 18.8873 9.26573 18.9575 9.54687 18.7629Z" fill="#B251FE"/>
<path d="M11.8953 22.1566C12.1765 21.962 12.2466 21.5764 12.0521 21.2953C11.8575 21.0141 11.4719 20.9439 11.1908 21.1385C10.9096 21.333 10.8395 21.7187 11.034 21.9998C11.2286 22.2809 11.6142 22.3511 11.8953 22.1566Z" fill="#B251FE"/>
<path d="M14.2438 25.5502C14.5249 25.3557 14.5951 24.97 14.4005 24.6889C14.206 24.4078 13.8204 24.3376 13.5392 24.5321C13.2581 24.7267 13.1879 25.1123 13.3825 25.3934C13.577 25.6746 13.9626 25.7448 14.2438 25.5502Z" fill="#B251FE"/>
<path d="M16.5922 28.9439C16.8734 28.7493 16.9435 28.3637 16.749 28.0825C16.5544 27.8014 16.1688 27.7312 15.8877 27.9258C15.6065 28.1203 15.5364 28.5059 15.7309 28.7871C15.9255 29.0682 16.3111 29.1384 16.5922 28.9439Z" fill="#B251FE"/>
<path d="M18.9407 32.3375C19.2218 32.143 19.292 31.7573 19.0974 31.4762C18.9029 31.1951 18.5173 31.1249 18.2361 31.3194C17.955 31.514 17.8848 31.8996 18.0794 32.1807C18.2739 32.4619 18.6595 32.5321 18.9407 32.3375Z" fill="#B251FE"/>
<path d="M3.8048 17.7178C4.08594 17.5232 4.15613 17.1376 3.96158 16.8564C3.76703 16.5753 3.38141 16.5051 3.10027 16.6997C2.81913 16.8942 2.74894 17.2798 2.94349 17.561C3.13804 17.8421 3.52366 17.9123 3.8048 17.7178Z" fill="#B251FE"/>
<path d="M6.15325 21.1114C6.43439 20.9168 6.50458 20.5312 6.31003 20.2501C6.11548 19.9689 5.72986 19.8987 5.44872 20.0933C5.16758 20.2878 5.09739 20.6735 5.29194 20.9546C5.48649 21.2357 5.87211 21.3059 6.15325 21.1114Z" fill="#B251FE"/>
<path d="M8.5017 24.505C8.78284 24.3105 8.85303 23.9248 8.65848 23.6437C8.46393 23.3626 8.07831 23.2924 7.79717 23.4869C7.51603 23.6815 7.44584 24.0671 7.64039 24.3482C7.83494 24.6294 8.22056 24.6996 8.5017 24.505Z" fill="#B251FE"/>
<path d="M10.8502 27.8987C11.1313 27.7041 11.2015 27.3185 11.0069 27.0374C10.8124 26.7562 10.4268 26.686 10.1456 26.8806C9.86448 27.0751 9.79429 27.4607 9.98884 27.7419C10.1834 28.023 10.569 28.0932 10.8502 27.8987Z" fill="#B251FE"/>
<path d="M13.1986 31.2923C13.4797 31.0978 13.5499 30.7121 13.3554 30.431C13.1608 30.1499 12.7752 30.0797 12.4941 30.2742C12.2129 30.4688 12.1427 30.8544 12.3373 31.1355C12.5318 31.4167 12.9175 31.4869 13.1986 31.2923Z" fill="#B251FE"/>
<path d="M15.5471 34.686C15.8282 34.4914 15.8984 34.1058 15.7038 33.8246C15.5093 33.5435 15.1237 33.4733 14.8425 33.6679C14.5614 33.8624 14.4912 34.248 14.6857 34.5292C14.8803 34.8103 15.2659 34.8805 15.5471 34.686Z" fill="#B251FE"/>
<path d="M2.75964 23.4598C3.04078 23.2653 3.11097 22.8797 2.91642 22.5985C2.72186 22.3174 2.33624 22.2472 2.0551 22.4417C1.77396 22.6363 1.70377 23.0219 1.89832 23.3031C2.09288 23.5842 2.4785 23.6544 2.75964 23.4598Z" fill="#B251FE"/>
<path d="M5.10809 26.8535C5.38922 26.6589 5.45942 26.2733 5.26487 25.9922C5.07031 25.711 4.68469 25.6408 4.40355 25.8354C4.12241 26.0299 4.05222 26.4156 4.24677 26.6967C4.44133 26.9778 4.82695 27.048 5.10809 26.8535Z" fill="#B251FE"/>
<path d="M7.45654 30.2471C7.73767 30.0526 7.80787 29.6669 7.61331 29.3858C7.41876 29.1047 7.03314 29.0345 6.752 29.229C6.47086 29.4236 6.40067 29.8092 6.59522 30.0903C6.78978 30.3715 7.1754 30.4417 7.45654 30.2471Z" fill="#B251FE"/>
<path d="M9.80499 33.6407C10.0861 33.4462 10.1563 33.0606 9.96176 32.7794C9.76721 32.4983 9.38159 32.4281 9.10045 32.6227C8.81931 32.8172 8.74912 33.2028 8.94367 33.484C9.13822 33.7651 9.52385 33.8353 9.80499 33.6407Z" fill="#B251FE"/>
<path d="M12.1534 37.0344C12.4346 36.8398 12.5048 36.4542 12.3102 36.1731C12.1157 35.8919 11.73 35.8217 11.4489 36.0163C11.1678 36.2109 11.0976 36.5965 11.2921 36.8776C11.4867 37.1588 11.8723 37.2289 12.1534 37.0344Z" fill="#B251FE"/>
</g>
<g opacity="0.6" clip-path="url(#clip2_788_4843)">
<path d="M86.9434 44.1077C87.1161 44.4028 87.4952 44.5021 87.7903 44.3294C88.0854 44.1568 88.1847 43.7776 88.012 43.4825C87.8394 43.1874 87.4602 43.0882 87.1651 43.2608C86.87 43.4335 86.7707 43.8127 86.9434 44.1077Z" fill="#B251FE"/>
<path d="M83.3813 46.1919C83.554 46.487 83.9332 46.5862 84.2283 46.4136C84.5234 46.2409 84.6226 45.8617 84.45 45.5667C84.2773 45.2716 83.8981 45.1723 83.603 45.345C83.3079 45.5176 83.2087 45.8968 83.3813 46.1919Z" fill="#B251FE"/>
<path d="M79.8193 48.276C79.9919 48.5711 80.3711 48.6704 80.6662 48.4977C80.9613 48.3251 81.0605 47.9459 80.8879 47.6508C80.7152 47.3557 80.336 47.2564 80.0409 47.4291C79.7459 47.6018 79.6466 47.9809 79.8193 48.276Z" fill="#B251FE"/>
<path d="M76.2572 50.3602C76.4298 50.6553 76.809 50.7545 77.1041 50.5819C77.3992 50.4092 77.4985 50.03 77.3258 49.7349C77.1532 49.4399 76.774 49.3406 76.4789 49.5133C76.1838 49.6859 76.0845 50.0651 76.2572 50.3602Z" fill="#B251FE"/>
<path d="M72.6951 52.4443C72.8678 52.7394 73.247 52.8387 73.542 52.666C73.8371 52.4934 73.9364 52.1142 73.7637 51.8191C73.5911 51.524 73.2119 51.4247 72.9168 51.5974C72.6217 51.7701 72.5225 52.1492 72.6951 52.4443Z" fill="#B251FE"/>
<path d="M69.133 54.5285C69.3057 54.8236 69.6849 54.9228 69.98 54.7502C70.2751 54.5775 70.3743 54.1983 70.2017 53.9032C70.029 53.6081 69.6498 53.5089 69.3547 53.6815C69.0596 53.8542 68.9604 54.2334 69.133 54.5285Z" fill="#B251FE"/>
<path d="M65.571 56.6126C65.7436 56.9077 66.1228 57.007 66.4179 56.8343C66.713 56.6616 66.8122 56.2825 66.6396 55.9874C66.4669 55.6923 66.0877 55.593 65.7927 55.7657C65.4976 55.9383 65.3983 56.3175 65.571 56.6126Z" fill="#B251FE"/>
<path d="M62.0089 58.6968C62.1815 58.9918 62.5607 59.0911 62.8558 58.9184C63.1509 58.7458 63.2502 58.3666 63.0775 58.0715C62.9049 57.7764 62.5257 57.6772 62.2306 57.8498C61.9355 58.0225 61.8362 58.4017 62.0089 58.6968Z" fill="#B251FE"/>
<path d="M58.4468 60.7809C58.6195 61.076 58.9987 61.1752 59.2938 61.0026C59.5888 60.8299 59.6881 60.4507 59.5154 60.1556C59.3428 59.8606 58.9636 59.7613 58.6685 59.934C58.3734 60.1066 58.2742 60.4858 58.4468 60.7809Z" fill="#B251FE"/>
<path d="M84.8592 40.5457C85.0319 40.8408 85.4111 40.94 85.7062 40.7674C86.0013 40.5947 86.1005 40.2155 85.9279 39.9204C85.7552 39.6254 85.376 39.5261 85.0809 39.6988C84.7858 39.8714 84.6866 40.2506 84.8592 40.5457Z" fill="#B251FE"/>
<path d="M81.2972 42.6298C81.4698 42.9249 81.849 43.0242 82.1441 42.8515C82.4392 42.6789 82.5384 42.2997 82.3658 42.0046C82.1931 41.7095 81.8139 41.6102 81.5189 41.7829C81.2238 41.9556 81.1245 42.3347 81.2972 42.6298Z" fill="#B251FE"/>
<path d="M77.7352 44.714C77.9078 45.0091 78.287 45.1083 78.5821 44.9357C78.8772 44.763 78.9764 44.3838 78.8038 44.0887C78.6311 43.7936 78.2519 43.6944 77.9568 43.867C77.6617 44.0397 77.5625 44.4189 77.7352 44.714Z" fill="#B251FE"/>
<path d="M74.1731 46.7981C74.3457 47.0932 74.7249 47.1925 75.02 47.0198C75.3151 46.8471 75.4144 46.468 75.2417 46.1729C75.069 45.8778 74.6899 45.7785 74.3948 45.9512C74.0997 46.1238 74.0004 46.503 74.1731 46.7981Z" fill="#B251FE"/>
<path d="M70.611 48.8823C70.7837 49.1773 71.1628 49.2766 71.4579 49.1039C71.753 48.9313 71.8523 48.5521 71.6796 48.257C71.507 47.9619 71.1278 47.8627 70.8327 48.0353C70.5376 48.208 70.4383 48.5872 70.611 48.8823Z" fill="#B251FE"/>
<path d="M67.0489 50.9664C67.2216 51.2615 67.6008 51.3607 67.8959 51.1881C68.191 51.0154 68.2902 50.6362 68.1176 50.3411C67.9449 50.0461 67.5657 49.9468 67.2706 50.1195C66.9755 50.2921 66.8763 50.6713 67.0489 50.9664Z" fill="#B251FE"/>
<path d="M63.4869 53.0505C63.6595 53.3456 64.0387 53.4449 64.3338 53.2722C64.6289 53.0996 64.7281 52.7204 64.5555 52.4253C64.3828 52.1302 64.0036 52.031 63.7085 52.2036C63.4135 52.3763 63.3142 52.7555 63.4869 53.0505Z" fill="#B251FE"/>
<path d="M59.9248 55.1347C60.0974 55.4298 60.4766 55.529 60.7717 55.3564C61.0668 55.1837 61.1661 54.8045 60.9934 54.5094C60.8208 54.2143 60.4416 54.1151 60.1465 54.2877C59.8514 54.4604 59.7521 54.8396 59.9248 55.1347Z" fill="#B251FE"/>
<path d="M56.3627 57.2188C56.5354 57.5139 56.9146 57.6132 57.2096 57.4405C57.5047 57.2679 57.604 56.8887 57.4313 56.5936C57.2587 56.2985 56.8795 56.1992 56.5844 56.3719C56.2893 56.5446 56.1901 56.9237 56.3627 57.2188Z" fill="#B251FE"/>
<path d="M52.8006 59.303C52.9733 59.5981 53.3525 59.6973 53.6476 59.5247C53.9427 59.352 54.0419 58.9728 53.8693 58.6777C53.6966 58.3826 53.3174 58.2834 53.0223 58.456C52.7272 58.6287 52.628 59.0079 52.8006 59.303Z" fill="#B251FE"/>
<path d="M86.3372 34.8995C86.5099 35.1946 86.889 35.2938 87.1841 35.1212C87.4792 34.9485 87.5785 34.5693 87.4058 34.2742C87.2332 33.9791 86.854 33.8799 86.5589 34.0525C86.2638 34.2252 86.1645 34.6044 86.3372 34.8995Z" fill="#B251FE"/>
<path d="M82.7751 36.9836C82.9478 37.2787 83.327 37.378 83.6221 37.2053C83.9172 37.0327 84.0164 36.6535 83.8438 36.3584C83.6711 36.0633 83.2919 35.964 82.9968 36.1367C82.7017 36.3093 82.6025 36.6885 82.7751 36.9836Z" fill="#B251FE"/>
<path d="M79.2131 39.0678C79.3857 39.3628 79.7649 39.4621 80.06 39.2894C80.3551 39.1168 80.4543 38.7376 80.2817 38.4425C80.109 38.1474 79.7298 38.0482 79.4347 38.2208C79.1397 38.3935 79.0404 38.7727 79.2131 39.0678Z" fill="#B251FE"/>
<path d="M75.651 41.1519C75.8236 41.447 76.2028 41.5462 76.4979 41.3736C76.793 41.2009 76.8923 40.8217 76.7196 40.5266C76.5469 40.2316 76.1678 40.1323 75.8727 40.305C75.5776 40.4776 75.4783 40.8568 75.651 41.1519Z" fill="#B251FE"/>
<path d="M72.0889 43.236C72.2616 43.5311 72.6408 43.6304 72.9358 43.4577C73.2309 43.2851 73.3302 42.9059 73.1575 42.6108C72.9849 42.3157 72.6057 42.2165 72.3106 42.3891C72.0155 42.5618 71.9163 42.941 72.0889 43.236Z" fill="#B251FE"/>
<path d="M68.5268 45.3202C68.6995 45.6153 69.0787 45.7145 69.3738 45.5419C69.6689 45.3692 69.7681 44.99 69.5955 44.6949C69.4228 44.3998 69.0436 44.3006 68.7485 44.4732C68.4534 44.6459 68.3542 45.0251 68.5268 45.3202Z" fill="#B251FE"/>
<path d="M64.9648 47.4043C65.1374 47.6994 65.5166 47.7987 65.8117 47.626C66.1068 47.4534 66.206 47.0742 66.0334 46.7791C65.8607 46.484 65.4815 46.3847 65.1865 46.5574C64.8914 46.73 64.7921 47.1092 64.9648 47.4043Z" fill="#B251FE"/>
<path d="M61.4027 49.4885C61.5753 49.7836 61.9545 49.8828 62.2496 49.7102C62.5447 49.5375 62.644 49.1583 62.4713 48.8632C62.2987 48.5681 61.9195 48.4689 61.6244 48.6415C61.3293 48.8142 61.23 49.1934 61.4027 49.4885Z" fill="#B251FE"/>
<path d="M57.8406 51.5726C58.0133 51.8677 58.3925 51.967 58.6876 51.7943C58.9826 51.6216 59.0819 51.2425 58.9092 50.9474C58.7366 50.6523 58.3574 50.553 58.0623 50.7257C57.7672 50.8983 57.668 51.2775 57.8406 51.5726Z" fill="#B251FE"/>
<path d="M54.2785 53.6568C54.4512 53.9519 54.8304 54.0511 55.1255 53.8784C55.4206 53.7058 55.5198 53.3266 55.3472 53.0315C55.1745 52.7364 54.7953 52.6372 54.5002 52.8098C54.2051 52.9825 54.1059 53.3617 54.2785 53.6568Z" fill="#B251FE"/>
<path d="M50.7165 55.7409C50.8891 56.036 51.2683 56.1352 51.5634 55.9626C51.8585 55.7899 51.9578 55.4107 51.7851 55.1157C51.6124 54.8206 51.2333 54.7213 50.9382 54.894C50.6431 55.0666 50.5438 55.4458 50.7165 55.7409Z" fill="#B251FE"/>
<path d="M47.1544 57.825C47.3271 58.1201 47.7062 58.2194 48.0013 58.0467C48.2964 57.8741 48.3957 57.4949 48.223 57.1998C48.0504 56.9047 47.6712 56.8054 47.3761 56.9781C47.081 57.1508 46.9817 57.5299 47.1544 57.825Z" fill="#B251FE"/>
<path d="M43.5923 59.9092C43.765 60.2043 44.1442 60.3035 44.4393 60.1309C44.7344 59.9582 44.8336 59.579 44.661 59.2839C44.4883 58.9889 44.1091 58.8896 43.814 59.0623C43.5189 59.2349 43.4197 59.6141 43.5923 59.9092Z" fill="#B251FE"/>
<path d="M84.253 31.3374C84.4257 31.6325 84.8049 31.7318 85.1 31.5591C85.3951 31.3864 85.4943 31.0073 85.3217 30.7122C85.149 30.4171 84.7698 30.3178 84.4747 30.4905C84.1796 30.6631 84.0804 31.0423 84.253 31.3374Z" fill="#B251FE"/>
<path d="M80.691 33.4215C80.8636 33.7166 81.2428 33.8159 81.5379 33.6432C81.833 33.4706 81.9322 33.0914 81.7596 32.7963C81.5869 32.5012 81.2077 32.402 80.9127 32.5746C80.6176 32.7473 80.5183 33.1265 80.691 33.4215Z" fill="#B251FE"/>
<path d="M77.1289 35.5057C77.3015 35.8008 77.6807 35.9 77.9758 35.7274C78.2709 35.5547 78.3702 35.1755 78.1975 34.8804C78.0249 34.5853 77.6457 34.4861 77.3506 34.6587C77.0555 34.8314 76.9562 35.2106 77.1289 35.5057Z" fill="#B251FE"/>
<path d="M73.5668 37.5898C73.7395 37.8849 74.1187 37.9842 74.4137 37.8115C74.7088 37.6389 74.8081 37.2597 74.6354 36.9646C74.4628 36.6695 74.0836 36.5702 73.7885 36.7429C73.4934 36.9156 73.3942 37.2947 73.5668 37.5898Z" fill="#B251FE"/>
<path d="M70.0047 39.674C70.1774 39.9691 70.5566 40.0683 70.8517 39.8957C71.1468 39.723 71.246 39.3438 71.0734 39.0487C70.9007 38.7536 70.5215 38.6544 70.2264 38.827C69.9313 38.9997 69.8321 39.3789 70.0047 39.674Z" fill="#B251FE"/>
<path d="M66.4427 41.7581C66.6153 42.0532 66.9945 42.1525 67.2896 41.9798C67.5847 41.8072 67.6839 41.428 67.5113 41.1329C67.3386 40.8378 66.9595 40.7385 66.6644 40.9112C66.3693 41.0838 66.27 41.463 66.4427 41.7581Z" fill="#B251FE"/>
<path d="M62.8806 43.8423C63.0533 44.1374 63.4324 44.2366 63.7275 44.0639C64.0226 43.8913 64.1219 43.5121 63.9492 43.217C63.7766 42.9219 63.3974 42.8227 63.1023 42.9953C62.8072 43.168 62.7079 43.5472 62.8806 43.8423Z" fill="#B251FE"/>
<path d="M59.3185 45.9264C59.4912 46.2215 59.8704 46.3207 60.1655 46.1481C60.4605 45.9754 60.5598 45.5962 60.3871 45.3012C60.2145 45.0061 59.8353 44.9068 59.5402 45.0795C59.2451 45.2521 59.1459 45.6313 59.3185 45.9264Z" fill="#B251FE"/>
<path d="M55.7565 48.0105C55.9291 48.3056 56.3083 48.4049 56.6034 48.2322C56.8985 48.0596 56.9977 47.6804 56.8251 47.3853C56.6524 47.0902 56.2732 46.991 55.9781 47.1636C55.6831 47.3363 55.5838 47.7155 55.7565 48.0105Z" fill="#B251FE"/>
<path d="M52.1944 50.0947C52.367 50.3898 52.7462 50.489 53.0413 50.3164C53.3364 50.1437 53.4357 49.7645 53.263 49.4694C53.0903 49.1744 52.7112 49.0751 52.4161 49.2478C52.121 49.4204 52.0217 49.7996 52.1944 50.0947Z" fill="#B251FE"/>
<path d="M48.6323 52.1788C48.805 52.4739 49.1841 52.5732 49.4792 52.4005C49.7743 52.2279 49.8736 51.8487 49.7009 51.5536C49.5283 51.2585 49.1491 51.1593 48.854 51.3319C48.5589 51.5046 48.4597 51.8837 48.6323 52.1788Z" fill="#B251FE"/>
<path d="M45.0703 54.263C45.243 54.5581 45.6221 54.6573 45.9172 54.4847C46.2123 54.312 46.3116 53.9328 46.1389 53.6377C45.9663 53.3426 45.5871 53.2434 45.292 53.416C44.9969 53.5887 44.8976 53.9679 45.0703 54.263Z" fill="#B251FE"/>
<path d="M41.5082 56.3471C41.6809 56.6422 42.0601 56.7415 42.3552 56.5688C42.6502 56.3961 42.7495 56.017 42.5768 55.7219C42.4042 55.4268 42.025 55.3275 41.7299 55.5002C41.4348 55.6728 41.3356 56.052 41.5082 56.3471Z" fill="#B251FE"/>
<path d="M37.9461 58.4312C38.1188 58.7263 38.498 58.8256 38.7931 58.6529C39.0882 58.4803 39.1874 58.1011 39.0148 57.806C38.8421 57.5109 38.4629 57.4117 38.1678 57.5843C37.8727 57.757 37.7735 58.1362 37.9461 58.4312Z" fill="#B251FE"/>
<path d="M34.3841 60.5154C34.5567 60.8105 34.9359 60.9097 35.231 60.7371C35.5261 60.5644 35.6254 60.1852 35.4527 59.8902C35.28 59.5951 34.9009 59.4958 34.6058 59.6685C34.3107 59.8411 34.2114 60.2203 34.3841 60.5154Z" fill="#B251FE"/>
<path d="M82.1689 27.7753C82.3416 28.0704 82.7208 28.1697 83.0159 27.997C83.311 27.8244 83.4102 27.4452 83.2375 27.1501C83.0649 26.855 82.6857 26.7557 82.3906 26.9284C82.0955 27.1011 81.9963 27.4802 82.1689 27.7753Z" fill="#B251FE"/>
<path d="M78.6069 29.8595C78.7795 30.1546 79.1587 30.2538 79.4538 30.0812C79.7489 29.9085 79.8481 29.5293 79.6755 29.2342C79.5028 28.9391 79.1236 28.8399 78.8285 29.0125C78.5335 29.1852 78.4342 29.5644 78.6069 29.8595Z" fill="#B251FE"/>
<path d="M75.0448 31.9436C75.2174 32.2387 75.5966 32.338 75.8917 32.1653C76.1868 31.9926 76.2861 31.6135 76.1134 31.3184C75.9407 31.0233 75.5616 30.924 75.2665 31.0967C74.9714 31.2693 74.8721 31.6485 75.0448 31.9436Z" fill="#B251FE"/>
<path d="M71.4827 34.0278C71.6554 34.3229 72.0346 34.4221 72.3296 34.2495C72.6247 34.0768 72.724 33.6976 72.5513 33.4025C72.3787 33.1074 71.9995 33.0082 71.7044 33.1808C71.4093 33.3535 71.3101 33.7327 71.4827 34.0278Z" fill="#B251FE"/>
<path d="M67.9206 36.1119C68.0933 36.407 68.4725 36.5062 68.7676 36.3336C69.0627 36.1609 69.1619 35.7817 68.9893 35.4867C68.8166 35.1916 68.4374 35.0923 68.1423 35.265C67.8472 35.4376 67.748 35.8168 67.9206 36.1119Z" fill="#B251FE"/>
<path d="M64.3586 38.1961C64.5312 38.4911 64.9104 38.5904 65.2055 38.4177C65.5006 38.2451 65.5998 37.8659 65.4272 37.5708C65.2545 37.2757 64.8753 37.1765 64.5803 37.3491C64.2852 37.5218 64.1859 37.901 64.3586 38.1961Z" fill="#B251FE"/>
<path d="M60.7965 40.2802C60.9691 40.5753 61.3483 40.6745 61.6434 40.5019C61.9385 40.3292 62.0378 39.95 61.8651 39.6549C61.6925 39.3599 61.3133 39.2606 61.0182 39.4333C60.7231 39.6059 60.6238 39.9851 60.7965 40.2802Z" fill="#B251FE"/>
<path d="M57.2344 42.3643C57.4071 42.6594 57.7863 42.7587 58.0814 42.586C58.3764 42.4134 58.4757 42.0342 58.303 41.7391C58.1304 41.444 57.7512 41.3447 57.4561 41.5174C57.161 41.69 57.0618 42.0692 57.2344 42.3643Z" fill="#B251FE"/>
<path d="M53.6723 44.4485C53.845 44.7436 54.2242 44.8428 54.5193 44.6702C54.8144 44.4975 54.9136 44.1183 54.741 43.8232C54.5683 43.5281 54.1891 43.4289 53.894 43.6015C53.5989 43.7742 53.4997 44.1534 53.6723 44.4485Z" fill="#B251FE"/>
<path d="M50.1103 46.5326C50.2829 46.8277 50.6621 46.927 50.9572 46.7543C51.2523 46.5816 51.3516 46.2025 51.1789 45.9074C51.0062 45.6123 50.6271 45.513 50.332 45.6857C50.0369 45.8583 49.9376 46.2375 50.1103 46.5326Z" fill="#B251FE"/>
<path d="M46.5482 48.6168C46.7209 48.9118 47.1 49.0111 47.3951 48.8384C47.6902 48.6658 47.7895 48.2866 47.6168 47.9915C47.4442 47.6964 47.065 47.5972 46.7699 47.7698C46.4748 47.9425 46.3755 48.3217 46.5482 48.6168Z" fill="#B251FE"/>
<path d="M42.9861 50.7009C43.1588 50.996 43.538 51.0952 43.8331 50.9226C44.1282 50.7499 44.2274 50.3708 44.0547 50.0757C43.8821 49.7806 43.5029 49.6813 43.2078 49.854C42.9127 50.0266 42.8135 50.4058 42.9861 50.7009Z" fill="#B251FE"/>
<path d="M39.4241 52.785C39.5967 53.0801 39.9759 53.1794 40.271 53.0067C40.5661 52.8341 40.6653 52.4549 40.4927 52.1598C40.32 51.8647 39.9408 51.7655 39.6457 51.9381C39.3507 52.1108 39.2514 52.4899 39.4241 52.785Z" fill="#B251FE"/>
<path d="M35.862 54.8692C36.0346 55.1643 36.4138 55.2635 36.7089 55.0909C37.004 54.9182 37.1033 54.539 36.9306 54.2439C36.7579 53.9488 36.3788 53.8496 36.0837 54.0222C35.7886 54.1949 35.6893 54.5741 35.862 54.8692Z" fill="#B251FE"/>
<path d="M32.2999 56.9533C32.4726 57.2484 32.8517 57.3477 33.1468 57.175C33.4419 57.0024 33.5412 56.6232 33.3685 56.3281C33.1959 56.033 32.8167 55.9337 32.5216 56.1064C32.2265 56.2791 32.1273 56.6582 32.2999 56.9533Z" fill="#B251FE"/>
<path d="M80.0848 24.2133C80.2574 24.5084 80.6366 24.6076 80.9317 24.435C81.2268 24.2623 81.326 23.8831 81.1534 23.588C80.9807 23.2929 80.6015 23.1937 80.3065 23.3663C80.0114 23.539 79.9121 23.9182 80.0848 24.2133Z" fill="#B251FE"/>
<path d="M76.5227 26.2974C76.6953 26.5925 77.0745 26.6917 77.3696 26.5191C77.6647 26.3464 77.764 25.9672 77.5913 25.6722C77.4187 25.3771 77.0395 25.2778 76.7444 25.4505C76.4493 25.6231 76.35 26.0023 76.5227 26.2974Z" fill="#B251FE"/>
<path d="M72.9606 28.3815C73.1333 28.6766 73.5125 28.7759 73.8075 28.6032C74.1026 28.4306 74.2019 28.0514 74.0292 27.7563C73.8566 27.4612 73.4774 27.3619 73.1823 27.5346C72.8872 27.7073 72.788 28.0864 72.9606 28.3815Z" fill="#B251FE"/>
<path d="M69.3985 30.4657C69.5712 30.7608 69.9504 30.86 70.2455 30.6874C70.5406 30.5147 70.6398 30.1355 70.4672 29.8404C70.2945 29.5454 69.9153 29.4461 69.6202 29.6188C69.3251 29.7914 69.2259 30.1706 69.3985 30.4657Z" fill="#B251FE"/>
<path d="M65.8365 32.5498C66.0091 32.8449 66.3883 32.9442 66.6834 32.7715C66.9785 32.5989 67.0777 32.2197 66.9051 31.9246C66.7324 31.6295 66.3533 31.5302 66.0582 31.7029C65.7631 31.8755 65.6638 32.2547 65.8365 32.5498Z" fill="#B251FE"/>
<path d="M62.2744 34.634C62.4471 34.9291 62.8262 35.0283 63.1213 34.8557C63.4164 34.683 63.5157 34.3038 63.343 34.0087C63.1704 33.7136 62.7912 33.6144 62.4961 33.787C62.201 33.9597 62.1017 34.3389 62.2744 34.634Z" fill="#B251FE"/>
<path d="M58.7123 36.7181C58.885 37.0132 59.2642 37.1125 59.5593 36.9398C59.8543 36.7671 59.9536 36.388 59.7809 36.0929C59.6083 35.7978 59.2291 35.6985 58.934 35.8712C58.6389 36.0438 58.5397 36.423 58.7123 36.7181Z" fill="#B251FE"/>
<path d="M55.1503 38.8023C55.3229 39.0973 55.7021 39.1966 55.9972 39.0239C56.2923 38.8513 56.3915 38.4721 56.2189 38.177C56.0462 37.8819 55.667 37.7827 55.3719 37.9553C55.0768 38.128 54.9776 38.5072 55.1503 38.8023Z" fill="#B251FE"/>
<path d="M51.5882 40.8864C51.7608 41.1815 52.14 41.2807 52.4351 41.1081C52.7302 40.9354 52.8295 40.5563 52.6568 40.2612C52.4841 39.9661 52.105 39.8668 51.8099 40.0395C51.5148 40.2121 51.4155 40.5913 51.5882 40.8864Z" fill="#B251FE"/>
<path d="M48.0261 42.9705C48.1988 43.2656 48.5779 43.3649 48.873 43.1922C49.1681 43.0196 49.2674 42.6404 49.0947 42.3453C48.9221 42.0502 48.5429 41.951 48.2478 42.1236C47.9527 42.2963 47.8534 42.6754 48.0261 42.9705Z" fill="#B251FE"/>
<path d="M44.464 45.0547C44.6367 45.3498 45.0159 45.449 45.311 45.2764C45.6061 45.1037 45.7053 44.7245 45.5327 44.4294C45.36 44.1344 44.9808 44.0351 44.6857 44.2078C44.3906 44.3804 44.2914 44.7596 44.464 45.0547Z" fill="#B251FE"/>
<path d="M40.902 47.1388C41.0746 47.4339 41.4538 47.5332 41.7489 47.3605C42.044 47.1879 42.1432 46.8087 41.9706 46.5136C41.7979 46.2185 41.4187 46.1192 41.1236 46.2919C40.8286 46.4646 40.7293 46.8437 40.902 47.1388Z" fill="#B251FE"/>
<path d="M37.3399 49.223C37.5125 49.5181 37.8917 49.6173 38.1868 49.4447C38.4819 49.272 38.5812 48.8928 38.4085 48.5977C38.2359 48.3026 37.8567 48.2034 37.5616 48.376C37.2665 48.5487 37.1672 48.9279 37.3399 49.223Z" fill="#B251FE"/>
<path d="M33.7778 51.3071C33.9505 51.6022 34.3297 51.7015 34.6247 51.5288C34.9198 51.3562 35.0191 50.977 34.8464 50.6819C34.6738 50.3868 34.2946 50.2875 33.9995 50.4602C33.7044 50.6328 33.6052 51.012 33.7778 51.3071Z" fill="#B251FE"/>
<path d="M30.2157 53.3913C30.3884 53.6863 30.7676 53.7856 31.0627 53.6129C31.3578 53.4403 31.457 53.0611 31.2844 52.766C31.1117 52.4709 30.7325 52.3717 30.4374 52.5443C30.1423 52.717 30.0431 53.0962 30.2157 53.3913Z" fill="#B251FE"/>
<path d="M78.0006 20.6512C78.1732 20.9463 78.5524 21.0455 78.8475 20.8729C79.1426 20.7002 79.2419 20.321 79.0692 20.0259C78.8966 19.7309 78.5174 19.6316 78.2223 19.8043C77.9272 19.9769 77.8279 20.3561 78.0006 20.6512Z" fill="#B251FE"/>
<path d="M74.4386 22.7353C74.6112 23.0304 74.9904 23.1297 75.2855 22.957C75.5806 22.7844 75.6799 22.4052 75.5072 22.1101C75.3345 21.815 74.9554 21.7157 74.6603 21.8884C74.3652 22.0611 74.2659 22.4402 74.4386 22.7353Z" fill="#B251FE"/>
<path d="M70.8765 24.8195C71.0492 25.1146 71.4283 25.2138 71.7234 25.0412C72.0185 24.8685 72.1178 24.4893 71.9451 24.1942C71.7725 23.8991 71.3933 23.7999 71.0982 23.9725C70.8031 24.1452 70.7039 24.5244 70.8765 24.8195Z" fill="#B251FE"/>
<path d="M67.3144 26.9036C67.4871 27.1987 67.8663 27.298 68.1614 27.1253C68.4565 26.9526 68.5557 26.5735 68.3831 26.2784C68.2104 25.9833 67.8312 25.884 67.5361 26.0567C67.241 26.2293 67.1418 26.6085 67.3144 26.9036Z" fill="#B251FE"/>
<path d="M63.7524 28.9878C63.925 29.2829 64.3042 29.3821 64.5993 29.2095C64.8944 29.0368 64.9936 28.6576 64.821 28.3625C64.6483 28.0674 64.2691 27.9682 63.9741 28.1408C63.679 28.3135 63.5797 28.6927 63.7524 28.9878Z" fill="#B251FE"/>
<path d="M60.1903 31.0719C60.3629 31.367 60.7421 31.4662 61.0372 31.2936C61.3323 31.1209 61.4316 30.7418 61.2589 30.4467C61.0863 30.1516 60.7071 30.0523 60.412 30.225C60.1169 30.3976 60.0176 30.7768 60.1903 31.0719Z" fill="#B251FE"/>
<path d="M56.6282 33.156C56.8009 33.4511 57.1801 33.5504 57.4751 33.3777C57.7702 33.2051 57.8695 32.8259 57.6968 32.5308C57.5242 32.2357 57.145 32.1365 56.8499 32.3091C56.5548 32.4818 56.4556 32.861 56.6282 33.156Z" fill="#B251FE"/>
<path d="M53.0661 35.2402C53.2388 35.5353 53.618 35.6345 53.9131 35.4619C54.2082 35.2892 54.3074 34.91 54.1348 34.615C53.9621 34.3199 53.5829 34.2206 53.2878 34.3933C52.9927 34.5659 52.8935 34.9451 53.0661 35.2402Z" fill="#B251FE"/>
<path d="M49.5041 37.3243C49.6767 37.6194 50.0559 37.7187 50.351 37.546C50.6461 37.3734 50.7453 36.9942 50.5727 36.6991C50.4 36.404 50.0209 36.3047 49.7258 36.4774C49.4307 36.6501 49.3314 37.0292 49.5041 37.3243Z" fill="#B251FE"/>
<path d="M45.942 39.4085C46.1147 39.7036 46.4938 39.8028 46.7889 39.6302C47.084 39.4575 47.1833 39.0783 47.0106 38.7832C46.838 38.4881 46.4588 38.3889 46.1637 38.5616C45.8686 38.7342 45.7693 39.1134 45.942 39.4085Z" fill="#B251FE"/>
<path d="M42.3799 41.4926C42.5526 41.7877 42.9318 41.887 43.2269 41.7143C43.522 41.5417 43.6212 41.1625 43.4485 40.8674C43.2759 40.5723 42.8967 40.473 42.6016 40.6457C42.3065 40.8183 42.2073 41.1975 42.3799 41.4926Z" fill="#B251FE"/>
<path d="M38.8179 43.5768C38.9905 43.8718 39.3697 43.9711 39.6648 43.7984C39.9599 43.6258 40.0591 43.2466 39.8865 42.9515C39.7138 42.6564 39.3346 42.5572 39.0395 42.7298C38.7445 42.9025 38.6452 43.2817 38.8179 43.5768Z" fill="#B251FE"/>
<path d="M35.2558 45.6609C35.4284 45.956 35.8076 46.0552 36.1027 45.8826C36.3978 45.7099 36.4971 45.3307 36.3244 45.0357C36.1517 44.7406 35.7726 44.6413 35.4775 44.814C35.1824 44.9866 35.0831 45.3658 35.2558 45.6609Z" fill="#B251FE"/>
<path d="M31.6937 47.745C31.8664 48.0401 32.2455 48.1394 32.5406 47.9667C32.8357 47.7941 32.935 47.4149 32.7623 47.1198C32.5897 46.8247 32.2105 46.7255 31.9154 46.8981C31.6203 47.0708 31.5211 47.45 31.6937 47.745Z" fill="#B251FE"/>
<path d="M28.1316 49.8292C28.3043 50.1243 28.6835 50.2235 28.9786 50.0509C29.2737 49.8782 29.3729 49.499 29.2003 49.204C29.0276 48.9089 28.6484 48.8096 28.3533 48.9823C28.0582 49.1549 27.959 49.5341 28.1316 49.8292Z" fill="#B251FE"/>
</g>
<g opacity="0.2" clip-path="url(#clip3_788_4843)">
<path d="M86.9852 47.2518C87.1435 47.5548 87.5175 47.6721 87.8205 47.5137C88.1236 47.3554 88.2408 46.9814 88.0825 46.6784C87.9242 46.3754 87.5502 46.2581 87.2472 46.4164C86.9441 46.5747 86.8269 46.9487 86.9852 47.2518Z" fill="#B251FE"/>
<path d="M83.3275 49.163C83.4858 49.466 83.8598 49.5833 84.1628 49.425C84.4658 49.2667 84.5831 48.8927 84.4248 48.5896C84.2665 48.2866 83.8925 48.1693 83.5894 48.3277C83.2864 48.486 83.1691 48.86 83.3275 49.163Z" fill="#B251FE"/>
<path d="M79.6698 51.0743C79.8281 51.3773 80.2021 51.4946 80.5051 51.3362C80.8081 51.1779 80.9254 50.8039 80.7671 50.5009C80.6088 50.1979 80.2348 50.0806 79.9317 50.2389C79.6287 50.3973 79.5114 50.7713 79.6698 51.0743Z" fill="#B251FE"/>
<path d="M76.012 52.9855C76.1703 53.2885 76.5443 53.4058 76.8473 53.2475C77.1504 53.0892 77.2676 52.7152 77.1093 52.4122C76.951 52.1091 76.577 51.9918 76.274 52.1502C75.9709 52.3085 75.8537 52.6825 76.012 52.9855Z" fill="#B251FE"/>
<path d="M72.3542 54.8968C72.5125 55.1998 72.8865 55.3171 73.1896 55.1588C73.4926 55.0004 73.6099 54.6264 73.4515 54.3234C73.2932 54.0204 72.9192 53.9031 72.6162 54.0614C72.3132 54.2198 72.1959 54.5938 72.3542 54.8968Z" fill="#B251FE"/>
<path d="M68.6965 56.808C68.8548 57.1111 69.2288 57.2283 69.5318 57.07C69.8349 56.9117 69.9522 56.5377 69.7938 56.2347C69.6355 55.9316 69.2615 55.8144 68.9585 55.9727C68.6554 56.131 68.5382 56.505 68.6965 56.808Z" fill="#B251FE"/>
<path d="M65.0387 58.7193C65.1971 59.0223 65.571 59.1396 65.8741 58.9813C66.1771 58.8229 66.2944 58.4489 66.136 58.1459C65.9777 57.8429 65.6037 57.7256 65.3007 57.8839C64.9977 58.0423 64.8804 58.4163 65.0387 58.7193Z" fill="#B251FE"/>
<path d="M61.381 60.6306C61.5393 60.9336 61.9133 61.0509 62.2164 60.8925C62.5194 60.7342 62.6367 60.3602 62.4783 60.0572C62.32 59.7542 61.946 59.6369 61.643 59.7952C61.34 59.9535 61.2227 60.3275 61.381 60.6306Z" fill="#B251FE"/>
<path d="M85.0739 43.594C85.2323 43.897 85.6063 44.0143 85.9093 43.856C86.2123 43.6977 86.3296 43.3237 86.1713 43.0206C86.0129 42.7176 85.6389 42.6003 85.3359 42.7587C85.0329 42.917 84.9156 43.291 85.0739 43.594Z" fill="#B251FE"/>
<path d="M81.4162 45.5053C81.5746 45.8083 81.9486 45.9256 82.2516 45.7672C82.5546 45.6089 82.6719 45.2349 82.5135 44.9319C82.3552 44.6289 81.9812 44.5116 81.6782 44.6699C81.3752 44.8283 81.2579 45.2023 81.4162 45.5053Z" fill="#B251FE"/>
<path d="M77.7584 47.4165C77.9168 47.7195 78.2908 47.8368 78.5938 47.6785C78.8968 47.5202 79.0141 47.1462 78.8558 46.8432C78.6974 46.5401 78.3234 46.4228 78.0204 46.5812C77.7174 46.7395 77.6001 47.1135 77.7584 47.4165Z" fill="#B251FE"/>
<path d="M74.1007 49.3278C74.2591 49.6308 74.6331 49.7481 74.9361 49.5898C75.2391 49.4314 75.3564 49.0574 75.1981 48.7544C75.0397 48.4514 74.6657 48.3341 74.3627 48.4924C74.0597 48.6508 73.9424 49.0248 74.1007 49.3278Z" fill="#B251FE"/>
<path d="M70.443 51.239C70.6013 51.5421 70.9753 51.6593 71.2783 51.501C71.5813 51.3427 71.6986 50.9687 71.5403 50.6657C71.3819 50.3626 71.0079 50.2454 70.7049 50.4037C70.4019 50.562 70.2846 50.936 70.443 51.239Z" fill="#B251FE"/>
<path d="M66.7852 53.1503C66.9436 53.4533 67.3176 53.5706 67.6206 53.4123C67.9236 53.2539 68.0409 52.8799 67.8826 52.5769C67.7242 52.2739 67.3502 52.1566 67.0472 52.3149C66.7442 52.4733 66.6269 52.8473 66.7852 53.1503Z" fill="#B251FE"/>
<path d="M63.1275 55.0615C63.2858 55.3646 63.6598 55.4819 63.9628 55.3235C64.2658 55.1652 64.3831 54.7912 64.2248 54.4882C64.0665 54.1852 63.6925 54.0679 63.3894 54.2262C63.0864 54.3845 62.9691 54.7585 63.1275 55.0615Z" fill="#B251FE"/>
<path d="M59.4697 56.9728C59.6281 57.2758 60.0021 57.3931 60.3051 57.2348C60.6081 57.0764 60.7254 56.7024 60.5671 56.3994C60.4087 56.0964 60.0347 55.9791 59.7317 56.1375C59.4287 56.2958 59.3114 56.6698 59.4697 56.9728Z" fill="#B251FE"/>
<path d="M55.812 58.8841C55.9703 59.1871 56.3443 59.3044 56.6473 59.146C56.9503 58.9877 57.0676 58.6137 56.9093 58.3107C56.751 58.0077 56.377 57.8904 56.0739 58.0487C55.7709 58.207 55.6536 58.581 55.812 58.8841Z" fill="#B251FE"/>
<path d="M52.1543 60.7953C52.3126 61.0983 52.6866 61.2156 52.9896 61.0573C53.2926 60.899 53.4099 60.525 53.2516 60.222C53.0932 59.9189 52.7192 59.8016 52.4162 59.96C52.1132 60.1183 51.9959 60.4923 52.1543 60.7953Z" fill="#B251FE"/>
<path d="M86.8205 38.025C86.9788 38.328 87.3528 38.4453 87.6558 38.287C87.9588 38.1287 88.0761 37.7547 87.9178 37.4516C87.7594 37.1486 87.3854 37.0313 87.0824 37.1897C86.7794 37.348 86.6621 37.722 86.8205 38.025Z" fill="#B251FE"/>
<path d="M83.1627 39.9363C83.321 40.2393 83.695 40.3566 83.998 40.1982C84.301 40.0399 84.4183 39.6659 84.26 39.3629C84.1017 39.0599 83.7277 38.9426 83.4247 39.1009C83.1216 39.2593 83.0043 39.6333 83.1627 39.9363Z" fill="#B251FE"/>
<path d="M79.505 41.8475C79.6633 42.1505 80.0373 42.2678 80.3403 42.1095C80.6433 41.9512 80.7606 41.5772 80.6023 41.2742C80.444 40.9711 80.07 40.8538 79.7669 41.0122C79.4639 41.1705 79.3466 41.5445 79.505 41.8475Z" fill="#B251FE"/>
<path d="M75.8472 43.7588C76.0055 44.0618 76.3795 44.1791 76.6825 44.0208C76.9856 43.8624 77.1028 43.4884 76.9445 43.1854C76.7862 42.8824 76.4122 42.7651 76.1092 42.9234C75.8061 43.0818 75.6889 43.4558 75.8472 43.7588Z" fill="#B251FE"/>
<path d="M72.1895 45.67C72.3478 45.9731 72.7218 46.0903 73.0248 45.932C73.3278 45.7737 73.4451 45.3997 73.2868 45.0967C73.1285 44.7936 72.7545 44.6764 72.4514 44.8347C72.1484 44.993 72.0311 45.367 72.1895 45.67Z" fill="#B251FE"/>
<path d="M68.5317 47.5813C68.69 47.8843 69.064 48.0016 69.367 47.8433C69.6701 47.6849 69.7874 47.3109 69.629 47.0079C69.4707 46.7049 69.0967 46.5876 68.7937 46.7459C68.4907 46.9043 68.3734 47.2783 68.5317 47.5813Z" fill="#B251FE"/>
<path d="M64.874 49.4925C65.0323 49.7956 65.4063 49.9129 65.7093 49.7545C66.0124 49.5962 66.1296 49.2222 65.9713 48.9192C65.813 48.6162 65.439 48.4989 65.136 48.6572C64.8329 48.8155 64.7156 49.1895 64.874 49.4925Z" fill="#B251FE"/>
<path d="M61.2162 51.4038C61.3745 51.7068 61.7485 51.8241 62.0516 51.6658C62.3546 51.5074 62.4719 51.1334 62.3135 50.8304C62.1552 50.5274 61.7812 50.4101 61.4782 50.5685C61.1752 50.7268 61.0579 51.1008 61.2162 51.4038Z" fill="#B251FE"/>
<path d="M57.5585 53.3151C57.7168 53.6181 58.0908 53.7354 58.3938 53.577C58.6969 53.4187 58.8142 53.0447 58.6558 52.7417C58.4975 52.4387 58.1235 52.3214 57.8205 52.4797C57.5174 52.638 57.4002 53.012 57.5585 53.3151Z" fill="#B251FE"/>
<path d="M53.9007 55.2263C54.0591 55.5293 54.433 55.6466 54.7361 55.4883C55.0391 55.33 55.1564 54.956 54.998 54.6529C54.8397 54.3499 54.4657 54.2326 54.1627 54.391C53.8597 54.5493 53.7424 54.9233 53.9007 55.2263Z" fill="#B251FE"/>
<path d="M50.243 57.1376C50.4013 57.4406 50.7753 57.5579 51.0784 57.3996C51.3814 57.2412 51.4987 56.8672 51.3403 56.5642C51.182 56.2612 50.808 56.1439 50.505 56.3022C50.202 56.4606 50.0847 56.8346 50.243 57.1376Z" fill="#B251FE"/>
<path d="M46.5852 59.0488C46.7436 59.3518 47.1176 59.4691 47.4206 59.3108C47.7236 59.1525 47.8409 58.7785 47.6826 58.4754C47.5242 58.1724 47.1502 58.0551 46.8472 58.2135C46.5442 58.3718 46.4269 58.7458 46.5852 59.0488Z" fill="#B251FE"/>
<path d="M42.9275 60.9601C43.0858 61.2631 43.4598 61.3804 43.7629 61.2221C44.0659 61.0637 44.1832 60.6897 44.0248 60.3867C43.8665 60.0837 43.4925 59.9664 43.1895 60.1247C42.8865 60.2831 42.7692 60.6571 42.9275 60.9601Z" fill="#B251FE"/>
<path d="M84.9092 34.3673C85.0675 34.6703 85.4415 34.7876 85.7446 34.6292C86.0476 34.4709 86.1649 34.0969 86.0065 33.7939C85.8482 33.4909 85.4742 33.3736 85.1712 33.5319C84.8682 33.6903 84.7509 34.0643 84.9092 34.3673Z" fill="#B251FE"/>
<path d="M81.2514 36.2785C81.4098 36.5815 81.7838 36.6988 82.0868 36.5405C82.3898 36.3822 82.5071 36.0082 82.3487 35.7052C82.1904 35.4021 81.8164 35.2848 81.5134 35.4432C81.2104 35.6015 81.0931 35.9755 81.2514 36.2785Z" fill="#B251FE"/>
<path d="M77.5937 38.1898C77.752 38.4928 78.126 38.6101 78.4291 38.4518C78.7321 38.2934 78.8494 37.9194 78.691 37.6164C78.5327 37.3134 78.1587 37.1961 77.8557 37.3544C77.5527 37.5128 77.4354 37.8868 77.5937 38.1898Z" fill="#B251FE"/>
<path d="M73.9359 40.101C74.0943 40.4041 74.4683 40.5213 74.7713 40.363C75.0743 40.2047 75.1916 39.8307 75.0333 39.5277C74.8749 39.2246 74.5009 39.1074 74.1979 39.2657C73.8949 39.424 73.7776 39.798 73.9359 40.101Z" fill="#B251FE"/>
<path d="M70.2782 42.0123C70.4366 42.3153 70.8106 42.4326 71.1136 42.2743C71.4166 42.1159 71.5339 41.7419 71.3755 41.4389C71.2172 41.1359 70.8432 41.0186 70.5402 41.1769C70.2372 41.3353 70.1199 41.7093 70.2782 42.0123Z" fill="#B251FE"/>
<path d="M66.6204 43.9235C66.7788 44.2266 67.1528 44.3439 67.4558 44.1855C67.7588 44.0272 67.8761 43.6532 67.7178 43.3502C67.5594 43.0472 67.1854 42.9299 66.8824 43.0882C66.5794 43.2465 66.4621 43.6205 66.6204 43.9235Z" fill="#B251FE"/>
<path d="M62.9627 45.8348C63.1211 46.1378 63.4951 46.2551 63.7981 46.0968C64.1011 45.9384 64.2184 45.5644 64.0601 45.2614C63.9017 44.9584 63.5277 44.8411 63.2247 44.9995C62.9217 45.1578 62.8044 45.5318 62.9627 45.8348Z" fill="#B251FE"/>
<path d="M59.305 47.7461C59.4633 48.0491 59.8373 48.1664 60.1403 48.008C60.4433 47.8497 60.5606 47.4757 60.4023 47.1727C60.2439 46.8697 59.8699 46.7524 59.5669 46.9107C59.2639 47.069 59.1466 47.443 59.305 47.7461Z" fill="#B251FE"/>
<path d="M55.6472 49.6573C55.8056 49.9603 56.1796 50.0776 56.4826 49.9193C56.7856 49.761 56.9029 49.387 56.7446 49.0839C56.5862 48.7809 56.2122 48.6636 55.9092 48.822C55.6062 48.9803 55.4889 49.3543 55.6472 49.6573Z" fill="#B251FE"/>
<path d="M51.9895 51.5686C52.1478 51.8716 52.5218 51.9889 52.8248 51.8306C53.1278 51.6722 53.2451 51.2982 53.0868 50.9952C52.9285 50.6922 52.5545 50.5749 52.2514 50.7332C51.9484 50.8916 51.8311 51.2656 51.9895 51.5686Z" fill="#B251FE"/>
<path d="M48.3317 53.4798C48.4901 53.7829 48.8641 53.9001 49.1671 53.7418C49.4701 53.5835 49.5874 53.2095 49.4291 52.9065C49.2707 52.6034 48.8967 52.4862 48.5937 52.6445C48.2907 52.8028 48.1734 53.1768 48.3317 53.4798Z" fill="#B251FE"/>
<path d="M44.674 55.3911C44.8324 55.6941 45.2064 55.8114 45.5094 55.6531C45.8124 55.4947 45.9297 55.1207 45.7714 54.8177C45.613 54.5147 45.239 54.3974 44.936 54.5557C44.633 54.7141 44.5157 55.0881 44.674 55.3911Z" fill="#B251FE"/>
<path d="M41.0163 57.3023C41.1746 57.6054 41.5486 57.7226 41.8516 57.5643C42.1546 57.406 42.2719 57.032 42.1136 56.729C41.9552 56.4259 41.5812 56.3086 41.2782 56.467C40.9752 56.6253 40.8579 56.9993 41.0163 57.3023Z" fill="#B251FE"/>
<path d="M37.3585 59.2136C37.5168 59.5166 37.8908 59.6339 38.1938 59.4756C38.4968 59.3172 38.6141 58.9432 38.4558 58.6402C38.2975 58.3372 37.9235 58.2199 37.6205 58.3783C37.3174 58.5366 37.2001 58.9106 37.3585 59.2136Z" fill="#B251FE"/>
<path d="M82.9979 30.7095C83.1563 31.0125 83.5303 31.1298 83.8333 30.9715C84.1363 30.8132 84.2536 30.4392 84.0953 30.1362C83.9369 29.8331 83.5629 29.7158 83.2599 29.8742C82.9569 30.0325 82.8396 30.4065 82.9979 30.7095Z" fill="#B251FE"/>
<path d="M79.3402 32.6208C79.4985 32.9238 79.8725 33.0411 80.1755 32.8828C80.4785 32.7244 80.5958 32.3504 80.4375 32.0474C80.2792 31.7444 79.9052 31.6271 79.6021 31.7854C79.2991 31.9438 79.1818 32.3178 79.3402 32.6208Z" fill="#B251FE"/>
<path d="M75.6825 34.532C75.8408 34.8351 76.2148 34.9523 76.5178 34.794C76.8208 34.6357 76.9381 34.2617 76.7798 33.9587C76.6214 33.6556 76.2474 33.5384 75.9444 33.6967C75.6414 33.855 75.5241 34.229 75.6825 34.532Z" fill="#B251FE"/>
<path d="M72.0247 36.4433C72.183 36.7463 72.557 36.8636 72.86 36.7053C73.163 36.5469 73.2803 36.1729 73.122 35.8699C72.9637 35.5669 72.5897 35.4496 72.2867 35.6079C71.9836 35.7663 71.8663 36.1403 72.0247 36.4433Z" fill="#B251FE"/>
<path d="M68.367 38.3545C68.5253 38.6576 68.8993 38.7749 69.2023 38.6165C69.5053 38.4582 69.6226 38.0842 69.4643 37.7812C69.306 37.4782 68.932 37.3609 68.6289 37.5192C68.3259 37.6775 68.2086 38.0515 68.367 38.3545Z" fill="#B251FE"/>
<path d="M64.7092 40.2658C64.8675 40.5688 65.2415 40.6861 65.5445 40.5278C65.8476 40.3694 65.9648 39.9954 65.8065 39.6924C65.6482 39.3894 65.2742 39.2721 64.9712 39.4305C64.6681 39.5888 64.5509 39.9628 64.7092 40.2658Z" fill="#B251FE"/>
<path d="M61.0515 42.1771C61.2098 42.4801 61.5838 42.5974 61.8868 42.439C62.1898 42.2807 62.3071 41.9067 62.1488 41.6037C61.9905 41.3007 61.6165 41.1834 61.3134 41.3417C61.0104 41.5 60.8931 41.874 61.0515 42.1771Z" fill="#B251FE"/>
<path d="M57.3937 44.0883C57.552 44.3913 57.926 44.5086 58.229 44.3503C58.5321 44.192 58.6494 43.818 58.491 43.5149C58.3327 43.2119 57.9587 43.0946 57.6557 43.253C57.3527 43.4113 57.2354 43.7853 57.3937 44.0883Z" fill="#B251FE"/>
<path d="M53.736 45.9996C53.8943 46.3026 54.2683 46.4199 54.5713 46.2615C54.8744 46.1032 54.9916 45.7292 54.8333 45.4262C54.675 45.1232 54.301 45.0059 53.998 45.1642C53.6949 45.3226 53.5776 45.6966 53.736 45.9996Z" fill="#B251FE"/>
<path d="M50.0782 47.9108C50.2365 48.2138 50.6105 48.3311 50.9136 48.1728C51.2166 48.0145 51.3339 47.6405 51.1755 47.3374C51.0172 47.0344 50.6432 46.9171 50.3402 47.0755C50.0372 47.2338 49.9199 47.6078 50.0782 47.9108Z" fill="#B251FE"/>
<path d="M46.4205 49.8221C46.5788 50.1251 46.9528 50.2424 47.2558 50.0841C47.5589 49.9257 47.6761 49.5517 47.5178 49.2487C47.3595 48.9457 46.9855 48.8284 46.6825 48.9867C46.3794 49.1451 46.2622 49.5191 46.4205 49.8221Z" fill="#B251FE"/>
<path d="M42.7627 51.7333C42.921 52.0364 43.295 52.1536 43.5981 51.9953C43.9011 51.837 44.0184 51.463 43.86 51.16C43.7017 50.8569 43.3277 50.7396 43.0247 50.898C42.7217 51.0563 42.6044 51.4303 42.7627 51.7333Z" fill="#B251FE"/>
<path d="M39.105 53.6446C39.2633 53.9476 39.6373 54.0649 39.9404 53.9066C40.2434 53.7482 40.3607 53.3742 40.2023 53.0712C40.044 52.7682 39.67 52.6509 39.367 52.8092C39.064 52.9676 38.9467 53.3416 39.105 53.6446Z" fill="#B251FE"/>
<path d="M35.4472 55.5558C35.6056 55.8589 35.9796 55.9761 36.2826 55.8178C36.5856 55.6595 36.7029 55.2855 36.5445 54.9825C36.3862 54.6794 36.0122 54.5622 35.7092 54.7205C35.4062 54.8788 35.2889 55.2528 35.4472 55.5558Z" fill="#B251FE"/>
<path d="M31.7895 57.4671C31.9478 57.7701 32.3218 57.8874 32.6249 57.7291C32.9279 57.5708 33.0452 57.1968 32.8868 56.8937C32.7285 56.5907 32.3545 56.4734 32.0515 56.6318C31.7485 56.7901 31.6312 57.1641 31.7895 57.4671Z" fill="#B251FE"/>
<path d="M81.0867 27.0518C81.245 27.3548 81.619 27.4721 81.922 27.3138C82.2251 27.1554 82.3423 26.7814 82.184 26.4784C82.0257 26.1754 81.6517 26.0581 81.3487 26.2164C81.0456 26.3748 80.9284 26.7488 81.0867 27.0518Z" fill="#B251FE"/>
<path d="M77.4289 28.963C77.5872 29.2661 77.9612 29.3833 78.2643 29.225C78.5673 29.0667 78.6846 28.6927 78.5262 28.3897C78.3679 28.0866 77.9939 27.9694 77.6909 28.1277C77.3879 28.286 77.2706 28.66 77.4289 28.963Z" fill="#B251FE"/>
<path d="M73.7712 30.8743C73.9295 31.1773 74.3035 31.2946 74.6066 31.1363C74.9096 30.9779 75.0269 30.6039 74.8685 30.3009C74.7102 29.9979 74.3362 29.8806 74.0332 30.0389C73.7302 30.1973 73.6129 30.5713 73.7712 30.8743Z" fill="#B251FE"/>
<path d="M70.1134 32.7855C70.2718 33.0886 70.6458 33.2059 70.9488 33.0475C71.2518 32.8892 71.3691 32.5152 71.2107 32.2122C71.0524 31.9092 70.6784 31.7919 70.3754 31.9502C70.0724 32.1085 69.9551 32.4825 70.1134 32.7855Z" fill="#B251FE"/>
<path d="M66.4557 34.6968C66.614 34.9998 66.988 35.1171 67.2911 34.9588C67.5941 34.8004 67.7114 34.4264 67.553 34.1234C67.3947 33.8204 67.0207 33.7031 66.7177 33.8615C66.4147 34.0198 66.2974 34.3938 66.4557 34.6968Z" fill="#B251FE"/>
<path d="M62.7979 36.6081C62.9563 36.9111 63.3303 37.0284 63.6333 36.87C63.9363 36.7117 64.0536 36.3377 63.8953 36.0347C63.7369 35.7317 63.3629 35.6144 63.0599 35.7727C62.7569 35.931 62.6396 36.305 62.7979 36.6081Z" fill="#B251FE"/>
<path d="M59.1402 38.5193C59.2986 38.8223 59.6726 38.9396 59.9756 38.7813C60.2786 38.623 60.3959 38.249 60.2375 37.9459C60.0792 37.6429 59.7052 37.5256 59.4022 37.684C59.0992 37.8423 58.9819 38.2163 59.1402 38.5193Z" fill="#B251FE"/>
<path d="M55.4824 40.4306C55.6408 40.7336 56.0148 40.8509 56.3178 40.6925C56.6208 40.5342 56.7381 40.1602 56.5798 39.8572C56.4214 39.5542 56.0474 39.4369 55.7444 39.5952C55.4414 39.7536 55.3241 40.1276 55.4824 40.4306Z" fill="#B251FE"/>
<path d="M51.8247 42.3418C51.9831 42.6448 52.3571 42.7621 52.6601 42.6038C52.9631 42.4455 53.0804 42.0715 52.9221 41.7684C52.7637 41.4654 52.3897 41.3481 52.0867 41.5065C51.7837 41.6648 51.6664 42.0388 51.8247 42.3418Z" fill="#B251FE"/>
<path d="M48.167 44.2531C48.3253 44.5561 48.6993 44.6734 49.0023 44.5151C49.3053 44.3567 49.4226 43.9827 49.2643 43.6797C49.1059 43.3767 48.7319 43.2594 48.4289 43.4177C48.1259 43.5761 48.0086 43.9501 48.167 44.2531Z" fill="#B251FE"/>
<path d="M44.5092 46.1643C44.6676 46.4674 45.0416 46.5847 45.3446 46.4263C45.6476 46.268 45.7649 45.894 45.6066 45.591C45.4482 45.288 45.0742 45.1707 44.7712 45.329C44.4682 45.4873 44.3509 45.8613 44.5092 46.1643Z" fill="#B251FE"/>
<path d="M40.8515 48.0756C41.0098 48.3786 41.3838 48.4959 41.6868 48.3376C41.9898 48.1792 42.1071 47.8052 41.9488 47.5022C41.7905 47.1992 41.4165 47.0819 41.1134 47.2402C40.8104 47.3986 40.6931 47.7726 40.8515 48.0756Z" fill="#B251FE"/>
<path d="M37.1937 49.9868C37.3521 50.2899 37.7261 50.4071 38.0291 50.2488C38.3321 50.0905 38.4494 49.7165 38.2911 49.4135C38.1327 49.1104 37.7587 48.9932 37.4557 49.1515C37.1527 49.3098 37.0354 49.6838 37.1937 49.9868Z" fill="#B251FE"/>
<path d="M33.536 51.8981C33.6943 52.2011 34.0683 52.3184 34.3713 52.1601C34.6743 52.0017 34.7916 51.6277 34.6333 51.3247C34.475 51.0217 34.101 50.9044 33.7979 51.0627C33.4949 51.2211 33.3776 51.5951 33.536 51.8981Z" fill="#B251FE"/>
<path d="M29.8783 53.8094C30.0366 54.1124 30.4106 54.2297 30.7136 54.0713C31.0166 53.913 31.1339 53.539 30.9756 53.236C30.8172 52.933 30.4432 52.8157 30.1402 52.974C29.8372 53.1324 29.7199 53.5064 29.8783 53.8094Z" fill="#B251FE"/>
<path d="M79.1754 23.394C79.3338 23.6971 79.7078 23.8143 80.0108 23.656C80.3138 23.4977 80.4311 23.1237 80.2728 22.8207C80.1144 22.5176 79.7404 22.4004 79.4374 22.5587C79.1344 22.717 79.0171 23.091 79.1754 23.394Z" fill="#B251FE"/>
<path d="M75.5177 25.3053C75.676 25.6083 76.05 25.7256 76.353 25.5673C76.656 25.4089 76.7733 25.0349 76.615 24.7319C76.4567 24.4289 76.0827 24.3116 75.7796 24.4699C75.4766 24.6283 75.3593 25.0023 75.5177 25.3053Z" fill="#B251FE"/>
<path d="M71.8599 27.2165C72.0183 27.5196 72.3923 27.6369 72.6953 27.4785C72.9983 27.3202 73.1156 26.9462 72.9573 26.6432C72.7989 26.3402 72.4249 26.2229 72.1219 26.3812C71.8189 26.5395 71.7016 26.9135 71.8599 27.2165Z" fill="#B251FE"/>
<path d="M68.2022 29.1278C68.3605 29.4308 68.7345 29.5481 69.0375 29.3898C69.3405 29.2314 69.4578 28.8574 69.2995 28.5544C69.1412 28.2514 68.7672 28.1341 68.4641 28.2925C68.1611 28.4508 68.0438 28.8248 68.2022 29.1278Z" fill="#B251FE"/>
<path d="M64.5445 31.0391C64.7028 31.3421 65.0768 31.4594 65.3798 31.301C65.6828 31.1427 65.8001 30.7687 65.6418 30.4657C65.4834 30.1627 65.1094 30.0454 64.8064 30.2037C64.5034 30.362 64.3861 30.736 64.5445 31.0391Z" fill="#B251FE"/>
<path d="M60.8867 32.9503C61.045 33.2533 61.419 33.3706 61.722 33.2123C62.025 33.054 62.1423 32.68 61.984 32.377C61.8257 32.0739 61.4517 31.9566 61.1487 32.115C60.8456 32.2733 60.7283 32.6473 60.8867 32.9503Z" fill="#B251FE"/>
<path d="M57.229 34.8616C57.3873 35.1646 57.7613 35.2819 58.0643 35.1235C58.3673 34.9652 58.4846 34.5912 58.3263 34.2882C58.168 33.9852 57.794 33.8679 57.4909 34.0262C57.1879 34.1846 57.0706 34.5586 57.229 34.8616Z" fill="#B251FE"/>
<path d="M53.5712 36.7728C53.7295 37.0759 54.1035 37.1931 54.4065 37.0348C54.7096 36.8765 54.8268 36.5025 54.6685 36.1995C54.5102 35.8964 54.1362 35.7792 53.8332 35.9375C53.5301 36.0958 53.4129 36.4698 53.5712 36.7728Z" fill="#B251FE"/>
<path d="M49.9135 38.6841C50.0718 38.9871 50.4458 39.1044 50.7488 38.9461C51.0518 38.7877 51.1691 38.4137 51.0108 38.1107C50.8525 37.8077 50.4785 37.6904 50.1754 37.8487C49.8724 38.0071 49.7551 38.3811 49.9135 38.6841Z" fill="#B251FE"/>
<path d="M46.2557 40.5953C46.414 40.8984 46.788 41.0157 47.091 40.8573C47.3941 40.699 47.5114 40.325 47.353 40.022C47.1947 39.719 46.8207 39.6017 46.5177 39.76C46.2147 39.9183 46.0974 40.2923 46.2557 40.5953Z" fill="#B251FE"/>
<path d="M42.598 42.5066C42.7563 42.8096 43.1303 42.9269 43.4333 42.7686C43.7364 42.6102 43.8536 42.2362 43.6953 41.9332C43.537 41.6302 43.163 41.5129 42.86 41.6713C42.5569 41.8296 42.4396 42.2036 42.598 42.5066Z" fill="#B251FE"/>
<path d="M38.9403 44.4179C39.0986 44.7209 39.4726 44.8382 39.7756 44.6798C40.0786 44.5215 40.1959 44.1475 40.0376 43.8445C39.8793 43.5415 39.5053 43.4242 39.2022 43.5825C38.8992 43.7408 38.7819 44.1148 38.9403 44.4179Z" fill="#B251FE"/>
<path d="M35.2825 46.3291C35.4408 46.6321 35.8148 46.7494 36.1178 46.5911C36.4209 46.4328 36.5381 46.0588 36.3798 45.7557C36.2215 45.4527 35.8475 45.3354 35.5445 45.4938C35.2414 45.6521 35.1242 46.0261 35.2825 46.3291Z" fill="#B251FE"/>
<path d="M31.6247 48.2404C31.783 48.5434 32.157 48.6607 32.4601 48.5023C32.7631 48.344 32.8804 47.97 32.722 47.667C32.5637 47.364 32.1897 47.2467 31.8867 47.405C31.5837 47.5634 31.4664 47.9374 31.6247 48.2404Z" fill="#B251FE"/>
<path d="M27.967 50.1516C28.1253 50.4546 28.4993 50.5719 28.8024 50.4136C29.1054 50.2553 29.2227 49.8813 29.0643 49.5782C28.906 49.2752 28.532 49.1579 28.229 49.3163C27.926 49.4746 27.8087 49.8486 27.967 50.1516Z" fill="#B251FE"/>
</g>
<g opacity="0.05" clip-path="url(#clip4_788_4843)">
<path d="M87.0109 50.4272C87.1555 50.7369 87.5239 50.8708 87.8337 50.7262C88.1435 50.5815 88.2773 50.2131 88.1327 49.9033C87.988 49.5935 87.6196 49.4597 87.3098 49.6043C87.0001 49.749 86.8662 50.1174 87.0109 50.4272Z" fill="#B251FE"/>
<path d="M83.2715 52.1733C83.4161 52.4831 83.7845 52.6169 84.0943 52.4723C84.4041 52.3276 84.5379 51.9592 84.3933 51.6495C84.2486 51.3397 83.8802 51.2058 83.5705 51.3505C83.2607 51.4951 83.1268 51.8635 83.2715 52.1733Z" fill="#B251FE"/>
<path d="M79.5321 53.9194C79.6768 54.2292 80.0451 54.3631 80.3549 54.2184C80.6647 54.0738 80.7986 53.7054 80.6539 53.3956C80.5093 53.0858 80.1409 52.9519 79.8311 53.0966C79.5213 53.2413 79.3874 53.6096 79.5321 53.9194Z" fill="#B251FE"/>
<path d="M75.7927 55.6656C75.9373 55.9753 76.3057 56.1092 76.6155 55.9646C76.9253 55.8199 77.0591 55.4515 76.9145 55.1417C76.7698 54.8319 76.4014 54.6981 76.0916 54.8427C75.7819 54.9874 75.648 55.3558 75.7927 55.6656Z" fill="#B251FE"/>
<path d="M72.0533 57.4117C72.1979 57.7215 72.5663 57.8553 72.8761 57.7107C73.1859 57.566 73.3197 57.1976 73.1751 56.8879C73.0304 56.5781 72.662 56.4442 72.3523 56.5889C72.0425 56.7335 71.9086 57.1019 72.0533 57.4117Z" fill="#B251FE"/>
<path d="M68.3139 59.1578C68.4585 59.4676 68.8269 59.6015 69.1367 59.4568C69.4465 59.3122 69.5804 58.9438 69.4357 58.634C69.2911 58.3242 68.9227 58.1903 68.6129 58.335C68.3031 58.4797 68.1692 58.8481 68.3139 59.1578Z" fill="#B251FE"/>
<path d="M64.5745 60.904C64.7192 61.2137 65.0876 61.3476 65.3973 61.2029C65.7071 61.0583 65.841 60.6899 65.6963 60.3801C65.5517 60.0703 65.1833 59.9365 64.8735 60.0811C64.5637 60.2258 64.4299 60.5942 64.5745 60.904Z" fill="#B251FE"/>
<path d="M85.2647 46.6878C85.4094 46.9976 85.7777 47.1314 86.0875 46.9868C86.3973 46.8421 86.5312 46.4737 86.3865 46.1639C86.2419 45.8542 85.8735 45.7203 85.5637 45.865C85.2539 46.0096 85.12 46.378 85.2647 46.6878Z" fill="#B251FE"/>
<path d="M81.5253 48.4339C81.67 48.7437 82.0384 48.8776 82.3481 48.7329C82.6579 48.5882 82.7918 48.2199 82.6471 47.9101C82.5025 47.6003 82.1341 47.4664 81.8243 47.6111C81.5145 47.7557 81.3807 48.1241 81.5253 48.4339Z" fill="#B251FE"/>
<path d="M77.7859 50.18C77.9306 50.4898 78.299 50.6237 78.6088 50.479C78.9186 50.3344 79.0524 49.966 78.9078 49.6562C78.7631 49.3464 78.3947 49.2126 78.0849 49.3572C77.7751 49.5019 77.6413 49.8703 77.7859 50.18Z" fill="#B251FE"/>
<path d="M74.0466 51.9262C74.1912 52.236 74.5596 52.3698 74.8694 52.2252C75.1792 52.0805 75.313 51.7121 75.1684 51.4023C75.0237 51.0926 74.6553 50.9587 74.3456 51.1033C74.0358 51.248 73.9019 51.6164 74.0466 51.9262Z" fill="#B251FE"/>
<path d="M70.3072 53.6723C70.4518 53.9821 70.8202 54.116 71.13 53.9713C71.4398 53.8266 71.5737 53.4583 71.429 53.1485C71.2843 52.8387 70.916 52.7048 70.6062 52.8495C70.2964 52.9941 70.1625 53.3625 70.3072 53.6723Z" fill="#B251FE"/>
<path d="M66.5678 55.4184C66.7125 55.7282 67.0808 55.8621 67.3906 55.7174C67.7004 55.5728 67.8343 55.2044 67.6896 54.8946C67.545 54.5848 67.1766 54.451 66.8668 54.5956C66.557 54.7403 66.4231 55.1087 66.5678 55.4184Z" fill="#B251FE"/>
<path d="M62.8284 57.1646C62.973 57.4744 63.3414 57.6082 63.6512 57.4636C63.961 57.3189 64.0948 56.9505 63.9502 56.6407C63.8055 56.331 63.4371 56.1971 63.1273 56.3417C62.8176 56.4864 62.6837 56.8548 62.8284 57.1646Z" fill="#B251FE"/>
<path d="M59.089 58.9107C59.2336 59.2205 59.602 59.3543 59.9118 59.2097C60.2216 59.065 60.3555 58.6966 60.2108 58.3869C60.0661 58.0771 59.6978 57.9432 59.388 58.0879C59.0782 58.2325 58.9443 58.6009 59.089 58.9107Z" fill="#B251FE"/>
<path d="M55.3496 60.6568C55.4943 60.9666 55.8626 61.1005 56.1724 60.9558C56.4822 60.8112 56.6161 60.4428 56.4714 60.133C56.3268 59.8232 55.9584 59.6894 55.6486 59.834C55.3388 59.9787 55.2049 60.3471 55.3496 60.6568Z" fill="#B251FE"/>
<path d="M87.258 41.2023C87.4026 41.512 87.771 41.6459 88.0808 41.5013C88.3906 41.3566 88.5245 40.9882 88.3798 40.6784C88.2351 40.3686 87.8668 40.2348 87.557 40.3794C87.2472 40.5241 87.1133 40.8925 87.258 41.2023Z" fill="#B251FE"/>
<path d="M83.5186 42.9484C83.6633 43.2582 84.0317 43.392 84.3414 43.2474C84.6512 43.1027 84.7851 42.7343 84.6404 42.4246C84.4958 42.1148 84.1274 41.9809 83.8176 42.1256C83.5078 42.2702 83.374 42.6386 83.5186 42.9484Z" fill="#B251FE"/>
<path d="M79.7792 44.6945C79.9238 45.0043 80.2922 45.1382 80.602 44.9935C80.9118 44.8489 81.0456 44.4805 80.901 44.1707C80.7563 43.8609 80.3879 43.727 80.0782 43.8717C79.7684 44.0164 79.6345 44.3847 79.7792 44.6945Z" fill="#B251FE"/>
<path d="M76.0398 46.4407C76.1844 46.7504 76.5528 46.8843 76.8626 46.7396C77.1724 46.595 77.3063 46.2266 77.1616 45.9168C77.0169 45.607 76.6486 45.4732 76.3388 45.6178C76.029 45.7625 75.8951 46.1309 76.0398 46.4407Z" fill="#B251FE"/>
<path d="M72.3004 48.1868C72.4451 48.4966 72.8135 48.6304 73.1232 48.4858C73.433 48.3411 73.5669 47.9727 73.4222 47.663C73.2776 47.3532 72.9092 47.2193 72.5994 47.364C72.2896 47.5086 72.1558 47.877 72.3004 48.1868Z" fill="#B251FE"/>
<path d="M68.561 49.9329C68.7057 50.2427 69.0741 50.3766 69.3839 50.2319C69.6936 50.0873 69.8275 49.7189 69.6828 49.4091C69.5382 49.0993 69.1698 48.9654 68.86 49.1101C68.5502 49.2547 68.4164 49.6231 68.561 49.9329Z" fill="#B251FE"/>
<path d="M64.8216 51.6791C64.9663 51.9888 65.3347 52.1227 65.6445 51.978C65.9543 51.8334 66.0881 51.465 65.9435 51.1552C65.7988 50.8454 65.4304 50.7116 65.1206 50.8562C64.8109 51.0009 64.677 51.3693 64.8216 51.6791Z" fill="#B251FE"/>
<path d="M61.0823 53.4252C61.2269 53.735 61.5953 53.8688 61.9051 53.7242C62.2149 53.5795 62.3487 53.2111 62.2041 52.9013C62.0594 52.5916 61.691 52.4577 61.3813 52.6024C61.0715 52.747 60.9376 53.1154 61.0823 53.4252Z" fill="#B251FE"/>
<path d="M57.3429 55.1713C57.4875 55.4811 57.8559 55.615 58.1657 55.4703C58.4755 55.3257 58.6094 54.9573 58.4647 54.6475C58.32 54.3377 57.9517 54.2038 57.6419 54.3485C57.3321 54.4931 57.1982 54.8615 57.3429 55.1713Z" fill="#B251FE"/>
<path d="M53.6035 56.9174C53.7482 57.2272 54.1166 57.3611 54.4263 57.2164C54.7361 57.0718 54.87 56.7034 54.7253 56.3936C54.5807 56.0838 54.2123 55.95 53.9025 56.0946C53.5927 56.2393 53.4589 56.6077 53.6035 56.9174Z" fill="#B251FE"/>
<path d="M49.8641 58.6636C50.0087 58.9734 50.3771 59.1072 50.6869 58.9626C50.9967 58.8179 51.1305 58.4495 50.9859 58.1397C50.8412 57.83 50.4728 57.6961 50.1631 57.8408C49.8533 57.9854 49.7194 58.3538 49.8641 58.6636Z" fill="#B251FE"/>
<path d="M46.1247 60.4097C46.2693 60.7195 46.6377 60.8534 46.9475 60.7087C47.2573 60.564 47.3912 60.1957 47.2465 59.8859C47.1018 59.5761 46.7335 59.4422 46.4237 59.5869C46.1139 59.7315 45.98 60.0999 46.1247 60.4097Z" fill="#B251FE"/>
<path d="M85.5118 37.4629C85.6565 37.7727 86.0249 37.9065 86.3347 37.7619C86.6444 37.6172 86.7783 37.2488 86.6336 36.939C86.489 36.6293 86.1206 36.4954 85.8108 36.6401C85.501 36.7847 85.3672 37.1531 85.5118 37.4629Z" fill="#B251FE"/>
<path d="M81.7725 39.209C81.9171 39.5188 82.2855 39.6527 82.5953 39.508C82.9051 39.3633 83.0389 38.995 82.8943 38.6852C82.7496 38.3754 82.3812 38.2415 82.0714 38.3862C81.7617 38.5308 81.6278 38.8992 81.7725 39.209Z" fill="#B251FE"/>
<path d="M78.0331 40.9551C78.1777 41.2649 78.5461 41.3988 78.8559 41.2541C79.1657 41.1095 79.2995 40.7411 79.1549 40.4313C79.0102 40.1215 78.6418 39.9877 78.3321 40.1323C78.0223 40.277 77.8884 40.6454 78.0331 40.9551Z" fill="#B251FE"/>
<path d="M74.2937 42.7013C74.4383 43.0111 74.8067 43.1449 75.1165 43.0003C75.4263 42.8556 75.5602 42.4872 75.4155 42.1774C75.2709 41.8677 74.9025 41.7338 74.5927 41.8784C74.2829 42.0231 74.149 42.3915 74.2937 42.7013Z" fill="#B251FE"/>
<path d="M70.5543 44.4474C70.699 44.7572 71.0674 44.891 71.3771 44.7464C71.6869 44.6017 71.8208 44.2333 71.6761 43.9236C71.5315 43.6138 71.1631 43.4799 70.8533 43.6246C70.5435 43.7692 70.4097 44.1376 70.5543 44.4474Z" fill="#B251FE"/>
<path d="M66.8149 46.1935C66.9595 46.5033 67.3279 46.6372 67.6377 46.4925C67.9475 46.3479 68.0813 45.9795 67.9367 45.6697C67.792 45.3599 67.4236 45.2261 67.1139 45.3707C66.8041 45.5154 66.6702 45.8838 66.8149 46.1935Z" fill="#B251FE"/>
<path d="M63.0755 47.9397C63.2201 48.2494 63.5885 48.3833 63.8983 48.2387C64.2081 48.094 64.342 47.7256 64.1973 47.4158C64.0527 47.106 63.6843 46.9722 63.3745 47.1168C63.0647 47.2615 62.9308 47.6299 63.0755 47.9397Z" fill="#B251FE"/>
<path d="M59.3361 49.6858C59.4808 49.9956 59.8492 50.1294 60.1589 49.9848C60.4687 49.8401 60.6026 49.4717 60.4579 49.162C60.3133 48.8522 59.9449 48.7183 59.6351 48.863C59.3253 49.0076 59.1915 49.376 59.3361 49.6858Z" fill="#B251FE"/>
<path d="M55.5967 51.4319C55.7414 51.7417 56.1098 51.8756 56.4196 51.7309C56.7293 51.5863 56.8632 51.2179 56.7185 50.9081C56.5739 50.5983 56.2055 50.4644 55.8957 50.6091C55.5859 50.7538 55.4521 51.1221 55.5967 51.4319Z" fill="#B251FE"/>
<path d="M51.8574 53.1781C52.002 53.4878 52.3704 53.6217 52.6802 53.4771C52.99 53.3324 53.1238 52.964 52.9792 52.6542C52.8345 52.3444 52.4661 52.2106 52.1563 52.3552C51.8466 52.4999 51.7127 52.8683 51.8574 53.1781Z" fill="#B251FE"/>
<path d="M48.118 54.9242C48.2626 55.234 48.631 55.3678 48.9408 55.2232C49.2506 55.0785 49.3844 54.7101 49.2398 54.4003C49.0951 54.0906 48.7267 53.9567 48.417 54.1014C48.1072 54.246 47.9733 54.6144 48.118 54.9242Z" fill="#B251FE"/>
<path d="M44.3786 56.6703C44.5232 56.9801 44.8916 57.114 45.2014 56.9693C45.5112 56.8246 45.6451 56.4563 45.5004 56.1465C45.3558 55.8367 44.9874 55.7028 44.6776 55.8475C44.3678 55.9921 44.2339 56.3605 44.3786 56.6703Z" fill="#B251FE"/>
<path d="M40.6392 58.4165C40.7839 58.7262 41.1523 58.8601 41.462 58.7154C41.7718 58.5708 41.9057 58.2024 41.761 57.8926C41.6164 57.5828 41.248 57.449 40.9382 57.5936C40.6284 57.7383 40.4946 58.1067 40.6392 58.4165Z" fill="#B251FE"/>
<path d="M36.8998 60.1626C37.0444 60.4724 37.4128 60.6062 37.7226 60.4616C38.0324 60.3169 38.1662 59.9485 38.0216 59.6387C37.8769 59.329 37.5085 59.1951 37.1988 59.3397C36.889 59.4844 36.7551 59.8528 36.8998 60.1626Z" fill="#B251FE"/>
<path d="M83.7657 33.7235C83.9104 34.0333 84.2788 34.1671 84.5886 34.0225C84.8983 33.8778 85.0322 33.5094 84.8876 33.1997C84.7429 32.8899 84.3745 32.756 84.0647 32.9007C83.7549 33.0453 83.6211 33.4137 83.7657 33.7235Z" fill="#B251FE"/>
<path d="M80.0263 35.4696C80.171 35.7794 80.5393 35.9133 80.8491 35.7686C81.1589 35.6239 81.2928 35.2556 81.1481 34.9458C81.0035 34.636 80.6351 34.5021 80.3253 34.6468C80.0155 34.7914 79.8816 35.1598 80.0263 35.4696Z" fill="#B251FE"/>
<path d="M76.2869 37.2158C76.4316 37.5255 76.8 37.6594 77.1097 37.5147C77.4195 37.3701 77.5534 37.0017 77.4087 36.6919C77.2641 36.3821 76.8957 36.2483 76.5859 36.3929C76.2761 36.5376 76.1423 36.906 76.2869 37.2158Z" fill="#B251FE"/>
<path d="M72.5475 38.9619C72.6922 39.2717 73.0606 39.4055 73.3704 39.2609C73.6801 39.1162 73.814 38.7478 73.6694 38.438C73.5247 38.1283 73.1563 37.9944 72.8465 38.1391C72.5367 38.2837 72.4029 38.6521 72.5475 38.9619Z" fill="#B251FE"/>
<path d="M68.8082 40.708C68.9528 41.0178 69.3212 41.1517 69.631 41.007C69.9408 40.8624 70.0746 40.494 69.93 40.1842C69.7853 39.8744 69.4169 39.7405 69.1071 39.8852C68.7974 40.0298 68.6635 40.3982 68.8082 40.708Z" fill="#B251FE"/>
<path d="M65.0688 42.4541C65.2134 42.7639 65.5818 42.8978 65.8916 42.7531C66.2014 42.6085 66.3352 42.2401 66.1906 41.9303C66.0459 41.6205 65.6775 41.4867 65.3678 41.6313C65.058 41.776 64.9241 42.1444 65.0688 42.4541Z" fill="#B251FE"/>
<path d="M61.3294 44.2003C61.4741 44.5101 61.8424 44.6439 62.1522 44.4993C62.462 44.3546 62.5959 43.9862 62.4512 43.6764C62.3066 43.3667 61.9382 43.2328 61.6284 43.3775C61.3186 43.5221 61.1847 43.8905 61.3294 44.2003Z" fill="#B251FE"/>
<path d="M57.59 45.9464C57.7347 46.2562 58.1031 46.39 58.4128 46.2454C58.7226 46.1007 58.8565 45.7323 58.7118 45.4226C58.5672 45.1128 58.1988 44.9789 57.889 45.1236C57.5792 45.2682 57.4454 45.6366 57.59 45.9464Z" fill="#B251FE"/>
<path d="M53.8506 47.6925C53.9952 48.0023 54.3636 48.1362 54.6734 47.9915C54.9832 47.8469 55.117 47.4785 54.9724 47.1687C54.8277 46.8589 54.4593 46.7251 54.1496 46.8697C53.8398 47.0144 53.7059 47.3828 53.8506 47.6925Z" fill="#B251FE"/>
<path d="M50.1112 49.4387C50.2559 49.7485 50.6242 49.8823 50.934 49.7377C51.2438 49.593 51.3777 49.2246 51.233 48.9148C51.0884 48.605 50.72 48.4712 50.4102 48.6158C50.1004 48.7605 49.9665 49.1289 50.1112 49.4387Z" fill="#B251FE"/>
<path d="M46.3718 51.1848C46.5165 51.4946 46.8849 51.6285 47.1946 51.4838C47.5044 51.3391 47.6383 50.9708 47.4936 50.661C47.349 50.3512 46.9806 50.2173 46.6708 50.362C46.361 50.5066 46.2272 50.875 46.3718 51.1848Z" fill="#B251FE"/>
<path d="M42.6324 52.9309C42.7771 53.2407 43.1455 53.3746 43.4553 53.2299C43.765 53.0853 43.8989 52.7169 43.7543 52.4071C43.6096 52.0973 43.2412 51.9635 42.9314 52.1081C42.6216 52.2528 42.4878 52.6212 42.6324 52.9309Z" fill="#B251FE"/>
<path d="M38.8931 54.6771C39.0377 54.9868 39.4061 55.1207 39.7159 54.976C40.0257 54.8314 40.1595 54.463 40.0149 54.1532C39.8702 53.8434 39.5018 53.7096 39.192 53.8542C38.8823 53.9989 38.7484 54.3673 38.8931 54.6771Z" fill="#B251FE"/>
<path d="M35.1537 56.4232C35.2983 56.733 35.6667 56.8668 35.9765 56.7222C36.2863 56.5775 36.4201 56.2091 36.2755 55.8994C36.1308 55.5896 35.7624 55.4557 35.4527 55.6004C35.1429 55.745 35.009 56.1134 35.1537 56.4232Z" fill="#B251FE"/>
<path d="M31.4143 58.1693C31.559 58.4791 31.9273 58.613 32.2371 58.4683C32.5469 58.3237 32.6808 57.9553 32.5361 57.6455C32.3915 57.3357 32.0231 57.2018 31.7133 57.3465C31.4035 57.4911 31.2696 57.8595 31.4143 58.1693Z" fill="#B251FE"/>
<path d="M82.0196 29.9841C82.1642 30.2939 82.5326 30.4277 82.8424 30.2831C83.1522 30.1384 83.2861 29.77 83.1414 29.4603C82.9967 29.1505 82.6284 29.0166 82.3186 29.1613C82.0088 29.3059 81.8749 29.6743 82.0196 29.9841Z" fill="#B251FE"/>
<path d="M78.2802 31.7302C78.4249 32.04 78.7933 32.1739 79.103 32.0292C79.4128 31.8846 79.5467 31.5162 79.402 31.2064C79.2574 30.8966 78.889 30.7628 78.5792 30.9074C78.2694 31.0521 78.1355 31.4205 78.2802 31.7302Z" fill="#B251FE"/>
<path d="M74.5408 33.4764C74.6855 33.7861 75.0539 33.92 75.3637 33.7753C75.6734 33.6307 75.8073 33.2623 75.6626 32.9525C75.518 32.6427 75.1496 32.5089 74.8398 32.6535C74.53 32.7982 74.3962 33.1666 74.5408 33.4764Z" fill="#B251FE"/>
<path d="M70.8014 35.2225C70.9461 35.5323 71.3145 35.6661 71.6243 35.5215C71.9341 35.3768 72.0679 35.0084 71.9233 34.6987C71.7786 34.3889 71.4102 34.255 71.1004 34.3997C70.7907 34.5443 70.6568 34.9127 70.8014 35.2225Z" fill="#B251FE"/>
<path d="M67.062 36.9686C67.2067 37.2784 67.5751 37.4123 67.8848 37.2676C68.1946 37.123 68.3285 36.7546 68.1838 36.4448C68.0392 36.135 67.6708 36.0011 67.361 36.1458C67.0512 36.2904 66.9173 36.6588 67.062 36.9686Z" fill="#B251FE"/>
<path d="M63.3226 38.7148C63.4673 39.0245 63.8357 39.1584 64.1455 39.0138C64.4552 38.8691 64.5891 38.5007 64.4444 38.1909C64.2998 37.8811 63.9314 37.7473 63.6216 37.8919C63.3118 38.0366 63.178 38.405 63.3226 38.7148Z" fill="#B251FE"/>
<path d="M59.5832 40.4609C59.7279 40.7707 60.0963 40.9045 60.4061 40.7599C60.7159 40.6152 60.8497 40.2468 60.7051 39.937C60.5604 39.6273 60.192 39.4934 59.8822 39.6381C59.5725 39.7827 59.4386 40.1511 59.5832 40.4609Z" fill="#B251FE"/>
<path d="M55.8439 42.207C55.9885 42.5168 56.3569 42.6507 56.6667 42.506C56.9765 42.3614 57.1103 41.993 56.9657 41.6832C56.821 41.3734 56.4526 41.2395 56.1429 41.3842C55.8331 41.5289 55.6992 41.8972 55.8439 42.207Z" fill="#B251FE"/>
<path d="M52.1045 43.9532C52.2491 44.2629 52.6175 44.3968 52.9273 44.2521C53.2371 44.1075 53.371 43.7391 53.2263 43.4293C53.0816 43.1195 52.7133 42.9857 52.4035 43.1303C52.0937 43.275 51.9598 43.6434 52.1045 43.9532Z" fill="#B251FE"/>
<path d="M48.3651 45.6993C48.5098 46.0091 48.8782 46.1429 49.1879 45.9983C49.4977 45.8536 49.6316 45.4852 49.4869 45.1754C49.3423 44.8657 48.9739 44.7318 48.6641 44.8764C48.3543 45.0211 48.2204 45.3895 48.3651 45.6993Z" fill="#B251FE"/>
<path d="M44.6257 47.4454C44.7703 47.7552 45.1387 47.8891 45.4485 47.7444C45.7583 47.5997 45.8921 47.2314 45.7475 46.9216C45.6028 46.6118 45.2344 46.4779 44.9247 46.6226C44.6149 46.7672 44.481 47.1356 44.6257 47.4454Z" fill="#B251FE"/>
<path d="M40.8863 49.1915C41.0309 49.5013 41.3993 49.6352 41.7091 49.4905C42.0189 49.3459 42.1528 48.9775 42.0081 48.6677C41.8634 48.3579 41.4951 48.2241 41.1853 48.3687C40.8755 48.5134 40.7416 48.8818 40.8863 49.1915Z" fill="#B251FE"/>
<path d="M37.1469 50.9377C37.2916 51.2475 37.66 51.3813 37.9697 51.2367C38.2795 51.092 38.4134 50.7236 38.2687 50.4138C38.1241 50.1041 37.7557 49.9702 37.4459 50.1149C37.1361 50.2595 37.0022 50.6279 37.1469 50.9377Z" fill="#B251FE"/>
<path d="M33.4075 52.6838C33.5522 52.9936 33.9206 53.1274 34.2304 52.9828C34.5401 52.8381 34.674 52.4697 34.5293 52.16C34.3847 51.8502 34.0163 51.7163 33.7065 51.861C33.3967 52.0056 33.2629 52.374 33.4075 52.6838Z" fill="#B251FE"/>
<path d="M29.6681 54.4299C29.8128 54.7397 30.1812 54.8736 30.491 54.7289C30.8008 54.5843 30.9346 54.2159 30.79 53.9061C30.6453 53.5963 30.2769 53.4625 29.9671 53.6071C29.6574 53.7518 29.5235 54.1202 29.6681 54.4299Z" fill="#B251FE"/>
<path d="M80.2734 26.2447C80.4181 26.5545 80.7865 26.6884 81.0963 26.5437C81.406 26.399 81.5399 26.0307 81.3952 25.7209C81.2506 25.4111 80.8822 25.2772 80.5724 25.4219C80.2626 25.5665 80.1288 25.9349 80.2734 26.2447Z" fill="#B251FE"/>
<path d="M76.534 27.9909C76.6787 28.3006 77.0471 28.4345 77.3569 28.2898C77.6667 28.1452 77.8005 27.7768 77.6559 27.467C77.5112 27.1572 77.1428 27.0234 76.833 27.168C76.5233 27.3127 76.3894 27.6811 76.534 27.9909Z" fill="#B251FE"/>
<path d="M72.7947 29.737C72.9393 30.0468 73.3077 30.1806 73.6175 30.036C73.9273 29.8913 74.0611 29.5229 73.9165 29.2131C73.7718 28.9034 73.4034 28.7695 73.0937 28.9142C72.7839 29.0588 72.65 29.4272 72.7947 29.737Z" fill="#B251FE"/>
<path d="M69.0553 31.4831C69.1999 31.7929 69.5683 31.9267 69.8781 31.7821C70.1879 31.6374 70.3218 31.269 70.1771 30.9593C70.0325 30.6495 69.6641 30.5156 69.3543 30.6603C69.0445 30.8049 68.9106 31.1733 69.0553 31.4831Z" fill="#B251FE"/>
<path d="M65.3159 33.2292C65.4606 33.539 65.829 33.6729 66.1387 33.5282C66.4485 33.3836 66.5824 33.0152 66.4377 32.7054C66.2931 32.3956 65.9247 32.2618 65.6149 32.4064C65.3051 32.5511 65.1713 32.9195 65.3159 33.2292Z" fill="#B251FE"/>
<path d="M61.5765 34.9754C61.7212 35.2851 62.0896 35.419 62.3994 35.2744C62.7091 35.1297 62.843 34.7613 62.6983 34.4515C62.5537 34.1417 62.1853 34.0079 61.8755 34.1525C61.5657 34.2972 61.4319 34.6656 61.5765 34.9754Z" fill="#B251FE"/>
<path d="M57.8371 36.7215C57.9818 37.0313 58.3502 37.1651 58.66 37.0205C58.9698 36.8758 59.1036 36.5074 58.959 36.1977C58.8143 35.8879 58.4459 35.754 58.1361 35.8987C57.8264 36.0433 57.6925 36.4117 57.8371 36.7215Z" fill="#B251FE"/>
<path d="M54.0977 38.4676C54.2424 38.7774 54.6108 38.9113 54.9205 38.7666C55.2303 38.622 55.3642 38.2536 55.2195 37.9438C55.0749 37.634 54.7065 37.5001 54.3967 37.6448C54.0869 37.7895 53.9531 38.1579 54.0977 38.4676Z" fill="#B251FE"/>
<path d="M50.3583 40.2138C50.503 40.5236 50.8714 40.6574 51.1812 40.5128C51.4909 40.3681 51.6248 39.9997 51.4801 39.6899C51.3355 39.3802 50.9671 39.2463 50.6573 39.3909C50.3475 39.5356 50.2137 39.904 50.3583 40.2138Z" fill="#B251FE"/>
<path d="M46.6189 41.9599C46.7636 42.2697 47.132 42.4035 47.4418 42.2589C47.7516 42.1142 47.8854 41.7458 47.7408 41.4361C47.5961 41.1263 47.2277 40.9924 46.9179 41.1371C46.6082 41.2817 46.4743 41.6501 46.6189 41.9599Z" fill="#B251FE"/>
<path d="M42.8796 43.706C43.0242 44.0158 43.3926 44.1497 43.7024 44.005C44.0122 43.8604 44.146 43.492 44.0014 43.1822C43.8567 42.8724 43.4883 42.7386 43.1786 42.8832C42.8688 43.0279 42.7349 43.3963 42.8796 43.706Z" fill="#B251FE"/>
<path d="M39.1402 45.4522C39.2848 45.7619 39.6532 45.8958 39.963 45.7511C40.2728 45.6065 40.4067 45.2381 40.262 44.9283C40.1174 44.6185 39.749 44.4847 39.4392 44.6293C39.1294 44.774 38.9955 45.1424 39.1402 45.4522Z" fill="#B251FE"/>
<path d="M35.4008 47.1983C35.5455 47.5081 35.9139 47.6419 36.2236 47.4973C36.5334 47.3526 36.6673 46.9842 36.5226 46.6744C36.378 46.3647 36.0096 46.2308 35.6998 46.3755C35.39 46.5201 35.2562 46.8885 35.4008 47.1983Z" fill="#B251FE"/>
<path d="M31.6614 48.9444C31.8061 49.2542 32.1745 49.3881 32.4843 49.2434C32.794 49.0988 32.9279 48.7304 32.7832 48.4206C32.6386 48.1108 32.2702 47.9769 31.9604 48.1216C31.6506 48.2662 31.5168 48.6346 31.6614 48.9444Z" fill="#B251FE"/>
<path d="M27.922 50.6906C28.0666 51.0003 28.435 51.1342 28.7448 50.9896C29.0546 50.8449 29.1885 50.4765 29.0438 50.1667C28.8992 49.8569 28.5308 49.7231 28.221 49.8677C27.9112 50.0124 27.7773 50.3808 27.922 50.6906Z" fill="#B251FE"/>
</g>
</g>
<path d="M64.5041 25.8227C65.0251 25.3805 65.7357 25.235 66.3885 25.4366L68.6007 26.1199L70.7808 26.8996C71.4242 27.1297 71.9055 27.6723 72.0573 28.3385L72.5717 30.596L72.9865 32.8739C73.1089 33.5461 72.8797 34.2343 72.3786 34.6988L70.6807 36.273L68.9154 37.7712C68.3945 38.2133 67.6839 38.3589 67.0311 38.1572L64.8188 37.4739L62.6387 36.6942C61.9954 36.4641 61.514 35.9215 61.3622 35.2553L60.8479 32.9978L60.4331 30.7199C60.3107 30.0477 60.5399 29.3595 61.041 28.895L62.7388 27.3208L64.5041 25.8227Z" fill="#B251FE"/>
<path d="M68.3145 44.4217C68.8354 43.9796 69.546 43.834 70.1988 44.0356L70.9935 44.2811L71.7767 44.5612C72.4201 44.7913 72.9014 45.3339 73.0532 46.0001L73.238 46.8111L73.387 47.6294C73.5094 48.3016 73.2802 48.9898 72.7791 49.4543L72.1692 50.0198L71.535 50.558C71.0141 51.0001 70.3035 51.1457 69.6507 50.944L68.856 50.6986L68.0728 50.4185C67.4294 50.1884 66.9481 49.6458 66.7963 48.9796L66.6115 48.1686L66.4625 47.3503C66.3401 46.6781 66.5693 45.9899 67.0704 45.5254L67.6803 44.9599L68.3145 44.4217Z" fill="#B251FE"/>
<path d="M70.934 57.2085C71.4549 56.7664 72.1655 56.6208 72.8184 56.8225L72.9043 56.849L72.989 56.8793C73.6324 57.1094 74.1137 57.652 74.2655 58.3182L74.2855 58.4059L74.3016 58.4944C74.424 59.1666 74.1948 59.8548 73.6938 60.3193L73.6278 60.3805L73.5592 60.4387C73.0383 60.8808 72.3277 61.0264 71.6748 60.8248L71.5889 60.7982L71.5042 60.7679C70.8608 60.5378 70.3795 59.9952 70.2277 59.329L70.2077 59.2413L70.1916 59.1528C70.0692 58.4806 70.2984 57.7924 70.7994 57.3279L70.8654 57.2667L70.934 57.2085Z" fill="#B251FE"/>
<g opacity="0.7">
<path d="M59.2274 27.9133C59.6161 27.3514 60.2648 27.0269 60.9476 27.0527L63.2613 27.1401L65.5689 27.329C66.2499 27.3848 66.8553 27.7843 67.1743 28.3885L68.2554 30.436L69.2457 32.5289C69.5379 33.1465 69.4946 33.8705 69.1309 34.4489L67.8983 36.4089L66.5809 38.3129C66.1921 38.8748 65.5434 39.1993 64.8606 39.1735L62.5469 39.0861L60.2393 38.8972C59.5583 38.8414 58.9529 38.4419 58.6339 37.8377L57.5528 35.7902L56.5626 33.6973C56.2703 33.0797 56.3136 32.3557 56.6774 31.7773L57.91 29.8173L59.2274 27.9133Z" fill="#B251FE"/>
<path d="M67.7216 44.8924C68.1104 44.3305 68.7591 44.006 69.4418 44.0318L70.273 44.0632L71.102 44.131C71.783 44.1868 72.3884 44.5863 72.7074 45.1905L73.0958 45.926L73.4515 46.6779C73.7437 47.2955 73.7004 48.0196 73.3367 48.598L72.8939 49.3021L72.4206 49.9861C72.0319 50.5479 71.3832 50.8725 70.7004 50.8467L69.8692 50.8152L69.0402 50.7474C68.3593 50.6916 67.7539 50.2921 67.4348 49.6879L67.0465 48.9524L66.6907 48.2005C66.3985 47.5829 66.4418 46.8589 66.8056 46.2805L67.2483 45.5764L67.7216 44.8924Z" fill="#B251FE"/>
<path d="M73.5614 56.5655C73.9502 56.0036 74.5989 55.6791 75.2817 55.7049L75.3716 55.7083L75.4612 55.7156C76.1422 55.7714 76.7476 56.1709 77.0667 56.7751L77.1087 56.8547L77.1471 56.936C77.4394 57.5536 77.3961 58.2777 77.0323 58.8561L76.9844 58.9322L76.9332 59.0062C76.5445 59.5681 75.8958 59.8926 75.213 59.8668L75.1231 59.8634L75.0334 59.8561C74.3525 59.8003 73.747 59.4008 73.428 58.7966L73.386 58.717L73.3475 58.6357C73.0553 58.0181 73.0986 57.294 73.4624 56.7156L73.5102 56.6395L73.5614 56.5655Z" fill="#B251FE"/>
</g>
<g opacity="0.2">
<path d="M54.6714 31.2984C54.9015 30.655 55.4441 30.1737 56.1103 30.0219L58.3678 29.5075L60.6457 29.0927C61.3179 28.9703 62.0061 29.1996 62.4706 29.7006L64.0448 31.3985L65.543 33.1638C65.9851 33.6847 66.1307 34.3953 65.929 35.0481L65.2457 37.2604L64.466 39.4405C64.2359 40.0838 63.6933 40.5652 63.0271 40.717L60.7696 41.2313L58.4917 41.6461C57.8195 41.7685 57.1313 41.5393 56.6668 41.0383L55.0926 39.3404L53.5944 37.5751C53.1523 37.0541 53.0068 36.3435 53.2084 35.6907L53.8917 33.4785L54.6714 31.2984Z" fill="#B251FE"/>
<path d="M67.2708 45.5005C67.5009 44.8571 68.0435 44.3757 68.7097 44.224L69.5206 44.0392L70.3389 43.8902C71.0111 43.7678 71.6993 43.997 72.1639 44.498L72.7294 45.108L73.2676 45.7421C73.7097 46.2631 73.8553 46.9737 73.6536 47.6265L73.4081 48.4212L73.128 49.2044C72.8979 49.8477 72.3553 50.3291 71.6892 50.4809L70.8782 50.6657L70.0599 50.8147C69.3877 50.9371 68.6995 50.7079 68.2349 50.2068L67.6694 49.5969L67.1312 48.9627C66.6891 48.4418 66.5436 47.7312 66.7452 47.0784L66.9907 46.2836L67.2708 45.5005Z" fill="#B251FE"/>
<path d="M75.9328 55.2644C76.1629 54.621 76.7055 54.1397 77.3717 53.9879L77.4594 53.9679L77.5479 53.9518C78.2201 53.8294 78.9083 54.0586 79.3728 54.5596L79.434 54.6256L79.4922 54.6942C79.9343 55.2151 80.0799 55.9257 79.8782 56.5786L79.8517 56.6645L79.8214 56.7492C79.5913 57.3926 79.0487 57.8739 78.3825 58.0257L78.2948 58.0457L78.2063 58.0618C77.5341 58.1842 76.8459 57.955 76.3814 57.454L76.3202 57.388L76.262 57.3194C75.8199 56.7985 75.6743 56.0879 75.8759 55.435L75.9025 55.3491L75.9328 55.2644Z" fill="#B251FE"/>
</g>
<g opacity="0.05">
<path d="M51.1469 35.7473C51.2026 35.0664 51.6022 34.461 52.2064 34.1419L54.2538 33.0608L56.3467 32.0706C56.9643 31.7784 57.6884 31.8217 58.2668 32.1854L60.2268 33.418L62.1308 34.7354C62.6927 35.1242 63.0172 35.7729 62.9914 36.4557L62.9039 38.7693L62.715 41.077C62.6593 41.758 62.2598 42.3634 61.6556 42.6824L59.6081 43.7635L57.5152 44.7537C56.8976 45.0459 56.1735 45.0026 55.5951 44.6389L53.6352 43.4063L51.7311 42.0889C51.1693 41.7001 50.8447 41.0514 50.8705 40.3687L50.958 38.055L51.1469 35.7473Z" fill="#B251FE"/>
<path d="M66.9927 46.2045C67.0484 45.5235 67.448 44.9181 68.0522 44.5991L68.7877 44.2107L69.5395 43.855C70.1572 43.5628 70.8812 43.6061 71.4596 43.9698L72.1637 44.4126L72.8477 44.8859C73.4096 45.2746 73.7341 45.9233 73.7083 46.6061L73.6769 47.4373L73.609 48.2663C73.5533 48.9472 73.1538 49.5526 72.5496 49.8717L71.814 50.2601L71.0622 50.6158C70.4446 50.908 69.7205 50.8647 69.1421 50.501L68.438 50.0582L67.754 49.5849C67.1921 49.1961 66.8676 48.5474 66.8934 47.8647L66.9248 47.0335L66.9927 46.2045Z" fill="#B251FE"/>
<path d="M77.8867 53.3938C77.9424 52.7129 78.3419 52.1074 78.9461 51.7884L79.0257 51.7464L79.107 51.7079C79.7246 51.4157 80.4487 51.459 81.0271 51.8228L81.1033 51.8706L81.1772 51.9218C81.7391 52.3106 82.0636 52.9593 82.0378 53.6421L82.0344 53.732L82.0271 53.8216C81.9713 54.5026 81.5718 55.108 80.9676 55.4271L80.8881 55.4691L80.8067 55.5075C80.1891 55.7998 79.4651 55.7565 78.8867 55.3927L78.8105 55.3448L78.7365 55.2936C78.1746 54.9049 77.8501 54.2562 77.8759 53.5734L77.8793 53.4835L77.8867 53.3938Z" fill="#B251FE"/>
<path d="M86.3458 58.4474C86.3759 58.079 86.5921 57.7515 86.9189 57.5789V57.5789V57.5789C87.2531 57.4208 87.6448 57.4442 87.9577 57.641V57.641V57.641C88.2617 57.8513 88.4373 58.2023 88.4233 58.5717V58.5717V58.5717C88.3932 58.9401 88.177 59.2676 87.8501 59.4402V59.4402V59.4402C87.516 59.5983 87.1243 59.5749 86.8114 59.3781V59.3781V59.3781C86.5074 59.1678 86.3318 58.8168 86.3458 58.4474V58.4474V58.4474Z" fill="#B251FE"/>
</g>
<path d="M32.6592 29.9411C33.3151 30.1324 33.828 30.6453 34.0193 31.3013L34.6675 33.524L35.2175 35.7731C35.3799 36.4368 35.1921 37.1374 34.7197 37.631L33.1188 39.3038L31.4461 40.9046C30.9525 41.3771 30.2518 41.5648 29.5881 41.4025L27.3391 40.8524L25.1163 40.2043C24.4604 40.013 23.9475 39.5001 23.7562 38.8441L23.108 36.6214L22.558 34.3723C22.3957 33.7086 22.5834 33.008 23.0558 32.5144L24.6567 30.8416L26.3294 29.2408C26.823 28.7683 27.5237 28.5806 28.1874 28.7429L30.4364 29.2929L32.6592 29.9411Z" fill="#B251FE"/>
<path d="M19.2346 43.3658C19.8905 43.5571 20.4034 44.07 20.5947 44.7259L20.8275 45.5244L21.0251 46.3324C21.1875 46.9961 20.9997 47.6967 20.5273 48.1903L19.9522 48.7912L19.3513 49.3663C18.8577 49.8387 18.157 50.0265 17.4933 49.8642L16.6854 49.6666L15.8869 49.4337C15.231 49.2424 14.718 48.7295 14.5268 48.0736L14.2939 47.2751L14.0963 46.4671C13.934 45.8034 14.1217 45.1028 14.5942 44.6092L15.1693 44.0083L15.7702 43.4332C16.2638 42.9608 16.9644 42.773 17.6281 42.9353L18.4361 43.1329L19.2346 43.3658Z" fill="#B251FE"/>
<path d="M10.0051 52.5952C10.661 52.7865 11.1739 53.2994 11.3652 53.9553L11.3904 54.0417L11.4118 54.1291C11.5741 54.7928 11.3864 55.4934 10.9139 55.9871L10.8517 56.052L10.7867 56.1143C10.2931 56.5867 9.59249 56.7744 8.92878 56.6121L8.8414 56.5907L8.75503 56.5655C8.09909 56.3743 7.58619 55.8614 7.39491 55.2054L7.36972 55.119L7.34835 55.0317C7.18603 54.368 7.37377 53.6673 7.84619 53.1737L7.90839 53.1087L7.97339 53.0465C8.46701 52.5741 9.16765 52.3863 9.83135 52.5487L9.91874 52.57L10.0051 52.5952Z" fill="#B251FE"/>
<path d="M3.35662 59.868C3.71148 59.9715 3.98897 60.249 4.09245 60.6039V60.6039V60.6039C4.18027 60.9629 4.0787 61.342 3.82312 61.609V61.609V61.609C3.55606 61.8646 3.17701 61.9662 2.81794 61.8784V61.8784V61.8784C2.46308 61.7749 2.18559 61.4974 2.08211 61.1425V61.1425V61.1425C1.99429 60.7835 2.09586 60.4044 2.35144 60.1374V60.1374V60.1374C2.6185 59.8818 2.99755 59.7802 3.35662 59.868V59.868V59.868Z" fill="#B251FE"/>
<g opacity="0.7">
<path d="M28.0078 26.6885C28.6909 26.7035 29.3191 27.0662 29.6736 27.6502L30.875 29.6295L31.9884 31.6596C32.3169 32.2586 32.3169 32.984 31.9884 33.5831L30.875 35.6131L29.6736 37.5924C29.3191 38.1765 28.6909 38.5391 28.0078 38.5541L25.693 38.6049L23.3782 38.5541C22.6951 38.5391 22.067 38.1765 21.7124 37.5924L20.511 35.6131L19.3976 33.5831C19.0691 32.984 19.0691 32.2586 19.3976 31.6596L20.511 29.6295L21.7124 27.6502C22.067 27.0662 22.6951 26.7035 23.3782 26.6885L25.693 26.6377L28.0078 26.6885Z" fill="#B251FE"/>
<path d="M18.5151 43.1302C19.1982 43.1452 19.8264 43.5079 20.1809 44.092L20.6125 44.803L21.0125 45.5323C21.3411 46.1314 21.3411 46.8567 21.0125 47.4558L20.6125 48.1851L20.1809 48.8961C19.8264 49.4802 19.1982 49.8429 18.5151 49.8579L17.6836 49.8761L16.852 49.8579C16.1689 49.8429 15.5407 49.4802 15.1862 48.8961L14.7546 48.1851L14.3547 47.4558C14.0261 46.8567 14.0261 46.1314 14.3547 45.5323L14.7546 44.803L15.1862 44.092C15.5407 43.5079 16.1689 43.1452 16.852 43.1302L17.6836 43.112L18.5151 43.1302Z" fill="#B251FE"/>
<path d="M11.989 54.434C12.6721 54.449 13.3002 54.8116 13.6548 55.3957L13.7015 55.4726L13.7447 55.5515C14.0733 56.1506 14.0733 56.8759 13.7447 57.475L13.7015 57.5539L13.6548 57.6308C13.3002 58.2149 12.6721 58.5776 11.989 58.5925L11.899 58.5945L11.8091 58.5925C11.126 58.5776 10.4978 58.2149 10.1433 57.6308L10.0966 57.5539L10.0533 57.475C9.72478 56.8759 9.72478 56.1506 10.0533 55.5515L10.0966 55.4726L10.1433 55.3957C10.4978 54.8116 11.126 54.449 11.8091 54.434L11.899 54.432L11.989 54.434Z" fill="#B251FE"/>
</g>
<g opacity="0.2">
<path d="M22.6731 24.7505C23.3368 24.5882 24.0374 24.7759 24.531 25.2483L26.2037 26.8492L27.8046 28.5219C28.277 29.0155 28.4648 29.7162 28.3025 30.3799L27.7524 32.6289L27.1042 34.8517C26.913 35.5076 26.4001 36.0205 25.7441 36.2118L23.5214 36.86L21.2723 37.41C20.6086 37.5724 19.908 37.3846 19.4143 36.9122L17.7416 35.3113L16.1407 33.6386C15.6683 33.145 15.4806 32.4443 15.6429 31.7806L16.1929 29.5316L16.8411 27.3088C17.0324 26.6529 17.5453 26.14 18.2012 25.9487L20.424 25.3005L22.6731 24.7505Z" fill="#B251FE"/>
<path d="M17.7593 43.0889C18.423 42.9266 19.1236 43.1143 19.6172 43.5867L20.2181 44.1618L20.7932 44.7627C21.2657 45.2564 21.4534 45.957 21.2911 46.6207L21.0935 47.4286L20.8606 48.2271C20.6694 48.8831 20.1565 49.396 19.5005 49.5873L18.702 49.8201L17.8941 50.0177C17.2304 50.18 16.5297 49.9923 16.0361 49.5199L15.4352 48.9448L14.8601 48.3439C14.3877 47.8502 14.1999 47.1496 14.3623 46.4859L14.5599 45.678L14.7927 44.8795C14.984 44.2235 15.4969 43.7106 16.1528 43.5193L16.9513 43.2865L17.7593 43.0889Z" fill="#B251FE"/>
<path d="M14.3811 55.6965C15.0448 55.5342 15.7454 55.7219 16.2391 56.1944L16.3041 56.2566L16.3663 56.3216C16.8387 56.8152 17.0264 57.5158 16.8641 58.1795L16.8427 58.2669L16.8175 58.3533C16.6263 59.0092 16.1134 59.5221 15.4574 59.7134L15.371 59.7386L15.2837 59.76C14.62 59.9223 13.9193 59.7345 13.4257 59.2621L13.3607 59.1999L13.2985 59.1349C12.8261 58.6413 12.6383 57.9407 12.8007 57.277L12.822 57.1896L12.8472 57.1032C13.0385 56.4473 13.5514 55.9344 14.2073 55.7431L14.2937 55.7179L14.3811 55.6965Z" fill="#B251FE"/>
</g>
<g opacity="0.05">
<path d="M17.0185 24.2593C17.6176 23.9307 18.3429 23.9307 18.942 24.2593L20.9721 25.3727L22.9513 26.5741C23.5354 26.9286 23.8981 27.5568 23.9131 28.2399L23.9639 30.5547L23.9131 32.8694C23.8981 33.5525 23.5354 34.1807 22.9513 34.5352L20.9721 35.7366L18.942 36.85C18.3429 37.1786 17.6176 37.1786 17.0185 36.85L14.9884 35.7366L13.0092 34.5352C12.4251 34.1807 12.0624 33.5525 12.0474 32.8694L11.9966 30.5547L12.0474 28.2399C12.0624 27.5568 12.4251 26.9286 13.0092 26.5741L14.9884 25.3727L17.0185 24.2593Z" fill="#B251FE"/>
<path d="M17.0185 43.2446C17.6176 42.916 18.343 42.916 18.942 43.2446L19.6713 43.6445L20.3823 44.0761C20.9664 44.4307 21.3291 45.0588 21.3441 45.7419L21.3623 46.5735L21.3441 47.4051C21.3291 48.0881 20.9664 48.7163 20.3823 49.0709L19.6713 49.5024L18.942 49.9024C18.343 50.231 17.6176 50.231 17.0185 49.9024L16.2893 49.5024L15.5782 49.0709C14.9942 48.7163 14.6315 48.0881 14.6165 47.4051L14.5982 46.5735L14.6165 45.7419C14.6315 45.0588 14.9942 44.4307 15.5782 44.0761L16.2893 43.6445L17.0185 43.2446Z" fill="#B251FE"/>
<path d="M17.0185 56.297C17.6176 55.9684 18.343 55.9684 18.942 56.297L19.0209 56.3402L19.0978 56.3869C19.6819 56.7414 20.0446 57.3696 20.0596 58.0527L20.0615 58.1426L20.0596 58.2326C20.0446 58.9157 19.6819 59.5439 19.0978 59.8984L19.0209 59.9451L18.942 59.9883C18.343 60.3169 17.6176 60.3169 17.0185 59.9883L16.9396 59.9451L16.8627 59.8984C16.2787 59.5439 15.916 58.9157 15.901 58.2326L15.899 58.1426L15.901 58.0527C15.916 57.3696 16.2787 56.7414 16.8627 56.3869L16.9396 56.3402L17.0185 56.297Z" fill="#B251FE"/>
</g>
<path d="M38.7308 17.8168C37.2799 16.0201 38.3181 13.3265 40.5995 12.9684L49.155 11.6253C51.4365 11.2671 53.2501 13.513 52.4195 15.6679L49.305 23.7487C48.4744 25.9036 45.6226 26.3513 44.1717 24.5546L38.7308 17.8168Z" fill="#B251FE"/>
</g>
<rect x="2" y="2" width="85" height="58" rx="10" stroke="#B251FE" stroke-width="3" stroke-linecap="round" stroke-dasharray="18 18"/>
<defs>
<clipPath id="clip0_788_4843">
<rect x="2" y="2" width="85" height="58" rx="10" fill="white"/>
</clipPath>
<clipPath id="clip1_788_4843">
<rect width="59.0159" height="26" fill="white" transform="translate(-0.558533 -25.9376) rotate(55.3162)"/>
</clipPath>
<clipPath id="clip2_788_4843">
<rect width="59.0159" height="26" fill="white" transform="translate(91.8867 41.9327) rotate(149.668)"/>
</clipPath>
<clipPath id="clip3_788_4843">
<rect width="59.0159" height="26" fill="white" transform="translate(92.027 45.3158) rotate(152.412)"/>
</clipPath>
<clipPath id="clip4_788_4843">
<rect width="59.0159" height="26" fill="white" transform="translate(92.134 48.7181) rotate(154.969)"/>
</clipPath>
</defs>
</svg>
