<svg width="45" height="31" viewBox="0 0 45 31" fill="none" xmlns="http://www.w3.org/2000/svg">
<g clip-path="url(#clip0_1165_7992)">
<mask id="mask0_1165_7992" style="mask-type:luminance" maskUnits="userSpaceOnUse" x="1" y="1" width="43" height="29">
<path d="M38.9331 1H6.0679C3.27545 1 1.01172 3.23858 1.01172 6V25C1.01172 27.7614 3.27545 30 6.0679 30H38.9331C41.7255 30 43.9892 27.7614 43.9892 25V6C43.9892 3.23858 41.7255 1 38.9331 1Z" fill="white"/>
</mask>
<g mask="url(#mask0_1165_7992)">
<path d="M38.9331 1H6.0679C3.27545 1 1.01172 3.23858 1.01172 6V25C1.01172 27.7614 3.27545 30 6.0679 30H38.9331C41.7255 30 43.9892 27.7614 43.9892 25V6C43.9892 3.23858 41.7255 1 38.9331 1Z" fill="#B251FE" fill-opacity="0.1"/>
<g opacity="0.34">
<mask id="mask1_1165_7992" style="mask-type:luminance" maskUnits="userSpaceOnUse" x="-12" y="-13" width="29" height="32">
<path d="M16.6988 11.2957L-0.28125 -12.9688L-11.0913 -5.5712L5.88875 18.6933L16.6988 11.2957Z" fill="white"/>
</mask>
<g mask="url(#mask1_1165_7992)">
<path d="M9.31635 1.29089C9.45848 1.19361 9.49397 1.0008 9.39563 0.860225C9.29723 0.719655 9.10227 0.68456 8.96014 0.781835C8.81796 0.879115 8.78246 1.07193 8.88086 1.2125C8.9792 1.35307 9.17422 1.38816 9.31635 1.29089Z" fill="#B251FE"/>
<path d="M10.5038 2.98772C10.646 2.89044 10.6815 2.69763 10.5831 2.55706C10.4847 2.41649 10.2897 2.3814 10.1476 2.47867C10.0055 2.57595 9.96998 2.76876 10.0683 2.90933C10.1667 3.0499 10.3617 3.08499 10.5038 2.98772Z" fill="#B251FE"/>
<path d="M11.6913 4.68456C11.8335 4.58728 11.869 4.39447 11.7706 4.2539C11.6722 4.11333 11.4773 4.07823 11.3351 4.17551C11.193 4.27279 11.1575 4.4656 11.2559 4.60617C11.3542 4.74674 11.5492 4.78183 11.6913 4.68456Z" fill="#B251FE"/>
<path d="M12.8788 6.38136C13.021 6.28406 13.0565 6.09126 12.9581 5.95066C12.8597 5.81011 12.6648 5.77501 12.5226 5.87231C12.3805 5.96956 12.345 6.16236 12.4434 6.30296C12.5417 6.44351 12.7367 6.47861 12.8788 6.38136Z" fill="#B251FE"/>
<path d="M14.0663 8.07816C14.2085 7.98091 14.244 7.78811 14.1456 7.64751C14.0472 7.50696 13.8522 7.47186 13.7101 7.56911C13.568 7.66641 13.5325 7.85921 13.6308 7.99981C13.7292 8.14036 13.9242 8.17546 14.0663 8.07816Z" fill="#B251FE"/>
<path d="M15.2538 9.77498C15.396 9.67773 15.4315 9.48493 15.3331 9.34433C15.2347 9.20378 15.0398 9.16868 14.8976 9.26598C14.7555 9.36323 14.72 9.55603 14.8184 9.69663C14.9167 9.83718 15.1117 9.87228 15.2538 9.77498Z" fill="#B251FE"/>
<path d="M16.4413 11.4718C16.5835 11.3745 16.619 11.1817 16.5206 11.0411C16.4222 10.9006 16.2272 10.8655 16.0851 10.9628C15.943 11.06 15.9075 11.2528 16.0058 11.3934C16.1042 11.534 16.2992 11.5691 16.4413 11.4718Z" fill="#B251FE"/>
<path d="M7.60054 2.46514C7.74267 2.36786 7.77816 2.17505 7.67977 2.03448C7.58143 1.89391 7.38646 1.85882 7.24428 1.95609C7.10215 2.05337 7.06666 2.24618 7.165 2.38675C7.2634 2.52732 7.45836 2.56242 7.60054 2.46514Z" fill="#B251FE"/>
<path d="M8.78803 4.16191C8.93016 4.06464 8.96565 3.87183 8.86731 3.73126C8.76892 3.59069 8.57395 3.55559 8.43177 3.65287C8.28964 3.75014 8.25415 3.94295 8.35254 4.08352C8.45088 4.22409 8.64585 4.25919 8.78803 4.16191Z" fill="#B251FE"/>
<path d="M9.9755 5.85877C10.1177 5.76147 10.1531 5.56867 10.0548 5.42812C9.95639 5.28752 9.76143 5.25242 9.6193 5.34972C9.47712 5.44697 9.44167 5.63982 9.54002 5.78037C9.63841 5.92092 9.83338 5.95602 9.9755 5.85877Z" fill="#B251FE"/>
<path d="M11.163 7.55558C11.3052 7.45833 11.3407 7.26548 11.2423 7.12493C11.1439 6.98438 10.949 6.94927 10.8068 7.04652C10.6647 7.14382 10.6292 7.33663 10.7275 7.47718C10.8259 7.61778 11.0209 7.65288 11.163 7.55558Z" fill="#B251FE"/>
<path d="M12.3505 9.25239C12.4927 9.15509 12.5282 8.96229 12.4298 8.82174C12.3314 8.68114 12.1365 8.64604 11.9943 8.74334C11.8521 8.84059 11.8166 9.03344 11.915 9.17399C12.0134 9.31454 12.2083 9.34964 12.3505 9.25239Z" fill="#B251FE"/>
<path d="M13.538 10.9492C13.6802 10.8519 13.7157 10.6591 13.6173 10.5186C13.5189 10.378 13.3239 10.3429 13.1818 10.4402C13.0397 10.5375 13.0042 10.7303 13.1025 10.8708C13.2009 11.0114 13.3959 11.0465 13.538 10.9492Z" fill="#B251FE"/>
<path d="M14.7255 12.646C14.8677 12.5488 14.9032 12.3559 14.8048 12.2154C14.7064 12.0748 14.5115 12.0397 14.3693 12.137C14.2271 12.2343 14.1916 12.4271 14.29 12.5676C14.3884 12.7082 14.5833 12.7433 14.7255 12.646Z" fill="#B251FE"/>
<path d="M4.69817 1.94255C4.84032 1.84528 4.87581 1.65246 4.77745 1.5119C4.67908 1.37133 4.4841 1.33623 4.34195 1.43351C4.1998 1.53078 4.16431 1.72359 4.26268 1.86416C4.36105 2.00473 4.55602 2.03983 4.69817 1.94255Z" fill="#B251FE"/>
<path d="M5.88471 3.63933C6.02684 3.54205 6.06233 3.34924 5.96399 3.20867C5.86559 3.0681 5.67063 3.03301 5.5285 3.13028C5.38632 3.22756 5.35082 3.42037 5.44922 3.56094C5.54756 3.70151 5.74258 3.73661 5.88471 3.63933Z" fill="#B251FE"/>
<path d="M7.07217 5.33619C7.21435 5.23889 7.24984 5.04609 7.15145 4.90551C7.05311 4.76494 6.85809 4.72985 6.71596 4.82712C6.57383 4.9244 6.53834 5.11719 6.63668 5.25779C6.73507 5.39834 6.93004 5.43344 7.07217 5.33619Z" fill="#B251FE"/>
<path d="M8.25972 7.03293C8.40185 6.93568 8.43734 6.74288 8.33895 6.60228C8.24061 6.46173 8.04564 6.42663 7.90346 6.52388C7.76133 6.62118 7.72584 6.81398 7.82418 6.95458C7.92258 7.09513 8.11754 7.13023 8.25972 7.03293Z" fill="#B251FE"/>
<path d="M9.44721 8.72981C9.58934 8.63251 9.62483 8.43971 9.52649 8.29911C9.42809 8.15856 9.23313 8.12346 9.091 8.22076C8.94882 8.31801 8.91332 8.51081 9.01172 8.65141C9.11006 8.79196 9.30508 8.82706 9.44721 8.72981Z" fill="#B251FE"/>
<path d="M10.6347 10.4266C10.7769 10.3294 10.8123 10.1366 10.714 9.99596C10.6156 9.85541 10.4206 9.82031 10.2785 9.91756C10.1363 10.0149 10.1008 10.2077 10.1992 10.3483C10.2976 10.4888 10.4925 10.5239 10.6347 10.4266Z" fill="#B251FE"/>
<path d="M11.8222 12.1234C11.9643 12.0262 11.9998 11.8334 11.9015 11.6928C11.8031 11.5522 11.6081 11.5171 11.466 11.6144C11.3238 11.7117 11.2883 11.9045 11.3867 12.0451C11.4851 12.1856 11.68 12.2207 11.8222 12.1234Z" fill="#B251FE"/>
<path d="M13.0097 13.8203C13.1519 13.723 13.1873 13.5302 13.089 13.3896C12.9906 13.249 12.7956 13.2139 12.6535 13.3112C12.5113 13.4085 12.4759 13.6013 12.5742 13.7419C12.6726 13.8824 12.8676 13.9175 13.0097 13.8203Z" fill="#B251FE"/>
<path d="M1.79485 1.41991C1.937 1.32263 1.97249 1.12982 1.87412 0.989253C1.77575 0.848683 1.58077 0.813588 1.43863 0.910863C1.29648 1.00814 1.26099 1.20095 1.35936 1.34152C1.45773 1.48209 1.6527 1.51718 1.79485 1.41991Z" fill="#B251FE"/>
<path d="M2.98138 3.11675C3.12353 3.01947 3.15902 2.82666 3.06065 2.68609C2.96228 2.54552 2.7673 2.51043 2.62515 2.6077C2.483 2.70498 2.44751 2.89779 2.54588 3.03836C2.64425 3.17893 2.83923 3.21402 2.98138 3.11675Z" fill="#B251FE"/>
<path d="M4.16887 4.81359C4.31102 4.71631 4.34651 4.5235 4.24815 4.38293C4.14978 4.24236 3.9548 4.20727 3.81265 4.30454C3.6705 4.40182 3.63501 4.59463 3.73338 4.7352C3.83175 4.87577 4.02673 4.91087 4.16887 4.81359Z" fill="#B251FE"/>
<path d="M5.35639 6.51035C5.49852 6.4131 5.53401 6.22025 5.43567 6.0797C5.33728 5.93915 5.14231 5.90405 5.00015 6.0013C4.858 6.0986 4.82251 6.2914 4.92088 6.43195C5.01925 6.57255 5.21421 6.60765 5.35639 6.51035Z" fill="#B251FE"/>
<path d="M6.54389 8.20722C6.68602 8.10992 6.72151 7.91712 6.62317 7.77657C6.52477 7.63597 6.32981 7.60087 6.18768 7.69817C6.0455 7.79542 6.01 7.98827 6.1084 8.12882C6.20674 8.26937 6.40176 8.30447 6.54389 8.20722Z" fill="#B251FE"/>
<path d="M7.73135 9.90402C7.87353 9.80677 7.90902 9.61392 7.81063 9.47337C7.71229 9.33282 7.51727 9.29772 7.37514 9.39497C7.23301 9.49227 7.19752 9.68507 7.29586 9.82562C7.39425 9.96622 7.58922 10.0013 7.73135 9.90402Z" fill="#B251FE"/>
<path d="M8.91889 11.6008C9.06101 11.5036 9.09651 11.3107 8.99817 11.1702C8.89977 11.0296 8.70481 10.9945 8.56268 11.0918C8.4205 11.1891 8.385 11.3819 8.4834 11.5224C8.58174 11.663 8.77676 11.6981 8.91889 11.6008Z" fill="#B251FE"/>
<path d="M10.1063 13.2977C10.2485 13.2004 10.284 13.0076 10.1856 12.867C10.0873 12.7264 9.89227 12.6914 9.75014 12.7886C9.60801 12.8859 9.57252 13.0787 9.67086 13.2193C9.76925 13.3599 9.96422 13.3949 10.1063 13.2977Z" fill="#B251FE"/>
<path d="M11.2939 14.9945C11.436 14.8972 11.4715 14.7044 11.3731 14.5638C11.2748 14.4233 11.0798 14.3882 10.9376 14.4854C10.7955 14.5827 10.76 14.7755 10.8584 14.9161C10.9568 15.0567 11.1517 15.0918 11.2939 14.9945Z" fill="#B251FE"/>
<path d="M1.26555 4.291C1.4077 4.19373 1.44319 4.00091 1.34483 3.86035C1.24646 3.71978 1.05148 3.68468 0.909332 3.78196C0.767182 3.87923 0.731693 4.07204 0.830061 4.21261C0.928429 4.35318 1.12341 4.38828 1.26555 4.291Z" fill="#B251FE"/>
<path d="M2.45306 5.98775C2.5952 5.8905 2.6307 5.6977 2.53233 5.5571C2.43396 5.41655 2.23898 5.38145 2.09683 5.47875C1.95468 5.576 1.91919 5.7688 2.01756 5.9094C2.11593 6.04995 2.31091 6.08505 2.45306 5.98775Z" fill="#B251FE"/>
<path d="M3.64056 7.68458C3.78271 7.58728 3.8182 7.39448 3.71983 7.25388C3.62146 7.11333 3.42648 7.07823 3.28433 7.17553C3.14218 7.27278 3.10669 7.46558 3.20506 7.60618C3.30343 7.74673 3.49841 7.78183 3.64056 7.68458Z" fill="#B251FE"/>
<path d="M4.82805 9.38138C4.9702 9.28413 5.00569 9.09133 4.90733 8.95073C4.80896 8.81018 4.61398 8.77508 4.47183 8.87233C4.32968 8.96963 4.29419 9.16243 4.39256 9.30303C4.49093 9.44358 4.68591 9.47868 4.82805 9.38138Z" fill="#B251FE"/>
<path d="M6.01557 11.0783C6.1577 10.981 6.19319 10.7882 6.09485 10.6476C5.99646 10.507 5.80149 10.4719 5.65931 10.5692C5.51718 10.6665 5.48169 10.8593 5.58008 10.9999C5.67842 11.1404 5.87339 11.1755 6.01557 11.0783Z" fill="#B251FE"/>
<path d="M7.20303 12.775C7.34521 12.6777 7.3807 12.4849 7.28231 12.3444C7.18397 12.2038 6.98895 12.1687 6.84682 12.266C6.70469 12.3632 6.6692 12.5561 6.76754 12.6966C6.86593 12.8372 7.0609 12.8723 7.20303 12.775Z" fill="#B251FE"/>
<path d="M8.39057 14.4719C8.5327 14.3746 8.56819 14.1818 8.46985 14.0412C8.37146 13.9007 8.17649 13.8656 8.03431 13.9629C7.89218 14.0601 7.85669 14.2529 7.95508 14.3935C8.05342 14.5341 8.24839 14.5692 8.39057 14.4719Z" fill="#B251FE"/>
<path d="M9.57807 16.1687C9.72019 16.0714 9.75569 15.8786 9.65735 15.738C9.55895 15.5975 9.36399 15.5624 9.22186 15.6597C9.07968 15.7569 9.04418 15.9497 9.14258 16.0903C9.24092 16.2309 9.43594 16.266 9.57807 16.1687Z" fill="#B251FE"/>
<path d="M1.92473 8.8588C2.06688 8.76155 2.10237 8.5687 2.00401 8.42815C1.90564 8.2876 1.71066 8.2525 1.56851 8.34975C1.42636 8.44705 1.39087 8.63985 1.48924 8.7804C1.58761 8.921 1.78259 8.9561 1.92473 8.8588Z" fill="#B251FE"/>
<path d="M3.11224 10.5557C3.25439 10.4584 3.28988 10.2656 3.19151 10.125C3.09314 9.98442 2.89816 9.94932 2.75601 10.0466C2.61386 10.1439 2.57837 10.3367 2.67674 10.4773C2.77511 10.6178 2.97009 10.6529 3.11224 10.5557Z" fill="#B251FE"/>
<path d="M4.29973 12.2525C4.44188 12.1552 4.47737 11.9624 4.37901 11.8218C4.28064 11.6813 4.08566 11.6462 3.94351 11.7434C3.80136 11.8407 3.76587 12.0335 3.86424 12.1741C3.96261 12.3147 4.15758 12.3498 4.29973 12.2525Z" fill="#B251FE"/>
<path d="M5.48724 13.9493C5.62937 13.852 5.66487 13.6592 5.56652 13.5186C5.46813 13.3781 5.27316 13.343 5.13104 13.4402C4.98886 13.5375 4.95337 13.7303 5.05174 13.8709C5.1501 14.0115 5.34506 14.0466 5.48724 13.9493Z" fill="#B251FE"/>
<path d="M6.67472 15.6461C6.8169 15.5488 6.85235 15.356 6.754 15.2155C6.65561 15.0749 6.46064 15.0398 6.31852 15.1371C6.17634 15.2344 6.14089 15.4272 6.23923 15.5677C6.33763 15.7083 6.53259 15.7434 6.67472 15.6461Z" fill="#B251FE"/>
<path d="M7.86226 17.3429C8.00439 17.2457 8.03988 17.0528 7.94149 16.9123C7.84315 16.7717 7.64818 16.7366 7.506 16.8339C7.36387 16.9312 7.32838 17.124 7.42672 17.2645C7.52511 17.4051 7.72008 17.4402 7.86226 17.3429Z" fill="#B251FE"/>
<path d="M1.39641 11.7298C1.53856 11.6326 1.57405 11.4398 1.47568 11.2992C1.37732 11.1586 1.18234 11.1235 1.04019 11.2208C0.898042 11.3181 0.862552 11.5109 0.96092 11.6515C1.05929 11.792 1.25426 11.8271 1.39641 11.7298Z" fill="#B251FE"/>
<path d="M2.58294 13.4267C2.72509 13.3294 2.76058 13.1366 2.66221 12.996C2.56384 12.8555 2.36886 12.8204 2.22671 12.9177C2.08457 13.0149 2.04907 13.2077 2.14745 13.3483C2.24581 13.4889 2.44079 13.524 2.58294 13.4267Z" fill="#B251FE"/>
<path d="M3.77141 15.1235C3.91356 15.0262 3.94905 14.8334 3.85068 14.6928C3.75232 14.5522 3.55734 14.5171 3.41519 14.6144C3.27304 14.7117 3.23755 14.9045 3.33592 15.0451C3.43429 15.1856 3.62926 15.2207 3.77141 15.1235Z" fill="#B251FE"/>
<path d="M4.95891 16.8203C5.10106 16.7231 5.13656 16.5303 5.03818 16.3897C4.93982 16.2491 4.74484 16.214 4.60269 16.3113C4.46054 16.4086 4.42505 16.6014 4.52342 16.742C4.62179 16.8825 4.81677 16.9176 4.95891 16.8203Z" fill="#B251FE"/>
<path d="M6.14642 18.5172C6.28855 18.4199 6.32405 18.2271 6.22571 18.0865C6.12731 17.9459 5.93235 17.9108 5.79022 18.0081C5.64804 18.1054 5.61254 18.2982 5.71094 18.4388C5.80928 18.5793 6.0043 18.6144 6.14642 18.5172Z" fill="#B251FE"/>
</g>
<mask id="mask2_1165_7992" style="mask-type:luminance" maskUnits="userSpaceOnUse" x="14" y="9" width="33" height="27">
<path d="M20.7051 35.8681L46.46 20.9663L39.8211 9.74583L14.0662 24.6476L20.7051 35.8681Z" fill="white"/>
</mask>
<g mask="url(#mask2_1165_7992)">
<g opacity="0.6">
<path d="M43.9609 22.0539C44.0481 22.2014 44.2399 22.251 44.3891 22.1647C44.5383 22.0784 44.5885 21.8888 44.5012 21.7412C44.4139 21.5937 44.2222 21.5441 44.073 21.6304C43.9238 21.7167 43.8736 21.9063 43.9609 22.0539Z" fill="#B251FE"/>
<path d="M42.1601 23.0959C42.2474 23.2435 42.4391 23.2931 42.5883 23.2068C42.7375 23.1204 42.7877 22.9308 42.7004 22.7833C42.6131 22.6358 42.4213 22.5861 42.2721 22.6725C42.123 22.7588 42.0728 22.9484 42.1601 23.0959Z" fill="#B251FE"/>
<path d="M40.3583 24.138C40.4456 24.2855 40.6373 24.3352 40.7865 24.2488C40.9358 24.1625 40.9859 23.9729 40.8986 23.8254C40.8113 23.6778 40.6196 23.6282 40.4704 23.7145C40.3212 23.8009 40.271 23.9905 40.3583 24.138Z" fill="#B251FE"/>
<path d="M38.5575 25.1801C38.6449 25.3276 38.8366 25.3772 38.9858 25.2909C39.135 25.2046 39.1852 25.015 39.0979 24.8674C39.0106 24.7199 38.8188 24.6703 38.6696 24.7566C38.5204 24.8429 38.4703 25.0325 38.5575 25.1801Z" fill="#B251FE"/>
<path d="M36.7567 26.2222C36.8441 26.3697 37.0358 26.4194 37.185 26.333C37.3342 26.2467 37.3844 26.0571 37.2971 25.9096C37.2098 25.762 37.0181 25.7124 36.8688 25.7987C36.7196 25.8851 36.6695 26.0746 36.7567 26.2222Z" fill="#B251FE"/>
<path d="M34.956 27.2642C35.0433 27.4118 35.235 27.4614 35.3842 27.3751C35.5334 27.2887 35.5836 27.0991 35.4963 26.9516C35.409 26.8041 35.2173 26.7544 35.0681 26.8408C34.9189 26.9271 34.8687 27.1167 34.956 27.2642Z" fill="#B251FE"/>
<path d="M33.1542 28.3063C33.2416 28.4538 33.4332 28.5034 33.5824 28.4171C33.7316 28.3308 33.7819 28.1412 33.6945 27.9937C33.6073 27.8461 33.4155 27.7965 33.2663 27.8828C33.1171 27.9691 33.0669 28.1587 33.1542 28.3063Z" fill="#B251FE"/>
<path d="M31.3535 29.3484C31.4407 29.496 31.6325 29.5456 31.7817 29.4593C31.9309 29.3729 31.9811 29.1833 31.8938 29.0358C31.8064 28.8882 31.6148 28.8386 31.4655 28.9249C31.3163 29.0113 31.2661 29.2009 31.3535 29.3484Z" fill="#B251FE"/>
<path d="M29.5527 30.3905C29.6399 30.538 29.8317 30.5876 29.9809 30.5013C30.1301 30.415 30.1803 30.2254 30.093 30.0778C30.0057 29.9303 29.814 29.8807 29.6648 29.967C29.5156 30.0533 29.4654 30.2429 29.5527 30.3905Z" fill="#B251FE"/>
<path d="M42.9072 20.2728C42.9944 20.4204 43.1862 20.47 43.3354 20.3837C43.4846 20.2973 43.5348 20.1078 43.4475 19.9602C43.3602 19.8127 43.1685 19.763 43.0193 19.8494C42.8701 19.9357 42.8198 20.1253 42.9072 20.2728Z" fill="#B251FE"/>
<path d="M41.1064 21.3149C41.1937 21.4624 41.3854 21.5121 41.5346 21.4257C41.6838 21.3394 41.734 21.1498 41.6467 21.0023C41.5594 20.8547 41.3676 20.8051 41.2185 20.8914C41.0693 20.9777 41.0191 21.1673 41.1064 21.3149Z" fill="#B251FE"/>
<path d="M39.3046 22.357C39.3919 22.5045 39.5836 22.5541 39.7328 22.4678C39.882 22.3815 39.9322 22.1919 39.8449 22.0443C39.7576 21.8968 39.5659 21.8472 39.4167 21.9335C39.2675 22.0198 39.2173 22.2094 39.3046 22.357Z" fill="#B251FE"/>
<path d="M37.5038 23.399C37.5911 23.5466 37.7829 23.5962 37.9321 23.5099C38.0813 23.4235 38.1314 23.2339 38.0442 23.0864C37.9569 22.9389 37.7651 22.8892 37.6159 22.9756C37.4667 23.0619 37.4165 23.2515 37.5038 23.399Z" fill="#B251FE"/>
<path d="M35.703 24.4411C35.7904 24.5886 35.9821 24.6383 36.1313 24.5519C36.2805 24.4656 36.3307 24.276 36.2434 24.1285C36.1561 23.9809 35.9643 23.9313 35.8151 24.0176C35.6659 24.104 35.6158 24.2936 35.703 24.4411Z" fill="#B251FE"/>
<path d="M33.9013 25.4832C33.9886 25.6308 34.1803 25.6804 34.3295 25.5941C34.4787 25.5078 34.5289 25.3182 34.4416 25.1706C34.3543 25.0231 34.1626 24.9734 34.0134 25.0598C33.8642 25.1461 33.814 25.3357 33.9013 25.4832Z" fill="#B251FE"/>
<path d="M32.1005 26.5253C32.1878 26.6728 32.3796 26.7225 32.5288 26.6361C32.6779 26.5498 32.7281 26.3602 32.6408 26.2127C32.5535 26.0651 32.3618 26.0155 32.2126 26.1018C32.0634 26.1882 32.0132 26.3777 32.1005 26.5253Z" fill="#B251FE"/>
<path d="M30.2997 27.5673C30.387 27.7149 30.5788 27.7645 30.728 27.6782C30.8771 27.5918 30.9273 27.4022 30.84 27.2547C30.7528 27.1072 30.561 27.0575 30.4118 27.1439C30.2626 27.2302 30.2124 27.4198 30.2997 27.5673Z" fill="#B251FE"/>
<path d="M28.499 28.6094C28.5863 28.7569 28.778 28.8065 28.9272 28.7202C29.0764 28.6339 29.1266 28.4443 29.0393 28.2968C28.952 28.1492 28.7603 28.0996 28.6111 28.1859C28.4618 28.2722 28.4116 28.4618 28.499 28.6094Z" fill="#B251FE"/>
<path d="M26.6972 29.6515C26.7845 29.7991 26.9762 29.8487 27.1254 29.7624C27.2746 29.676 27.3248 29.4864 27.2375 29.3389C27.1502 29.1913 26.9585 29.1417 26.8093 29.228C26.6601 29.3144 26.6099 29.504 26.6972 29.6515Z" fill="#B251FE"/>
<path d="M43.6542 17.4497C43.7415 17.5973 43.9332 17.6469 44.0824 17.5606C44.2316 17.4742 44.2818 17.2846 44.1945 17.1371C44.1072 16.9895 43.9155 16.9399 43.7663 17.0262C43.6171 17.1126 43.5669 17.3022 43.6542 17.4497Z" fill="#B251FE"/>
<path d="M41.8534 18.4918C41.9407 18.6393 42.1324 18.689 42.2816 18.6026C42.4308 18.5163 42.4811 18.3267 42.3937 18.1792C42.3065 18.0316 42.1147 17.982 41.9655 18.0683C41.8163 18.1547 41.7662 18.3442 41.8534 18.4918Z" fill="#B251FE"/>
<path d="M40.0527 19.5338C40.1399 19.6814 40.3317 19.731 40.4809 19.6447C40.6301 19.5584 40.6803 19.3688 40.593 19.2212C40.5057 19.0737 40.314 19.0241 40.1648 19.1104C40.0156 19.1967 39.9653 19.3863 40.0527 19.5338Z" fill="#B251FE"/>
<path d="M38.2509 20.5759C38.3382 20.7235 38.5299 20.7731 38.6791 20.6868C38.8283 20.6004 38.8785 20.4109 38.7912 20.2633C38.7039 20.1158 38.5122 20.0661 38.363 20.1525C38.2138 20.2388 38.1636 20.4284 38.2509 20.5759Z" fill="#B251FE"/>
<path d="M36.4501 21.618C36.5374 21.7655 36.7291 21.8152 36.8783 21.7288C37.0275 21.6425 37.0778 21.4529 36.9904 21.3054C36.9031 21.1578 36.7114 21.1082 36.5622 21.1945C36.413 21.2808 36.3628 21.4704 36.4501 21.618Z" fill="#B251FE"/>
<path d="M34.6494 22.6601C34.7366 22.8076 34.9284 22.8572 35.0776 22.7709C35.2268 22.6846 35.2769 22.495 35.1897 22.3474C35.1023 22.1999 34.9106 22.1503 34.7614 22.2366C34.6122 22.3229 34.562 22.5125 34.6494 22.6601Z" fill="#B251FE"/>
<path d="M32.8476 23.7021C32.9349 23.8497 33.1266 23.8993 33.2758 23.813C33.425 23.7267 33.4752 23.5371 33.3879 23.3895C33.3006 23.242 33.1088 23.1924 32.9596 23.2787C32.8105 23.365 32.7603 23.5546 32.8476 23.7021Z" fill="#B251FE"/>
<path d="M31.0468 24.7442C31.1341 24.8917 31.3258 24.9414 31.475 24.855C31.6243 24.7687 31.6744 24.5791 31.5871 24.4316C31.4998 24.284 31.3081 24.2344 31.1589 24.3207C31.0097 24.4071 30.9595 24.5967 31.0468 24.7442Z" fill="#B251FE"/>
<path d="M29.246 25.7863C29.3333 25.9339 29.5251 25.9835 29.6743 25.8972C29.8235 25.8109 29.8736 25.6213 29.7864 25.4737C29.699 25.3262 29.5073 25.2765 29.3581 25.3629C29.2089 25.4492 29.1587 25.6388 29.246 25.7863Z" fill="#B251FE"/>
<path d="M27.4452 26.8283C27.5325 26.9759 27.7243 27.0255 27.8734 26.9392C28.0226 26.8529 28.0728 26.6633 27.9855 26.5157C27.8983 26.3682 27.7065 26.3185 27.5573 26.4049C27.4081 26.4912 27.358 26.6808 27.4452 26.8283Z" fill="#B251FE"/>
<path d="M25.6435 27.8704C25.7308 28.018 25.9225 28.0676 26.0717 27.9813C26.2209 27.8949 26.2711 27.7053 26.1838 27.5578C26.0965 27.4103 25.9048 27.3606 25.7556 27.447C25.6064 27.5333 25.5562 27.7229 25.6435 27.8704Z" fill="#B251FE"/>
<path d="M23.8427 28.9126C23.93 29.0601 24.1217 29.1097 24.2709 29.0234C24.4201 28.9371 24.4703 28.7475 24.383 28.5999C24.2957 28.4524 24.104 28.4028 23.9548 28.4891C23.8056 28.5754 23.7554 28.765 23.8427 28.9126Z" fill="#B251FE"/>
<path d="M22.0419 29.9546C22.1292 30.1021 22.3209 30.1517 22.4701 30.0654C22.6193 29.9791 22.6696 29.7895 22.5822 29.6419C22.495 29.4944 22.3032 29.4448 22.154 29.5311C22.0048 29.6174 21.9546 29.807 22.0419 29.9546Z" fill="#B251FE"/>
<path d="M42.6005 15.6687C42.6878 15.8163 42.8796 15.8658 43.0288 15.7795C43.1779 15.6932 43.2281 15.5036 43.1408 15.356C43.0535 15.2085 42.8618 15.1589 42.7126 15.2452C42.5634 15.3315 42.5132 15.5212 42.6005 15.6687Z" fill="#B251FE"/>
<path d="M40.7997 16.7108C40.887 16.8583 41.0788 16.9079 41.228 16.8216C41.3771 16.7353 41.4273 16.5457 41.34 16.3981C41.2528 16.2506 41.061 16.201 40.9118 16.2873C40.7626 16.3736 40.7124 16.5632 40.7997 16.7108Z" fill="#B251FE"/>
<path d="M38.998 17.7528C39.0853 17.9004 39.277 17.95 39.4262 17.8637C39.5754 17.7773 39.6256 17.5877 39.5383 17.4402C39.451 17.2926 39.2593 17.243 39.1101 17.3293C38.9608 17.4157 38.9107 17.6053 38.998 17.7528Z" fill="#B251FE"/>
<path d="M37.1972 18.7949C37.2845 18.9424 37.4762 18.9921 37.6254 18.9057C37.7746 18.8194 37.8248 18.6298 37.7375 18.4823C37.6502 18.3347 37.4585 18.2851 37.3093 18.3714C37.1601 18.4578 37.1099 18.6473 37.1972 18.7949Z" fill="#B251FE"/>
<path d="M35.3964 19.837C35.4837 19.9845 35.6754 20.0341 35.8246 19.9478C35.9738 19.8615 36.024 19.6719 35.9367 19.5244C35.8495 19.3768 35.6577 19.3272 35.5085 19.4135C35.3593 19.4998 35.3091 19.6894 35.3964 19.837Z" fill="#B251FE"/>
<path d="M33.5956 20.879C33.6829 21.0266 33.8746 21.0762 34.0238 20.9899C34.1731 20.9035 34.2233 20.714 34.1359 20.5664C34.0486 20.4189 33.8569 20.3692 33.7077 20.4556C33.5585 20.5419 33.5083 20.7315 33.5956 20.879Z" fill="#B251FE"/>
<path d="M31.7939 21.9211C31.8812 22.0687 32.0729 22.1183 32.2221 22.032C32.3713 21.9456 32.4215 21.756 32.3342 21.6085C32.2469 21.4609 32.0552 21.4113 31.906 21.4976C31.7568 21.584 31.7066 21.7736 31.7939 21.9211Z" fill="#B251FE"/>
<path d="M29.9931 22.9632C30.0804 23.1107 30.2721 23.1603 30.4213 23.074C30.5705 22.9877 30.6207 22.7981 30.5334 22.6505C30.4461 22.503 30.2544 22.4534 30.1051 22.5397C29.956 22.626 29.9058 22.8156 29.9931 22.9632Z" fill="#B251FE"/>
<path d="M28.1923 24.0052C28.2796 24.1528 28.4713 24.2024 28.6205 24.1161C28.7697 24.0298 28.8199 23.8402 28.7326 23.6926C28.6453 23.5451 28.4536 23.4955 28.3044 23.5818C28.1552 23.6681 28.105 23.8577 28.1923 24.0052Z" fill="#B251FE"/>
<path d="M26.3906 25.0474C26.4778 25.1949 26.6696 25.2446 26.8188 25.1582C26.968 25.0719 27.0181 24.8823 26.9309 24.7348C26.8435 24.5872 26.6518 24.5376 26.5026 24.6239C26.3535 24.7102 26.3032 24.8998 26.3906 25.0474Z" fill="#B251FE"/>
<path d="M24.5898 26.0894C24.6771 26.237 24.8688 26.2866 25.018 26.2003C25.1672 26.114 25.2174 25.9244 25.1301 25.7768C25.0428 25.6293 24.8511 25.5796 24.7019 25.666C24.5526 25.7523 24.5025 25.9419 24.5898 26.0894Z" fill="#B251FE"/>
<path d="M22.789 27.1315C22.8763 27.279 23.068 27.3286 23.2172 27.2423C23.3664 27.156 23.4166 26.9664 23.3293 26.8188C23.242 26.6713 23.0503 26.6217 22.9011 26.708C22.7519 26.7943 22.7017 26.9839 22.789 27.1315Z" fill="#B251FE"/>
<path d="M20.9882 28.1735C21.0755 28.3211 21.2672 28.3707 21.4164 28.2844C21.5656 28.198 21.6158 28.0084 21.5285 27.8609C21.4413 27.7134 21.2495 27.6637 21.1003 27.7501C20.9511 27.8364 20.9009 28.026 20.9882 28.1735Z" fill="#B251FE"/>
<path d="M19.1865 29.2157C19.2738 29.3632 19.4655 29.4128 19.6147 29.3265C19.7639 29.2402 19.8141 29.0506 19.7268 28.903C19.6395 28.7555 19.4478 28.7059 19.2986 28.7922C19.1493 28.8785 19.0991 29.0681 19.1865 29.2157Z" fill="#B251FE"/>
<path d="M17.3857 30.2577C17.4729 30.4052 17.6647 30.4549 17.8139 30.3685C17.9631 30.2822 18.0133 30.0926 17.926 29.9451C17.8387 29.7975 17.647 29.7479 17.4978 29.8342C17.3486 29.9206 17.2984 30.1101 17.3857 30.2577Z" fill="#B251FE"/>
<path d="M41.5468 13.8876C41.6341 14.0352 41.8258 14.0848 41.975 13.9985C42.1242 13.9122 42.1744 13.7226 42.0871 13.575C41.9998 13.4275 41.8081 13.3778 41.6589 13.4642C41.5097 13.5505 41.4595 13.7401 41.5468 13.8876Z" fill="#B251FE"/>
<path d="M39.746 14.9297C39.8333 15.0773 40.0251 15.1269 40.1743 15.0406C40.3235 14.9542 40.3736 14.7646 40.2864 14.6171C40.199 14.4696 40.0073 14.4199 39.8581 14.5063C39.7089 14.5926 39.6587 14.7822 39.746 14.9297Z" fill="#B251FE"/>
<path d="M37.9442 15.9718C38.0316 16.1193 38.2233 16.1689 38.3725 16.0826C38.5217 15.9963 38.5719 15.8067 38.4846 15.6592C38.3973 15.5116 38.2056 15.462 38.0563 15.5483C37.9071 15.6346 37.857 15.8242 37.9442 15.9718Z" fill="#B251FE"/>
<path d="M36.1435 17.0139C36.2308 17.1614 36.4225 17.211 36.5717 17.1247C36.7209 17.0384 36.7711 16.8488 36.6838 16.7012C36.5965 16.5537 36.4048 16.5041 36.2556 16.5904C36.1064 16.6767 36.0562 16.8663 36.1435 17.0139Z" fill="#B251FE"/>
<path d="M34.3427 18.056C34.43 18.2035 34.6217 18.2532 34.7709 18.1668C34.9201 18.0805 34.9703 17.8909 34.883 17.7434C34.7957 17.5958 34.604 17.5462 34.4548 17.6325C34.3056 17.7189 34.2554 17.9084 34.3427 18.056Z" fill="#B251FE"/>
<path d="M32.5419 19.098C32.6292 19.2455 32.8209 19.2952 32.9701 19.2088C33.1193 19.1225 33.1695 18.9329 33.0822 18.7854C32.995 18.6378 32.8032 18.5882 32.654 18.6745C32.5048 18.7609 32.4546 18.9504 32.5419 19.098Z" fill="#B251FE"/>
<path d="M30.7402 20.1401C30.8274 20.2876 31.0192 20.3372 31.1684 20.2509C31.3176 20.1646 31.3678 19.975 31.2805 19.8275C31.1932 19.6799 31.0015 19.6303 30.8523 19.7166C30.7031 19.8029 30.6529 19.9925 30.7402 20.1401Z" fill="#B251FE"/>
<path d="M28.9394 21.1821C29.0267 21.3297 29.2184 21.3793 29.3676 21.293C29.5168 21.2066 29.567 21.0171 29.4797 20.8695C29.3924 20.722 29.2007 20.6723 29.0515 20.7587C28.9023 20.845 28.8521 21.0346 28.9394 21.1821Z" fill="#B251FE"/>
<path d="M27.1386 22.2242C27.2259 22.3718 27.4176 22.4214 27.5668 22.3351C27.716 22.2487 27.7662 22.0591 27.6789 21.9116C27.5916 21.764 27.3999 21.7144 27.2507 21.8007C27.1015 21.8871 27.0513 22.0767 27.1386 22.2242Z" fill="#B251FE"/>
<path d="M25.3369 23.2663C25.4241 23.4138 25.6159 23.4635 25.7651 23.3771C25.9143 23.2908 25.9644 23.1012 25.8772 22.9537C25.7898 22.8061 25.5981 22.7565 25.4489 22.8428C25.2997 22.9292 25.2495 23.1188 25.3369 23.2663Z" fill="#B251FE"/>
<path d="M23.536 24.3084C23.6234 24.4559 23.8151 24.5055 23.9643 24.4192C24.1135 24.3329 24.1637 24.1433 24.0764 23.9957C23.9891 23.8482 23.7973 23.7986 23.6481 23.8849C23.4989 23.9712 23.4488 24.1608 23.536 24.3084Z" fill="#B251FE"/>
<path d="M21.7353 25.3505C21.8226 25.498 22.0143 25.5477 22.1635 25.4613C22.3127 25.375 22.3629 25.1854 22.2756 25.0379C22.1883 24.8903 21.9966 24.8407 21.8474 24.927C21.6982 25.0133 21.648 25.2029 21.7353 25.3505Z" fill="#B251FE"/>
<path d="M19.9345 26.3925C20.0218 26.5401 20.2135 26.5897 20.3627 26.5034C20.5119 26.4171 20.5621 26.2275 20.4748 26.0799C20.3875 25.9324 20.1958 25.8827 20.0466 25.9691C19.8974 26.0554 19.8472 26.245 19.9345 26.3925Z" fill="#B251FE"/>
<path d="M18.1327 27.4346C18.22 27.5821 18.4118 27.6317 18.561 27.5454C18.7101 27.4591 18.7603 27.2695 18.673 27.1219C18.5858 26.9744 18.394 26.9248 18.2448 27.0111C18.0956 27.0974 18.0455 27.287 18.1327 27.4346Z" fill="#B251FE"/>
<path d="M16.3319 28.4767C16.4193 28.6243 16.611 28.6739 16.7602 28.5875C16.9094 28.5012 16.9596 28.3116 16.8722 28.1641C16.785 28.0165 16.5932 27.9669 16.444 28.0532C16.2948 28.1396 16.2447 28.3292 16.3319 28.4767Z" fill="#B251FE"/>
<path d="M40.4931 12.1066C40.5804 12.2542 40.7721 12.3038 40.9213 12.2175C41.0705 12.1312 41.1207 11.9416 41.0334 11.794C40.9461 11.6465 40.7544 11.5969 40.6052 11.6832C40.456 11.7695 40.4058 11.9591 40.4931 12.1066Z" fill="#B251FE"/>
<path d="M38.6923 13.1487C38.7796 13.2962 38.9713 13.3459 39.1205 13.2595C39.2697 13.1732 39.3199 12.9836 39.2326 12.8361C39.1453 12.6885 38.9536 12.6389 38.8044 12.7252C38.6552 12.8115 38.605 13.0011 38.6923 13.1487Z" fill="#B251FE"/>
<path d="M36.8906 14.1907C36.9778 14.3383 37.1696 14.3879 37.3188 14.3016C37.468 14.2153 37.5181 14.0257 37.4309 13.8781C37.3435 13.7306 37.1518 13.6809 37.0026 13.7673C36.8534 13.8536 36.8032 14.0432 36.8906 14.1907Z" fill="#B251FE"/>
<path d="M35.0898 15.2328C35.1771 15.3804 35.3688 15.43 35.518 15.3437C35.6672 15.2573 35.7174 15.0677 35.6301 14.9202C35.5428 14.7727 35.3511 14.723 35.2019 14.8094C35.0526 14.8957 35.0025 15.0853 35.0898 15.2328Z" fill="#B251FE"/>
<path d="M33.289 16.2749C33.3763 16.4224 33.568 16.4721 33.7172 16.3857C33.8664 16.2994 33.9166 16.1098 33.8293 15.9623C33.742 15.8147 33.5503 15.7651 33.4011 15.8514C33.2519 15.9378 33.2017 16.1274 33.289 16.2749Z" fill="#B251FE"/>
<path d="M31.4872 17.317C31.5745 17.4645 31.7663 17.5141 31.9155 17.4278C32.0647 17.3415 32.1148 17.1519 32.0276 17.0043C31.9403 16.8568 31.7485 16.8072 31.5993 16.8935C31.4501 16.9798 31.3999 17.1694 31.4872 17.317Z" fill="#B251FE"/>
<path d="M29.6864 18.3591C29.7738 18.5066 29.9654 18.5563 30.1146 18.4699C30.2639 18.3836 30.3141 18.194 30.2267 18.0465C30.1395 17.8989 29.9477 17.8493 29.7985 17.9356C29.6493 18.022 29.5992 18.2115 29.6864 18.3591Z" fill="#B251FE"/>
<path d="M27.8857 19.4011C27.973 19.5486 28.1647 19.5983 28.3139 19.5119C28.4631 19.4256 28.5133 19.236 28.426 19.0885C28.3387 18.9409 28.147 18.8913 27.9978 18.9776C27.8485 19.064 27.7984 19.2535 27.8857 19.4011Z" fill="#B251FE"/>
<path d="M26.0849 20.4432C26.1722 20.5907 26.3639 20.6403 26.5131 20.554C26.6623 20.4677 26.7125 20.2781 26.6252 20.1306C26.5379 19.983 26.3462 19.9334 26.197 20.0197C26.0478 20.106 25.9976 20.2956 26.0849 20.4432Z" fill="#B251FE"/>
<path d="M24.2831 21.4853C24.3704 21.6329 24.5621 21.6825 24.7113 21.5962C24.8606 21.5098 24.9108 21.3202 24.8234 21.1727C24.7361 21.0251 24.5444 20.9755 24.3952 21.0618C24.246 21.1482 24.1958 21.3378 24.2831 21.4853Z" fill="#B251FE"/>
<path d="M22.4824 22.5273C22.5696 22.6749 22.7614 22.7245 22.9106 22.6382C23.0598 22.5518 23.1099 22.3622 23.0227 22.2147C22.9353 22.0671 22.7436 22.0175 22.5944 22.1038C22.4452 22.1902 22.395 22.3798 22.4824 22.5273Z" fill="#B251FE"/>
<path d="M20.6816 23.5694C20.7688 23.7169 20.9606 23.7666 21.1098 23.6802C21.259 23.5939 21.3092 23.4043 21.2219 23.2568C21.1346 23.1092 20.9428 23.0596 20.7936 23.1459C20.6445 23.2323 20.5943 23.4219 20.6816 23.5694Z" fill="#B251FE"/>
<path d="M18.8798 24.6115C18.9671 24.759 19.1588 24.8086 19.308 24.7223C19.4572 24.636 19.5074 24.4464 19.4201 24.2988C19.3328 24.1513 19.1411 24.1017 18.9919 24.188C18.8427 24.2743 18.7925 24.4639 18.8798 24.6115Z" fill="#B251FE"/>
<path d="M17.079 25.6536C17.1663 25.8011 17.3581 25.8508 17.5073 25.7644C17.6565 25.6781 17.7066 25.4885 17.6194 25.341C17.532 25.1934 17.3403 25.1438 17.1911 25.2301C17.0419 25.3164 16.9917 25.506 17.079 25.6536Z" fill="#B251FE"/>
<path d="M15.2782 26.6956C15.3656 26.8432 15.5573 26.8928 15.7065 26.8065C15.8557 26.7201 15.9059 26.5305 15.8186 26.383C15.7313 26.2355 15.5395 26.1858 15.3903 26.2722C15.2411 26.3585 15.191 26.5481 15.2782 26.6956Z" fill="#B251FE"/>
<path d="M39.4394 10.3256C39.5267 10.4731 39.7184 10.5227 39.8676 10.4364C40.0168 10.3501 40.067 10.1605 39.9797 10.0129C39.8924 9.86539 39.7007 9.81579 39.5515 9.90209C39.4023 9.98844 39.3521 10.178 39.4394 10.3256Z" fill="#B251FE"/>
<path d="M37.6376 11.3677C37.7249 11.5152 37.9166 11.5649 38.0658 11.4785C38.215 11.3922 38.2653 11.2026 38.1779 11.0551C38.0907 10.9075 37.8989 10.8579 37.7497 10.9442C37.6005 11.0305 37.5503 11.2202 37.6376 11.3677Z" fill="#B251FE"/>
<path d="M35.8369 12.4097C35.9241 12.5573 36.1159 12.6069 36.2651 12.5206C36.4143 12.4343 36.4644 12.2447 36.3772 12.0971C36.2898 11.9496 36.0982 11.9 35.9489 11.9863C35.7997 12.0726 35.7495 12.2622 35.8369 12.4097Z" fill="#B251FE"/>
<path d="M34.0361 13.4518C34.1233 13.5993 34.3151 13.649 34.4643 13.5626C34.6135 13.4763 34.6636 13.2867 34.5764 13.1392C34.4891 12.9916 34.2974 12.942 34.1482 13.0283C33.999 13.1146 33.9487 13.3042 34.0361 13.4518Z" fill="#B251FE"/>
<path d="M32.2353 14.4939C32.3226 14.6415 32.5143 14.6911 32.6635 14.6048C32.8127 14.5184 32.8629 14.3288 32.7756 14.1813C32.6883 14.0337 32.4966 13.9841 32.3474 14.0705C32.1982 14.1568 32.148 14.3464 32.2353 14.4939Z" fill="#B251FE"/>
<path d="M30.4335 15.5359C30.5208 15.6835 30.7126 15.7331 30.8618 15.6468C31.011 15.5604 31.0611 15.3708 30.9739 15.2233C30.8865 15.0758 30.6948 15.0261 30.5456 15.1125C30.3964 15.1988 30.3462 15.3884 30.4335 15.5359Z" fill="#B251FE"/>
<path d="M28.6327 16.578C28.72 16.7255 28.9118 16.7752 29.061 16.6888C29.2101 16.6025 29.2603 16.4129 29.173 16.2654C29.0858 16.1178 28.894 16.0682 28.7448 16.1545C28.5956 16.2409 28.5455 16.4305 28.6327 16.578Z" fill="#B251FE"/>
<path d="M26.8319 17.6201C26.9193 17.7676 27.111 17.8172 27.2602 17.7309C27.4094 17.6446 27.4596 17.455 27.3722 17.3074C27.285 17.1599 27.0932 17.1103 26.944 17.1966C26.7948 17.2829 26.7447 17.4725 26.8319 17.6201Z" fill="#B251FE"/>
<path d="M25.0312 18.6622C25.1185 18.8097 25.3102 18.8594 25.4594 18.773C25.6086 18.6867 25.6588 18.4971 25.5715 18.3496C25.4842 18.202 25.2925 18.1524 25.1433 18.2387C24.9941 18.3251 24.9439 18.5146 25.0312 18.6622Z" fill="#B251FE"/>
<path d="M23.2294 19.7042C23.3167 19.8518 23.5084 19.9014 23.6576 19.8151C23.8068 19.7287 23.8571 19.5391 23.7697 19.3916C23.6825 19.2441 23.4907 19.1944 23.3415 19.2808C23.1923 19.3671 23.1421 19.5567 23.2294 19.7042Z" fill="#B251FE"/>
<path d="M21.4286 20.7463C21.516 20.8938 21.7076 20.9434 21.8569 20.8571C22.0061 20.7708 22.0563 20.5812 21.969 20.4337C21.8817 20.2861 21.6899 20.2365 21.5407 20.3228C21.3915 20.4091 21.3413 20.5987 21.4286 20.7463Z" fill="#B251FE"/>
<path d="M19.6279 21.7884C19.7151 21.936 19.9069 21.9856 20.0561 21.8993C20.2053 21.8129 20.2555 21.6233 20.1682 21.4758C20.0808 21.3282 19.8892 21.2786 19.74 21.3649C19.5908 21.4513 19.5405 21.6409 19.6279 21.7884Z" fill="#B251FE"/>
<path d="M17.8261 22.8304C17.9134 22.978 18.1051 23.0276 18.2543 22.9413C18.4035 22.8549 18.4537 22.6653 18.3664 22.5178C18.2791 22.3702 18.0874 22.3206 17.9382 22.4069C17.789 22.4933 17.7388 22.6829 17.8261 22.8304Z" fill="#B251FE"/>
<path d="M16.0253 23.8725C16.1126 24.02 16.3043 24.0697 16.4535 23.9833C16.6027 23.897 16.6529 23.7074 16.5656 23.5599C16.4783 23.4123 16.2866 23.3627 16.1374 23.449C15.9882 23.5354 15.938 23.725 16.0253 23.8725Z" fill="#B251FE"/>
<path d="M14.2245 24.9146C14.3118 25.0622 14.5035 25.1118 14.6528 25.0255C14.802 24.9391 14.8521 24.7496 14.7649 24.602C14.6775 24.4545 14.4858 24.4048 14.3366 24.4912C14.1874 24.5775 14.1372 24.7671 14.2245 24.9146Z" fill="#B251FE"/>
</g>
</g>
<mask id="mask3_1165_7992" style="mask-type:luminance" maskUnits="userSpaceOnUse" x="13" y="11" width="34" height="26">
<path d="M20.0845 36.3233L46.5312 22.6579L40.4432 11.136L13.9964 24.8014L20.0845 36.3233Z" fill="white"/>
</mask>
<g mask="url(#mask3_1165_7992)">
<g opacity="0.2">
<path d="M43.9819 23.6259C44.062 23.7774 44.2511 23.836 44.4043 23.7568C44.5575 23.6777 44.6168 23.4907 44.5368 23.3392C44.4567 23.1877 44.2676 23.129 44.1144 23.2082C43.9612 23.2873 43.9019 23.4743 43.9819 23.6259Z" fill="#B251FE"/>
<path d="M42.1323 24.5815C42.2124 24.733 42.4015 24.7916 42.5547 24.7125C42.7079 24.6333 42.7672 24.4463 42.6871 24.2948C42.6071 24.1433 42.418 24.0846 42.2648 24.1638C42.1116 24.243 42.0523 24.43 42.1323 24.5815Z" fill="#B251FE"/>
<path d="M40.2827 25.5371C40.3627 25.6886 40.5518 25.7473 40.7051 25.6681C40.8583 25.5889 40.9176 25.4019 40.8375 25.2504C40.7575 25.0989 40.5684 25.0403 40.4152 25.1194C40.262 25.1986 40.2027 25.3856 40.2827 25.5371Z" fill="#B251FE"/>
<path d="M38.4331 26.4927C38.5132 26.6442 38.7023 26.7029 38.8555 26.6237C39.0087 26.5446 39.068 26.3576 38.988 26.2061C38.9079 26.0545 38.7188 25.9959 38.5656 26.0751C38.4124 26.1542 38.353 26.3412 38.4331 26.4927Z" fill="#B251FE"/>
<path d="M36.5835 27.4484C36.6636 27.5999 36.8527 27.6585 37.0059 27.5794C37.1591 27.5002 37.2184 27.3132 37.1383 27.1617C37.0583 27.0102 36.8692 26.9515 36.7159 27.0307C36.5627 27.1099 36.5034 27.2969 36.5835 27.4484Z" fill="#B251FE"/>
<path d="M34.7349 28.404C34.8149 28.5555 35.0041 28.6141 35.1573 28.535C35.3105 28.4558 35.3698 28.2688 35.2897 28.1173C35.2096 27.9658 35.0205 27.9072 34.8673 27.9863C34.7141 28.0655 34.6548 28.2525 34.7349 28.404Z" fill="#B251FE"/>
<path d="M32.8853 29.3596C32.9653 29.5111 33.1544 29.5698 33.3076 29.4906C33.4608 29.4114 33.5202 29.2244 33.4401 29.0729C33.36 28.9214 33.1709 28.8628 33.0177 28.9419C32.8645 29.0211 32.8052 29.2081 32.8853 29.3596Z" fill="#B251FE"/>
<path d="M31.0356 30.3153C31.1157 30.4668 31.3048 30.5255 31.458 30.4463C31.6112 30.3671 31.6705 30.1801 31.5905 30.0286C31.5104 29.8771 31.3213 29.8185 31.1681 29.8976C31.0149 29.9768 30.9556 30.1638 31.0356 30.3153Z" fill="#B251FE"/>
<path d="M43.0151 21.7971C43.0952 21.9486 43.2843 22.0072 43.4375 21.928C43.5907 21.8489 43.65 21.6619 43.5699 21.5104C43.4899 21.3589 43.3008 21.3002 43.1476 21.3794C42.9944 21.4585 42.9351 21.6455 43.0151 21.7971Z" fill="#B251FE"/>
<path d="M41.1656 22.7526C41.2456 22.9041 41.4347 22.9628 41.5879 22.8836C41.7411 22.8044 41.8004 22.6174 41.7204 22.4659C41.6403 22.3144 41.4512 22.2558 41.298 22.335C41.1448 22.4141 41.0855 22.6011 41.1656 22.7526Z" fill="#B251FE"/>
<path d="M39.3159 23.7083C39.396 23.8598 39.5851 23.9184 39.7383 23.8392C39.8915 23.7601 39.9508 23.5731 39.8708 23.4216C39.7907 23.2701 39.6016 23.2114 39.4484 23.2906C39.2952 23.3697 39.2359 23.5567 39.3159 23.7083Z" fill="#B251FE"/>
<path d="M37.4673 24.6639C37.5474 24.8154 37.7365 24.874 37.8897 24.7949C38.0429 24.7157 38.1022 24.5287 38.0221 24.3772C37.9421 24.2257 37.753 24.167 37.5998 24.2462C37.4465 24.3254 37.3872 24.5124 37.4673 24.6639Z" fill="#B251FE"/>
<path d="M35.6177 25.6195C35.6978 25.771 35.8869 25.8297 36.0401 25.7505C36.1933 25.6713 36.2526 25.4843 36.1725 25.3328C36.0924 25.1813 35.9033 25.1227 35.7501 25.2018C35.5969 25.281 35.5376 25.468 35.6177 25.6195Z" fill="#B251FE"/>
<path d="M33.7681 26.5751C33.8481 26.7266 34.0372 26.7853 34.1905 26.7061C34.3437 26.627 34.403 26.44 34.3229 26.2884C34.2428 26.1369 34.0537 26.0783 33.9005 26.1575C33.7473 26.2366 33.688 26.4236 33.7681 26.5751Z" fill="#B251FE"/>
<path d="M31.9185 27.5308C31.9985 27.6823 32.1876 27.7409 32.3408 27.6618C32.494 27.5826 32.5534 27.3956 32.4733 27.2441C32.3932 27.0926 32.2041 27.0339 32.0509 27.1131C31.8977 27.1923 31.8384 27.3793 31.9185 27.5308Z" fill="#B251FE"/>
<path d="M30.0699 28.4864C30.1499 28.638 30.339 28.6966 30.4922 28.6174C30.6454 28.5383 30.7047 28.3513 30.6247 28.1998C30.5446 28.0482 30.3555 27.9896 30.2023 28.0688C30.0491 28.1479 29.9898 28.3349 30.0699 28.4864Z" fill="#B251FE"/>
<path d="M28.2202 29.442C28.3003 29.5935 28.4894 29.6522 28.6426 29.573C28.7958 29.4938 28.8551 29.3068 28.7751 29.1553C28.695 29.0038 28.5059 28.9452 28.3527 29.0243C28.1995 29.1035 28.1402 29.2905 28.2202 29.442Z" fill="#B251FE"/>
<path d="M26.3706 30.3977C26.4507 30.5492 26.6398 30.6079 26.793 30.5287C26.9462 30.4495 27.0055 30.2625 26.9254 30.111C26.8454 29.9595 26.6563 29.9009 26.5031 29.98C26.3499 30.0592 26.2905 30.2462 26.3706 30.3977Z" fill="#B251FE"/>
<path d="M43.899 19.0125C43.979 19.164 44.1681 19.2226 44.3213 19.1435C44.4745 19.0643 44.5338 18.8773 44.4538 18.7258C44.3737 18.5743 44.1846 18.5156 44.0314 18.5948C43.8782 18.674 43.8189 18.861 43.899 19.0125Z" fill="#B251FE"/>
<path d="M42.0493 19.9681C42.1294 20.1196 42.3185 20.1783 42.4717 20.0991C42.6249 20.0199 42.6842 19.8329 42.6042 19.6814C42.5241 19.5299 42.335 19.4713 42.1818 19.5504C42.0286 19.6296 41.9693 19.8166 42.0493 19.9681Z" fill="#B251FE"/>
<path d="M40.1997 20.9238C40.2798 21.0753 40.4689 21.1339 40.6221 21.0548C40.7753 20.9756 40.8346 20.7886 40.7546 20.6371C40.6745 20.4856 40.4854 20.4269 40.3322 20.5061C40.179 20.5853 40.1197 20.7723 40.1997 20.9238Z" fill="#B251FE"/>
<path d="M38.3501 21.8794C38.4302 22.0309 38.6193 22.0895 38.7725 22.0104C38.9257 21.9312 38.985 21.7442 38.905 21.5927C38.8249 21.4412 38.6358 21.3825 38.4826 21.4617C38.3294 21.5409 38.2701 21.7279 38.3501 21.8794Z" fill="#B251FE"/>
<path d="M36.5005 22.835C36.5805 22.9865 36.7696 23.0451 36.9229 22.966C37.0761 22.8868 37.1354 22.6998 37.0553 22.5483C36.9753 22.3968 36.7862 22.3382 36.633 22.4173C36.4798 22.4965 36.4204 22.6835 36.5005 22.835Z" fill="#B251FE"/>
<path d="M34.6509 23.7907C34.7309 23.9422 34.92 24.0008 35.0733 23.9217C35.2265 23.8425 35.2858 23.6555 35.2057 23.504C35.1257 23.3525 34.9365 23.2938 34.7833 23.373C34.6301 23.4522 34.5708 23.6392 34.6509 23.7907Z" fill="#B251FE"/>
<path d="M32.8023 24.7462C32.8823 24.8978 33.0714 24.9564 33.2246 24.8772C33.3778 24.7981 33.4371 24.6111 33.3571 24.4596C33.277 24.3081 33.0879 24.2494 32.9347 24.3286C32.7815 24.4077 32.7222 24.5947 32.8023 24.7462Z" fill="#B251FE"/>
<path d="M30.9527 25.7019C31.0327 25.8534 31.2218 25.912 31.375 25.8329C31.5282 25.7537 31.5875 25.5667 31.5075 25.4152C31.4274 25.2637 31.2383 25.205 31.0851 25.2842C30.9319 25.3634 30.8726 25.5504 30.9527 25.7019Z" fill="#B251FE"/>
<path d="M29.1031 26.6575C29.1831 26.809 29.3722 26.8677 29.5254 26.7885C29.6786 26.7093 29.7379 26.5223 29.6579 26.3708C29.5778 26.2193 29.3887 26.1607 29.2355 26.2398C29.0823 26.319 29.023 26.506 29.1031 26.6575Z" fill="#B251FE"/>
<path d="M27.2534 27.6131C27.3335 27.7646 27.5226 27.8233 27.6758 27.7441C27.829 27.665 27.8883 27.478 27.8083 27.3264C27.7282 27.1749 27.5391 27.1163 27.3859 27.1955C27.2327 27.2746 27.1734 27.4616 27.2534 27.6131Z" fill="#B251FE"/>
<path d="M25.4038 28.5688C25.4839 28.7203 25.673 28.7789 25.8262 28.6997C25.9794 28.6206 26.0387 28.4336 25.9587 28.2821C25.8786 28.1306 25.6895 28.0719 25.5363 28.1511C25.3831 28.2303 25.3238 28.4173 25.4038 28.5688Z" fill="#B251FE"/>
<path d="M23.5552 29.5244C23.6352 29.6759 23.8243 29.7345 23.9776 29.6554C24.1308 29.5762 24.1901 29.3892 24.11 29.2377C24.0299 29.0862 23.8408 29.0275 23.6876 29.1067C23.5344 29.1859 23.4751 29.3729 23.5552 29.5244Z" fill="#B251FE"/>
<path d="M21.7056 30.48C21.7856 30.6315 21.9747 30.6902 22.128 30.611C22.2812 30.5318 22.3405 30.3448 22.2604 30.1933C22.1803 30.0418 21.9912 29.9832 21.838 30.0623C21.6848 30.1415 21.6255 30.3285 21.7056 30.48Z" fill="#B251FE"/>
<path d="M42.9321 17.1836C43.0122 17.3351 43.2013 17.3938 43.3545 17.3146C43.5077 17.2354 43.567 17.0484 43.487 16.8969C43.4069 16.7454 43.2178 16.6868 43.0646 16.766C42.9114 16.8451 42.8521 17.0321 42.9321 17.1836Z" fill="#B251FE"/>
<path d="M41.0825 18.1393C41.1626 18.2908 41.3517 18.3494 41.5049 18.2702C41.6581 18.1911 41.7174 18.0041 41.6374 17.8526C41.5573 17.7011 41.3682 17.6424 41.215 17.7216C41.0618 17.8007 41.0025 17.9877 41.0825 18.1393Z" fill="#B251FE"/>
<path d="M39.2329 19.0949C39.3129 19.2464 39.502 19.305 39.6553 19.2259C39.8085 19.1467 39.8678 18.9597 39.7877 18.8082C39.7077 18.6567 39.5186 18.598 39.3654 18.6772C39.2122 18.7564 39.1529 18.9434 39.2329 19.0949Z" fill="#B251FE"/>
<path d="M37.3833 20.0505C37.4633 20.202 37.6524 20.2607 37.8057 20.1815C37.9589 20.1023 38.0182 19.9153 37.9381 19.7638C37.8581 19.6123 37.669 19.5537 37.5158 19.6328C37.3626 19.712 37.3033 19.899 37.3833 20.0505Z" fill="#B251FE"/>
<path d="M35.5337 21.0061C35.6137 21.1576 35.8028 21.2163 35.956 21.1372C36.1093 21.058 36.1686 20.871 36.0885 20.7195C36.0085 20.568 35.8194 20.5093 35.6662 20.5885C35.513 20.6676 35.4536 20.8546 35.5337 21.0061Z" fill="#B251FE"/>
<path d="M33.6851 21.9618C33.7651 22.1133 33.9542 22.1719 34.1074 22.0928C34.2606 22.0136 34.3199 21.8266 34.2399 21.6751C34.1599 21.5236 33.9708 21.4649 33.8175 21.5441C33.6643 21.6233 33.605 21.8103 33.6851 21.9618Z" fill="#B251FE"/>
<path d="M31.8355 22.9174C31.9155 23.0689 32.1046 23.1275 32.2578 23.0484C32.411 22.9692 32.4703 22.7822 32.3903 22.6307C32.3103 22.4792 32.1212 22.4206 31.9679 22.4997C31.8147 22.5789 31.7554 22.7659 31.8355 22.9174Z" fill="#B251FE"/>
<path d="M29.9858 23.873C30.0659 24.0245 30.255 24.0832 30.4082 24.004C30.5614 23.9248 30.6207 23.7378 30.5407 23.5863C30.4606 23.4348 30.2715 23.3762 30.1183 23.4553C29.9651 23.5345 29.9058 23.7215 29.9858 23.873Z" fill="#B251FE"/>
<path d="M28.1362 24.8286C28.2163 24.9802 28.4054 25.0388 28.5586 24.9596C28.7118 24.8805 28.7711 24.6935 28.6911 24.542C28.611 24.3904 28.4219 24.3318 28.2687 24.411C28.1155 24.4901 28.0562 24.6771 28.1362 24.8286Z" fill="#B251FE"/>
<path d="M26.2876 25.7843C26.3676 25.9358 26.5567 25.9945 26.71 25.9153C26.8632 25.8361 26.9225 25.6491 26.8424 25.4976C26.7624 25.3461 26.5733 25.2875 26.4201 25.3666C26.2669 25.4458 26.2076 25.6328 26.2876 25.7843Z" fill="#B251FE"/>
<path d="M24.438 26.7399C24.518 26.8914 24.7071 26.9501 24.8604 26.8709C25.0136 26.7917 25.0729 26.6047 24.9928 26.4532C24.9128 26.3017 24.7237 26.2431 24.5705 26.3222C24.4173 26.4014 24.3579 26.5884 24.438 26.7399Z" fill="#B251FE"/>
<path d="M22.5884 27.6955C22.6684 27.847 22.8575 27.9057 23.0107 27.8265C23.164 27.7473 23.2233 27.5603 23.1432 27.4088C23.0632 27.2573 22.8741 27.1987 22.7209 27.2779C22.5676 27.357 22.5083 27.544 22.5884 27.6955Z" fill="#B251FE"/>
<path d="M20.7388 28.6512C20.8188 28.8027 21.0079 28.8613 21.1611 28.7821C21.3143 28.703 21.3737 28.516 21.2936 28.3645C21.2136 28.213 21.0245 28.1543 20.8713 28.2335C20.718 28.3126 20.6587 28.4996 20.7388 28.6512Z" fill="#B251FE"/>
<path d="M18.8902 29.6068C18.9702 29.7583 19.1593 29.8169 19.3125 29.7378C19.4657 29.6586 19.525 29.4716 19.445 29.3201C19.3649 29.1686 19.1758 29.1099 19.0226 29.1891C18.8694 29.2683 18.8101 29.4553 18.8902 29.6068Z" fill="#B251FE"/>
<path d="M41.9653 15.3547C42.0454 15.5062 42.2345 15.5649 42.3877 15.4857C42.5409 15.4066 42.6002 15.2196 42.5201 15.0681C42.4401 14.9165 42.251 14.8579 42.0978 14.9371C41.9446 15.0162 41.8853 15.2032 41.9653 15.3547Z" fill="#B251FE"/>
<path d="M40.1167 16.3104C40.1967 16.4619 40.3858 16.5205 40.539 16.4414C40.6923 16.3622 40.7516 16.1752 40.6715 16.0237C40.5915 15.8722 40.4024 15.8135 40.2492 15.8927C40.096 15.9719 40.0367 16.1589 40.1167 16.3104Z" fill="#B251FE"/>
<path d="M38.2671 17.266C38.3471 17.4176 38.5362 17.4762 38.6894 17.397C38.8427 17.3179 38.902 17.1309 38.8219 16.9794C38.7419 16.8278 38.5528 16.7692 38.3996 16.8484C38.2464 16.9275 38.187 17.1145 38.2671 17.266Z" fill="#B251FE"/>
<path d="M36.4175 18.2216C36.4975 18.3731 36.6866 18.4318 36.8399 18.3526C36.9931 18.2734 37.0524 18.0864 36.9723 17.9349C36.8923 17.7834 36.7032 17.7248 36.5499 17.8039C36.3967 17.8831 36.3374 18.0701 36.4175 18.2216Z" fill="#B251FE"/>
<path d="M34.5679 19.1773C34.6479 19.3288 34.837 19.3875 34.9902 19.3083C35.1434 19.2291 35.2028 19.0421 35.1227 18.8906C35.0427 18.7391 34.8536 18.6805 34.7003 18.7596C34.5471 18.8388 34.4878 19.0258 34.5679 19.1773Z" fill="#B251FE"/>
<path d="M32.7183 20.1329C32.7983 20.2844 32.9874 20.343 33.1406 20.2639C33.2939 20.1847 33.3532 19.9977 33.2731 19.8462C33.193 19.6947 33.0039 19.636 32.8507 19.7152C32.6975 19.7944 32.6382 19.9814 32.7183 20.1329Z" fill="#B251FE"/>
<path d="M30.8686 21.0886C30.9487 21.2401 31.1378 21.2987 31.291 21.2195C31.4442 21.1404 31.5036 20.9534 31.4235 20.8019C31.3434 20.6504 31.1543 20.5917 31.0011 20.6709C30.8479 20.75 30.7886 20.937 30.8686 21.0886Z" fill="#B251FE"/>
<path d="M29.02 22.0441C29.1001 22.1956 29.2892 22.2543 29.4424 22.1751C29.5956 22.096 29.6549 21.909 29.5748 21.7574C29.4948 21.6059 29.3057 21.5473 29.1525 21.6265C28.9993 21.7056 28.94 21.8926 29.02 22.0441Z" fill="#B251FE"/>
<path d="M27.1704 22.9998C27.2504 23.1513 27.4395 23.2099 27.5928 23.1307C27.746 23.0516 27.8053 22.8646 27.7252 22.7131C27.6452 22.5616 27.4561 22.5029 27.3029 22.5821C27.1497 22.6613 27.0904 22.8483 27.1704 22.9998Z" fill="#B251FE"/>
<path d="M25.3208 23.9554C25.4009 24.1069 25.59 24.1655 25.7432 24.0864C25.8964 24.0072 25.9557 23.8202 25.8756 23.6687C25.7956 23.5172 25.6065 23.4585 25.4533 23.5377C25.3 23.6169 25.2407 23.8039 25.3208 23.9554Z" fill="#B251FE"/>
<path d="M23.4712 24.911C23.5513 25.0625 23.7404 25.1212 23.8936 25.042C24.0468 24.9628 24.1061 24.7758 24.026 24.6243C23.946 24.4728 23.7569 24.4142 23.6036 24.4933C23.4504 24.5725 23.3911 24.7595 23.4712 24.911Z" fill="#B251FE"/>
<path d="M21.6226 25.8666C21.7026 26.0182 21.8917 26.0768 22.0449 25.9976C22.1981 25.9185 22.2575 25.7315 22.1774 25.58C22.0973 25.4284 21.9082 25.3698 21.755 25.449C21.6018 25.5281 21.5425 25.7151 21.6226 25.8666Z" fill="#B251FE"/>
<path d="M19.7729 26.8223C19.853 26.9738 20.0421 27.0324 20.1953 26.9533C20.3485 26.8741 20.4078 26.6871 20.3278 26.5356C20.2477 26.3841 20.0586 26.3254 19.9054 26.4046C19.7522 26.4838 19.6929 26.6708 19.7729 26.8223Z" fill="#B251FE"/>
<path d="M17.9233 27.7779C18.0034 27.9294 18.1925 27.988 18.3457 27.9089C18.4989 27.8297 18.5582 27.6427 18.4781 27.4912C18.3981 27.3397 18.209 27.2811 18.0558 27.3602C17.9026 27.4394 17.8433 27.6264 17.9233 27.7779Z" fill="#B251FE"/>
<path d="M16.0737 28.7335C16.1538 28.885 16.3429 28.9437 16.4961 28.8645C16.6493 28.7853 16.7086 28.5983 16.6285 28.4468C16.5485 28.2953 16.3594 28.2367 16.2062 28.3158C16.053 28.395 15.9937 28.582 16.0737 28.7335Z" fill="#B251FE"/>
<path d="M40.9995 13.5259C41.0796 13.6774 41.2687 13.736 41.4219 13.6569C41.5751 13.5777 41.6344 13.3907 41.5543 13.2392C41.4743 13.0877 41.2852 13.029 41.132 13.1082C40.9787 13.1874 40.9195 13.3744 40.9995 13.5259Z" fill="#B251FE"/>
<path d="M39.1499 14.4815C39.23 14.633 39.4191 14.6917 39.5723 14.6125C39.7255 14.5333 39.7848 14.3463 39.7047 14.1948C39.6247 14.0433 39.4356 13.9847 39.2824 14.0638C39.1292 14.143 39.0698 14.33 39.1499 14.4815Z" fill="#B251FE"/>
<path d="M37.3003 15.4371C37.3804 15.5886 37.5695 15.6473 37.7227 15.5681C37.8759 15.489 37.9352 15.302 37.8551 15.1504C37.7751 14.9989 37.586 14.9403 37.4327 15.0195C37.2795 15.0986 37.2202 15.2856 37.3003 15.4371Z" fill="#B251FE"/>
<path d="M35.4507 16.3928C35.5308 16.5443 35.7199 16.6029 35.8731 16.5238C36.0263 16.4446 36.0856 16.2576 36.0055 16.1061C35.9255 15.9546 35.7364 15.8959 35.5832 15.9751C35.4299 16.0543 35.3706 16.2413 35.4507 16.3928Z" fill="#B251FE"/>
<path d="M33.6011 17.3484C33.6812 17.5 33.8703 17.5586 34.0235 17.4794C34.1767 17.4003 34.236 17.2133 34.1559 17.0618C34.0758 16.9102 33.8867 16.8516 33.7335 16.9308C33.5803 17.0099 33.521 17.1969 33.6011 17.3484Z" fill="#B251FE"/>
<path d="M31.7524 18.304C31.8325 18.4555 32.0216 18.5142 32.1748 18.435C32.328 18.3558 32.3873 18.1688 32.3073 18.0173C32.2272 17.8658 32.0381 17.8072 31.8849 17.8863C31.7317 17.9655 31.6724 18.1525 31.7524 18.304Z" fill="#B251FE"/>
<path d="M29.9028 19.2596C29.9829 19.4112 30.172 19.4698 30.3252 19.3906C30.4784 19.3115 30.5377 19.1245 30.4576 18.973C30.3776 18.8214 30.1885 18.7628 30.0353 18.842C29.8821 18.9211 29.8228 19.1081 29.9028 19.2596Z" fill="#B251FE"/>
<path d="M28.0533 20.2153C28.1333 20.3668 28.3224 20.4254 28.4756 20.3463C28.6288 20.2671 28.6881 20.0801 28.6081 19.9286C28.528 19.7771 28.3389 19.7184 28.1857 19.7976C28.0325 19.8768 27.9732 20.0638 28.0533 20.2153Z" fill="#B251FE"/>
<path d="M26.2036 21.171C26.2837 21.3225 26.4728 21.3811 26.626 21.3019C26.7792 21.2228 26.8385 21.0358 26.7585 20.8843C26.6784 20.7328 26.4893 20.6741 26.3361 20.7533C26.1829 20.8324 26.1236 21.0194 26.2036 21.171Z" fill="#B251FE"/>
<path d="M24.355 22.1265C24.4351 22.278 24.6242 22.3367 24.7774 22.2575C24.9306 22.1783 24.9899 21.9913 24.9098 21.8398C24.8298 21.6883 24.6406 21.6297 24.4874 21.7089C24.3342 21.788 24.2749 21.975 24.355 22.1265Z" fill="#B251FE"/>
<path d="M22.5054 23.0822C22.5855 23.2337 22.7746 23.2923 22.9278 23.2131C23.081 23.134 23.1403 22.947 23.0602 22.7955C22.9801 22.644 22.791 22.5853 22.6378 22.6645C22.4846 22.7436 22.4253 22.9306 22.5054 23.0822Z" fill="#B251FE"/>
<path d="M20.6558 24.0378C20.7358 24.1893 20.9249 24.2479 21.0782 24.1688C21.2314 24.0896 21.2907 23.9026 21.2106 23.7511C21.1305 23.5996 20.9414 23.5409 20.7882 23.6201C20.635 23.6993 20.5757 23.8863 20.6558 24.0378Z" fill="#B251FE"/>
<path d="M18.8061 24.9934C18.8862 25.1449 19.0753 25.2036 19.2285 25.1244C19.3817 25.0452 19.4411 24.8582 19.361 24.7067C19.2809 24.5552 19.0918 24.4966 18.9386 24.5757C18.7854 24.6549 18.7261 24.8419 18.8061 24.9934Z" fill="#B251FE"/>
<path d="M16.9565 25.949C17.0366 26.1005 17.2257 26.1592 17.3789 26.08C17.5321 26.0009 17.5914 25.8139 17.5114 25.6624C17.4313 25.5108 17.2422 25.4522 17.089 25.5314C16.9358 25.6105 16.8765 25.7975 16.9565 25.949Z" fill="#B251FE"/>
<path d="M15.107 26.9047C15.187 27.0562 15.3761 27.1148 15.5293 27.0357C15.6826 26.9565 15.7418 26.7695 15.6618 26.618C15.5817 26.4665 15.3926 26.4078 15.2394 26.487C15.0862 26.5662 15.0269 26.7532 15.107 26.9047Z" fill="#B251FE"/>
<path d="M40.0327 11.697C40.1128 11.8485 40.3019 11.9071 40.4551 11.828C40.6083 11.7488 40.6676 11.5618 40.5876 11.4103C40.5075 11.2588 40.3184 11.2002 40.1652 11.2793C40.012 11.3585 39.9527 11.5455 40.0327 11.697Z" fill="#B251FE"/>
<path d="M38.1841 12.6527C38.2642 12.8042 38.4533 12.8628 38.6065 12.7837C38.7597 12.7045 38.819 12.5175 38.7389 12.366C38.6589 12.2145 38.4697 12.1558 38.3165 12.235C38.1633 12.3142 38.104 12.5012 38.1841 12.6527Z" fill="#B251FE"/>
<path d="M36.3345 13.6082C36.4146 13.7598 36.6037 13.8184 36.7569 13.7392C36.9101 13.6601 36.9694 13.4731 36.8893 13.3216C36.8092 13.1701 36.6201 13.1114 36.4669 13.1906C36.3137 13.2697 36.2544 13.4567 36.3345 13.6082Z" fill="#B251FE"/>
<path d="M34.4849 14.5639C34.5649 14.7154 34.754 14.774 34.9073 14.6949C35.0605 14.6157 35.1198 14.4287 35.0397 14.2772C34.9596 14.1257 34.7705 14.067 34.6173 14.1462C34.4641 14.2254 34.4048 14.4124 34.4849 14.5639Z" fill="#B251FE"/>
<path d="M32.6352 15.5195C32.7153 15.671 32.9044 15.7297 33.0576 15.6505C33.2108 15.5713 33.2702 15.3843 33.1901 15.2328C33.11 15.0813 32.9209 15.0227 32.7677 15.1018C32.6145 15.181 32.5552 15.368 32.6352 15.5195Z" fill="#B251FE"/>
<path d="M30.7857 16.4751C30.8657 16.6266 31.0548 16.6853 31.208 16.6061C31.3612 16.527 31.4205 16.34 31.3405 16.1884C31.2604 16.0369 31.0713 15.9783 30.9181 16.0575C30.7649 16.1366 30.7056 16.3236 30.7857 16.4751Z" fill="#B251FE"/>
<path d="M28.9361 17.4308C29.0161 17.5823 29.2052 17.6409 29.3584 17.5617C29.5116 17.4826 29.5709 17.2956 29.4909 17.1441C29.4108 16.9926 29.2217 16.9339 29.0685 17.0131C28.9153 17.0923 28.856 17.2793 28.9361 17.4308Z" fill="#B251FE"/>
<path d="M27.0874 18.3864C27.1675 18.5379 27.3566 18.5965 27.5098 18.5174C27.663 18.4382 27.7223 18.2512 27.6423 18.0997C27.5622 17.9482 27.3731 17.8895 27.2199 17.9687C27.0667 18.0479 27.0074 18.2349 27.0874 18.3864Z" fill="#B251FE"/>
<path d="M25.2378 19.342C25.3179 19.4935 25.507 19.5522 25.6602 19.473C25.8134 19.3938 25.8727 19.2068 25.7927 19.0553C25.7126 18.9038 25.5235 18.8452 25.3703 18.9243C25.2171 19.0035 25.1577 19.1905 25.2378 19.342Z" fill="#B251FE"/>
<path d="M23.3882 20.2977C23.4683 20.4492 23.6574 20.5078 23.8106 20.4287C23.9638 20.3495 24.0231 20.1625 23.943 20.011C23.863 19.8595 23.6739 19.8008 23.5207 19.88C23.3674 19.9592 23.3081 20.1462 23.3882 20.2977Z" fill="#B251FE"/>
<path d="M21.5386 21.2533C21.6186 21.4048 21.8077 21.4634 21.961 21.3843C22.1142 21.3051 22.1735 21.1181 22.0934 20.9666C22.0133 20.8151 21.8242 20.7564 21.671 20.8356C21.5178 20.9148 21.4585 21.1018 21.5386 21.2533Z" fill="#B251FE"/>
<path d="M19.689 22.2089C19.769 22.3604 19.9581 22.419 20.1114 22.3399C20.2646 22.2607 20.3239 22.0737 20.2438 21.9222C20.1637 21.7707 19.9746 21.7121 19.8214 21.7912C19.6682 21.8704 19.6089 22.0574 19.689 22.2089Z" fill="#B251FE"/>
<path d="M17.8404 23.1646C17.9204 23.3161 18.1095 23.3747 18.2627 23.2956C18.4159 23.2164 18.4752 23.0294 18.3952 22.8779C18.3151 22.7264 18.126 22.6677 17.9728 22.7469C17.8196 22.8261 17.7603 23.0131 17.8404 23.1646Z" fill="#B251FE"/>
<path d="M15.9908 24.1202C16.0708 24.2717 16.2599 24.3303 16.4131 24.2511C16.5663 24.172 16.6256 23.985 16.5456 23.8335C16.4655 23.682 16.2764 23.6233 16.1232 23.7025C15.97 23.7816 15.9107 23.9686 15.9908 24.1202Z" fill="#B251FE"/>
<path d="M14.1411 25.0758C14.2212 25.2273 14.4103 25.2859 14.5635 25.2068C14.7167 25.1276 14.776 24.9406 14.696 24.7891C14.6159 24.6376 14.4268 24.5789 14.2736 24.6581C14.1204 24.7373 14.0611 24.9243 14.1411 25.0758Z" fill="#B251FE"/>
</g>
</g>
<mask id="mask4_1165_7992" style="mask-type:luminance" maskUnits="userSpaceOnUse" x="13" y="12" width="34" height="25">
<path d="M19.549 36.8441L46.5859 24.3591L41.0237 12.58L13.9868 25.0651L19.549 36.8441Z" fill="white"/>
</mask>
<g mask="url(#mask4_1165_7992)">
<g opacity="0.05">
<path d="M43.9943 25.2136C44.0674 25.3685 44.2537 25.4354 44.4103 25.3631C44.567 25.2908 44.6347 25.1066 44.5615 24.9517C44.4884 24.7968 44.3021 24.7298 44.1455 24.8022C43.9889 24.8745 43.9212 25.0587 43.9943 25.2136Z" fill="#B251FE"/>
<path d="M42.1037 26.0866C42.1768 26.2415 42.3631 26.3085 42.5198 26.2361C42.6763 26.1638 42.744 25.9796 42.6709 25.8247C42.5978 25.6698 42.4115 25.6029 42.2549 25.6752C42.0982 25.7475 42.0306 25.9317 42.1037 26.0866Z" fill="#B251FE"/>
<path d="M40.2131 26.9597C40.2862 27.1146 40.4725 27.1815 40.6291 27.1092C40.7857 27.0369 40.8534 26.8527 40.7803 26.6978C40.7071 26.5429 40.5208 26.476 40.3643 26.5483C40.2076 26.6206 40.1399 26.8048 40.2131 26.9597Z" fill="#B251FE"/>
<path d="M38.3224 27.8328C38.3956 27.9876 38.5819 28.0546 38.7385 27.9823C38.8951 27.9099 38.9628 27.7257 38.8897 27.5708C38.8165 27.4159 38.6302 27.349 38.4736 27.4213C38.317 27.4937 38.2493 27.6779 38.3224 27.8328Z" fill="#B251FE"/>
<path d="M36.4318 28.7058C36.5049 28.8607 36.6912 28.9277 36.8478 28.8553C37.0045 28.783 37.0722 28.5988 36.999 28.4439C36.9259 28.289 36.7396 28.2221 36.583 28.2944C36.4264 28.3667 36.3587 28.5509 36.4318 28.7058Z" fill="#B251FE"/>
<path d="M34.5412 29.5789C34.6143 29.7338 34.8006 29.8007 34.9573 29.7284C35.1138 29.6561 35.1815 29.4719 35.1084 29.317C35.0353 29.1621 34.849 29.0952 34.6924 29.1675C34.5357 29.2398 34.4681 29.424 34.5412 29.5789Z" fill="#B251FE"/>
<path d="M32.6506 30.452C32.7237 30.6069 32.91 30.6738 33.0666 30.6015C33.2232 30.5291 33.2909 30.3449 33.2178 30.19C33.1446 30.0352 32.9583 29.9682 32.8018 30.0405C32.6451 30.1129 32.5774 30.2971 32.6506 30.452Z" fill="#B251FE"/>
<path d="M43.1115 23.3439C43.1847 23.4988 43.3709 23.5657 43.5275 23.4934C43.6842 23.421 43.7519 23.2368 43.6787 23.0819C43.6056 22.9271 43.4193 22.8601 43.2627 22.9325C43.1061 23.0048 43.0384 23.189 43.1115 23.3439Z" fill="#B251FE"/>
<path d="M41.2209 24.2169C41.294 24.3718 41.4803 24.4387 41.6369 24.3664C41.7936 24.2941 41.8612 24.1099 41.7881 23.955C41.7149 23.8001 41.5287 23.7332 41.372 23.8055C41.2154 23.8778 41.1477 24.062 41.2209 24.2169Z" fill="#B251FE"/>
<path d="M39.3303 25.09C39.4034 25.2449 39.5896 25.3118 39.7463 25.2395C39.9029 25.1672 39.9706 24.983 39.8975 24.8281C39.8243 24.6732 39.6381 24.6063 39.4814 24.6786C39.3248 24.7509 39.2571 24.9351 39.3303 25.09Z" fill="#B251FE"/>
<path d="M37.4396 25.9631C37.5128 26.118 37.699 26.1849 37.8557 26.1126C38.0123 26.0402 38.08 25.856 38.0068 25.7011C37.9337 25.5463 37.7474 25.4793 37.5908 25.5517C37.4342 25.624 37.3665 25.8082 37.4396 25.9631Z" fill="#B251FE"/>
<path d="M35.549 26.8361C35.6221 26.991 35.8084 27.058 35.965 26.9856C36.1217 26.9133 36.1894 26.7291 36.1162 26.5742C36.0431 26.4193 35.8568 26.3524 35.7002 26.4247C35.5436 26.4971 35.4759 26.6813 35.549 26.8361Z" fill="#B251FE"/>
<path d="M33.6584 27.7092C33.7315 27.8641 33.9178 27.931 34.0744 27.8587C34.231 27.7864 34.2987 27.6022 34.2256 27.4473C34.1525 27.2924 33.9662 27.2255 33.8095 27.2978C33.6529 27.3701 33.5853 27.5543 33.6584 27.7092Z" fill="#B251FE"/>
<path d="M31.7678 28.5823C31.8409 28.7372 32.0271 28.8041 32.1838 28.7318C32.3404 28.6594 32.4081 28.4752 32.335 28.3204C32.2618 28.1655 32.0755 28.0985 31.9189 28.1709C31.7623 28.2432 31.6946 28.4274 31.7678 28.5823Z" fill="#B251FE"/>
<path d="M29.8771 29.4553C29.9503 29.6102 30.1365 29.6772 30.2931 29.6048C30.4498 29.5325 30.5175 29.3483 30.4443 29.1934C30.3712 29.0385 30.1849 28.9716 30.0283 29.0439C29.8717 29.1163 29.804 29.3005 29.8771 29.4553Z" fill="#B251FE"/>
<path d="M27.9865 30.3283C28.0596 30.4832 28.2459 30.5502 28.4025 30.4778C28.5592 30.4055 28.6268 30.2213 28.5537 30.0664C28.4806 29.9115 28.2943 29.8446 28.1377 29.9169C27.9811 29.9893 27.9133 30.1735 27.9865 30.3283Z" fill="#B251FE"/>
<path d="M42.2287 21.4742C42.3018 21.6291 42.4881 21.696 42.6447 21.6237C42.8013 21.5513 42.869 21.3671 42.7959 21.2123C42.7228 21.0574 42.5365 20.9904 42.3799 21.0628C42.2232 21.1351 42.1556 21.3193 42.2287 21.4742Z" fill="#B251FE"/>
<path d="M40.338 22.3473C40.4112 22.5021 40.5975 22.5691 40.7541 22.4967C40.9108 22.4244 40.9784 22.2402 40.9053 22.0853C40.8321 21.9304 40.6459 21.8635 40.4892 21.9358C40.3326 22.0082 40.2649 22.1924 40.338 22.3473Z" fill="#B251FE"/>
<path d="M38.4474 23.2203C38.5206 23.3752 38.7068 23.4422 38.8635 23.3698C39.0201 23.2975 39.0878 23.1133 39.0147 22.9584C38.9415 22.8035 38.7553 22.7366 38.5986 22.8089C38.442 22.8812 38.3743 23.0654 38.4474 23.2203Z" fill="#B251FE"/>
<path d="M36.5568 24.0934C36.6299 24.2483 36.8162 24.3152 36.9729 24.2429C37.1295 24.1705 37.1971 23.9863 37.124 23.8315C37.0509 23.6766 36.8646 23.6096 36.708 23.682C36.5514 23.7543 36.4837 23.9385 36.5568 24.0934Z" fill="#B251FE"/>
<path d="M34.6662 24.9665C34.7394 25.1213 34.9256 25.1883 35.0822 25.116C35.2389 25.0436 35.3066 24.8594 35.2334 24.7045C35.1603 24.5496 34.974 24.4827 34.8174 24.555C34.6607 24.6274 34.593 24.8116 34.6662 24.9665Z" fill="#B251FE"/>
<path d="M32.7756 25.8395C32.8487 25.9944 33.035 26.0613 33.1916 25.989C33.3483 25.9167 33.4159 25.7325 33.3428 25.5776C33.2696 25.4227 33.0834 25.3558 32.9267 25.4281C32.7701 25.5004 32.7024 25.6846 32.7756 25.8395Z" fill="#B251FE"/>
<path d="M30.885 26.7126C30.9581 26.8675 31.1443 26.9344 31.301 26.8621C31.4576 26.7897 31.5253 26.6056 31.4522 26.4507C31.379 26.2958 31.1928 26.2288 31.0361 26.3012C30.8795 26.3735 30.8118 26.5577 30.885 26.7126Z" fill="#B251FE"/>
<path d="M28.9943 27.5857C29.0675 27.7405 29.2537 27.8075 29.4104 27.7352C29.567 27.6628 29.6347 27.4786 29.5615 27.3237C29.4884 27.1688 29.3021 27.1019 29.1455 27.1742C28.9888 27.2466 28.9212 27.4308 28.9943 27.5857Z" fill="#B251FE"/>
<path d="M27.1037 28.4587C27.1768 28.6136 27.3631 28.6805 27.5197 28.6082C27.6764 28.5359 27.744 28.3517 27.6709 28.1968C27.5977 28.0419 27.4115 27.975 27.2549 28.0473C27.0982 28.1196 27.0305 28.3038 27.1037 28.4587Z" fill="#B251FE"/>
<path d="M25.2131 29.3318C25.2862 29.4867 25.4725 29.5536 25.6291 29.4813C25.7857 29.4089 25.8534 29.2248 25.7803 29.0699C25.7071 28.915 25.5209 28.848 25.3642 28.9204C25.2076 28.9927 25.1399 29.1769 25.2131 29.3318Z" fill="#B251FE"/>
<path d="M23.3215 30.2048C23.3946 30.3597 23.5809 30.4267 23.7375 30.3543C23.8941 30.282 23.9618 30.0978 23.8887 29.9429C23.8155 29.788 23.6292 29.7211 23.4727 29.7934C23.316 29.8657 23.2483 30.0499 23.3215 30.2048Z" fill="#B251FE"/>
<path d="M43.2365 18.7314C43.3096 18.8863 43.4959 18.9532 43.6525 18.8809C43.8092 18.8086 43.8768 18.6244 43.8037 18.4695C43.7306 18.3146 43.5443 18.2476 43.3877 18.32C43.2311 18.3923 43.1634 18.5765 43.2365 18.7314Z" fill="#B251FE"/>
<path d="M41.3459 19.6045C41.419 19.7594 41.6053 19.8263 41.7619 19.754C41.9185 19.6817 41.9862 19.4975 41.9131 19.3426C41.84 19.1877 41.6537 19.1207 41.497 19.1931C41.3404 19.2654 41.2728 19.4496 41.3459 19.6045Z" fill="#B251FE"/>
<path d="M39.4553 20.4775C39.5284 20.6324 39.7146 20.6993 39.8713 20.627C40.0279 20.5547 40.0956 20.3705 40.0225 20.2156C39.9493 20.0607 39.763 19.9938 39.6064 20.0661C39.4498 20.1384 39.3821 20.3226 39.4553 20.4775Z" fill="#B251FE"/>
<path d="M37.5646 21.3506C37.6378 21.5055 37.824 21.5724 37.9806 21.5001C38.1373 21.4278 38.205 21.2436 38.1318 21.0887C38.0587 20.9338 37.8724 20.8669 37.7158 20.9392C37.5592 21.0115 37.4915 21.1957 37.5646 21.3506Z" fill="#B251FE"/>
<path d="M35.674 22.2237C35.7471 22.3786 35.9334 22.4455 36.09 22.3732C36.2467 22.3009 36.3143 22.1167 36.2412 21.9618C36.1681 21.8069 35.9818 21.7399 35.8252 21.8123C35.6686 21.8846 35.6009 22.0688 35.674 22.2237Z" fill="#B251FE"/>
<path d="M33.7834 23.0967C33.8565 23.2516 34.0428 23.3185 34.1994 23.2462C34.356 23.1739 34.4237 22.9897 34.3506 22.8348C34.2775 22.6799 34.0912 22.613 33.9345 22.6853C33.7779 22.7576 33.7103 22.9418 33.7834 23.0967Z" fill="#B251FE"/>
<path d="M31.8927 23.9698C31.9659 24.1247 32.1522 24.1916 32.3088 24.1193C32.4654 24.047 32.5331 23.8628 32.46 23.7079C32.3868 23.553 32.2006 23.4861 32.0439 23.5584C31.8873 23.6307 31.8196 23.8149 31.8927 23.9698Z" fill="#B251FE"/>
<path d="M30.0021 24.8428C30.0753 24.9977 30.2615 25.0647 30.4182 24.9923C30.5748 24.92 30.6425 24.7358 30.5693 24.5809C30.4962 24.426 30.31 24.3591 30.1533 24.4314C29.9967 24.5038 29.929 24.688 30.0021 24.8428Z" fill="#B251FE"/>
<path d="M28.1115 25.7159C28.1847 25.8708 28.3709 25.9377 28.5276 25.8654C28.6842 25.7931 28.7519 25.6089 28.6787 25.454C28.6056 25.2991 28.4193 25.2322 28.2627 25.3045C28.106 25.3768 28.0384 25.561 28.1115 25.7159Z" fill="#B251FE"/>
<path d="M26.2209 26.589C26.294 26.7439 26.4803 26.8108 26.6369 26.7385C26.7936 26.6661 26.8612 26.4819 26.7881 26.327C26.7149 26.1722 26.5287 26.1052 26.3721 26.1776C26.2154 26.2499 26.1477 26.4341 26.2209 26.589Z" fill="#B251FE"/>
<path d="M24.3302 27.4621C24.4034 27.617 24.5897 27.6839 24.7463 27.6116C24.9029 27.5393 24.9706 27.3551 24.8974 27.2002C24.8243 27.0453 24.6381 26.9784 24.4814 27.0507C24.3248 27.123 24.2571 27.3072 24.3302 27.4621Z" fill="#B251FE"/>
<path d="M22.4387 28.3351C22.5118 28.49 22.698 28.557 22.8547 28.4846C23.0113 28.4123 23.079 28.2281 23.0059 28.0732C22.9327 27.9183 22.7465 27.8514 22.5898 27.9237C22.4332 27.9961 22.3655 28.1802 22.4387 28.3351Z" fill="#B251FE"/>
<path d="M20.548 29.2082C20.6212 29.3631 20.8074 29.43 20.9641 29.3577C21.1207 29.2853 21.1884 29.1011 21.1152 28.9462C21.0421 28.7914 20.8558 28.7244 20.6992 28.7968C20.5426 28.8691 20.4749 29.0533 20.548 29.2082Z" fill="#B251FE"/>
<path d="M18.6574 30.0813C18.7305 30.2362 18.9168 30.3031 19.0734 30.2308C19.2301 30.1585 19.2977 29.9743 19.2246 29.8194C19.1515 29.6645 18.9652 29.5976 18.8086 29.6699C18.652 29.7422 18.5842 29.9264 18.6574 30.0813Z" fill="#B251FE"/>
<path d="M42.3537 16.8617C42.4268 17.0166 42.6131 17.0835 42.7697 17.0112C42.9264 16.9388 42.994 16.7546 42.9209 16.5998C42.8477 16.4449 42.6615 16.3779 42.5049 16.4503C42.3482 16.5226 42.2805 16.7068 42.3537 16.8617Z" fill="#B251FE"/>
<path d="M40.4631 17.7348C40.5362 17.8897 40.7225 17.9566 40.8791 17.8843C41.0357 17.812 41.1034 17.6278 41.0303 17.4729C40.9571 17.318 40.7709 17.2511 40.6142 17.3234C40.4576 17.3957 40.3899 17.5799 40.4631 17.7348Z" fill="#B251FE"/>
<path d="M38.5725 18.6079C38.6456 18.7628 38.8318 18.8297 38.9885 18.7574C39.1451 18.685 39.2128 18.5008 39.1397 18.346C39.0665 18.1911 38.8802 18.1241 38.7236 18.1965C38.567 18.2688 38.4993 18.453 38.5725 18.6079Z" fill="#B251FE"/>
<path d="M36.6818 19.4809C36.755 19.6358 36.9412 19.7027 37.0979 19.6304C37.2545 19.558 37.3222 19.3738 37.249 19.219C37.1759 19.0641 36.9896 18.9971 36.833 19.0695C36.6763 19.1418 36.6087 19.326 36.6818 19.4809Z" fill="#B251FE"/>
<path d="M34.7912 20.354C34.8643 20.5089 35.0506 20.5758 35.2072 20.5035C35.3639 20.4312 35.4315 20.247 35.3584 20.0921C35.2852 19.9372 35.099 19.8703 34.9424 19.9426C34.7857 20.0149 34.718 20.1991 34.7912 20.354Z" fill="#B251FE"/>
<path d="M32.9006 21.2271C32.9737 21.382 33.16 21.4489 33.3166 21.3766C33.4732 21.3042 33.5409 21.12 33.4678 20.9652C33.3946 20.8103 33.2084 20.7433 33.0517 20.8157C32.8951 20.888 32.8274 21.0722 32.9006 21.2271Z" fill="#B251FE"/>
<path d="M31.01 22.1001C31.0831 22.255 31.2693 22.3219 31.426 22.2496C31.5826 22.1772 31.6503 21.993 31.5772 21.8382C31.504 21.6833 31.3177 21.6163 31.1611 21.6887C31.0045 21.761 30.9368 21.9452 31.01 22.1001Z" fill="#B251FE"/>
<path d="M29.1193 22.9732C29.1925 23.1281 29.3787 23.195 29.5353 23.1227C29.692 23.0504 29.7597 22.8662 29.6865 22.7113C29.6134 22.5564 29.4271 22.4895 29.2705 22.5618C29.1139 22.6341 29.0462 22.8183 29.1193 22.9732Z" fill="#B251FE"/>
<path d="M27.2287 23.8462C27.3018 24.0011 27.4881 24.0681 27.6448 23.9957C27.8013 23.9234 27.869 23.7392 27.7959 23.5843C27.7228 23.4294 27.5365 23.3625 27.3799 23.4348C27.2232 23.5072 27.1556 23.6914 27.2287 23.8462Z" fill="#B251FE"/>
<path d="M25.3381 24.7193C25.4112 24.8742 25.5975 24.9411 25.7541 24.8688C25.9107 24.7965 25.9784 24.6123 25.9053 24.4574C25.8321 24.3025 25.6459 24.2356 25.4893 24.3079C25.3326 24.3802 25.2649 24.5644 25.3381 24.7193Z" fill="#B251FE"/>
<path d="M23.4474 25.5924C23.5206 25.7473 23.7069 25.8142 23.8635 25.7419C24.0201 25.6696 24.0878 25.4854 24.0146 25.3305C23.9415 25.1756 23.7552 25.1087 23.5986 25.181C23.442 25.2533 23.3743 25.4375 23.4474 25.5924Z" fill="#B251FE"/>
<path d="M21.5558 26.4654C21.629 26.6203 21.8152 26.6873 21.9719 26.6149C22.1285 26.5426 22.1962 26.3584 22.1231 26.2035C22.0499 26.0486 21.8637 25.9817 21.707 26.054C21.5504 26.1264 21.4827 26.3106 21.5558 26.4654Z" fill="#B251FE"/>
<path d="M19.6652 27.3385C19.7384 27.4934 19.9246 27.5603 20.0813 27.488C20.2379 27.4157 20.3056 27.2315 20.2324 27.0766C20.1593 26.9217 19.973 26.8548 19.8164 26.9271C19.6597 26.9994 19.5921 27.1836 19.6652 27.3385Z" fill="#B251FE"/>
<path d="M17.7746 28.2115C17.8477 28.3664 18.034 28.4333 18.1906 28.361C18.3473 28.2887 18.4149 28.1045 18.3418 27.9496C18.2686 27.7947 18.0824 27.7278 17.9258 27.8001C17.7691 27.8724 17.7014 28.0566 17.7746 28.2115Z" fill="#B251FE"/>
<path d="M15.884 29.0847C15.9571 29.2395 16.1434 29.3065 16.3 29.2341C16.4566 29.1618 16.5243 28.9776 16.4512 28.8227C16.378 28.6678 16.1918 28.6009 16.0351 28.6732C15.8785 28.7456 15.8108 28.9298 15.884 29.0847Z" fill="#B251FE"/>
<path d="M41.4709 14.992C41.544 15.1469 41.7303 15.2139 41.8869 15.1415C42.0436 15.0692 42.1113 14.885 42.0381 14.7301C41.9649 14.5752 41.7787 14.5083 41.6221 14.5806C41.4654 14.6529 41.3977 14.8371 41.4709 14.992Z" fill="#B251FE"/>
<path d="M39.5802 15.8651C39.6534 16.02 39.8397 16.0869 39.9963 16.0146C40.1529 15.9423 40.2206 15.7581 40.1474 15.6032C40.0743 15.4483 39.8881 15.3814 39.7314 15.4537C39.5748 15.526 39.5071 15.7102 39.5802 15.8651Z" fill="#B251FE"/>
<path d="M37.6896 16.7382C37.7627 16.8931 37.949 16.96 38.1057 16.8877C38.2623 16.8154 38.33 16.6312 38.2568 16.4763C38.1837 16.3214 37.9974 16.2544 37.8408 16.3268C37.6842 16.3991 37.6165 16.5833 37.6896 16.7382Z" fill="#B251FE"/>
<path d="M35.799 17.6112C35.8722 17.7661 36.0584 17.8331 36.2151 17.7607C36.3717 17.6884 36.4394 17.5042 36.3662 17.3493C36.2931 17.1944 36.1068 17.1275 35.9502 17.1998C35.7935 17.2721 35.7259 17.4563 35.799 17.6112Z" fill="#B251FE"/>
<path d="M33.9084 18.4843C33.9815 18.6392 34.1678 18.7061 34.3244 18.6338C34.4811 18.5615 34.5487 18.3773 34.4756 18.2224C34.4024 18.0675 34.2162 18.0006 34.0596 18.0729C33.9029 18.1452 33.8352 18.3294 33.9084 18.4843Z" fill="#B251FE"/>
<path d="M32.0177 19.3574C32.0909 19.5122 32.2772 19.5792 32.4338 19.5069C32.5904 19.4345 32.6581 19.2503 32.5849 19.0954C32.5118 18.9405 32.3256 18.8736 32.1689 18.9459C32.0123 19.0183 31.9446 19.2025 32.0177 19.3574Z" fill="#B251FE"/>
<path d="M30.1271 20.2304C30.2003 20.3853 30.3865 20.4523 30.5432 20.3799C30.6998 20.3076 30.7675 20.1234 30.6943 19.9685C30.6212 19.8136 30.4349 19.7467 30.2783 19.819C30.1217 19.8913 30.054 20.0755 30.1271 20.2304Z" fill="#B251FE"/>
<path d="M28.2365 21.1035C28.3097 21.2584 28.4959 21.3253 28.6525 21.253C28.8092 21.1807 28.8769 20.9965 28.8037 20.8416C28.7306 20.6867 28.5443 20.6198 28.3877 20.6921C28.2311 20.7644 28.1633 20.9486 28.2365 21.1035Z" fill="#B251FE"/>
<path d="M26.3459 21.9766C26.419 22.1314 26.6053 22.1984 26.7619 22.1261C26.9186 22.0537 26.9862 21.8695 26.9131 21.7146C26.8399 21.5597 26.6537 21.4928 26.497 21.5651C26.3404 21.6375 26.2727 21.8217 26.3459 21.9766Z" fill="#B251FE"/>
<path d="M24.4553 22.8496C24.5284 23.0045 24.7146 23.0715 24.8713 22.9991C25.0279 22.9268 25.0956 22.7426 25.0225 22.5877C24.9493 22.4328 24.7631 22.3659 24.6064 22.4382C24.4498 22.5105 24.3821 22.6947 24.4553 22.8496Z" fill="#B251FE"/>
<path d="M22.5637 23.7227C22.6368 23.8776 22.823 23.9445 22.9797 23.8722C23.1363 23.7999 23.204 23.6157 23.1309 23.4608C23.0577 23.3059 22.8714 23.239 22.7148 23.3113C22.5582 23.3836 22.4905 23.5678 22.5637 23.7227Z" fill="#B251FE"/>
<path d="M20.673 24.5958C20.7461 24.7507 20.9324 24.8176 21.0891 24.7453C21.2457 24.6729 21.3134 24.4887 21.2402 24.3338C21.1671 24.1789 20.9809 24.112 20.8242 24.1843C20.6676 24.2567 20.5999 24.4409 20.673 24.5958Z" fill="#B251FE"/>
<path d="M18.7824 25.4688C18.8556 25.6237 19.0418 25.6907 19.1985 25.6183C19.3551 25.546 19.4228 25.3618 19.3496 25.2069C19.2765 25.052 19.0902 24.9851 18.9336 25.0574C18.7769 25.1298 18.7093 25.3139 18.7824 25.4688Z" fill="#B251FE"/>
<path d="M16.8918 26.3419C16.9649 26.4968 17.1512 26.5637 17.3078 26.4914C17.4644 26.4191 17.5322 26.2349 17.459 26.08C17.3858 25.9251 17.1996 25.8581 17.043 25.9305C16.8863 26.0028 16.8186 26.187 16.8918 26.3419Z" fill="#B251FE"/>
<path d="M15.0011 27.215C15.0743 27.3699 15.2606 27.4368 15.4172 27.3645C15.5738 27.2921 15.6415 27.1079 15.5683 26.953C15.4952 26.7982 15.309 26.7312 15.1523 26.8035C14.9957 26.8759 14.928 27.0601 15.0011 27.215Z" fill="#B251FE"/>
<path d="M40.5881 13.1223C40.6612 13.2772 40.8475 13.3442 41.0041 13.2718C41.1607 13.1995 41.2284 13.0153 41.1553 12.8604C41.0822 12.7055 40.8959 12.6386 40.7393 12.7109C40.5826 12.7833 40.5149 12.9674 40.5881 13.1223Z" fill="#B251FE"/>
<path d="M38.6974 13.9954C38.7706 14.1503 38.9569 14.2172 39.1135 14.1449C39.2701 14.0726 39.3378 13.8884 39.2646 13.7335C39.1915 13.5786 39.0052 13.5117 38.8486 13.584C38.692 13.6563 38.6243 13.8405 38.6974 13.9954Z" fill="#B251FE"/>
<path d="M36.8068 14.8685C36.8799 15.0234 37.0662 15.0903 37.2228 15.018C37.3795 14.9456 37.4471 14.7614 37.374 14.6065C37.3009 14.4517 37.1146 14.3847 36.958 14.4571C36.8014 14.5294 36.7337 14.7136 36.8068 14.8685Z" fill="#B251FE"/>
<path d="M34.9162 15.7415C34.9893 15.8964 35.1756 15.9633 35.3323 15.891C35.4888 15.8187 35.5565 15.6345 35.4834 15.4796C35.4103 15.3247 35.224 15.2578 35.0674 15.3301C34.9107 15.4024 34.8431 15.5866 34.9162 15.7415Z" fill="#B251FE"/>
<path d="M33.0256 16.6146C33.0987 16.7695 33.285 16.8364 33.4416 16.7641C33.5982 16.6918 33.6659 16.5076 33.5928 16.3527C33.5196 16.1978 33.3334 16.1309 33.1768 16.2032C33.0201 16.2755 32.9524 16.4597 33.0256 16.6146Z" fill="#B251FE"/>
<path d="M31.1349 17.4877C31.2081 17.6426 31.3944 17.7095 31.551 17.6372C31.7076 17.5648 31.7753 17.3806 31.7021 17.2257C31.629 17.0709 31.4427 17.0039 31.2861 17.0763C31.1295 17.1486 31.0618 17.3328 31.1349 17.4877Z" fill="#B251FE"/>
<path d="M29.2443 18.3607C29.3174 18.5156 29.5037 18.5825 29.6603 18.5102C29.817 18.4379 29.8846 18.2537 29.8115 18.0988C29.7384 17.9439 29.5521 17.877 29.3955 17.9493C29.2389 18.0216 29.1712 18.2058 29.2443 18.3607Z" fill="#B251FE"/>
<path d="M27.3537 19.2338C27.4268 19.3887 27.6131 19.4556 27.7697 19.3833C27.9263 19.311 27.994 19.1268 27.9209 18.9719C27.8478 18.817 27.6615 18.7501 27.5049 18.8224C27.3482 18.8947 27.2806 19.0789 27.3537 19.2338Z" fill="#B251FE"/>
<path d="M25.4631 20.1069C25.5362 20.2618 25.7225 20.3287 25.8791 20.2564C26.0357 20.184 26.1034 19.9998 26.0303 19.8449C25.9571 19.6901 25.7708 19.6231 25.6142 19.6955C25.4576 19.7678 25.3899 19.952 25.4631 20.1069Z" fill="#B251FE"/>
<path d="M23.5725 20.9799C23.6456 21.1348 23.8318 21.2017 23.9885 21.1294C24.1451 21.0571 24.2128 20.8729 24.1397 20.718C24.0665 20.5631 23.8803 20.4962 23.7236 20.5685C23.567 20.6408 23.4993 20.825 23.5725 20.9799Z" fill="#B251FE"/>
<path d="M21.6808 21.8529C21.754 22.0078 21.9402 22.0748 22.0969 22.0024C22.2535 21.9301 22.3212 21.7459 22.2481 21.591C22.1749 21.4361 21.9886 21.3692 21.832 21.4415C21.6754 21.5139 21.6077 21.6981 21.6808 21.8529Z" fill="#B251FE"/>
<path d="M19.7902 22.7261C19.8634 22.881 20.0496 22.9479 20.2062 22.8756C20.3629 22.8032 20.4306 22.619 20.3574 22.4641C20.2843 22.3093 20.098 22.2423 19.9414 22.3147C19.7848 22.387 19.7171 22.5712 19.7902 22.7261Z" fill="#B251FE"/>
<path d="M17.8996 23.5991C17.9727 23.754 18.159 23.821 18.3156 23.7486C18.4723 23.6763 18.5399 23.4921 18.4668 23.3372C18.3937 23.1823 18.2074 23.1154 18.0507 23.1877C17.8942 23.2601 17.8265 23.4443 17.8996 23.5991Z" fill="#B251FE"/>
<path d="M16.009 24.4721C16.0821 24.627 16.2684 24.694 16.425 24.6216C16.5816 24.5493 16.6493 24.3651 16.5762 24.2102C16.503 24.0553 16.3168 23.9884 16.1602 24.0607C16.0035 24.1331 15.9358 24.3173 16.009 24.4721Z" fill="#B251FE"/>
<path d="M14.1183 25.3453C14.1915 25.5002 14.3778 25.5671 14.5344 25.4948C14.691 25.4224 14.7587 25.2382 14.6855 25.0834C14.6124 24.9285 14.4261 24.8615 14.2695 24.9339C14.1129 25.0062 14.0452 25.1904 14.1183 25.3453Z" fill="#B251FE"/>
</g>
</g>
</g>
<path d="M32.6148 12.9114C32.8782 12.6903 33.2375 12.6175 33.5676 12.7183L34.6861 13.06L35.7884 13.4499C36.1137 13.5649 36.3571 13.8362 36.4338 14.1693L36.6939 15.298L36.9036 16.437C36.9655 16.7731 36.8496 17.1172 36.5963 17.3494L35.7378 18.1365L34.8452 18.8856C34.5818 19.1067 34.2226 19.1795 33.8925 19.0786L32.774 18.737L31.6717 18.3471C31.3463 18.2321 31.1029 17.9608 31.0262 17.6277L30.7661 16.4989L30.5564 15.36C30.4945 15.0239 30.6104 14.6798 30.8638 14.4475L31.7222 13.6604L32.6148 12.9114Z" fill="#B251FE"/>
<path d="M34.5416 22.2108C34.805 21.9898 35.1643 21.917 35.4944 22.0178L35.8962 22.1405L36.2922 22.2806C36.6175 22.3956 36.8609 22.6669 36.9376 23L37.0311 23.4055L37.1064 23.8147C37.1683 24.1508 37.0524 24.4949 36.799 24.7271L36.4907 25.0099L36.17 25.279C35.9066 25.5 35.5473 25.5728 35.2173 25.472L34.8154 25.3493L34.4194 25.2092C34.0941 25.0942 33.8508 24.8229 33.774 24.4898L33.6806 24.0843L33.6052 23.6751C33.5434 23.339 33.6592 22.9949 33.9126 22.7627L34.221 22.4799L34.5416 22.2108Z" fill="#B251FE"/>
<path d="M35.8664 28.6043C36.1298 28.3832 36.4891 28.3104 36.8191 28.4113L36.8626 28.4245L36.9054 28.4397C37.2308 28.5547 37.4741 28.826 37.5509 29.1591L37.561 29.203L37.5691 29.2472C37.631 29.5833 37.5151 29.9274 37.2618 30.1597L37.2284 30.1903L37.1938 30.2194C36.9303 30.4405 36.571 30.5132 36.241 30.4124L36.1975 30.3991L36.1547 30.384C35.8294 30.2689 35.586 29.9976 35.5092 29.6645L35.4992 29.6207L35.491 29.5764C35.4291 29.2403 35.545 28.8962 35.7983 28.664L35.8317 28.6334L35.8664 28.6043Z" fill="#B251FE"/>
<g opacity="0.7">
<path d="M29.9474 13.9566C30.144 13.6757 30.472 13.5135 30.8173 13.5264L31.9871 13.5701L33.1539 13.6645C33.4982 13.6924 33.8043 13.8921 33.9656 14.1943L34.5122 15.218L35.0129 16.2645C35.1607 16.5733 35.1388 16.9353 34.9548 17.2245L34.3316 18.2045L33.6655 19.1565C33.469 19.4374 33.141 19.5997 32.7957 19.5868L31.6259 19.5431L30.4591 19.4486C30.1148 19.4208 29.8087 19.2209 29.6474 18.9188L29.1008 17.8951L28.6001 16.8487C28.4523 16.5399 28.4742 16.1779 28.6581 15.8887L29.2813 14.9087L29.9474 13.9566Z" fill="#B251FE"/>
<path d="M34.2424 22.4462C34.439 22.1653 34.767 22.003 35.1122 22.0159L35.5324 22.0316L35.9516 22.0656C36.2959 22.0934 36.602 22.2932 36.7633 22.5953L36.9597 22.9631L37.1395 23.339C37.2873 23.6478 37.2654 24.0098 37.0815 24.299L36.8576 24.6511L36.6184 24.9931C36.4218 25.274 36.0938 25.4363 35.7485 25.4234L35.3283 25.4077L34.9092 25.3737C34.5648 25.3459 34.2587 25.1461 34.0974 24.844L33.9011 24.4762L33.7212 24.1003C33.5734 23.7915 33.5953 23.4295 33.7793 23.1403L34.0031 22.7882L34.2424 22.4462Z" fill="#B251FE"/>
<path d="M37.1945 28.2828C37.3911 28.0019 37.7191 27.8396 38.0644 27.8525L38.1098 27.8542L38.1551 27.8579C38.4995 27.8857 38.8056 28.0855 38.9669 28.3876L38.9881 28.4274L39.0076 28.468C39.1553 28.7768 39.1334 29.1389 38.9495 29.4281L38.9253 29.4662L38.8994 29.5031C38.7029 29.7841 38.3749 29.9463 38.0296 29.9334L37.9842 29.9317L37.9388 29.9281C37.5945 29.9002 37.2884 29.7004 37.1271 29.3983L37.1059 29.3586L37.0864 29.3179C36.9387 29.0091 36.9606 28.6471 37.1445 28.3579L37.1687 28.3198L37.1945 28.2828Z" fill="#B251FE"/>
</g>
<g opacity="0.2">
<path d="M27.6432 15.6492C27.7595 15.3276 28.0339 15.0869 28.3707 15.011L29.5122 14.7538L30.6639 14.5464C31.0038 14.4852 31.3517 14.5998 31.5866 14.8503L32.3825 15.6993L33.14 16.5819C33.3635 16.8424 33.4372 17.1977 33.3352 17.5241L32.9897 18.6302L32.5955 19.7203C32.4792 20.0419 32.2048 20.2826 31.868 20.3585L30.7265 20.6157L29.5748 20.8231C29.2349 20.8843 28.887 20.7697 28.6521 20.5192L27.8562 19.6702L27.0986 18.7876C26.8751 18.5271 26.8015 18.1718 26.9035 17.8454L27.249 16.7393L27.6432 15.6492Z" fill="#B251FE"/>
<path d="M34.0139 22.7502C34.1303 22.4285 34.4046 22.1878 34.7415 22.1119L35.1515 22.0196L35.5652 21.9451C35.9051 21.8839 36.2531 21.9985 36.488 22.249L36.7739 22.554L37.046 22.871C37.2695 23.1315 37.3432 23.4868 37.2412 23.8132L37.1171 24.2106L36.9754 24.6022C36.8591 24.9238 36.5847 25.1645 36.2479 25.2404L35.8379 25.3328L35.4241 25.4073C35.0843 25.4685 34.7363 25.3539 34.5014 25.1034L34.2155 24.7984L33.9434 24.4813C33.7198 24.2209 33.6462 23.8656 33.7482 23.5391L33.8723 23.1418L34.0139 22.7502Z" fill="#B251FE"/>
<path d="M38.3931 27.6322C38.5095 27.3105 38.7838 27.0699 39.1207 26.994L39.165 26.984L39.2098 26.9759C39.5497 26.9147 39.8976 27.0293 40.1325 27.2798L40.1634 27.3128L40.1929 27.3471C40.4164 27.6076 40.49 27.9629 40.388 28.2893L40.3746 28.3323L40.3593 28.3746C40.243 28.6963 39.9686 28.937 39.6318 29.0129L39.5874 29.0229L39.5427 29.0309C39.2028 29.0921 38.8548 28.9775 38.6199 28.727L38.589 28.694L38.5596 28.6597C38.336 28.3993 38.2624 28.044 38.3644 27.7175L38.3778 27.6746L38.3931 27.6322Z" fill="#B251FE"/>
</g>
<g opacity="0.05">
<path d="M25.8612 17.8737C25.8893 17.5332 26.0914 17.2305 26.3969 17.0709L27.4321 16.5304L28.4903 16.0353C28.8026 15.8892 29.1687 15.9108 29.4611 16.0927L30.4521 16.709L31.4148 17.3677C31.6989 17.5621 31.863 17.8864 31.85 18.2278L31.8057 19.3847L31.7102 20.5385C31.6821 20.879 31.48 21.1817 31.1745 21.3412L30.1393 21.8817L29.0811 22.3768C28.7688 22.5229 28.4027 22.5013 28.1103 22.3194L27.1193 21.7031L26.1566 21.0444C25.8725 20.8501 25.7084 20.5257 25.7214 20.1843L25.7657 19.0275L25.8612 17.8737Z" fill="#B251FE"/>
<path d="M33.8732 23.1022C33.9014 22.7617 34.1034 22.459 34.4089 22.2995L34.7807 22.1053L35.1609 21.9275C35.4732 21.7814 35.8393 21.803 36.1317 21.9849L36.4877 22.2063L36.8335 22.4429C37.1177 22.6373 37.2818 22.9617 37.2687 23.303L37.2528 23.7186L37.2185 24.1331C37.1903 24.4736 36.9883 24.7763 36.6828 24.9358L36.3109 25.13L35.9308 25.3079C35.6185 25.454 35.2524 25.4323 34.9599 25.2505L34.6039 25.0291L34.2581 24.7924C33.974 24.5981 33.8099 24.2737 33.823 23.9323L33.8389 23.5167L33.8732 23.1022Z" fill="#B251FE"/>
<path d="M39.3811 26.6969C39.4093 26.3564 39.6113 26.0537 39.9168 25.8942L39.957 25.8732L39.9982 25.8539C40.3105 25.7078 40.6765 25.7295 40.969 25.9114L41.0075 25.9353L41.0449 25.9609C41.329 26.1553 41.4931 26.4796 41.4801 26.821L41.4783 26.866L41.4746 26.9108C41.4464 27.2513 41.2444 27.554 40.9389 27.7135L40.8987 27.7345L40.8576 27.7537C40.5453 27.8999 40.1792 27.8782 39.8867 27.6963L39.8482 27.6724L39.8109 27.6468C39.5268 27.4524 39.3627 27.1281 39.3757 26.7867L39.3774 26.7417L39.3811 26.6969Z" fill="#B251FE"/>
<path d="M43.6586 29.2238C43.6738 29.0396 43.7831 28.8758 43.9484 28.7895C44.1173 28.7104 44.3154 28.7222 44.4736 28.8205C44.6273 28.9257 44.7161 29.1012 44.709 29.2859C44.6938 29.4701 44.5845 29.6339 44.4192 29.7202C44.2503 29.7992 44.0522 29.7875 43.894 29.6891C43.7403 29.5839 43.6515 29.4085 43.6586 29.2238Z" fill="#B251FE"/>
</g>
<path d="M16.5142 14.9706C16.8459 15.0662 17.1053 15.3226 17.2019 15.6506L17.5297 16.762L17.8078 17.8865C17.8899 18.2184 17.7949 18.5687 17.5561 18.8155L16.7466 19.6519L15.9009 20.4523C15.6513 20.6885 15.2971 20.7824 14.9615 20.7012L13.8243 20.4262L12.7004 20.1021C12.3688 20.0065 12.1095 19.75 12.0127 19.4221L11.685 18.3107L11.4069 17.1861C11.3248 16.8543 11.4197 16.504 11.6586 16.2572L12.468 15.4208L13.3138 14.6204C13.5634 14.3842 13.9176 14.2903 14.2532 14.3714L15.3904 14.6465L16.5142 14.9706Z" fill="#B251FE"/>
<path d="M9.72659 21.6829C10.0582 21.7785 10.3176 22.035 10.4143 22.363L10.532 22.7622L10.6319 23.1662C10.714 23.498 10.6191 23.8483 10.3802 24.0952L10.0894 24.3956L9.7856 24.6832C9.53602 24.9194 9.18174 25.0132 8.84616 24.9321L8.43767 24.8333L8.03393 24.7169C7.70225 24.6212 7.44292 24.3648 7.34624 24.0368L7.22848 23.6375L7.12857 23.2336C7.04651 22.9017 7.14142 22.5514 7.38032 22.3046L7.67105 22.0041L7.97493 21.7166C8.2245 21.4804 8.57874 21.3865 8.91432 21.4677L9.32285 21.5665L9.72659 21.6829Z" fill="#B251FE"/>
<path d="M5.05977 26.2976C5.39141 26.3933 5.65074 26.6497 5.74746 26.9777L5.76021 27.0209L5.77103 27.0646C5.85309 27.3964 5.75818 27.7468 5.51928 27.9936L5.48783 28.0261L5.45496 28.0572C5.20539 28.2934 4.85115 28.3872 4.51557 28.3061L4.47138 28.2954L4.42771 28.2828C4.09606 28.1872 3.83672 27.9307 3.74001 27.6027L3.72727 27.5596L3.71647 27.5159C3.6344 27.184 3.72932 26.8337 3.96818 26.5869L3.99963 26.5544L4.0325 26.5233C4.28208 26.2871 4.63634 26.1932 4.97192 26.2744L5.0161 26.2851L5.05977 26.2976Z" fill="#B251FE"/>
<path d="M1.69817 29.934C1.8776 29.9858 2.0179 30.1245 2.07022 30.302C2.11463 30.4815 2.06327 30.671 1.93404 30.8045C1.79901 30.9323 1.60736 30.9831 1.42581 30.9392C1.24638 30.8875 1.10608 30.7487 1.05376 30.5713C1.00936 30.3918 1.06071 30.2022 1.18994 30.0687C1.32497 29.9409 1.51662 29.8901 1.69817 29.934Z" fill="#B251FE"/>
<g opacity="0.7">
<path d="M14.1626 13.3442C14.508 13.3517 14.8256 13.5331 15.0049 13.8251L15.6123 14.8147L16.1753 15.8298C16.3414 16.1293 16.3414 16.492 16.1753 16.7915L15.6123 17.8065L15.0049 18.7962C14.8256 19.0882 14.508 19.2696 14.1626 19.2771L12.9922 19.3025L11.8218 19.2771C11.4764 19.2696 11.1588 19.0882 10.9795 18.7962L10.3721 17.8065L9.80918 16.7915C9.64303 16.492 9.64303 16.1293 9.80918 15.8298L10.3721 14.8147L10.9795 13.8251C11.1588 13.5331 11.4764 13.3517 11.8218 13.3442L12.9922 13.3188L14.1626 13.3442Z" fill="#B251FE"/>
<path d="M9.363 21.5651C9.70839 21.5726 10.026 21.7539 10.2053 22.046L10.4234 22.4015L10.6257 22.7661C10.7918 23.0657 10.7918 23.4283 10.6257 23.7279L10.4234 24.0925L10.2053 24.448C10.026 24.7401 9.70839 24.9214 9.363 24.9289L8.94253 24.938L8.52205 24.9289C8.17667 24.9214 7.85909 24.7401 7.6798 24.448L7.46162 24.0925L7.25938 23.7279C7.09323 23.4283 7.09323 23.0657 7.25938 22.7661L7.46162 22.4015L7.6798 22.046C7.85909 21.7539 8.17667 21.5726 8.52205 21.5651L8.94253 21.556L9.363 21.5651Z" fill="#B251FE"/>
<path d="M6.06323 27.217C6.40862 27.2245 6.72625 27.4059 6.90549 27.6979L6.9291 27.7364L6.95099 27.7758C7.11709 28.0753 7.11709 28.438 6.95099 28.7375L6.9291 28.777L6.90549 28.8154C6.72625 29.1075 6.40862 29.2888 6.06323 29.2963L6.01777 29.2973L5.97227 29.2963C5.62688 29.2888 5.3093 29.1075 5.13001 28.8154L5.10645 28.777L5.08456 28.7375C4.91843 28.438 4.91843 28.0753 5.08456 27.7758L5.10645 27.7364L5.13001 27.6979C5.3093 27.4059 5.62688 27.2245 5.97227 27.217L6.01777 27.216L6.06323 27.217Z" fill="#B251FE"/>
</g>
<g opacity="0.2">
<path d="M11.4654 12.3752C11.801 12.294 12.1552 12.3879 12.4048 12.6241L13.2506 13.4246L14.06 14.2609C14.2989 14.5077 14.3938 14.8581 14.3117 15.1899L14.0336 16.3144L13.7059 17.4258C13.6092 17.7538 13.3498 18.0102 13.0182 18.1059L11.8943 18.43L10.7571 18.705C10.4215 18.7861 10.0673 18.6923 9.81773 18.4561L8.97193 17.6556L8.16254 16.8193C7.92369 16.5725 7.82873 16.2221 7.91079 15.8903L8.18893 14.7658L8.51668 13.6544C8.61335 13.3264 8.87268 13.07 9.20437 12.9743L10.3282 12.6502L11.4654 12.3752Z" fill="#B251FE"/>
<path d="M8.97995 21.5445C9.31553 21.4633 9.66976 21.5572 9.91939 21.7934L10.2232 22.0809L10.514 22.3814C10.7528 22.6282 10.8478 22.9785 10.7657 23.3104L10.6658 23.7143L10.5481 24.1136C10.4513 24.4416 10.192 24.698 9.86033 24.7937L9.45659 24.9101L9.04811 25.0089C8.71253 25.09 8.35824 24.9962 8.10867 24.76L7.80484 24.4724L7.51406 24.172C7.27521 23.9251 7.1803 23.5748 7.26236 23.243L7.36227 22.839L7.47998 22.4398C7.57671 22.1118 7.83604 21.8553 8.16772 21.7597L8.57141 21.6433L8.97995 21.5445Z" fill="#B251FE"/>
<path d="M7.2724 27.8482C7.60798 27.7671 7.96222 27.8609 8.21184 28.0972L8.2447 28.1283L8.27615 28.1608C8.51501 28.4076 8.60991 28.7579 8.52785 29.0897L8.51703 29.1334L8.50429 29.1766C8.40761 29.5046 8.14828 29.761 7.8166 29.8567L7.77291 29.8693L7.72877 29.88C7.39319 29.9611 7.03891 29.8672 6.78933 29.631L6.75647 29.5999L6.72502 29.5674C6.48616 29.3206 6.39121 28.9703 6.47332 28.6385L6.48409 28.5948L6.49683 28.5516C6.59356 28.2236 6.85289 27.9672 7.18452 27.8715L7.22821 27.8589L7.2724 27.8482Z" fill="#B251FE"/>
</g>
<g opacity="0.05">
<path d="M8.60557 12.1296C8.90848 11.9653 9.27521 11.9653 9.57813 12.1296L10.6046 12.6863L11.6053 13.287C11.9006 13.4643 12.084 13.7784 12.0916 14.1199L12.1173 15.2773L12.0916 16.4347C12.084 16.7762 11.9006 17.0903 11.6053 17.2676L10.6046 17.8683L9.57813 18.425C9.27521 18.5893 8.90848 18.5893 8.60557 18.425L7.57911 17.8683L6.57839 17.2676C6.28306 17.0903 6.09968 16.7762 6.09209 16.4347L6.06641 15.2773L6.09209 14.1199C6.09968 13.7784 6.28306 13.4643 6.57839 13.287L7.57911 12.6863L8.60557 12.1296Z" fill="#B251FE"/>
<path d="M8.60558 21.6223C8.9085 21.458 9.27527 21.458 9.57814 21.6223L9.94689 21.8223L10.3064 22.0381C10.6017 22.2154 10.7851 22.5294 10.7927 22.871L10.8019 23.2868L10.7927 23.7026C10.7851 24.0441 10.6017 24.3582 10.3064 24.5355L9.94689 24.7512L9.57814 24.9512C9.27527 25.1155 8.9085 25.1155 8.60558 24.9512L8.23689 24.7512L7.87734 24.5355C7.58206 24.3582 7.39867 24.0441 7.39109 23.7026L7.38184 23.2868L7.39109 22.871C7.39867 22.5294 7.58206 22.2154 7.87734 22.0381L8.23689 21.8223L8.60558 21.6223Z" fill="#B251FE"/>
<path d="M8.6051 28.1485C8.90802 27.9842 9.27479 27.9842 9.57766 28.1485L9.61755 28.1701L9.65643 28.1935C9.95177 28.3707 10.1352 28.6848 10.1427 29.0264L10.1437 29.0713L10.1427 29.1163C10.1352 29.4579 9.95177 29.7719 9.65643 29.9492L9.61755 29.9726L9.57766 29.9942C9.27479 30.1585 8.90802 30.1585 8.6051 29.9942L8.56526 29.9726L8.52633 29.9492C8.23105 29.7719 8.04766 29.4579 8.04007 29.1163L8.03906 29.0713L8.04007 29.0264C8.04766 28.6848 8.23105 28.3707 8.52633 28.1935L8.56526 28.1701L8.6051 28.1485Z" fill="#B251FE"/>
</g>
<path d="M19.5834 8.90839C18.8498 8.01004 19.3748 6.66324 20.5283 6.48419L24.8541 5.81264C26.0076 5.63354 26.9247 6.75649 26.5047 7.83394L24.9299 11.8743C24.51 12.9518 23.068 13.1756 22.3344 12.2773L19.5834 8.90839Z" fill="#B251FE"/>
</g>
<path d="M38.9331 1H6.0679C3.27545 1 1.01172 3.23858 1.01172 6V25C1.01172 27.7614 3.27545 30 6.0679 30H38.9331C41.7255 30 43.9892 27.7614 43.9892 25V6C43.9892 3.23858 41.7255 1 38.9331 1Z" stroke="#B251FE" stroke-width="3" stroke-linecap="round"/>
</g>
<defs>
<clipPath id="clip0_1165_7992">
<rect width="45" height="31" fill="white"/>
</clipPath>
</defs>
</svg>
