<svg width="45" height="31" viewBox="0 0 45 31" fill="none" xmlns="http://www.w3.org/2000/svg">
<g clip-path="url(#clip0_1165_7485)">
<mask id="mask0_1165_7485" style="mask-type:luminance" maskUnits="userSpaceOnUse" x="1" y="1" width="43" height="29">
<path d="M38.9331 1H6.0679C3.27545 1 1.01172 3.23858 1.01172 6V25C1.01172 27.7614 3.27545 30 6.0679 30H38.9331C41.7255 30 43.9892 27.7614 43.9892 25V6C43.9892 3.23858 41.7255 1 38.9331 1Z" fill="white"/>
</mask>
<g mask="url(#mask0_1165_7485)">
<path d="M38.9331 1H6.0679C3.27545 1 1.01172 3.23858 1.01172 6V25C1.01172 27.7614 3.27545 30 6.0679 30H38.9331C41.7255 30 43.9892 27.7614 43.9892 25V6C43.9892 3.23858 41.7255 1 38.9331 1Z" fill="#51F4FE" fill-opacity="0.1"/>
<mask id="mask1_1165_7485" style="mask-type:luminance" maskUnits="userSpaceOnUse" x="13" y="6" width="19" height="19">
<path d="M31.348 6.75H13.6514V24.25H31.348V6.75Z" fill="white"/>
</mask>
<g mask="url(#mask1_1165_7485)">
<path opacity="0.9" d="M19.2132 6.75H13.6514V12.25H19.2132V6.75Z" fill="#51F4FE"/>
<path opacity="0.8" d="M25.2805 6.75H19.7188V12.25H25.2805V6.75Z" fill="#51F4FE"/>
<path opacity="0.7" d="M31.3479 6.75H25.7861V12.25H31.3479V6.75Z" fill="#51F4FE"/>
<path opacity="0.6" d="M19.2132 12.75H13.6514V18.25H19.2132V12.75Z" fill="#51F4FE"/>
<path opacity="0.5" d="M25.2805 12.75H19.7188V18.25H25.2805V12.75Z" fill="#51F4FE"/>
<path opacity="0.4" d="M31.3479 12.75H25.7861V18.25H31.3479V12.75Z" fill="#51F4FE"/>
<path opacity="0.3" d="M19.2132 18.75H13.6514V24.25H19.2132V18.75Z" fill="#51F4FE"/>
<path opacity="0.2" d="M25.2805 18.75H19.7188V24.25H25.2805V18.75Z" fill="#51F4FE"/>
<path opacity="0.1" d="M31.3479 18.75H25.7861V24.25H31.3479V18.75Z" fill="#51F4FE"/>
</g>
<mask id="mask2_1165_7485" style="mask-type:luminance" maskUnits="userSpaceOnUse" x="-15" y="-1" width="32" height="33">
<path d="M16.5626 22.6826L-3.60645 -1L-14.1573 7.78693L6.01174 31.4695L16.5626 22.6826Z" fill="white"/>
</mask>
<g mask="url(#mask2_1165_7485)">
<path d="M2.20797 6.33061C2.34671 6.21506 2.36446 6.01016 2.24762 5.87296C2.13077 5.73576 1.92358 5.71821 1.78484 5.83376C1.6461 5.94931 1.62835 6.15421 1.74519 6.29136C1.86204 6.42856 2.06923 6.44616 2.20797 6.33061Z" fill="#51F4FE" fill-opacity="0.23"/>
<path d="M3.61813 7.9867C3.75686 7.87115 3.77462 7.6663 3.65777 7.5291C3.54093 7.3919 3.33374 7.37435 3.195 7.48985C3.05626 7.6054 3.03851 7.8103 3.15535 7.9475C3.27219 8.0847 3.47939 8.10225 3.61813 7.9867Z" fill="#51F4FE" fill-opacity="0.23"/>
<path d="M5.02828 9.6428C5.16702 9.52725 5.18477 9.32235 5.06792 9.18515C4.95109 9.04795 4.74389 9.0304 4.60516 9.14595C4.46642 9.2615 4.44866 9.4664 4.56551 9.6036C4.68235 9.7408 4.88954 9.75835 5.02828 9.6428Z" fill="#51F4FE" fill-opacity="0.23"/>
<path d="M6.43846 11.2989C6.5772 11.1834 6.59495 10.9785 6.4781 10.8413C6.36125 10.7041 6.15405 10.6866 6.01531 10.8021C5.87657 10.9176 5.85882 11.1225 5.97567 11.2597C6.09252 11.3969 6.29972 11.4145 6.43846 11.2989Z" fill="#51F4FE" fill-opacity="0.23"/>
<path d="M7.84955 12.9551C7.98829 12.8395 8.00604 12.6346 7.88919 12.4974C7.77234 12.3602 7.56519 12.3427 7.42645 12.4582C7.28771 12.5738 7.26996 12.7787 7.38676 12.9159C7.50361 13.0531 7.71081 13.0706 7.84955 12.9551Z" fill="#51F4FE" fill-opacity="0.23"/>
<path d="M9.25975 14.6112C9.39849 14.4957 9.41624 14.2908 9.29939 14.1536C9.18254 14.0164 8.97534 13.9988 8.8366 14.1144C8.69786 14.2299 8.68011 14.4348 8.79696 14.572C8.91381 14.7092 9.12101 14.7267 9.25975 14.6112Z" fill="#51F4FE" fill-opacity="0.23"/>
<path d="M10.6699 16.2673C10.8086 16.1518 10.8263 15.9469 10.7095 15.8097C10.5927 15.6725 10.3855 15.6549 10.2468 15.7705C10.108 15.886 10.0903 16.0909 10.2071 16.2281C10.324 16.3653 10.5311 16.3829 10.6699 16.2673Z" fill="#51F4FE" fill-opacity="0.23"/>
<path d="M12.0801 17.9234C12.2188 17.8079 12.2366 17.603 12.1197 17.4658C12.0029 17.3286 11.7957 17.311 11.6569 17.4266C11.5182 17.5421 11.5004 17.747 11.6173 17.8842C11.7341 18.0214 11.9413 18.039 12.0801 17.9234Z" fill="#51F4FE" fill-opacity="0.23"/>
<path d="M13.4902 19.5795C13.6289 19.464 13.6467 19.2591 13.5298 19.1219C13.413 18.9847 13.2058 18.9672 13.0671 19.0827C12.9283 19.1983 12.9106 19.4031 13.0274 19.5403C13.1443 19.6775 13.3514 19.6951 13.4902 19.5795Z" fill="#51F4FE" fill-opacity="0.23"/>
<path d="M14.9014 21.2357C15.0401 21.1201 15.0578 20.9152 14.941 20.778C14.8241 20.6408 14.6169 20.6233 14.4782 20.7388C14.3395 20.8544 14.3217 21.0593 14.4386 21.1965C14.5554 21.3337 14.7626 21.3512 14.9014 21.2357Z" fill="#51F4FE" fill-opacity="0.23"/>
<path d="M16.3115 22.8918C16.4502 22.7763 16.4679 22.5714 16.3511 22.4342C16.2343 22.297 16.0271 22.2794 15.8884 22.395C15.7496 22.5105 15.7319 22.7154 15.8487 22.8526C15.9656 22.9898 16.1727 23.0073 16.3115 22.8918Z" fill="#51F4FE" fill-opacity="0.23"/>
<path d="M1.94332 9.38145C2.08206 9.2659 2.09981 9.061 1.98296 8.9238C1.86613 8.7866 1.65893 8.76905 1.52019 8.8846C1.38145 9.00015 1.3637 9.20505 1.48055 9.34225C1.59739 9.47945 1.80458 9.497 1.94332 9.38145Z" fill="#51F4FE" fill-opacity="0.23"/>
<path d="M3.35348 11.0376C3.49222 10.922 3.50997 10.7171 3.39312 10.5799C3.27628 10.4427 3.06909 10.4252 2.93035 10.5407C2.79161 10.6563 2.77386 10.8612 2.8907 10.9984C3.00755 11.1355 3.21474 11.1531 3.35348 11.0376Z" fill="#51F4FE" fill-opacity="0.23"/>
<path d="M4.76363 12.6937C4.90237 12.5781 4.92012 12.3733 4.80328 12.2361C4.68643 12.0989 4.47924 12.0813 4.34051 12.1968C4.20176 12.3124 4.18402 12.5173 4.30086 12.6545C4.4177 12.7917 4.62489 12.8092 4.76363 12.6937Z" fill="#51F4FE" fill-opacity="0.23"/>
<path d="M6.17475 14.3498C6.31349 14.2343 6.33124 14.0294 6.21439 13.8922C6.09754 13.755 5.89039 13.7374 5.75165 13.853C5.6129 13.9685 5.59516 14.1734 5.71196 14.3106C5.8288 14.4478 6.03601 14.4654 6.17475 14.3498Z" fill="#51F4FE" fill-opacity="0.23"/>
<path d="M7.58495 16.0059C7.72369 15.8904 7.74143 15.6855 7.62459 15.5483C7.50774 15.4111 7.30054 15.3936 7.16179 15.5091C7.02305 15.6246 7.00531 15.8295 7.12215 15.9667C7.239 16.1039 7.4462 16.1215 7.58495 16.0059Z" fill="#51F4FE" fill-opacity="0.23"/>
<path d="M8.99506 17.6621C9.1338 17.5465 9.15155 17.3416 9.0347 17.2044C8.91785 17.0672 8.7107 17.0497 8.57196 17.1652C8.43322 17.2808 8.41547 17.4857 8.53227 17.6229C8.64912 17.7601 8.85632 17.7776 8.99506 17.6621Z" fill="#51F4FE" fill-opacity="0.23"/>
<path d="M10.4053 19.3182C10.544 19.2026 10.5617 18.9977 10.4449 18.8605C10.3281 18.7233 10.1208 18.7058 9.98211 18.8213C9.84336 18.9369 9.82562 19.1418 9.94247 19.279C10.0593 19.4162 10.2665 19.4337 10.4053 19.3182Z" fill="#51F4FE" fill-opacity="0.23"/>
<path d="M11.8163 20.9743C11.9551 20.8587 11.9728 20.6539 11.856 20.5167C11.7391 20.3795 11.532 20.3619 11.3932 20.4775C11.2545 20.593 11.2368 20.7979 11.3536 20.9351C11.4704 21.0723 11.6776 21.0898 11.8163 20.9743Z" fill="#51F4FE" fill-opacity="0.23"/>
<path d="M13.2265 22.6304C13.3653 22.5149 13.383 22.31 13.2662 22.1728C13.1493 22.0356 12.9421 22.018 12.8034 22.1336C12.6647 22.2491 12.6469 22.454 12.7638 22.5912C12.8806 22.7284 13.0878 22.746 13.2265 22.6304Z" fill="#51F4FE" fill-opacity="0.23"/>
<path d="M14.6367 24.2866C14.7754 24.1711 14.7931 23.9662 14.6763 23.829C14.5594 23.6918 14.3523 23.6742 14.2136 23.7898C14.0748 23.9053 14.0571 24.1102 14.1739 24.2474C14.2907 24.3846 14.4979 24.4021 14.6367 24.2866Z" fill="#51F4FE" fill-opacity="0.23"/>
<path d="M1.67867 12.4324C1.81741 12.3168 1.83516 12.1119 1.71832 11.9747C1.60148 11.8375 1.39428 11.82 1.25555 11.9355C1.11681 12.0511 1.09905 12.2559 1.2159 12.3931C1.33274 12.5303 1.53993 12.5479 1.67867 12.4324Z" fill="#51F4FE" fill-opacity="0.23"/>
<path d="M3.08981 14.0884C3.22854 13.9729 3.2463 13.768 3.12945 13.6308C3.01261 13.4936 2.80542 13.476 2.66668 13.5916C2.52794 13.7071 2.51019 13.912 2.62703 14.0492C2.74387 14.1864 2.95107 14.204 3.08981 14.0884Z" fill="#51F4FE" fill-opacity="0.23"/>
<path d="M4.49996 15.7446C4.6387 15.6291 4.65645 15.4242 4.53961 15.287C4.42276 15.1498 4.21557 15.1322 4.07683 15.2478C3.93809 15.3633 3.92035 15.5682 4.03719 15.7054C4.15403 15.8426 4.36122 15.8602 4.49996 15.7446Z" fill="#51F4FE" fill-opacity="0.23"/>
<path d="M5.91009 17.4007C6.04883 17.2851 6.06658 17.0803 5.94978 16.9431C5.83293 16.8059 5.62573 16.7883 5.48699 16.9038C5.34825 17.0194 5.3305 17.2243 5.44735 17.3615C5.5642 17.4987 5.7714 17.5162 5.91009 17.4007Z" fill="#51F4FE" fill-opacity="0.23"/>
<path d="M7.32026 19.0568C7.459 18.9413 7.47674 18.7364 7.3599 18.5992C7.24305 18.462 7.0359 18.4444 6.89715 18.56C6.75841 18.6755 6.74067 18.8804 6.85746 19.0176C6.97431 19.1548 7.18151 19.1724 7.32026 19.0568Z" fill="#51F4FE" fill-opacity="0.23"/>
<path d="M8.73045 20.7129C8.8692 20.5974 8.88694 20.3925 8.77009 20.2553C8.65325 20.1181 8.44604 20.1006 8.3073 20.2161C8.16856 20.3316 8.15081 20.5365 8.26766 20.6737C8.38451 20.8109 8.59171 20.8285 8.73045 20.7129Z" fill="#51F4FE" fill-opacity="0.23"/>
<path d="M10.1415 22.369C10.2803 22.2535 10.298 22.0486 10.1812 21.9114C10.0643 21.7742 9.85718 21.7567 9.71844 21.8722C9.5797 21.9877 9.56195 22.1926 9.67875 22.3298C9.7956 22.467 10.0028 22.4846 10.1415 22.369Z" fill="#51F4FE" fill-opacity="0.23"/>
<path d="M11.5517 24.0252C11.6905 23.9096 11.7082 23.7047 11.5914 23.5675C11.4745 23.4303 11.2673 23.4128 11.1286 23.5283C10.9898 23.6439 10.9721 23.8488 11.0889 23.986C11.2058 24.1232 11.413 24.1407 11.5517 24.0252Z" fill="#51F4FE" fill-opacity="0.23"/>
<path d="M12.9618 25.6813C13.1006 25.5657 13.1183 25.3609 13.0015 25.2237C12.8846 25.0865 12.6775 25.0689 12.5387 25.1845C12.4 25.3 12.3823 25.5049 12.4991 25.6421C12.6159 25.7793 12.8231 25.7968 12.9618 25.6813Z" fill="#51F4FE" fill-opacity="0.23"/>
<path d="M1.415 15.4833C1.55374 15.3677 1.57149 15.1628 1.45465 15.0256C1.3378 14.8884 1.13061 14.8709 0.991871 14.9864C0.853135 15.102 0.835382 15.3069 0.952226 15.444C1.06907 15.5812 1.27626 15.5988 1.415 15.4833Z" fill="#51F4FE" fill-opacity="0.23"/>
<path d="M2.82516 17.1393C2.96389 17.0238 2.98164 16.8189 2.8648 16.6817C2.74796 16.5445 2.54077 16.5269 2.40203 16.6425C2.26329 16.758 2.24554 16.9629 2.36238 17.1001C2.47923 17.2373 2.68641 17.2548 2.82516 17.1393Z" fill="#51F4FE" fill-opacity="0.23"/>
<path d="M4.23531 18.7954C4.37405 18.6799 4.3918 18.475 4.27496 18.3378C4.15812 18.2006 3.95092 18.183 3.81219 18.2986C3.67345 18.4141 3.65569 18.619 3.77254 18.7562C3.88938 18.8934 4.09657 18.911 4.23531 18.7954Z" fill="#51F4FE" fill-opacity="0.23"/>
<path d="M5.64545 20.4516C5.78419 20.336 5.80194 20.1311 5.68509 19.9939C5.56824 19.8567 5.36109 19.8392 5.22235 19.9547C5.08361 20.0703 5.06586 20.2752 5.18266 20.4124C5.29951 20.5495 5.50671 20.5671 5.64545 20.4516Z" fill="#51F4FE" fill-opacity="0.23"/>
<path d="M7.05657 22.1077C7.19532 21.9921 7.21306 21.7873 7.09627 21.6501C6.97942 21.5129 6.77222 21.4953 6.63347 21.6108C6.49473 21.7264 6.47698 21.9313 6.59383 22.0685C6.71068 22.2057 6.91788 22.2232 7.05657 22.1077Z" fill="#51F4FE" fill-opacity="0.23"/>
<path d="M8.46674 23.7638C8.60548 23.6483 8.62323 23.4434 8.50638 23.3062C8.38953 23.169 8.18238 23.1514 8.04364 23.267C7.9049 23.3825 7.88715 23.5874 8.00395 23.7246C8.1208 23.8618 8.328 23.8794 8.46674 23.7638Z" fill="#51F4FE" fill-opacity="0.23"/>
<path d="M9.87689 25.4199C10.0156 25.3044 10.0334 25.0995 9.91658 24.9623C9.79973 24.8251 9.59253 24.8076 9.45379 24.9231C9.31504 25.0386 9.2973 25.2435 9.41415 25.3807C9.53099 25.5179 9.7382 25.5355 9.87689 25.4199Z" fill="#51F4FE" fill-opacity="0.23"/>
<path d="M11.2871 27.076C11.4258 26.9605 11.4435 26.7556 11.3267 26.6184C11.2098 26.4812 11.0027 26.4637 10.864 26.5792C10.7252 26.6947 10.7075 26.8996 10.8243 27.0368C10.9411 27.174 11.1483 27.1916 11.2871 27.076Z" fill="#51F4FE" fill-opacity="0.23"/>
<path d="M1.15035 18.5341C1.28909 18.4185 1.30684 18.2136 1.19 18.0764C1.07316 17.9392 0.865964 17.9217 0.727223 18.0372C0.588486 18.1528 0.570734 18.3577 0.687577 18.4949C0.804421 18.6321 1.01161 18.6496 1.15035 18.5341Z" fill="#51F4FE" fill-opacity="0.23"/>
<path d="M2.56051 20.1902C2.69925 20.0746 2.717 19.8697 2.60016 19.7325C2.48331 19.5953 2.27612 19.5778 2.13738 19.6933C1.99864 19.8089 1.98089 20.0138 2.09773 20.151C2.21458 20.2882 2.42177 20.3057 2.56051 20.1902Z" fill="#51F4FE" fill-opacity="0.23"/>
<path d="M3.97164 21.8464C4.11038 21.7308 4.12813 21.5259 4.01129 21.3887C3.89445 21.2515 3.68725 21.234 3.54852 21.3495C3.40977 21.4651 3.39202 21.6699 3.50887 21.8071C3.62571 21.9443 3.8329 21.9619 3.97164 21.8464Z" fill="#51F4FE" fill-opacity="0.23"/>
<path d="M5.38177 23.5024C5.52051 23.3869 5.53826 23.182 5.42146 23.0448C5.30461 22.9076 5.09741 22.89 4.95867 23.0056C4.81993 23.1211 4.80218 23.326 4.91902 23.4632C5.03587 23.6004 5.24308 23.618 5.38177 23.5024Z" fill="#51F4FE" fill-opacity="0.23"/>
<path d="M6.79193 25.1586C6.93068 25.043 6.94842 24.8381 6.83157 24.7009C6.71473 24.5637 6.50758 24.5462 6.36883 24.6617C6.23009 24.7773 6.21235 24.9822 6.32914 25.1194C6.44599 25.2566 6.65319 25.2741 6.79193 25.1586Z" fill="#51F4FE" fill-opacity="0.23"/>
<path d="M8.20208 26.8147C8.34082 26.6991 8.35862 26.4943 8.24177 26.3571C8.12493 26.2199 7.91772 26.2023 7.77898 26.3178C7.64024 26.4334 7.62249 26.6383 7.73934 26.7755C7.85619 26.9127 8.06339 26.9302 8.20208 26.8147Z" fill="#51F4FE" fill-opacity="0.23"/>
<path d="M9.61224 28.4708C9.75098 28.3553 9.76873 28.1504 9.65188 28.0132C9.53503 27.876 9.32788 27.8584 9.18914 27.974C9.0504 28.0895 9.03265 28.2944 9.1495 28.4316C9.26629 28.5688 9.4735 28.5864 9.61224 28.4708Z" fill="#51F4FE" fill-opacity="0.23"/>
<path d="M0.885704 21.585C1.02444 21.4695 1.04219 21.2646 0.925349 21.1274C0.808506 20.9902 0.601314 20.9726 0.462575 21.0882C0.323836 21.2037 0.306086 21.4086 0.422929 21.5458C0.53977 21.683 0.746962 21.7005 0.885704 21.585Z" fill="#51F4FE" fill-opacity="0.23"/>
<path d="M2.29684 23.241C2.43557 23.1255 2.45333 22.9206 2.33648 22.7834C2.21964 22.6462 2.01245 22.6287 1.87371 22.7442C1.73497 22.8598 1.71722 23.0646 1.83406 23.2018C1.9509 23.339 2.1581 23.3566 2.29684 23.241Z" fill="#51F4FE" fill-opacity="0.23"/>
<path d="M3.70699 24.8972C3.84573 24.7816 3.86348 24.5767 3.74664 24.4395C3.62979 24.3023 3.4226 24.2848 3.28387 24.4003C3.14512 24.5159 3.12738 24.7208 3.24422 24.858C3.36106 24.9952 3.56825 25.0127 3.70699 24.8972Z" fill="#51F4FE" fill-opacity="0.23"/>
<path d="M5.11715 26.5533C5.25589 26.4378 5.27364 26.2329 5.15679 26.0957C5.03995 25.9585 4.83276 25.9409 4.69402 26.0565C4.55528 26.172 4.53753 26.3769 4.65438 26.5141C4.77122 26.6513 4.97841 26.6688 5.11715 26.5533Z" fill="#51F4FE" fill-opacity="0.23"/>
<path d="M6.52728 28.2094C6.66602 28.0939 6.68382 27.889 6.56697 27.7518C6.45012 27.6146 6.24292 27.597 6.10418 27.7126C5.96544 27.8281 5.94769 28.033 6.06454 28.1702C6.18138 28.3074 6.38859 28.325 6.52728 28.2094Z" fill="#51F4FE" fill-opacity="0.23"/>
<path d="M7.93846 29.8656C8.0772 29.75 8.09495 29.5451 7.9781 29.4079C7.86125 29.2707 7.65405 29.2532 7.51531 29.3687C7.37657 29.4843 7.35882 29.6892 7.47567 29.8264C7.59252 29.9636 7.79972 29.9811 7.93846 29.8656Z" fill="#51F4FE" fill-opacity="0.23"/>
<path d="M2.03219 26.2919C2.17093 26.1764 2.18868 25.9715 2.07184 25.8343C1.95499 25.6971 1.7478 25.6795 1.60906 25.7951C1.47032 25.9106 1.45257 26.1155 1.56941 26.2527C1.68626 26.3899 1.89345 26.4075 2.03219 26.2919Z" fill="#51F4FE" fill-opacity="0.23"/>
<path d="M3.44234 27.9481C3.58108 27.8326 3.59883 27.6277 3.48199 27.4905C3.36515 27.3533 3.15795 27.3357 3.01922 27.4513C2.88048 27.5668 2.86273 27.7717 2.97957 27.9089C3.09641 28.0461 3.3036 28.0636 3.44234 27.9481Z" fill="#51F4FE" fill-opacity="0.23"/>
<path d="M4.8525 29.6042C4.99124 29.4886 5.00899 29.2837 4.89214 29.1465C4.7753 29.0093 4.56811 28.9918 4.42937 29.1073C4.29063 29.2229 4.27288 29.4278 4.38973 29.565C4.50657 29.7022 4.71376 29.7197 4.8525 29.6042Z" fill="#51F4FE" fill-opacity="0.23"/>
</g>
<mask id="mask3_1165_7485" style="mask-type:luminance" maskUnits="userSpaceOnUse" x="30" y="-1" width="32" height="33">
<path d="M61.0567 22.6826L40.8877 -1L30.3369 7.78693L50.5059 31.4695L61.0567 22.6826Z" fill="white"/>
</mask>
<g mask="url(#mask3_1165_7485)">
<path d="M42.4697 1.3622C42.6085 1.24666 42.6262 1.04177 42.5094 0.904574C42.3925 0.767379 42.1853 0.749824 42.0466 0.865369C41.9078 0.980914 41.8901 1.1858 42.0069 1.323C42.1238 1.4602 42.331 1.47775 42.4697 1.3622Z" fill="#51F4FE" fill-opacity="0.23"/>
<path d="M43.8808 3.01833C44.0195 2.90279 44.0373 2.6979 43.9204 2.5607C43.8036 2.4235 43.5964 2.40595 43.4577 2.5215C43.319 2.63704 43.3012 2.84193 43.418 2.97913C43.5349 3.11632 43.7421 3.13388 43.8808 3.01833Z" fill="#51F4FE" fill-opacity="0.23"/>
<path d="M39.3847 1.10079C39.5235 0.985249 39.5412 0.780359 39.4244 0.643164C39.3075 0.505964 39.1003 0.488412 38.9616 0.603954C38.8229 0.719499 38.8051 0.924389 38.9219 1.06159C39.0388 1.19878 39.246 1.21634 39.3847 1.10079Z" fill="#51F4FE" fill-opacity="0.23"/>
<path d="M40.7958 2.75692C40.9346 2.64137 40.9523 2.43649 40.8355 2.29929C40.7187 2.16209 40.5115 2.14454 40.3727 2.26008C40.234 2.37563 40.2162 2.58052 40.3331 2.71771C40.4499 2.85491 40.6571 2.87246 40.7958 2.75692Z" fill="#51F4FE" fill-opacity="0.23"/>
<path d="M42.206 4.41305C42.3447 4.2975 42.3625 4.09261 42.2456 3.95542C42.1288 3.81822 41.9216 3.80067 41.7829 3.91621C41.6442 4.03176 41.6264 4.23664 41.7432 4.37384C41.8601 4.51104 42.0673 4.52859 42.206 4.41305Z" fill="#51F4FE" fill-opacity="0.23"/>
<path d="M43.6161 6.0692C43.7549 5.95365 43.7726 5.74875 43.6558 5.61155C43.539 5.47435 43.3318 5.4568 43.193 5.57235C43.0543 5.6879 43.0366 5.89275 43.1534 6.02995C43.2703 6.16715 43.4774 6.1847 43.6161 6.0692Z" fill="#51F4FE" fill-opacity="0.23"/>
<path d="M37.7109 2.49551C37.8497 2.37996 37.8674 2.17507 37.7506 2.03788C37.6337 1.90068 37.4265 1.88312 37.2878 1.99867C37.149 2.11421 37.1313 2.3191 37.2481 2.4563C37.365 2.5935 37.5722 2.61105 37.7109 2.49551Z" fill="#51F4FE" fill-opacity="0.23"/>
<path d="M39.121 4.15169C39.2598 4.03615 39.2775 3.83126 39.1607 3.69406C39.0439 3.55687 38.8367 3.53931 38.6979 3.65486C38.5592 3.7704 38.5414 3.97529 38.6583 4.11249C38.7751 4.24969 38.9823 4.26724 39.121 4.15169Z" fill="#51F4FE" fill-opacity="0.23"/>
<path d="M40.5312 5.80778C40.6699 5.69223 40.6877 5.48733 40.5708 5.35013C40.454 5.21293 40.2468 5.19538 40.1081 5.31093C39.9693 5.42648 39.9516 5.63138 40.0684 5.76858C40.1852 5.90578 40.3925 5.92333 40.5312 5.80778Z" fill="#51F4FE" fill-opacity="0.23"/>
<path d="M41.9413 7.46392C42.0801 7.34842 42.0978 7.14352 41.981 7.00632C41.8642 6.86912 41.657 6.85157 41.5182 6.96712C41.3795 7.08267 41.3618 7.28752 41.4786 7.42472C41.5954 7.56192 41.8026 7.57947 41.9413 7.46392Z" fill="#51F4FE" fill-opacity="0.23"/>
<path d="M43.3515 9.12004C43.4902 9.00449 43.508 8.79959 43.3911 8.66239C43.2743 8.52519 43.0671 8.50764 42.9284 8.62319C42.7897 8.73874 42.7719 8.94364 42.8887 9.08084C43.0056 9.21804 43.2128 9.23559 43.3515 9.12004Z" fill="#51F4FE" fill-opacity="0.23"/>
<path d="M36.0361 3.89034C36.1749 3.7748 36.1926 3.56991 36.0758 3.43271C35.9589 3.29551 35.7517 3.27796 35.613 3.39351C35.4742 3.50905 35.4565 3.71394 35.5733 3.85114C35.6902 3.98833 35.8974 4.00589 36.0361 3.89034Z" fill="#51F4FE" fill-opacity="0.23"/>
<path d="M37.4462 5.54639C37.585 5.43084 37.6027 5.22599 37.4859 5.08879C37.3691 4.95158 37.1619 4.93402 37.0231 5.04959C36.8844 5.16509 36.8666 5.36999 36.9835 5.50719C37.1003 5.64439 37.3075 5.66194 37.4462 5.54639Z" fill="#51F4FE" fill-opacity="0.23"/>
<path d="M38.8564 7.20256C38.9952 7.08701 39.0129 6.88211 38.8961 6.74491C38.7792 6.60771 38.572 6.59016 38.4333 6.70571C38.2945 6.82126 38.2768 7.02616 38.3936 7.16336C38.5105 7.30056 38.7177 7.31811 38.8564 7.20256Z" fill="#51F4FE" fill-opacity="0.23"/>
<path d="M40.2665 8.85864C40.4053 8.74309 40.423 8.53823 40.3062 8.40103C40.1894 8.26383 39.9822 8.24628 39.8434 8.36183C39.7047 8.47738 39.6869 8.68224 39.8038 8.81944C39.9206 8.95664 40.1278 8.97419 40.2665 8.85864Z" fill="#51F4FE" fill-opacity="0.23"/>
<path d="M41.6777 10.5148C41.8165 10.3993 41.8342 10.1944 41.7174 10.0572C41.6005 9.91996 41.3933 9.90241 41.2546 10.018C41.1158 10.1335 41.0981 10.3384 41.2149 10.4756C41.3318 10.6128 41.539 10.6304 41.6777 10.5148Z" fill="#51F4FE" fill-opacity="0.23"/>
<path d="M43.0878 12.1709C43.2266 12.0554 43.2443 11.8505 43.1275 11.7133C43.0107 11.5761 42.8035 11.5585 42.6647 11.6741C42.526 11.7896 42.5082 11.9945 42.6251 12.1317C42.7419 12.2689 42.9491 12.2864 43.0878 12.1709Z" fill="#51F4FE" fill-opacity="0.23"/>
<path d="M44.498 13.8271C44.6367 13.7115 44.6545 13.5066 44.5376 13.3694C44.4208 13.2322 44.2136 13.2147 44.0749 13.3302C43.9361 13.4458 43.9184 13.6507 44.0352 13.7879C44.152 13.9251 44.3593 13.9426 44.498 13.8271Z" fill="#51F4FE" fill-opacity="0.23"/>
<path d="M34.3613 5.28505C34.5001 5.1695 34.5178 4.96462 34.401 4.82743C34.2841 4.69023 34.0769 4.67268 33.9382 4.78822C33.7994 4.90376 33.7817 5.10865 33.8985 5.24585C34.0154 5.38305 34.2226 5.4006 34.3613 5.28505Z" fill="#51F4FE" fill-opacity="0.23"/>
<path d="M35.7714 6.9412C35.9102 6.82565 35.9279 6.62075 35.8111 6.48355C35.6943 6.34635 35.4871 6.3288 35.3483 6.44435C35.2096 6.5599 35.1918 6.7648 35.3087 6.902C35.4255 7.0392 35.6327 7.05675 35.7714 6.9412Z" fill="#51F4FE" fill-opacity="0.23"/>
<path d="M37.1816 8.59727C37.3204 8.48172 37.3381 8.27682 37.2213 8.13962C37.1044 8.00242 36.8972 7.98487 36.7585 8.10042C36.6197 8.21597 36.602 8.42087 36.7188 8.55807C36.8357 8.69527 37.0429 8.71282 37.1816 8.59727Z" fill="#51F4FE" fill-opacity="0.23"/>
<path d="M38.5917 10.2534C38.7305 10.1379 38.7482 9.93301 38.6314 9.79581C38.5146 9.65861 38.3074 9.64106 38.1686 9.75661C38.0299 9.87211 38.0121 10.077 38.129 10.2142C38.2458 10.3514 38.453 10.369 38.5917 10.2534Z" fill="#51F4FE" fill-opacity="0.23"/>
<path d="M40.0029 11.9095C40.1417 11.794 40.1594 11.5891 40.0426 11.4519C39.9257 11.3147 39.7185 11.2971 39.5798 11.4127C39.441 11.5282 39.4233 11.7331 39.5401 11.8703C39.657 12.0075 39.8642 12.0251 40.0029 11.9095Z" fill="#51F4FE" fill-opacity="0.23"/>
<path d="M41.413 13.5657C41.5518 13.4501 41.5695 13.2453 41.4527 13.1081C41.3359 12.9709 41.1287 12.9533 40.9899 13.0689C40.8512 13.1844 40.8334 13.3893 40.9503 13.5265C41.0671 13.6637 41.2743 13.6812 41.413 13.5657Z" fill="#51F4FE" fill-opacity="0.23"/>
<path d="M42.8232 15.2218C42.962 15.1062 42.9797 14.9013 42.8629 14.7641C42.746 14.6269 42.5388 14.6094 42.4001 14.7249C42.2613 14.8405 42.2436 15.0454 42.3604 15.1826C42.4773 15.3198 42.6845 15.3373 42.8232 15.2218Z" fill="#51F4FE" fill-opacity="0.23"/>
<path d="M44.2333 16.8779C44.3721 16.7624 44.3898 16.5575 44.273 16.4203C44.1562 16.2831 43.949 16.2656 43.8102 16.3811C43.6715 16.4967 43.6537 16.7015 43.7706 16.8387C43.8874 16.9759 44.0946 16.9935 44.2333 16.8779Z" fill="#51F4FE" fill-opacity="0.23"/>
<path d="M32.6865 6.67977C32.8252 6.56422 32.843 6.35932 32.7261 6.22212C32.6093 6.08497 32.4021 6.06737 32.2634 6.18292C32.1246 6.29847 32.1069 6.50337 32.2237 6.64057C32.3406 6.77777 32.5478 6.79532 32.6865 6.67977Z" fill="#51F4FE" fill-opacity="0.23"/>
<path d="M34.0966 8.33592C34.2354 8.22037 34.2531 8.01547 34.1363 7.87827C34.0194 7.74107 33.8123 7.72352 33.6735 7.83907C33.5348 7.95462 33.517 8.15952 33.6339 8.29672C33.7507 8.43387 33.9579 8.45147 34.0966 8.33592Z" fill="#51F4FE" fill-opacity="0.23"/>
<path d="M35.5068 9.99207C35.6456 9.87652 35.6633 9.67167 35.5465 9.53447C35.4296 9.39727 35.2224 9.37972 35.0837 9.49522C34.9449 9.61077 34.9272 9.81567 35.044 9.95287C35.1609 10.0901 35.3681 10.1076 35.5068 9.99207Z" fill="#51F4FE" fill-opacity="0.23"/>
<path d="M36.9179 11.6481C37.0566 11.5326 37.0744 11.3277 36.9575 11.1905C36.8407 11.0533 36.6335 11.0358 36.4948 11.1513C36.3561 11.2668 36.3383 11.4717 36.4552 11.6089C36.572 11.7461 36.7792 11.7637 36.9179 11.6481Z" fill="#51F4FE" fill-opacity="0.23"/>
<path d="M38.3281 13.3043C38.4669 13.1888 38.4846 12.9839 38.3677 12.8467C38.2509 12.7095 38.0437 12.6919 37.905 12.8075C37.7662 12.923 37.7485 13.1279 37.8653 13.2651C37.9822 13.4023 38.1894 13.4199 38.3281 13.3043Z" fill="#51F4FE" fill-opacity="0.23"/>
<path d="M39.7382 14.9604C39.877 14.8448 39.8947 14.64 39.7779 14.5028C39.661 14.3656 39.4539 14.348 39.3151 14.4636C39.1764 14.5791 39.1586 14.784 39.2755 14.9212C39.3923 15.0584 39.5995 15.0759 39.7382 14.9604Z" fill="#51F4FE" fill-opacity="0.23"/>
<path d="M41.1484 16.6166C41.2872 16.501 41.3049 16.2961 41.1881 16.1589C41.0712 16.0217 40.864 16.0042 40.7253 16.1197C40.5865 16.2353 40.5688 16.4402 40.6856 16.5774C40.8025 16.7146 41.0097 16.7321 41.1484 16.6166Z" fill="#51F4FE" fill-opacity="0.23"/>
<path d="M42.5585 18.2726C42.6973 18.1571 42.715 17.9522 42.5982 17.815C42.4814 17.6778 42.2742 17.6603 42.1354 17.7758C41.9967 17.8914 41.9789 18.0962 42.0958 18.2334C42.2126 18.3706 42.4198 18.3882 42.5585 18.2726Z" fill="#51F4FE" fill-opacity="0.23"/>
<path d="M43.9697 19.9288C44.1085 19.8133 44.1262 19.6084 44.0094 19.4712C43.8925 19.334 43.6853 19.3164 43.5466 19.432C43.4078 19.5475 43.3901 19.7524 43.5069 19.8896C43.6238 20.0268 43.831 20.0444 43.9697 19.9288Z" fill="#51F4FE" fill-opacity="0.23"/>
<path d="M31.0117 8.07457C31.1504 7.95902 31.1682 7.75412 31.0513 7.61692C30.9345 7.47972 30.7273 7.46217 30.5886 7.57772C30.4498 7.69327 30.4321 7.89817 30.5489 8.03537C30.6658 8.17257 30.873 8.19012 31.0117 8.07457Z" fill="#51F4FE" fill-opacity="0.23"/>
<path d="M32.4218 9.73069C32.5606 9.61514 32.5783 9.41024 32.4614 9.27304C32.3446 9.13584 32.1374 9.11829 31.9987 9.23384C31.86 9.34939 31.8422 9.55424 31.9591 9.69144C32.0759 9.82864 32.2831 9.84619 32.4218 9.73069Z" fill="#51F4FE" fill-opacity="0.23"/>
<path d="M33.832 11.3868C33.9708 11.2713 33.9885 11.0664 33.8717 10.9292C33.7548 10.792 33.5476 10.7744 33.4089 10.89C33.2701 11.0055 33.2524 11.2104 33.3692 11.3476C33.4861 11.4848 33.6933 11.5024 33.832 11.3868Z" fill="#51F4FE" fill-opacity="0.23"/>
<path d="M35.2431 13.0429C35.3818 12.9274 35.3996 12.7225 35.2827 12.5853C35.1659 12.4481 34.9587 12.4305 34.82 12.5461C34.6813 12.6616 34.6635 12.8665 34.7804 13.0037C34.8972 13.1409 35.1044 13.1585 35.2431 13.0429Z" fill="#51F4FE" fill-opacity="0.23"/>
<path d="M36.6533 14.6991C36.792 14.5835 36.8098 14.3786 36.6929 14.2414C36.5761 14.1042 36.3689 14.0867 36.2302 14.2022C36.0914 14.3178 36.0737 14.5227 36.1905 14.6598C36.3074 14.797 36.5146 14.8146 36.6533 14.6991Z" fill="#51F4FE" fill-opacity="0.23"/>
<path d="M38.0634 16.3552C38.2022 16.2396 38.2199 16.0348 38.1031 15.8976C37.9862 15.7604 37.7791 15.7428 37.6403 15.8583C37.5016 15.9739 37.4838 16.1788 37.6007 16.316C37.7175 16.4532 37.9247 16.4707 38.0634 16.3552Z" fill="#51F4FE" fill-opacity="0.23"/>
<path d="M39.4736 18.0113C39.6124 17.8957 39.6301 17.6908 39.5133 17.5536C39.3964 17.4164 39.1892 17.3989 39.0505 17.5144C38.9117 17.63 38.894 17.8349 39.0108 17.9721C39.1277 18.1093 39.3349 18.1268 39.4736 18.0113Z" fill="#51F4FE" fill-opacity="0.23"/>
<path d="M40.8847 19.6674C41.0234 19.5519 41.0412 19.347 40.9243 19.2098C40.8075 19.0726 40.6003 19.0551 40.4616 19.1706C40.3229 19.2861 40.3051 19.491 40.422 19.6282C40.5388 19.7654 40.746 19.783 40.8847 19.6674Z" fill="#51F4FE" fill-opacity="0.23"/>
<path d="M42.2949 21.3235C42.4336 21.208 42.4514 21.0031 42.3345 20.8659C42.2177 20.7287 42.0105 20.7111 41.8718 20.8267C41.733 20.9422 41.7153 21.1471 41.8321 21.2843C41.949 21.4215 42.1562 21.4391 42.2949 21.3235Z" fill="#51F4FE" fill-opacity="0.23"/>
<path d="M43.705 22.9797C43.8438 22.8642 43.8615 22.6593 43.7447 22.5221C43.6278 22.3849 43.4207 22.3673 43.2819 22.4829C43.1432 22.5984 43.1254 22.8033 43.2423 22.9405C43.3591 23.0777 43.5663 23.0952 43.705 22.9797Z" fill="#51F4FE" fill-opacity="0.23"/>
</g>
</g>
<path d="M38.9331 1H6.0679C3.27545 1 1.01172 3.23858 1.01172 6V25C1.01172 27.7614 3.27545 30 6.0679 30H38.9331C41.7255 30 43.9892 27.7614 43.9892 25V6C43.9892 3.23858 41.7255 1 38.9331 1Z" stroke="#51F4FE" stroke-width="3" stroke-linecap="round"/>
</g>
<defs>
<clipPath id="clip0_1165_7485">
<rect width="45" height="31" fill="white"/>
</clipPath>
</defs>
</svg>
