<svg width="89" height="62" viewBox="0 0 89 62" fill="none" xmlns="http://www.w3.org/2000/svg">
<g clip-path="url(#clip0_832_4675)">
<rect x="2" y="2" width="85" height="58" rx="10" fill="#FE7B51" fill-opacity="0.1"/>
<path d="M28.9605 21.2056C28.9605 22.5938 27.8365 23.7191 26.45 23.7191C25.0635 23.7191 23.9395 22.5938 23.9395 21.2056C23.9395 19.8174 25.0635 18.6921 26.45 18.6921C27.8365 18.6921 28.9605 19.8174 28.9605 21.2056Z" fill="#FE7B51"/>
<path d="M24.7763 35.0299C23.5211 33.4939 21.5963 29.4164 23.9395 25.3948L27.2868 25.8137C26.7289 27.4894 26.1989 31.4272 28.5421 33.7732C27.2868 32.9353 25.1947 33.3543 24.7763 35.0299Z" fill="#FE7B51"/>
<path d="M66.7025 21.2056C66.7025 22.5938 65.5785 23.7191 64.1919 23.7191C62.8054 23.7191 61.6814 22.5938 61.6814 21.2056C61.6814 19.8174 62.8054 18.6921 64.1919 18.6921C65.5785 18.6921 66.7025 19.8174 66.7025 21.2056Z" fill="#FE7B51"/>
<path d="M62.5182 35.0299C61.263 33.4939 59.3382 29.4164 61.6814 25.3948L65.0288 25.8137C64.4709 27.4894 63.9409 31.4272 66.284 33.7732C65.0288 32.9353 62.9367 33.3543 62.5182 35.0299Z" fill="#FE7B51"/>
<path d="M40.5929 18.4775C40.5929 20.0339 41.9152 21.2956 43.5464 21.2956C45.1776 21.2956 46.5 20.0339 46.5 18.4775C46.5 16.921 45.1776 15.6593 43.5464 15.6593C41.9152 15.6593 40.5929 16.921 40.5929 18.4775Z" fill="#FE7B51"/>
<path d="M45.5032 33.6589C46.98 31.9367 49.2444 27.365 46.4877 22.8559L42.5496 23.3256C43.206 25.2044 43.8295 29.6195 41.0729 32.2498C42.5496 31.3104 45.0109 31.7801 45.5032 33.6589Z" fill="#FE7B51"/>
<path d="M18.9184 46.3407L24.3579 40.8948L24.7763 35.0299M24.7763 35.0299C23.5211 33.4939 21.5963 29.4164 23.9395 25.3948M24.7763 35.0299C25.1947 33.3543 27.2868 32.9353 28.5421 33.7732M23.9395 25.3948L27.2868 25.8137M23.9395 25.3948C22.1263 24.9759 18.5 23.8029 18.5 22.4624C18.5 21.1218 20.1737 19.6696 21.0105 19.111M27.2868 25.8137C26.7289 27.4894 26.1989 31.4272 28.5421 33.7732M27.2868 25.8137C28.2632 26.2326 30.5505 26.9867 31.8895 26.6516C33.2284 26.3164 32.7263 23.1606 32.3079 21.6245M28.5421 33.7732L31.0526 39.638V46.3407M56.6604 46.3407L62.0998 40.8948L62.5182 35.0299M62.5182 35.0299C61.263 33.4939 59.3382 29.4164 61.6814 25.3948M62.5182 35.0299C62.9367 33.3543 65.0288 32.9353 66.284 33.7732M61.6814 25.3948L65.0288 25.8137M61.6814 25.3948C59.8682 24.9759 56.2419 23.8029 56.2419 22.4624C56.2419 21.1218 57.9156 19.6696 58.7525 19.111M65.0288 25.8137C64.4709 27.4894 63.9409 31.4272 66.284 33.7732M65.0288 25.8137C66.0051 26.2326 68.2925 26.9867 69.6314 26.6516C70.9704 26.3164 70.4682 23.1606 70.0498 21.6245M66.284 33.7732L68.7946 39.638V46.3407M52.3948 46.3407L45.9955 40.2347L45.5032 33.6589M45.5032 33.6589C46.98 31.9367 49.2444 27.365 46.4877 22.8559M45.5032 33.6589C45.0109 31.7801 42.5496 31.3104 41.0729 32.2498M46.4877 22.8559L42.5496 23.3256M46.4877 22.8559C48.6208 22.3862 52.8871 21.071 52.8871 19.568C52.8871 18.065 50.9181 16.4367 49.9335 15.8104M42.5496 23.3256C43.206 25.2044 43.8295 29.6195 41.0729 32.2498M42.5496 23.3256C41.401 23.7953 38.71 24.6407 37.1348 24.265C35.5595 23.8892 36.1503 20.3508 36.6425 18.6286M41.0729 32.2498L38.1193 38.8256V46.3407M28.9605 21.2056C28.9605 22.5938 27.8365 23.7191 26.45 23.7191C25.0635 23.7191 23.9395 22.5938 23.9395 21.2056C23.9395 19.8174 25.0635 18.6921 26.45 18.6921C27.8365 18.6921 28.9605 19.8174 28.9605 21.2056ZM66.7025 21.2056C66.7025 22.5938 65.5785 23.7191 64.1919 23.7191C62.8054 23.7191 61.6814 22.5938 61.6814 21.2056C61.6814 19.8174 62.8054 18.6921 64.1919 18.6921C65.5785 18.6921 66.7025 19.8174 66.7025 21.2056ZM40.5929 18.4775C40.5929 20.0339 41.9152 21.2956 43.5464 21.2956C45.1776 21.2956 46.5 20.0339 46.5 18.4775C46.5 16.921 45.1776 15.6593 43.5464 15.6593C41.9152 15.6593 40.5929 16.921 40.5929 18.4775Z" stroke="#FE7B51" stroke-width="2" stroke-linecap="round"/>
<g clip-path="url(#clip1_832_4675)">
<path d="M1.57573 9.34884C1.85013 9.11775 1.88523 8.70797 1.65414 8.43357C1.42305 8.15918 1.01328 8.12407 0.738881 8.35516C0.464486 8.58625 0.42938 8.99603 0.660469 9.27042C0.891559 9.54482 1.30134 9.57993 1.57573 9.34884Z" fill="#FE7B51" fill-opacity="0.23"/>
<path d="M4.36522 12.6611C4.63962 12.43 4.67472 12.0202 4.44363 11.7458C4.21254 11.4714 3.80277 11.4363 3.52837 11.6674C3.25398 11.8985 3.21887 12.3083 3.44996 12.5827C3.68105 12.8571 4.09083 12.8922 4.36522 12.6611Z" fill="#FE7B51" fill-opacity="0.23"/>
<path d="M7.15471 15.9733C7.42911 15.7422 7.46421 15.3325 7.23312 15.0581C7.00203 14.7837 6.59226 14.7486 6.31786 14.9797C6.04347 15.2107 6.00836 15.6205 6.23945 15.8949C6.47054 16.1693 6.88032 16.2044 7.15471 15.9733Z" fill="#FE7B51" fill-opacity="0.23"/>
<path d="M9.9442 19.2856C10.2186 19.0545 10.2537 18.6447 10.0226 18.3703C9.79152 18.0959 9.38175 18.0608 9.10735 18.2919C8.83295 18.523 8.79785 18.9328 9.02894 19.2072C9.26003 19.4816 9.66981 19.5167 9.9442 19.2856Z" fill="#FE7B51" fill-opacity="0.23"/>
<path d="M12.7337 22.5978C13.0081 22.3667 13.0432 21.957 12.8121 21.6826C12.581 21.4082 12.1712 21.3731 11.8968 21.6042C11.6224 21.8352 11.5873 22.245 11.8184 22.5194C12.0495 22.7938 12.4593 22.8289 12.7337 22.5978Z" fill="#FE7B51" fill-opacity="0.23"/>
<path d="M15.5232 25.9101C15.7976 25.679 15.8327 25.2692 15.6017 24.9948C15.3706 24.7204 14.9608 24.6853 14.6864 24.9164C14.412 25.1475 14.3769 25.5573 14.608 25.8317C14.8391 26.1061 15.2488 26.1412 15.5232 25.9101Z" fill="#FE7B51" fill-opacity="0.23"/>
<path d="M18.3127 29.2223C18.5871 28.9912 18.6222 28.5815 18.3911 28.3071C18.1601 28.0327 17.7503 27.9976 17.4759 28.2287C17.2015 28.4597 17.1664 28.8695 17.3975 29.1439C17.6286 29.4183 18.0383 29.4534 18.3127 29.2223Z" fill="#FE7B51" fill-opacity="0.23"/>
<path d="M21.1022 32.5346C21.3766 32.3035 21.4117 31.8937 21.1806 31.6193C20.9495 31.3449 20.5398 31.3098 20.2654 31.5409C19.991 31.772 19.9559 32.1818 20.187 32.4562C20.418 32.7305 20.8278 32.7657 21.1022 32.5346Z" fill="#FE7B51" fill-opacity="0.23"/>
<path d="M23.8917 35.8468C24.1661 35.6157 24.2012 35.2059 23.9701 34.9315C23.739 34.6571 23.3293 34.622 23.0549 34.8531C22.7805 35.0842 22.7454 35.494 22.9764 35.7684C23.2075 36.0428 23.6173 36.0779 23.8917 35.8468Z" fill="#FE7B51" fill-opacity="0.23"/>
<path d="M26.6812 39.159C26.9556 38.928 26.9907 38.5182 26.7596 38.2438C26.5285 37.9694 26.1187 37.9343 25.8443 38.1654C25.57 38.3965 25.5348 38.8062 25.7659 39.0806C25.997 39.355 26.4068 39.3901 26.6812 39.159Z" fill="#FE7B51" fill-opacity="0.23"/>
<path d="M29.4707 42.4713C29.7451 42.2402 29.7802 41.8304 29.5491 41.556C29.318 41.2816 28.9082 41.2465 28.6338 41.4776C28.3594 41.7087 28.3243 42.1185 28.5554 42.3929C28.7865 42.6673 29.1963 42.7024 29.4707 42.4713Z" fill="#FE7B51" fill-opacity="0.23"/>
<path d="M32.2602 45.7836C32.5346 45.5525 32.5697 45.1427 32.3387 44.8683C32.1076 44.5939 31.6978 44.5588 31.4234 44.7899C31.149 45.021 31.1139 45.4308 31.345 45.7051C31.5761 45.9795 31.9858 46.0146 32.2602 45.7836Z" fill="#FE7B51" fill-opacity="0.23"/>
<path d="M3.84246 18.7628C4.11685 18.5317 4.15196 18.122 3.92087 17.8476C3.68978 17.5732 3.28 17.5381 3.0056 17.7692C2.73121 18.0003 2.6961 18.41 2.92719 18.6844C3.15828 18.9588 3.56806 18.9939 3.84246 18.7628Z" fill="#FE7B51" fill-opacity="0.23"/>
<path d="M6.63194 22.0751C6.90634 21.844 6.94145 21.4342 6.71036 21.1598C6.47927 20.8854 6.06949 20.8503 5.79509 21.0814C5.5207 21.3125 5.48559 21.7223 5.71668 21.9967C5.94777 22.2711 6.35755 22.3062 6.63194 22.0751Z" fill="#FE7B51" fill-opacity="0.23"/>
<path d="M9.4215 25.3873C9.69589 25.1562 9.731 24.7465 9.49991 24.4721C9.26882 24.1977 8.85904 24.1626 8.58465 24.3937C8.31025 24.6247 8.27514 25.0345 8.50623 25.3089C8.73732 25.5833 9.1471 25.6184 9.4215 25.3873Z" fill="#FE7B51" fill-opacity="0.23"/>
<path d="M12.211 28.6996C12.4854 28.4685 12.5205 28.0587 12.2894 27.7843C12.0583 27.5099 11.6485 27.4748 11.3741 27.7059C11.0997 27.937 11.0646 28.3468 11.2957 28.6212C11.5268 28.8956 11.9366 28.9307 12.211 28.6996Z" fill="#FE7B51" fill-opacity="0.23"/>
<path d="M15.0005 32.0118C15.2749 31.7807 15.31 31.3709 15.0789 31.0966C14.8478 30.8222 14.438 30.7871 14.1636 31.0181C13.8892 31.2492 13.8541 31.659 14.0852 31.9334C14.3163 32.2078 14.7261 32.2429 15.0005 32.0118Z" fill="#FE7B51" fill-opacity="0.23"/>
<path d="M17.79 35.3241C18.0644 35.093 18.0995 34.6832 17.8684 34.4088C17.6373 34.1344 17.2275 34.0993 16.9531 34.3304C16.6787 34.5615 16.6436 34.9713 16.8747 35.2457C17.1058 35.5201 17.5156 35.5552 17.79 35.3241Z" fill="#FE7B51" fill-opacity="0.23"/>
<path d="M20.5795 38.6363C20.8539 38.4052 20.889 37.9954 20.6579 37.721C20.4268 37.4467 20.017 37.4115 19.7426 37.6426C19.4682 37.8737 19.4331 38.2835 19.6642 38.5579C19.8953 38.8323 20.3051 38.8674 20.5795 38.6363Z" fill="#FE7B51" fill-opacity="0.23"/>
<path d="M23.3689 41.9486C23.6433 41.7175 23.6784 41.3077 23.4474 41.0333C23.2163 40.7589 22.8065 40.7238 22.5321 40.9549C22.2577 41.186 22.2226 41.5957 22.4537 41.8701C22.6848 42.1445 23.0945 42.1796 23.3689 41.9486Z" fill="#FE7B51" fill-opacity="0.23"/>
<path d="M26.1585 45.2608C26.4329 45.0297 26.468 44.6199 26.2369 44.3455C26.0058 44.0712 25.596 44.036 25.3216 44.2671C25.0472 44.4982 25.0121 44.908 25.2432 45.1824C25.4743 45.4568 25.8841 45.4919 26.1585 45.2608Z" fill="#FE7B51" fill-opacity="0.23"/>
<path d="M28.948 48.5731C29.2224 48.342 29.2575 47.9322 29.0264 47.6578C28.7953 47.3834 28.3855 47.3483 28.1111 47.5794C27.8367 47.8105 27.8016 48.2203 28.0327 48.4947C28.2638 48.769 28.6736 48.8042 28.948 48.5731Z" fill="#FE7B51" fill-opacity="0.23"/>
<path d="M3.31969 24.8646C3.59408 24.6335 3.62919 24.2237 3.3981 23.9493C3.16701 23.6749 2.75723 23.6398 2.48284 23.8709C2.20844 24.102 2.17334 24.5118 2.40443 24.7862C2.63552 25.0606 3.04529 25.0957 3.31969 24.8646Z" fill="#FE7B51" fill-opacity="0.23"/>
<path d="M6.10924 28.1768C6.38364 27.9457 6.41874 27.536 6.18765 27.2616C5.95656 26.9872 5.54678 26.9521 5.27239 27.1831C4.99799 27.4142 4.96289 27.824 5.19398 28.0984C5.42507 28.3728 5.83484 28.4079 6.10924 28.1768Z" fill="#FE7B51" fill-opacity="0.23"/>
<path d="M8.89873 31.4891C9.17312 31.258 9.20823 30.8482 8.97714 30.5738C8.74605 30.2994 8.33627 30.2643 8.06188 30.4954C7.78748 30.7265 7.75238 31.1363 7.98347 31.4107C8.21456 31.6851 8.62433 31.7202 8.89873 31.4891Z" fill="#FE7B51" fill-opacity="0.23"/>
<path d="M11.6882 34.8013C11.9626 34.5702 11.9977 34.1605 11.7666 33.8861C11.5355 33.6117 11.1258 33.5766 10.8514 33.8076C10.577 34.0387 10.5419 34.4485 10.773 34.7229C11.004 34.9973 11.4138 35.0324 11.6882 34.8013Z" fill="#FE7B51" fill-opacity="0.23"/>
<path d="M14.4777 38.1136C14.7521 37.8825 14.7872 37.4727 14.5561 37.1983C14.325 36.9239 13.9153 36.8888 13.6409 37.1199C13.3665 37.351 13.3314 37.7608 13.5624 38.0352C13.7935 38.3096 14.2033 38.3447 14.4777 38.1136Z" fill="#FE7B51" fill-opacity="0.23"/>
<path d="M17.2672 41.4258C17.5416 41.1947 17.5767 40.785 17.3456 40.5106C17.1145 40.2362 16.7047 40.2011 16.4303 40.4321C16.156 40.6632 16.1208 41.073 16.3519 41.3474C16.583 41.6218 16.9928 41.6569 17.2672 41.4258Z" fill="#FE7B51" fill-opacity="0.23"/>
<path d="M20.0567 44.7381C20.3311 44.507 20.3663 44.0972 20.1352 43.8228C19.9041 43.5484 19.4943 43.5133 19.2199 43.7444C18.9455 43.9755 18.9104 44.3852 19.1415 44.6596C19.3726 44.934 19.7824 44.9691 20.0567 44.7381Z" fill="#FE7B51" fill-opacity="0.23"/>
<path d="M22.8462 48.0503C23.1206 47.8192 23.1557 47.4094 22.9247 47.135C22.6936 46.8606 22.2838 46.8255 22.0094 47.0566C21.735 47.2877 21.6999 47.6975 21.931 47.9719C22.1621 48.2463 22.5718 48.2814 22.8462 48.0503Z" fill="#FE7B51" fill-opacity="0.23"/>
<path d="M25.6357 51.3626C25.9101 51.1315 25.9452 50.7217 25.7141 50.4473C25.4831 50.1729 25.0733 50.1378 24.7989 50.3689C24.5245 50.6 24.4894 51.0097 24.7205 51.2841C24.9516 51.5585 25.3613 51.5936 25.6357 51.3626Z" fill="#FE7B51" fill-opacity="0.23"/>
<path d="M2.79698 30.9663C3.07138 30.7352 3.10649 30.3255 2.8754 30.0511C2.64431 29.7767 2.23453 29.7416 1.96013 29.9727C1.68574 30.2037 1.65063 30.6135 1.88172 30.8879C2.11281 31.1623 2.52259 31.1974 2.79698 30.9663Z" fill="#FE7B51" fill-opacity="0.23"/>
<path d="M5.58647 34.2786C5.86087 34.0475 5.89598 33.6377 5.66489 33.3633C5.4338 33.0889 5.02402 33.0538 4.74962 33.2849C4.47523 33.516 4.44012 33.9258 4.67121 34.2002C4.9023 34.4746 5.31208 34.5097 5.58647 34.2786Z" fill="#FE7B51" fill-opacity="0.23"/>
<path d="M8.37596 37.5908C8.65036 37.3597 8.68546 36.95 8.45437 36.6756C8.22329 36.4012 7.81351 36.3661 7.53911 36.5972C7.26472 36.8282 7.22961 37.238 7.4607 37.5124C7.69179 37.7868 8.10157 37.8219 8.37596 37.5908Z" fill="#FE7B51" fill-opacity="0.23"/>
<path d="M11.1655 40.9031C11.4398 40.672 11.475 40.2622 11.2439 39.9878C11.0128 39.7134 10.603 39.6783 10.3286 39.9094C10.0542 40.1405 10.0191 40.5503 10.2502 40.8247C10.4813 41.099 10.8911 41.1342 11.1655 40.9031Z" fill="#FE7B51" fill-opacity="0.23"/>
<path d="M13.955 44.2153C14.2294 43.9842 14.2645 43.5744 14.0334 43.3C13.8023 43.0256 13.3925 42.9905 13.1182 43.2216C12.8438 43.4527 12.8087 43.8625 13.0397 44.1369C13.2708 44.4113 13.6806 44.4464 13.955 44.2153Z" fill="#FE7B51" fill-opacity="0.23"/>
<path d="M16.7445 47.5276C17.0189 47.2965 17.054 46.8867 16.8229 46.6123C16.5918 46.3379 16.182 46.3028 15.9076 46.5339C15.6332 46.765 15.5981 47.1748 15.8292 47.4492C16.0603 47.7235 16.4701 47.7587 16.7445 47.5276Z" fill="#FE7B51" fill-opacity="0.23"/>
<path d="M19.534 50.8398C19.8084 50.6087 19.8435 50.1989 19.6124 49.9245C19.3813 49.6501 18.9715 49.615 18.6971 49.8461C18.4227 50.0772 18.3876 50.487 18.6187 50.7614C18.8498 51.0358 19.2596 51.0709 19.534 50.8398Z" fill="#FE7B51" fill-opacity="0.23"/>
<path d="M22.3235 54.1521C22.5979 53.921 22.633 53.5112 22.4019 53.2368C22.1708 52.9624 21.761 52.9273 21.4866 53.1584C21.2122 53.3895 21.1771 53.7993 21.4082 54.0736C21.6393 54.348 22.0491 54.3831 22.3235 54.1521Z" fill="#FE7B51" fill-opacity="0.23"/>
<path d="M2.27422 37.0681C2.54861 36.837 2.58372 36.4272 2.35263 36.1528C2.12154 35.8784 1.71176 35.8433 1.43737 36.0744C1.16297 36.3055 1.12787 36.7153 1.35896 36.9897C1.59005 37.2641 1.99982 37.2992 2.27422 37.0681Z" fill="#FE7B51" fill-opacity="0.23"/>
<path d="M5.06371 40.3803C5.3381 40.1492 5.37321 39.7395 5.14212 39.4651C4.91103 39.1907 4.50125 39.1556 4.22686 39.3867C3.95246 39.6177 3.91736 40.0275 4.14845 40.3019C4.37954 40.5763 4.78931 40.6114 5.06371 40.3803Z" fill="#FE7B51" fill-opacity="0.23"/>
<path d="M7.85326 43.6926C8.12765 43.4615 8.16276 43.0517 7.93167 42.7773C7.70058 42.5029 7.2908 42.4678 7.01641 42.6989C6.74201 42.93 6.70691 43.3398 6.938 43.6142C7.16909 43.8886 7.57886 43.9237 7.85326 43.6926Z" fill="#FE7B51" fill-opacity="0.23"/>
<path d="M10.6427 47.0048C10.9171 46.7737 10.9522 46.3639 10.7212 46.0895C10.4901 45.8152 10.0803 45.78 9.8059 46.0111C9.5315 46.2422 9.4964 46.652 9.72749 46.9264C9.95858 47.2008 10.3684 47.2359 10.6427 47.0048Z" fill="#FE7B51" fill-opacity="0.23"/>
<path d="M13.4322 50.3171C13.7066 50.086 13.7417 49.6762 13.5106 49.4018C13.2796 49.1274 12.8698 49.0923 12.5954 49.3234C12.321 49.5545 12.2859 49.9642 12.517 50.2386C12.7481 50.513 13.1578 50.5481 13.4322 50.3171Z" fill="#FE7B51" fill-opacity="0.23"/>
<path d="M16.2217 53.6293C16.4961 53.3982 16.5312 52.9884 16.3001 52.714C16.069 52.4397 15.6593 52.4045 15.3849 52.6356C15.1105 52.8667 15.0754 53.2765 15.3065 53.5509C15.5376 53.8253 15.9473 53.8604 16.2217 53.6293Z" fill="#FE7B51" fill-opacity="0.23"/>
<path d="M19.0112 56.9416C19.2856 56.7105 19.3207 56.3007 19.0896 56.0263C18.8585 55.7519 18.4488 55.7168 18.1744 55.9479C17.9 56.179 17.8649 56.5888 18.096 56.8632C18.327 57.1375 18.7368 57.1727 19.0112 56.9416Z" fill="#FE7B51" fill-opacity="0.23"/>
<path d="M1.75151 43.1698C2.02591 42.9387 2.06101 42.529 1.82992 42.2546C1.59883 41.9802 1.18906 41.9451 0.914662 42.1761C0.640267 42.4072 0.605161 42.817 0.836251 43.0914C1.06734 43.3658 1.47712 43.4009 1.75151 43.1698Z" fill="#FE7B51" fill-opacity="0.23"/>
<path d="M4.541 46.4821C4.8154 46.251 4.8505 45.8412 4.61941 45.5668C4.38832 45.2924 3.97855 45.2573 3.70415 45.4884C3.42976 45.7195 3.39465 46.1293 3.62574 46.4037C3.85683 46.6781 4.26661 46.7132 4.541 46.4821Z" fill="#FE7B51" fill-opacity="0.23"/>
<path d="M7.33049 49.7943C7.60489 49.5632 7.63999 49.1535 7.4089 48.8791C7.17781 48.6047 6.76804 48.5696 6.49364 48.8006C6.21925 49.0317 6.18414 49.4415 6.41523 49.7159C6.64632 49.9903 7.0561 50.0254 7.33049 49.7943Z" fill="#FE7B51" fill-opacity="0.23"/>
<path d="M10.12 53.1066C10.3944 52.8755 10.4295 52.4657 10.1984 52.1913C9.9673 51.9169 9.55753 51.8818 9.28313 52.1129C9.00874 52.344 8.97363 52.7537 9.20472 53.0281C9.43581 53.3025 9.84559 53.3376 10.12 53.1066Z" fill="#FE7B51" fill-opacity="0.23"/>
<path d="M12.9095 56.4188C13.1839 56.1877 13.219 55.7779 12.9879 55.5036C12.7568 55.2292 12.347 55.194 12.0726 55.4251C11.7982 55.6562 11.7631 56.066 11.9942 56.3404C12.2253 56.6148 12.6351 56.6499 12.9095 56.4188Z" fill="#FE7B51" fill-opacity="0.23"/>
<path d="M15.699 59.7311C15.9734 59.5 16.0085 59.0902 15.7774 58.8158C15.5463 58.5414 15.1366 58.5063 14.8622 58.7374C14.5878 58.9685 14.5527 59.3783 14.7838 59.6527C15.0149 59.9271 15.4246 59.9622 15.699 59.7311Z" fill="#FE7B51" fill-opacity="0.23"/>
<path d="M4.01824 52.5838C4.29263 52.3527 4.32774 51.9429 4.09665 51.6685C3.86556 51.3941 3.45578 51.359 3.18139 51.5901C2.90699 51.8212 2.87188 52.231 3.10297 52.5054C3.33406 52.7798 3.74384 52.8149 4.01824 52.5838Z" fill="#FE7B51" fill-opacity="0.23"/>
<path d="M6.80773 55.8961C7.08212 55.665 7.11723 55.2552 6.88614 54.9808C6.65505 54.7064 6.24527 54.6713 5.97088 54.9024C5.69648 55.1335 5.66137 55.5433 5.89246 55.8177C6.12355 56.092 6.53333 56.1272 6.80773 55.8961Z" fill="#FE7B51" fill-opacity="0.23"/>
<path d="M9.59722 59.2083C9.87161 58.9772 9.90672 58.5674 9.67563 58.293C9.44454 58.0186 9.03476 57.9835 8.76037 58.2146C8.48597 58.4457 8.45086 58.8555 8.68195 59.1299C8.91304 59.4043 9.32282 59.4394 9.59722 59.2083Z" fill="#FE7B51" fill-opacity="0.23"/>
</g>
<g clip-path="url(#clip2_832_4675)">
<path d="M83.9967 2.72434C84.2711 2.49325 84.3062 2.08347 84.0751 1.80908C83.844 1.53468 83.4342 1.49958 83.1598 1.73067C82.8854 1.96176 82.8503 2.37153 83.0814 2.64593C83.3125 2.92032 83.7223 2.95543 83.9967 2.72434Z" fill="#FE7B51" fill-opacity="0.23"/>
<path d="M86.7862 6.0366C87.0606 5.80551 87.0957 5.39573 86.8646 5.12133C86.6335 4.84694 86.2237 4.81183 85.9493 5.04292C85.6749 5.27401 85.6398 5.68379 85.8709 5.95818C86.102 6.23258 86.5118 6.26769 86.7862 6.0366Z" fill="#FE7B51" fill-opacity="0.23"/>
<path d="M77.8949 2.2016C78.1693 1.97051 78.2044 1.56074 77.9734 1.28634C77.7423 1.01195 77.3325 0.97684 77.0581 1.20793C76.7837 1.43902 76.7486 1.8488 76.9797 2.12319C77.2108 2.39759 77.6206 2.43269 77.8949 2.2016Z" fill="#FE7B51" fill-opacity="0.23"/>
<path d="M80.6844 5.51384C80.9588 5.28275 80.9939 4.87298 80.7628 4.59858C80.5318 4.32419 80.122 4.28908 79.8476 4.52017C79.5732 4.75126 79.5381 5.16104 79.7692 5.43543C80.0003 5.70983 80.41 5.74493 80.6844 5.51384Z" fill="#FE7B51" fill-opacity="0.23"/>
<path d="M83.474 8.8261C83.7484 8.59501 83.7835 8.18523 83.5524 7.91084C83.3213 7.63644 82.9115 7.60134 82.6371 7.83243C82.3627 8.06352 82.3276 8.47329 82.5587 8.74769C82.7898 9.02208 83.1996 9.05719 83.474 8.8261Z" fill="#FE7B51" fill-opacity="0.23"/>
<path d="M86.2635 12.1383C86.5379 11.9073 86.573 11.4975 86.3419 11.2231C86.1108 10.9487 85.701 10.9136 85.4266 11.1447C85.1522 11.3758 85.1171 11.7855 85.3482 12.0599C85.5793 12.3343 85.9891 12.3694 86.2635 12.1383Z" fill="#FE7B51" fill-opacity="0.23"/>
<path d="M74.5827 4.99109C74.8571 4.76 74.8922 4.35023 74.6611 4.07583C74.43 3.80144 74.0202 3.76633 73.7458 3.99742C73.4714 4.22851 73.4363 4.63829 73.6674 4.91268C73.8985 5.18708 74.3083 5.22218 74.5827 4.99109Z" fill="#FE7B51" fill-opacity="0.23"/>
<path d="M77.3722 8.30335C77.6466 8.07226 77.6817 7.66248 77.4507 7.38809C77.2196 7.11369 76.8098 7.07859 76.5354 7.30968C76.261 7.54077 76.2259 7.95054 76.457 8.22494C76.6881 8.49933 77.0978 8.53444 77.3722 8.30335Z" fill="#FE7B51" fill-opacity="0.23"/>
<path d="M80.1617 11.6156C80.4361 11.3845 80.4712 10.9747 80.2401 10.7003C80.0091 10.4259 79.5993 10.3908 79.3249 10.6219C79.0505 10.853 79.0154 11.2628 79.2465 11.5372C79.4776 11.8116 79.8873 11.8467 80.1617 11.6156Z" fill="#FE7B51" fill-opacity="0.23"/>
<path d="M82.9512 14.9278C83.2256 14.6968 83.2607 14.287 83.0296 14.0126C82.7985 13.7382 82.3888 13.7031 82.1144 13.9342C81.84 14.1653 81.8049 14.575 82.036 14.8494C82.267 15.1238 82.6768 15.1589 82.9512 14.9278Z" fill="#FE7B51" fill-opacity="0.23"/>
<path d="M85.7407 18.2401C86.0151 18.009 86.0502 17.5992 85.8191 17.3248C85.588 17.0504 85.1783 17.0153 84.9039 17.2464C84.6295 17.4775 84.5944 17.8873 84.8254 18.1617C85.0565 18.4361 85.4663 18.4712 85.7407 18.2401Z" fill="#FE7B51" fill-opacity="0.23"/>
<path d="M71.2705 7.7806C71.5449 7.54951 71.58 7.13973 71.3489 6.86534C71.1178 6.59094 70.708 6.55584 70.4336 6.78692C70.1592 7.01801 70.1241 7.42779 70.3552 7.70219C70.5863 7.97658 70.9961 8.01169 71.2705 7.7806Z" fill="#FE7B51" fill-opacity="0.23"/>
<path d="M74.06 11.0929C74.3344 10.8618 74.3695 10.452 74.1384 10.1776C73.9073 9.9032 73.4975 9.86809 73.2231 10.0992C72.9487 10.3303 72.9136 10.74 73.1447 11.0144C73.3758 11.2888 73.7856 11.3239 74.06 11.0929Z" fill="#FE7B51" fill-opacity="0.23"/>
<path d="M76.8495 14.4051C77.1239 14.174 77.159 13.7642 76.9279 13.4898C76.6968 13.2154 76.287 13.1803 76.0126 13.4114C75.7382 13.6425 75.7031 14.0523 75.9342 14.3267C76.1653 14.6011 76.5751 14.6362 76.8495 14.4051Z" fill="#FE7B51" fill-opacity="0.23"/>
<path d="M79.639 17.7173C79.9134 17.4862 79.9485 17.0765 79.7174 16.8021C79.4863 16.5277 79.0765 16.4926 78.8021 16.7237C78.5277 16.9548 78.4926 17.3645 78.7237 17.6389C78.9548 17.9133 79.3646 17.9484 79.639 17.7173Z" fill="#FE7B51" fill-opacity="0.23"/>
<path d="M82.4285 21.0296C82.7028 20.7985 82.738 20.3887 82.5069 20.1143C82.2758 19.8399 81.866 19.8048 81.5916 20.0359C81.3172 20.267 81.2821 20.6768 81.5132 20.9512C81.7443 21.2256 82.1541 21.2607 82.4285 21.0296Z" fill="#FE7B51" fill-opacity="0.23"/>
<path d="M85.2179 24.3418C85.4923 24.1107 85.5274 23.701 85.2964 23.4266C85.0653 23.1522 84.6555 23.1171 84.3811 23.3482C84.1067 23.5792 84.0716 23.989 84.3027 24.2634C84.5338 24.5378 84.9435 24.5729 85.2179 24.3418Z" fill="#FE7B51" fill-opacity="0.23"/>
<path d="M88.0075 27.6541C88.2819 27.423 88.317 27.0132 88.0859 26.7388C87.8548 26.4644 87.445 26.4293 87.1706 26.6604C86.8962 26.8915 86.8611 27.3013 87.0922 27.5757C87.3233 27.8501 87.7331 27.8852 88.0075 27.6541Z" fill="#FE7B51" fill-opacity="0.23"/>
<path d="M67.9582 10.5701C68.2326 10.339 68.2677 9.92924 68.0367 9.65484C67.8056 9.38045 67.3958 9.34534 67.1214 9.57643C66.847 9.80752 66.8119 10.2173 67.043 10.4917C67.2741 10.7661 67.6838 10.8012 67.9582 10.5701Z" fill="#FE7B51" fill-opacity="0.23"/>
<path d="M70.7477 13.8823C71.0221 13.6513 71.0572 13.2415 70.8261 12.9671C70.5951 12.6927 70.1853 12.6576 69.9109 12.8887C69.6365 13.1198 69.6014 13.5295 69.8325 13.8039C70.0636 14.0783 70.4733 14.1134 70.7477 13.8823Z" fill="#FE7B51" fill-opacity="0.23"/>
<path d="M73.5372 17.1946C73.8116 16.9635 73.8467 16.5537 73.6156 16.2793C73.3845 16.0049 72.9748 15.9698 72.7004 16.2009C72.426 16.432 72.3909 16.8418 72.622 17.1162C72.853 17.3906 73.2628 17.4257 73.5372 17.1946Z" fill="#FE7B51" fill-opacity="0.23"/>
<path d="M76.3267 20.5068C76.6011 20.2758 76.6362 19.866 76.4051 19.5916C76.174 19.3172 75.7643 19.2821 75.4899 19.5132C75.2155 19.7443 75.1804 20.154 75.4114 20.4284C75.6425 20.7028 76.0523 20.7379 76.3267 20.5068Z" fill="#FE7B51" fill-opacity="0.23"/>
<path d="M79.1162 23.8191C79.3906 23.588 79.4257 23.1782 79.1946 22.9038C78.9635 22.6294 78.5537 22.5943 78.2793 22.8254C78.005 23.0565 77.9698 23.4663 78.2009 23.7407C78.432 24.0151 78.8418 24.0502 79.1162 23.8191Z" fill="#FE7B51" fill-opacity="0.23"/>
<path d="M81.9057 27.1313C82.1801 26.9002 82.2153 26.4905 81.9842 26.2161C81.7531 25.9417 81.3433 25.9066 81.0689 26.1377C80.7945 26.3688 80.7594 26.7785 80.9905 27.0529C81.2216 27.3273 81.6314 27.3624 81.9057 27.1313Z" fill="#FE7B51" fill-opacity="0.23"/>
<path d="M84.6952 30.4436C84.9696 30.2125 85.0047 29.8027 84.7736 29.5283C84.5426 29.2539 84.1328 29.2188 83.8584 29.4499C83.584 29.681 83.5489 30.0908 83.78 30.3652C84.0111 30.6396 84.4208 30.6747 84.6952 30.4436Z" fill="#FE7B51" fill-opacity="0.23"/>
<path d="M87.4847 33.7558C87.7591 33.5247 87.7942 33.115 87.5631 32.8406C87.332 32.5662 86.9223 32.5311 86.6479 32.7622C86.3735 32.9932 86.3384 33.403 86.5695 33.6774C86.8006 33.9518 87.2103 33.9869 87.4847 33.7558Z" fill="#FE7B51" fill-opacity="0.23"/>
<path d="M64.646 13.3596C64.9204 13.1285 64.9555 12.7187 64.7244 12.4443C64.4933 12.17 64.0835 12.1348 63.8091 12.3659C63.5347 12.597 63.4996 13.0068 63.7307 13.2812C63.9618 13.5556 64.3716 13.5907 64.646 13.3596Z" fill="#FE7B51" fill-opacity="0.23"/>
<path d="M67.4355 16.6718C67.7099 16.4408 67.745 16.031 67.5139 15.7566C67.2828 15.4822 66.873 15.4471 66.5986 15.6782C66.3242 15.9093 66.2891 16.319 66.5202 16.5934C66.7513 16.8678 67.1611 16.9029 67.4355 16.6718Z" fill="#FE7B51" fill-opacity="0.23"/>
<path d="M70.225 19.9841C70.4994 19.753 70.5345 19.3432 70.3034 19.0688C70.0723 18.7944 69.6625 18.7593 69.3881 18.9904C69.1137 19.2215 69.0786 19.6313 69.3097 19.9057C69.5408 20.1801 69.9506 20.2152 70.225 19.9841Z" fill="#FE7B51" fill-opacity="0.23"/>
<path d="M73.0145 23.2963C73.2888 23.0653 73.324 22.6555 73.0929 22.3811C72.8618 22.1067 72.452 22.0716 72.1776 22.3027C71.9032 22.5338 71.8681 22.9435 72.0992 23.2179C72.3303 23.4923 72.7401 23.5274 73.0145 23.2963Z" fill="#FE7B51" fill-opacity="0.23"/>
<path d="M75.804 26.6086C76.0784 26.3775 76.1135 25.9677 75.8824 25.6933C75.6513 25.4189 75.2415 25.3838 74.9672 25.6149C74.6928 25.846 74.6577 26.2558 74.8887 26.5302C75.1198 26.8046 75.5296 26.8397 75.804 26.6086Z" fill="#FE7B51" fill-opacity="0.23"/>
<path d="M78.5935 29.9208C78.8679 29.6898 78.903 29.28 78.6719 29.0056C78.4408 28.7312 78.031 28.6961 77.7566 28.9272C77.4822 29.1583 77.4471 29.568 77.6782 29.8424C77.9093 30.1168 78.3191 30.1519 78.5935 29.9208Z" fill="#FE7B51" fill-opacity="0.23"/>
<path d="M81.383 33.2331C81.6574 33.002 81.6925 32.5922 81.4614 32.3178C81.2303 32.0434 80.8205 32.0083 80.5461 32.2394C80.2717 32.4705 80.2366 32.8803 80.4677 33.1547C80.6988 33.4291 81.1086 33.4642 81.383 33.2331Z" fill="#FE7B51" fill-opacity="0.23"/>
<path d="M84.1725 36.5453C84.4469 36.3142 84.482 35.9045 84.2509 35.6301C84.0198 35.3557 83.61 35.3206 83.3356 35.5517C83.0612 35.7828 83.0261 36.1925 83.2572 36.4669C83.4883 36.7413 83.8981 36.7764 84.1725 36.5453Z" fill="#FE7B51" fill-opacity="0.23"/>
<path d="M86.962 39.8576C87.2364 39.6265 87.2715 39.2167 87.0404 38.9423C86.8093 38.6679 86.3995 38.6328 86.1251 38.8639C85.8507 39.095 85.8156 39.5048 86.0467 39.7792C86.2778 40.0536 86.6876 40.0887 86.962 39.8576Z" fill="#FE7B51" fill-opacity="0.23"/>
<path d="M61.3337 16.1491C61.6081 15.918 61.6432 15.5082 61.4121 15.2338C61.181 14.9594 60.7713 14.9243 60.4969 15.1554C60.2225 15.3865 60.1874 15.7963 60.4185 16.0707C60.6496 16.3451 61.0593 16.3802 61.3337 16.1491Z" fill="#FE7B51" fill-opacity="0.23"/>
<path d="M64.1232 19.4614C64.3976 19.2303 64.4327 18.8205 64.2016 18.5461C63.9705 18.2717 63.5608 18.2366 63.2864 18.4677C63.012 18.6988 62.9769 19.1085 63.208 19.3829C63.439 19.6573 63.8488 19.6924 64.1232 19.4614Z" fill="#FE7B51" fill-opacity="0.23"/>
<path d="M66.9127 22.7736C67.1871 22.5425 67.2222 22.1327 66.9911 21.8583C66.76 21.5839 66.3503 21.5488 66.0759 21.7799C65.8015 22.011 65.7664 22.4208 65.9974 22.6952C66.2285 22.9696 66.6383 23.0047 66.9127 22.7736Z" fill="#FE7B51" fill-opacity="0.23"/>
<path d="M69.7023 26.0858C69.9767 25.8547 70.0118 25.445 69.7807 25.1706C69.5496 24.8962 69.1398 24.8611 68.8654 25.0922C68.591 25.3233 68.5559 25.733 68.787 26.0074C69.0181 26.2818 69.4279 26.3169 69.7023 26.0858Z" fill="#FE7B51" fill-opacity="0.23"/>
<path d="M72.4917 29.3981C72.7661 29.167 72.8012 28.7572 72.5702 28.4828C72.3391 28.2084 71.9293 28.1733 71.6549 28.4044C71.3805 28.6355 71.3454 29.0453 71.5765 29.3197C71.8076 29.5941 72.2174 29.6292 72.4917 29.3981Z" fill="#FE7B51" fill-opacity="0.23"/>
<path d="M75.2812 32.7103C75.5556 32.4792 75.5907 32.0695 75.3596 31.7951C75.1286 31.5207 74.7188 31.4856 74.4444 31.7167C74.17 31.9477 74.1349 32.3575 74.366 32.6319C74.5971 32.9063 75.0068 32.9414 75.2812 32.7103Z" fill="#FE7B51" fill-opacity="0.23"/>
<path d="M78.0707 36.0226C78.3451 35.7915 78.3802 35.3817 78.1491 35.1073C77.918 34.8329 77.5083 34.7978 77.2339 35.0289C76.9595 35.26 76.9244 35.6698 77.1555 35.9442C77.3866 36.2186 77.7963 36.2537 78.0707 36.0226Z" fill="#FE7B51" fill-opacity="0.23"/>
<path d="M80.8602 39.3348C81.1346 39.1037 81.1697 38.694 80.9386 38.4196C80.7075 38.1452 80.2978 38.1101 80.0234 38.3412C79.749 38.5722 79.7139 38.982 79.945 39.2564C80.176 39.5308 80.5858 39.5659 80.8602 39.3348Z" fill="#FE7B51" fill-opacity="0.23"/>
<path d="M83.6498 42.6471C83.9242 42.416 83.9593 42.0062 83.7282 41.7318C83.4971 41.4574 83.0873 41.4223 82.8129 41.6534C82.5385 41.8845 82.5034 42.2943 82.7345 42.5687C82.9656 42.8431 83.3754 42.8782 83.6498 42.6471Z" fill="#FE7B51" fill-opacity="0.23"/>
<path d="M86.4393 45.9593C86.7137 45.7282 86.7488 45.3185 86.5177 45.0441C86.2866 44.7697 85.8768 44.7346 85.6024 44.9657C85.328 45.1967 85.2929 45.6065 85.524 45.8809C85.7551 46.1553 86.1649 46.1904 86.4393 45.9593Z" fill="#FE7B51" fill-opacity="0.23"/>
</g>
</g>
<rect x="2" y="2" width="85" height="58" rx="10" stroke="#FE7B51" stroke-width="3" stroke-linecap="round" stroke-dasharray="18 18"/>
<defs>
<clipPath id="clip0_832_4675">
<rect x="2" y="2" width="85" height="58" rx="10" fill="white"/>
</clipPath>
<clipPath id="clip1_832_4675">
<rect width="61.9246" height="27.2815" fill="white" transform="translate(-7.13281 -2) rotate(49.8967)"/>
</clipPath>
<clipPath id="clip2_832_4675">
<rect width="61.9246" height="27.2815" fill="white" transform="translate(80.8672 -2) rotate(49.8967)"/>
</clipPath>
</defs>
</svg>
