<svg width="28" height="20" viewBox="0 0 28 20" fill="none" xmlns="http://www.w3.org/2000/svg">
<path d="M0.25 0.25H27.75V19.75H0.25V0.25Z" fill="white" stroke="#F5F5F5" stroke-width="0.5"/>
<mask id="mask0_748_6669" style="mask-type:luminance" maskUnits="userSpaceOnUse" x="0" y="0" width="28" height="20">
<path d="M0.25 0.25H27.75V19.75H0.25V0.25Z" fill="white" stroke="white" stroke-width="0.5"/>
</mask>
<g mask="url(#mask0_748_6669)">
<path d="M10.6667 0H17.3333V20H10.6667V0Z" fill="#D6182D"/>
<path d="M0 6.66669H28V13.3334H0V6.66669Z" fill="#1425A2"/>
<path fill-rule="evenodd" clip-rule="evenodd" d="M11.3333 11.6667L10.8619 11.8048L11 11.3334L10.8619 10.8619L11.3333 11L11.8047 10.8619L11.6667 11.3334L11.8047 11.8048L11.3333 11.6667Z" fill="white"/>
<path fill-rule="evenodd" clip-rule="evenodd" d="M16.6667 11.6667L16.1953 11.8048L16.3333 11.3334L16.1953 10.8619L16.6667 11L17.1381 10.8619L17 11.3334L17.1381 11.8048L16.6667 11.6667Z" fill="white"/>
<path fill-rule="evenodd" clip-rule="evenodd" d="M8.66667 10.3333L8.19526 10.4714L8.33333 9.99998L8.19526 9.52858L8.66667 9.66665L9.13807 9.52858L9 9.99998L9.13807 10.4714L8.66667 10.3333Z" fill="white"/>
<path fill-rule="evenodd" clip-rule="evenodd" d="M19.3333 10.3333L18.8619 10.4714L19 9.99998L18.8619 9.52858L19.3333 9.66665L19.8047 9.52858L19.6667 9.99998L19.8047 10.4714L19.3333 10.3333Z" fill="white"/>
<path fill-rule="evenodd" clip-rule="evenodd" d="M14 9L13.5286 9.13807L13.6667 8.66667L13.5286 8.19526L14 8.33333L14.4714 8.19526L14.3333 8.66667L14.4714 9.13807L14 9Z" fill="white"/>
</g>
</svg>
