<svg width="28" height="20" viewBox="0 0 28 20" fill="none" xmlns="http://www.w3.org/2000/svg">
<path d="M0 0H28V20H0V0Z" fill="white"/>
<mask id="mask0_748_4999" style="mask-type:luminance" maskUnits="userSpaceOnUse" x="0" y="0" width="28" height="20">
<path d="M0 0H28V20H0V0Z" fill="white"/>
</mask>
<g mask="url(#mask0_748_4999)">
<path d="M0 0H28V20H0V0Z" fill="#158AFF"/>
<path fill-rule="evenodd" clip-rule="evenodd" d="M32.3591 5.20456L-2.09312 22.7589L-5.72504 15.6308L28.7272 -1.92349L32.3591 5.20456Z" fill="#FDD216"/>
<path d="M32.1217 3.7738L-2.33057 21.3281L-4.75185 16.5761L29.7004 -0.978231L32.1217 3.7738Z" fill="#CE1120"/>
<path fill-rule="evenodd" clip-rule="evenodd" d="M4.66667 5.96668L2.70738 7.3634L3.43029 5.0684L1.49648 3.63662L3.90254 3.61495L4.66667 1.33334L5.43079 3.61495L7.83685 3.63662L5.90304 5.0684L6.62595 7.3634L4.66667 5.96668Z" fill="#FDD216"/>
</g>
</svg>
