<svg width="28" height="20" viewBox="0 0 28 20" fill="none" xmlns="http://www.w3.org/2000/svg">
<path d="M0.25 0.25H27.75V19.75H0.25V0.25Z" fill="white" stroke="#F5F5F5" stroke-width="0.5"/>
<mask id="mask0_748_4945" style="mask-type:luminance" maskUnits="userSpaceOnUse" x="0" y="0" width="28" height="20">
<path d="M0.25 0.25H27.75V19.75H0.25V0.25Z" fill="white" stroke="white" stroke-width="0.5"/>
</mask>
<g mask="url(#mask0_748_4945)">
<path fill-rule="evenodd" clip-rule="evenodd" d="M0 5.33333H28V0H0V5.33333Z" fill="#083D96"/>
<path fill-rule="evenodd" clip-rule="evenodd" d="M0 14.6667H28V9.33334H0V14.6667Z" fill="#37AE39"/>
<path fill-rule="evenodd" clip-rule="evenodd" d="M0 20H28V14.6667H0V20Z" fill="#FFD13F"/>
<path fill-rule="evenodd" clip-rule="evenodd" d="M10.6667 20H17.3333V0H10.6667V20Z" fill="#E42346"/>
<path fill-rule="evenodd" clip-rule="evenodd" d="M4.66666 3.44666L3.49109 4.28469L3.92483 2.90769L2.76454 2.04862L4.20818 2.03562L4.66666 0.666656L5.12513 2.03562L6.56877 2.04862L5.40848 2.90769L5.84223 4.28469L4.66666 3.44666Z" fill="#FFD03B"/>
</g>
</svg>
