<svg width="28" height="20" viewBox="0 0 28 20" fill="none" xmlns="http://www.w3.org/2000/svg">
<path d="M0.25 0.25H27.75V19.75H0.25V0.25Z" fill="white" stroke="#F5F5F5" stroke-width="0.5"/>
<mask id="mask0_748_5040" style="mask-type:luminance" maskUnits="userSpaceOnUse" x="0" y="0" width="28" height="20">
<path d="M0.25 0.25H27.75V19.75H0.25V0.25Z" fill="white" stroke="white" stroke-width="0.5"/>
</mask>
<g mask="url(#mask0_748_5040)">
<path fill-rule="evenodd" clip-rule="evenodd" d="M0 4H28V0H0V4Z" fill="#0B389F"/>
<path fill-rule="evenodd" clip-rule="evenodd" d="M0 12H28V8H0V12Z" fill="#0B389F"/>
<path fill-rule="evenodd" clip-rule="evenodd" d="M0 20H28V16H0V20Z" fill="#0B389F"/>
<path fill-rule="evenodd" clip-rule="evenodd" d="M0 0L13.3333 10L0 20V0Z" fill="#E12A43"/>
<path fill-rule="evenodd" clip-rule="evenodd" d="M4.66667 11.0227L3.09924 12.1574L3.69403 10.316L2.13052 9.17596L4.06555 9.17264L4.66667 7.33334L5.26779 9.17264L7.20282 9.17596L5.6393 10.316L6.23409 12.1574L4.66667 11.0227Z" fill="white"/>
</g>
</svg>
