<svg width="28" height="20" viewBox="0 0 28 20" fill="none" xmlns="http://www.w3.org/2000/svg">
<path d="M0 0H28V20H0V0Z" fill="white"/>
<mask id="mask0_748_5026" style="mask-type:luminance" maskUnits="userSpaceOnUse" x="0" y="0" width="28" height="20">
<path d="M0 0H28V20H0V0Z" fill="white"/>
</mask>
<g mask="url(#mask0_748_5026)">
<path fill-rule="evenodd" clip-rule="evenodd" d="M0 10.6667H28V0H0V10.6667Z" fill="#0C49AE"/>
<path fill-rule="evenodd" clip-rule="evenodd" d="M0 20H28V14.6667H0V20Z" fill="#0C49AE"/>
<path fill-rule="evenodd" clip-rule="evenodd" d="M0 14.6667H28V10.6667H0V14.6667Z" fill="white"/>
<path fill-rule="evenodd" clip-rule="evenodd" d="M0 13.3333H28V12H0V13.3333Z" fill="#CD232E"/>
<path fill-rule="evenodd" clip-rule="evenodd" d="M10.6667 16.6667C12.8758 16.6667 14.6667 14.8758 14.6667 12.6667C14.6667 10.4575 12.8758 8.66666 10.6667 8.66666C8.45753 8.66666 6.66666 10.4575 6.66666 12.6667C6.66666 14.8758 8.45753 16.6667 10.6667 16.6667Z" stroke="#F7D035" stroke-width="1.33333" stroke-linecap="round" stroke-dasharray="0.67 2"/>
</g>
</svg>
