<svg width="28" height="20" viewBox="0 0 28 20" fill="none" xmlns="http://www.w3.org/2000/svg">
<path d="M0 0H28V20H0V0Z" fill="white"/>
<mask id="mask0_748_5153" style="mask-type:luminance" maskUnits="userSpaceOnUse" x="0" y="0" width="28" height="20">
<path d="M0 0H28V20H0V0Z" fill="white"/>
</mask>
<g mask="url(#mask0_748_5153)">
<path fill-rule="evenodd" clip-rule="evenodd" d="M0 5.33333H28V0H0V5.33333Z" fill="#DD172C"/>
<path fill-rule="evenodd" clip-rule="evenodd" d="M0 20H28V14.6667H0V20Z" fill="#DD172C"/>
<path fill-rule="evenodd" clip-rule="evenodd" d="M0 14.6667H28V5.33334H0V14.6667Z" fill="#FFD133"/>
<path fill-rule="evenodd" clip-rule="evenodd" d="M7.33333 9.33333H8.66666V10H7.33333V9.33333Z" fill="#FFEDB1"/>
<path d="M6.05902 9.36101C6.04283 9.16667 6.19619 8.99999 6.3912 8.99999H8.27547C8.47049 8.99999 8.62385 9.16666 8.60765 9.36101L8.43637 11.4164C8.39318 11.9347 7.95992 12.3333 7.43983 12.3333H7.22685C6.70676 12.3333 6.27349 11.9347 6.2303 11.4164L6.05902 9.36101Z" stroke="#A41517" stroke-width="0.666667"/>
<path fill-rule="evenodd" clip-rule="evenodd" d="M6 10H8.66667V10.6667H8L7.33333 12L6.66667 10.6667H6V10Z" fill="#A41517"/>
<path d="M4 8H5.33333V12.6667H4V8Z" fill="#A41517"/>
<path d="M9.33333 8H10.6667V12.6667H9.33333V8Z" fill="#A41517"/>
<path d="M6 6.66666H8.66667V7.99999H6V6.66666Z" fill="#A41517"/>
</g>
</svg>
