<svg width="28" height="20" viewBox="0 0 28 20" fill="none" xmlns="http://www.w3.org/2000/svg">
<path d="M0.25 0.25H27.75V19.75H0.25V0.25Z" fill="white" stroke="#F5F5F5" stroke-width="0.5"/>
<mask id="mask0_748_5334" style="mask-type:luminance" maskUnits="userSpaceOnUse" x="0" y="0" width="28" height="20">
<path d="M0.25 0.25H27.75V19.75H0.25V0.25Z" fill="white" stroke="white" stroke-width="0.5"/>
</mask>
<g mask="url(#mask0_748_5334)">
<path fill-rule="evenodd" clip-rule="evenodd" d="M0 20H28V13.3333H0V20Z" fill="#E34F4F"/>
<path fill-rule="evenodd" clip-rule="evenodd" d="M9.33333 13.3333H17.3333V8H9.33333V13.3333Z" fill="#E34F4F"/>
<path fill-rule="evenodd" clip-rule="evenodd" d="M10.6667 13.3333H12V12H10.6667V13.3333Z" fill="#181A1A"/>
<path fill-rule="evenodd" clip-rule="evenodd" d="M14.6667 13.3333H16V12H14.6667V13.3333Z" fill="#181A1A"/>
<path fill-rule="evenodd" clip-rule="evenodd" d="M9.33333 7.99999H10.6667V6.66666H9.33333V7.99999Z" fill="#181A1A"/>
<path fill-rule="evenodd" clip-rule="evenodd" d="M13.3333 7.99999H14.6667V6.66666H13.3333V7.99999Z" fill="#181A1A"/>
<path fill-rule="evenodd" clip-rule="evenodd" d="M12 7.99999H13.3333V6.66666H12V7.99999Z" fill="#181A1A"/>
<path fill-rule="evenodd" clip-rule="evenodd" d="M16 7.99999H17.3333V6.66666H16V7.99999Z" fill="#181A1A"/>
<path fill-rule="evenodd" clip-rule="evenodd" d="M9.33333 6.66668H10.6667V5.33334H9.33333V6.66668Z" fill="#E34F4F"/>
<path fill-rule="evenodd" clip-rule="evenodd" d="M13.3333 6.66668H14.6667V5.33334H13.3333V6.66668Z" fill="#E34F4F"/>
<path fill-rule="evenodd" clip-rule="evenodd" d="M12 6.66668H13.3333V5.33334H12V6.66668Z" fill="#E34F4F"/>
<path fill-rule="evenodd" clip-rule="evenodd" d="M16 6.66668H17.3333V5.33334H16V6.66668Z" fill="#E34F4F"/>
</g>
</svg>
