<svg width="28" height="20" viewBox="0 0 28 20" fill="none" xmlns="http://www.w3.org/2000/svg">
<path d="M0.25 0.25H27.75V19.75H0.25V0.25Z" fill="white" stroke="#F5F5F5" stroke-width="0.5"/>
<mask id="mask0_748_5288" style="mask-type:luminance" maskUnits="userSpaceOnUse" x="0" y="0" width="28" height="20">
<path d="M0.25 0.25H27.75V19.75H0.25V0.25Z" fill="white" stroke="white" stroke-width="0.5"/>
</mask>
<g mask="url(#mask0_748_5288)">
<path d="M18.6667 0H28V20H18.6667V0Z" fill="#63AEE3"/>
<path fill-rule="evenodd" clip-rule="evenodd" d="M0 20H9.33333V0H0V20Z" fill="#63AEE3"/>
<path d="M12 9.33334C12 8.96515 11.7015 8.66668 11.3333 8.66668C10.9651 8.66668 10.6667 8.96515 10.6667 9.33334H12ZM12.329 12.2181C12.6475 12.4029 13.0555 12.2945 13.2402 11.9761C13.425 11.6576 13.3167 11.2496 12.9982 11.0649L12.329 12.2181ZM15.0757 11.0198C14.7655 11.2182 14.6748 11.6305 14.8732 11.9407C15.0716 12.2508 15.4839 12.3415 15.794 12.1431L15.0757 11.0198ZM17.3333 9.33334C17.3333 8.96515 17.0349 8.66668 16.6667 8.66668C16.2985 8.66668 16 8.96515 16 9.33334H17.3333ZM10.6667 9.33334C10.6667 10.5664 11.3365 11.6422 12.329 12.2181L12.9982 11.0649C12.3999 10.7177 12 10.0718 12 9.33334H10.6667ZM15.794 12.1431C16.7183 11.552 17.3333 10.5147 17.3333 9.33334H16C16 10.041 15.6329 10.6634 15.0757 11.0198L15.794 12.1431Z" fill="#628A40"/>
<path fill-rule="evenodd" clip-rule="evenodd" d="M14 10.6667C14.7364 10.6667 15.3333 10.0697 15.3333 9.33333C15.3333 8.59695 14.7364 8 14 8C13.2636 8 12.6667 8.59695 12.6667 9.33333C12.6667 10.0697 13.2636 10.6667 14 10.6667Z" fill="#DCC26D"/>
</g>
</svg>
