<svg width="28" height="20" viewBox="0 0 28 20" fill="none" xmlns="http://www.w3.org/2000/svg">
<path d="M0 0H28V20H0V0Z" fill="white"/>
<mask id="mask0_748_5349" style="mask-type:luminance" maskUnits="userSpaceOnUse" x="0" y="0" width="28" height="20">
<path d="M0 0H28V20H0V0Z" fill="white"/>
</mask>
<g mask="url(#mask0_748_5349)">
<path fill-rule="evenodd" clip-rule="evenodd" d="M0 9.33333H28V0H0V9.33333Z" fill="#112EBC"/>
<path fill-rule="evenodd" clip-rule="evenodd" d="M0 20H28V9.33333H0V20Z" fill="#E3264A"/>
<path d="M9.33334 6.66667H18.6667V14.6667H9.33334V6.66667Z" fill="url(#paint0_linear_748_5349)"/>
<mask id="mask1_748_5349" style="mask-type:luminance" maskUnits="userSpaceOnUse" x="9" y="6" width="10" height="9">
<path d="M9.33334 6.66667H18.6667V14.6667H9.33334V6.66667Z" fill="white"/>
</mask>
<g mask="url(#mask1_748_5349)">
<path d="M9.66668 14.3333V13.5393L11.586 12.5797C11.91 12.4177 12.2673 12.3333 12.6295 12.3333H15.3705C15.7327 12.3333 16.09 12.4177 16.414 12.5797L18.3333 13.5393V14.3333H9.66668Z" fill="#AABCAE" stroke="#366C14" stroke-width="0.666667"/>
<path fill-rule="evenodd" clip-rule="evenodd" d="M14 12C15.1046 12 16 11.1046 16 10C16 8.89543 15.1046 8 14 8C12.8954 8 12 8.89543 12 10C12 11.1046 12.8954 12 14 12Z" fill="#D4B872"/>
<path d="M11 11.3871C11 11.1076 11.3233 10.9522 11.5416 11.1268L13.3753 12.5938C13.7405 12.886 14.2595 12.886 14.6247 12.5938L16.4585 11.1268C16.6767 10.9522 17 11.1076 17 11.3871V12.6667C17 12.8508 16.8508 13 16.6667 13H11.3334C11.1493 13 11 12.8508 11 12.6667V11.3871Z" fill="#C28321" stroke="#0D3488" stroke-width="0.666667"/>
<path fill-rule="evenodd" clip-rule="evenodd" d="M12.569 8.56903C12.359 8.35905 12.5078 8 12.8047 8H15.1953C15.4922 8 15.641 8.35905 15.431 8.56904L14.2357 9.7643C14.1055 9.89447 13.8945 9.89447 13.7643 9.7643L12.569 8.56903Z" fill="#216C30"/>
</g>
</g>
<defs>
<linearGradient id="paint0_linear_748_5349" x1="9.33334" y1="6.66667" x2="9.33334" y2="14.6667" gradientUnits="userSpaceOnUse">
<stop stop-color="white"/>
<stop offset="1" stop-color="#F0F0F0"/>
</linearGradient>
</defs>
</svg>
