<svg width="28" height="20" viewBox="0 0 28 20" fill="none" xmlns="http://www.w3.org/2000/svg">
<path d="M0.25 0.25H27.75V19.75H0.25V0.25Z" fill="white" stroke="#F5F5F5" stroke-width="0.5"/>
<mask id="mask0_748_5427" style="mask-type:luminance" maskUnits="userSpaceOnUse" x="0" y="0" width="28" height="20">
<path d="M0.25 0.25H27.75V19.75H0.25V0.25Z" fill="white" stroke="white" stroke-width="0.5"/>
</mask>
<g mask="url(#mask0_748_5427)">
<path fill-rule="evenodd" clip-rule="evenodd" d="M0 4H28V0H0V4Z" fill="#0E46D4"/>
<path fill-rule="evenodd" clip-rule="evenodd" d="M0 20H28V16H0V20Z" fill="#0E46D4"/>
<path d="M10.3753 11.8381L10.1002 12.3333L10.6667 12.3333L17.3333 12.3333L17.8998 12.3333L17.6247 11.8381L14.2914 5.83812L14 5.31362L13.7086 5.83812L10.3753 11.8381Z" stroke="#093EC5" stroke-width="0.666667"/>
<path d="M10.3753 8.16188L10.1002 7.66667L10.6667 7.66667L17.3333 7.66667L17.8998 7.66667L17.6247 8.16188L14.2914 14.1619L14 14.6864L13.7086 14.1619L10.3753 8.16188Z" stroke="#093EC5" stroke-width="0.666667"/>
</g>
</svg>
