<svg width="28" height="20" viewBox="0 0 28 20" fill="none" xmlns="http://www.w3.org/2000/svg">
<path d="M0.25 0.25H27.75V19.75H0.25V0.25Z" fill="white" stroke="#F5F5F5" stroke-width="0.5"/>
<mask id="mask0_748_5450" style="mask-type:luminance" maskUnits="userSpaceOnUse" x="0" y="0" width="28" height="20">
<path d="M0.25 0.25H27.75V19.75H0.25V0.25Z" fill="white" stroke="white" stroke-width="0.5"/>
</mask>
<g mask="url(#mask0_748_5450)">
<path fill-rule="evenodd" clip-rule="evenodd" d="M0 6.66667H28V0H0V6.66667Z" fill="#38BB56"/>
<path fill-rule="evenodd" clip-rule="evenodd" d="M0 20H28V13.3333H0V20Z" fill="#DE1B27"/>
<path fill-rule="evenodd" clip-rule="evenodd" d="M2.66668 5.33333H1.33334V6.66666H2.66668V5.33333ZM5.33334 5.33333H4.00001V6.66666H5.33334V5.33333ZM6.66668 5.33333H8.00001V6.66666H6.66668V5.33333ZM10.6667 5.33333H9.33334V6.66666H10.6667V5.33333ZM12 5.33333H13.3333V6.66666H12V5.33333ZM16 5.33333H14.6667V6.66666H16V5.33333ZM17.3333 5.33333H18.6667V6.66666H17.3333V5.33333ZM21.3333 5.33333H20V6.66666H21.3333V5.33333ZM22.6667 5.33333H24V6.66666H22.6667V5.33333ZM26.6667 5.33333H25.3333V6.66666H26.6667V5.33333ZM1.33334 13.3333H2.66668V14.6667H1.33334V13.3333ZM5.33334 13.3333H4.00001V14.6667H5.33334V13.3333ZM6.66668 13.3333H8.00001V14.6667H6.66668V13.3333ZM10.6667 13.3333H9.33334V14.6667H10.6667V13.3333ZM12 13.3333H13.3333V14.6667H12V13.3333ZM16 13.3333H14.6667V14.6667H16V13.3333ZM17.3333 13.3333H18.6667V14.6667H17.3333V13.3333ZM21.3333 13.3333H20V14.6667H21.3333V13.3333ZM22.6667 13.3333H24V14.6667H22.6667V13.3333ZM26.6667 13.3333H25.3333V14.6667H26.6667V13.3333Z" fill="white" fill-opacity="0.5"/>
<mask id="path-6-inside-1_748_5450" fill="white">
<path fill-rule="evenodd" clip-rule="evenodd" d="M12.6535 8.52115C12.252 8.88694 12 9.41405 12 10C12 11.1046 12.8954 12 14 12C15.1046 12 16 11.1046 16 10C16 9.42511 15.7574 8.90686 15.3691 8.54203"/>
</mask>
<path d="M12.2045 8.02833C11.6702 8.51513 11.3333 9.2187 11.3333 10H12.6667C12.6667 9.60939 12.8338 9.25875 13.1025 9.01397L12.2045 8.02833ZM11.3333 10C11.3333 11.4728 12.5272 12.6667 14 12.6667V11.3333C13.2636 11.3333 12.6667 10.7364 12.6667 10H11.3333ZM14 12.6667C15.4728 12.6667 16.6667 11.4728 16.6667 10H15.3333C15.3333 10.7364 14.7364 11.3333 14 11.3333V12.6667ZM16.6667 10C16.6667 9.23352 16.3424 8.5417 15.8255 8.05613L14.9126 9.02793C15.1724 9.27202 15.3333 9.61669 15.3333 10H16.6667Z" fill="#D80915" mask="url(#path-6-inside-1_748_5450)"/>
<path d="M13.3333 9.33333H14.6667V12H13.3333V9.33333Z" fill="#D80915"/>
</g>
</svg>
