<svg width="28" height="20" viewBox="0 0 28 20" fill="none" xmlns="http://www.w3.org/2000/svg">
<path d="M0.25 0.25H27.75V19.75H0.25V0.25Z" fill="white" stroke="#F5F5F5" stroke-width="0.5"/>
<mask id="mask0_748_7143" style="mask-type:luminance" maskUnits="userSpaceOnUse" x="0" y="0" width="28" height="20">
<path d="M0.25 0.25H27.75V19.75H0.25V0.25Z" fill="white" stroke="white" stroke-width="0.5"/>
</mask>
<g mask="url(#mask0_748_7143)">
<path d="M-6.31149 -2.58281L-4.78196 -4.76721L35.6295 23.5292L34.1 25.7136L-6.31149 -2.58281Z" fill="#E3243B"/>
<path d="M35.6295 -2.58281L34.1 -4.76721L-6.31149 23.5292L-4.78195 25.7136L35.6295 -2.58281Z" fill="#E3243B"/>
<path fill-rule="evenodd" clip-rule="evenodd" d="M15.7408 2.66666H13.5925L13.6798 2.61546L12.693 2.04562L13.9689 2.18808L13.7895 1.33333L14.6666 2.04562L15.5438 1.33333L15.3644 2.18808L16.6403 2.04562L15.6535 2.61546L15.7408 2.66666Z" fill="#FAEF32"/>
<path fill-rule="evenodd" clip-rule="evenodd" d="M12.6667 5.16666C12.6667 4.79585 12.6667 4.38227 12.6667 3.99993C12.6667 3.26355 13.2636 2.66666 14 2.66666H15.3333C16.0697 2.66666 16.6667 3.26355 16.6667 3.99993C16.6667 4.38227 16.6667 4.79585 16.6667 5.16666C16.6667 6.95237 14.6667 7.66666 14.6667 7.66666C14.6667 7.66666 12.6667 6.95237 12.6667 5.16666Z" fill="#E3243B"/>
<mask id="mask1_748_7143" style="mask-type:luminance" maskUnits="userSpaceOnUse" x="12" y="2" width="5" height="6">
<path fill-rule="evenodd" clip-rule="evenodd" d="M12.6667 5.16666C12.6667 4.79585 12.6667 4.38227 12.6667 3.99993C12.6667 3.26355 13.2636 2.66666 14 2.66666H15.3333C16.0697 2.66666 16.6667 3.26355 16.6667 3.99993C16.6667 4.38227 16.6667 4.79585 16.6667 5.16666C16.6667 6.95237 14.6667 7.66666 14.6667 7.66666C14.6667 7.66666 12.6667 6.95237 12.6667 5.16666Z" fill="white"/>
</mask>
<g mask="url(#mask1_748_7143)">
<path d="M14.3333 6.66666H15V7.33332H14.3333V6.66666Z" fill="#FAEF32"/>
<path d="M13.3333 5.33333H16V5.99999H13.3333V5.33333Z" fill="#FAEF32"/>
<path d="M13.3333 4H16V4.66667H13.3333V4Z" fill="#FAEF32"/>
</g>
</g>
</svg>
