<svg width="28" height="20" viewBox="0 0 28 20" fill="none" xmlns="http://www.w3.org/2000/svg">
<path d="M0 0H28V20H0V0Z" fill="white"/>
<mask id="mask0_748_5499" style="mask-type:luminance" maskUnits="userSpaceOnUse" x="0" y="0" width="28" height="20">
<path d="M0 0H28V20H0V0Z" fill="white"/>
</mask>
<g mask="url(#mask0_748_5499)">
<path d="M0 0H28V20H0V0Z" fill="#1DBE4F"/>
<path fill-rule="evenodd" clip-rule="evenodd" d="M0 0L12 10L0 20V0Z" fill="#262626"/>
<path fill-rule="evenodd" clip-rule="evenodd" d="M28 0L16 10L28 20V0Z" fill="#262626"/>
<path fill-rule="evenodd" clip-rule="evenodd" d="M14 8.39171L-1.28247 -1.91644L-2.77365 0.294324L11.6156 10L-2.77365 19.7057L-1.28247 21.9165L14 11.6083L29.2825 21.9165L30.7737 19.7057L16.3844 10L30.7737 0.294324L29.2825 -1.91644L14 8.39171Z" fill="#FFD646"/>
</g>
</svg>
