<svg width="28" height="20" viewBox="0 0 28 20" fill="none" xmlns="http://www.w3.org/2000/svg">
<path d="M0 0H28V20H0V0Z" fill="white"/>
<mask id="mask0_748_5519" style="mask-type:luminance" maskUnits="userSpaceOnUse" x="0" y="0" width="28" height="20">
<path d="M0 0H28V20H0V0Z" fill="white"/>
</mask>
<g mask="url(#mask0_748_5519)">
<path fill-rule="evenodd" clip-rule="evenodd" d="M0 5.33333H28V0H0V5.33333Z" fill="#0F3EB6"/>
<path fill-rule="evenodd" clip-rule="evenodd" d="M0 20H28V14.6667H0V20Z" fill="#0F3EB6"/>
<path fill-rule="evenodd" clip-rule="evenodd" d="M0 14.6667H28V5.33334H0V14.6667Z" fill="#ED1A3C"/>
<path fill-rule="evenodd" clip-rule="evenodd" d="M12 8.72722H13.3333V8C13.3333 7.63181 13.6318 7.33334 14 7.33334C14.3682 7.33334 14.6667 7.63181 14.6667 8V8.72722H16V10H12V8.72722ZM18 8H16.6667V10H18V8ZM11.3333 10.6667H10L8.66667 13.3333H11.3333V10.6667ZM12 10.6667V13.3333H16V10.6667H12ZM16.6667 10.6667H18L19.3333 13.3333H16.6667V10.6667ZM11.3333 8H10V10H11.3333V8Z" fill="white"/>
</g>
</svg>
