<svg width="28" height="20" viewBox="0 0 28 20" fill="none" xmlns="http://www.w3.org/2000/svg">
<path d="M0.25 0.25H27.75V19.75H0.25V0.25Z" fill="white" stroke="#F5F5F5" stroke-width="0.5"/>
<mask id="mask0_748_5012" style="mask-type:luminance" maskUnits="userSpaceOnUse" x="0" y="0" width="28" height="20">
<path d="M0.25 0.25H27.75V19.75H0.25V0.25Z" fill="white" stroke="white" stroke-width="0.5"/>
</mask>
<g mask="url(#mask0_748_5012)">
<path fill-rule="evenodd" clip-rule="evenodd" d="M0 5.33333H28V0H0V5.33333Z" fill="#FFCB49"/>
<path fill-rule="evenodd" clip-rule="evenodd" d="M0 14.6667H28V9.33334H0V14.6667Z" fill="#DC1D34"/>
<path fill-rule="evenodd" clip-rule="evenodd" d="M0 20H28V14.6667H0V20Z" fill="#4985D4"/>
<path fill-rule="evenodd" clip-rule="evenodd" d="M0 20L13.3333 10L0 0V20Z" fill="#4BA343"/>
<path fill-rule="evenodd" clip-rule="evenodd" d="M5.33333 14C5.67863 14 6.01371 13.9562 6.33333 13.874C4.60811 13.4299 3.33333 11.8638 3.33333 10C3.33333 8.13616 4.60811 6.57006 6.33333 6.12602C6.01371 6.04375 5.67863 6 5.33333 6C3.12419 6 1.33333 7.79086 1.33333 10C1.33333 12.2091 3.12419 14 5.33333 14ZM8 7.33333C8 7.70152 7.70152 8 7.33333 8C6.96514 8 6.66667 7.70152 6.66667 7.33333C6.66667 6.96514 6.96514 6.66667 7.33333 6.66667C7.70152 6.66667 8 6.96514 8 7.33333ZM7.33333 10.6667C7.70152 10.6667 8 10.3682 8 10C8 9.63181 7.70152 9.33333 7.33333 9.33333C6.96514 9.33333 6.66667 9.63181 6.66667 10C6.66667 10.3682 6.96514 10.6667 7.33333 10.6667ZM8 12.6667C8 13.0349 7.70152 13.3333 7.33333 13.3333C6.96514 13.3333 6.66667 13.0349 6.66667 12.6667C6.66667 12.2985 6.96514 12 7.33333 12C7.70152 12 8 12.2985 8 12.6667Z" fill="white"/>
</g>
</svg>
