<svg width="28" height="20" viewBox="0 0 28 20" fill="none" xmlns="http://www.w3.org/2000/svg">
<path d="M0.25 0.25H27.75V19.75H0.25V0.25Z" fill="white" stroke="#F5F5F5" stroke-width="0.5"/>
<mask id="mask0_748_5584" style="mask-type:luminance" maskUnits="userSpaceOnUse" x="0" y="0" width="28" height="20">
<path d="M0.25 0.25H27.75V19.75H0.25V0.25Z" fill="white" stroke="white" stroke-width="0.5"/>
</mask>
<g mask="url(#mask0_748_5584)">
<path fill-rule="evenodd" clip-rule="evenodd" d="M14 14.6667C16.5773 14.6667 18.6667 12.5773 18.6667 10C18.6667 7.42267 16.5773 5.33334 14 5.33334C11.4227 5.33334 9.33334 7.42267 9.33334 10C9.33334 12.5773 11.4227 14.6667 14 14.6667Z" fill="#E01B41"/>
<mask id="mask1_748_5584" style="mask-type:luminance" maskUnits="userSpaceOnUse" x="9" y="5" width="10" height="10">
<path fill-rule="evenodd" clip-rule="evenodd" d="M14 14.6667C16.5773 14.6667 18.6667 12.5773 18.6667 10C18.6667 7.42267 16.5773 5.33334 14 5.33334C11.4227 5.33334 9.33334 7.42267 9.33334 10C9.33334 12.5773 11.4227 14.6667 14 14.6667Z" fill="white"/>
</mask>
<g mask="url(#mask1_748_5584)">
<path fill-rule="evenodd" clip-rule="evenodd" d="M9.33335 10.6667C10.6667 11.9167 12.6667 12.6667 14 10.6667C15.3333 8.66667 18 8.66667 18.6667 10.6667C19.3333 12.6667 18.6667 14.6667 18.6667 14.6667H9.33335C9.33335 14.6667 8.00001 9.41667 9.33335 10.6667Z" fill="#0E4B9C"/>
</g>
<path opacity="0.75" fill-rule="evenodd" clip-rule="evenodd" d="M21.6603 3.26795L20.5056 3.93461L22.5056 7.39872L23.6603 6.73205L21.6603 3.26795ZM19.9282 4.26795L18.7735 4.93461L20.7735 8.39872L21.9282 7.73205L19.9282 4.26795ZM4.33975 13.2679L5.49445 12.6013L7.49445 16.0654L6.33975 16.732L4.33975 13.2679ZM7.2265 11.6013L6.0718 12.2679L8.0718 15.732L9.2265 15.0654L7.2265 11.6013ZM20.7735 11.6013L21.9282 12.2679L19.9282 15.732L18.7735 15.0654L20.7735 11.6013ZM23.6603 13.2679L22.5056 12.6013L20.5056 16.0654L21.6603 16.732L23.6603 13.2679ZM6.33975 3.26795L7.49445 3.93461L5.49445 7.39872L4.33975 6.73205L6.33975 3.26795ZM9.2265 4.93461L8.0718 4.26795L6.0718 7.73205L7.2265 8.39872L9.2265 4.93461Z" fill="#262626"/>
</g>
</svg>
