<svg width="28" height="20" viewBox="0 0 28 20" fill="none" xmlns="http://www.w3.org/2000/svg">
<path d="M0 0H28V20H0V0Z" fill="white"/>
<mask id="mask0_748_5538" style="mask-type:luminance" maskUnits="userSpaceOnUse" x="0" y="0" width="28" height="20">
<path d="M0 0H28V20H0V0Z" fill="white"/>
</mask>
<g mask="url(#mask0_748_5538)">
<path d="M0 0H28V20H0V0Z" fill="#30C6E0"/>
<path fill-rule="evenodd" clip-rule="evenodd" d="M14 14C16.2091 14 18 12.2091 18 10C18 7.79086 16.2091 6 14 6C11.7909 6 10 7.79086 10 10C10 12.2091 11.7909 14 14 14Z" fill="#FFCD4B"/>
<path fill-rule="evenodd" clip-rule="evenodd" d="M12.3682 17.1495L14 14.7136L15.6318 17.1495L16.0451 14.2468L18.5722 15.7334L17.6852 12.9389L20.6071 13.1818L18.5954 11.0489L21.3333 10L18.5954 8.95112L20.6071 6.81818L17.6852 7.06111L18.5722 4.26657L16.0451 5.75318L15.6318 2.85052L14 5.28638L12.3682 2.85052L11.9548 5.75318L9.42773 4.26657L10.3147 7.06111L7.39288 6.81818L9.40456 8.95112L6.66666 10L9.40456 11.0489L7.39288 13.1818L10.3147 12.9389L9.42773 15.7334L11.9548 14.2468L12.3682 17.1495ZM18.6667 10C18.6667 12.5773 16.5773 14.6667 14 14.6667C11.4227 14.6667 9.33332 12.5773 9.33332 10C9.33332 7.42267 11.4227 5.33333 14 5.33333C16.5773 5.33333 18.6667 7.42267 18.6667 10Z" fill="#FFCD4B"/>
<path fill-rule="evenodd" clip-rule="evenodd" d="M1.33334 1.33334H2.66668V2.66667H1.33334V1.33334ZM2.66668 4V2.66667H4.00001V4H2.66668ZM2.66668 5.33334H1.33334V4H2.66668V5.33334ZM2.66668 6.66667V5.33334H4.00001V6.66667H2.66668ZM2.66668 8H1.33334V6.66667H2.66668V8ZM2.66668 9.33334V8L4.00001 8V9.33334H2.66668ZM2.66668 10.6667H1.33334V9.33334H2.66668V10.6667ZM2.66668 12V10.6667H4.00001V12L2.66668 12ZM2.66668 13.3333H1.33334V12H2.66668V13.3333ZM2.66668 14.6667V13.3333H4.00001V14.6667H2.66668ZM2.66668 16H1.33334V14.6667H2.66668V16ZM2.66668 17.3333V16L4.00001 16V17.3333H2.66668ZM2.66668 17.3333V18.6667H1.33334V17.3333H2.66668Z" fill="#FFCD4B"/>
</g>
</svg>
