<svg width="28" height="20" viewBox="0 0 28 20" fill="none" xmlns="http://www.w3.org/2000/svg">
<path d="M0 0H28V20H0V0Z" fill="white"/>
<mask id="mask0_748_5648" style="mask-type:luminance" maskUnits="userSpaceOnUse" x="0" y="0" width="28" height="20">
<path d="M0 0H28V20H0V0Z" fill="white"/>
</mask>
<g mask="url(#mask0_748_5648)">
<path fill-rule="evenodd" clip-rule="evenodd" d="M0 14.6667H28V5.33333H0V14.6667Z" fill="#073A88"/>
<path fill-rule="evenodd" clip-rule="evenodd" d="M0 5.33333H28V0H0V5.33333Z" fill="#E2273E"/>
<path fill-rule="evenodd" clip-rule="evenodd" d="M0 20H28V14.6667H0V20Z" fill="#E2273E"/>
<path fill-rule="evenodd" clip-rule="evenodd" d="M14 13.3333C15.8409 13.3333 17.3333 11.841 17.3333 10C17.3333 8.15905 15.8409 6.66667 14 6.66667C12.159 6.66667 10.6667 8.15905 10.6667 10C10.6667 11.841 12.159 13.3333 14 13.3333Z" fill="white"/>
</g>
</svg>
