<svg width="28" height="20" viewBox="0 0 28 20" fill="none" xmlns="http://www.w3.org/2000/svg">
<path d="M0 0H28V20H0V0Z" fill="white"/>
<mask id="mask0_748_5725" style="mask-type:luminance" maskUnits="userSpaceOnUse" x="0" y="0" width="28" height="20">
<path d="M0 0H28V20H0V0Z" fill="white"/>
</mask>
<g mask="url(#mask0_748_5725)">
<path fill-rule="evenodd" clip-rule="evenodd" d="M0 20H28V0H0V20Z" fill="#079D7B"/>
<path fill-rule="evenodd" clip-rule="evenodd" d="M15.885 8.66667C15.885 8.95853 15.8638 9.24163 15.824 9.51141C15.9262 9.47997 16.0304 9.44999 16.1363 9.42162C17.9145 8.94515 19.5017 9.10236 19.6813 9.77276C19.8436 10.3786 18.8008 11.1963 17.286 11.6998C17.0183 10.9062 15.649 10.6667 14 10.6667C12.3492 10.6667 10.9786 10.9067 10.7132 11.7025C9.21884 11.198 8.19469 10.3889 8.35568 9.78808C8.53532 9.11767 10.1225 8.96046 11.9007 9.43693C11.9941 9.46195 12.0861 9.48822 12.1767 9.51563C12.1364 9.24458 12.115 8.96005 12.115 8.66667C12.115 6.82572 12.9589 5.33333 14 5.33333C15.0411 5.33333 15.885 6.82572 15.885 8.66667ZM10.6667 12L11.8332 12C11.6484 11.9638 11.4599 11.9204 11.2691 11.8697C11.4836 11.8761 11.7482 11.8944 12.051 11.9154C12.5991 11.9534 13.2723 12 14 12C14.7277 12 15.4009 11.9534 15.949 11.9154C16.2404 11.8952 16.4964 11.8775 16.7065 11.8705C16.509 11.9215 16.3142 11.9646 16.1237 12L17.3333 12L19.3333 12C19.1752 12.4747 18.9624 12.922 18.7028 13.3333H9.29718C9.03766 12.922 8.82482 12.4747 8.66668 12L10.6667 12ZM14 16C15.3467 16 16.5835 15.5005 17.5548 14.6667H10.4452C11.4165 15.5005 12.6533 16 14 16Z" fill="white"/>
<path fill-rule="evenodd" clip-rule="evenodd" d="M14 4C14.3682 4 14.6667 3.70152 14.6667 3.33333C14.6667 2.96514 14.3682 2.66667 14 2.66667C13.6318 2.66667 13.3333 2.96514 13.3333 3.33333C13.3333 3.70152 13.6318 4 14 4ZM8.66667 7.33333C9.03486 7.33333 9.33333 7.03486 9.33333 6.66667C9.33333 6.29848 9.03486 6 8.66667 6C8.29848 6 8 6.29848 8 6.66667C8 7.03486 8.29848 7.33333 8.66667 7.33333ZM20 6.66667C20 7.03486 19.7015 7.33333 19.3333 7.33333C18.9651 7.33333 18.6667 7.03486 18.6667 6.66667C18.6667 6.29848 18.9651 6 19.3333 6C19.7015 6 20 6.29848 20 6.66667ZM17.3333 5.33333C17.7015 5.33333 18 5.03486 18 4.66667C18 4.29848 17.7015 4 17.3333 4C16.9651 4 16.6667 4.29848 16.6667 4.66667C16.6667 5.03486 16.9651 5.33333 17.3333 5.33333ZM11.3333 4.66667C11.3333 5.03486 11.0349 5.33333 10.6667 5.33333C10.2985 5.33333 10 5.03486 10 4.66667C10 4.29848 10.2985 4 10.6667 4C11.0349 4 11.3333 4.29848 11.3333 4.66667Z" fill="#FCD117"/>
</g>
</svg>
