<svg width="28" height="20" viewBox="0 0 28 20" fill="none" xmlns="http://www.w3.org/2000/svg">
<path d="M0 0H28V20H0V0Z" fill="white"/>
<mask id="mask0_748_5797" style="mask-type:luminance" maskUnits="userSpaceOnUse" x="0" y="0" width="28" height="20">
<path d="M0 0H28V20H0V0Z" fill="white"/>
</mask>
<g mask="url(#mask0_748_5797)">
<path d="M0 0H28V20H0V0Z" fill="#F32249"/>
<path d="M4 4H24V16H4V4Z" fill="#15A04F"/>
<path fill-rule="evenodd" clip-rule="evenodd" d="M16.3333 14.5593C16.0112 14.6296 15.6766 14.6667 15.3333 14.6667C12.756 14.6667 10.6667 12.5773 10.6667 10C10.6667 7.42267 12.756 5.33333 15.3333 5.33333C15.6766 5.33333 16.0112 5.37039 16.3333 5.44073C14.2366 5.89851 12.6667 7.76592 12.6667 10C12.6667 12.2341 14.2366 14.1015 16.3333 14.5593Z" fill="white"/>
</g>
</svg>
