<svg width="28" height="20" viewBox="0 0 28 20" fill="none" xmlns="http://www.w3.org/2000/svg">
<path d="M0 0H28V20H0V0Z" fill="white"/>
<mask id="mask0_748_5790" style="mask-type:luminance" maskUnits="userSpaceOnUse" x="0" y="0" width="28" height="20">
<path d="M0 0H28V20H0V0Z" fill="white"/>
</mask>
<g mask="url(#mask0_748_5790)">
<path fill-rule="evenodd" clip-rule="evenodd" d="M0 6.66667H28V0H0V6.66667Z" fill="#262626"/>
<path fill-rule="evenodd" clip-rule="evenodd" d="M14 12C16.5773 12 18.6667 9.91066 18.6667 7.33333C18.6667 4.756 16.5773 2.66667 14 2.66667C11.4227 2.66667 9.33334 4.756 9.33334 7.33333C9.33334 9.91066 11.4227 12 14 12Z" fill="#E42038"/>
<path fill-rule="evenodd" clip-rule="evenodd" d="M0 13.3333H28V6.66667H0V13.3333Z" fill="#E42038"/>
<path fill-rule="evenodd" clip-rule="evenodd" d="M0 20H28V13.3333H0V20Z" fill="#47B849"/>
</g>
</svg>
