<svg width="28" height="20" viewBox="0 0 28 20" fill="none" xmlns="http://www.w3.org/2000/svg">
<path d="M0.25 0.25H27.75V19.75H0.25V0.25Z" fill="white" stroke="#F5F5F5" stroke-width="0.5"/>
<path fill-rule="evenodd" clip-rule="evenodd" d="M0 2C0 0.895431 0.89543 -1.06478e-09 2 0L2.46482 4.56679e-10C2.59643 5.84276e-10 2.7251 0.0389587 2.83462 0.111966L15.0026 8.22393C16.1002 8.9557 15.5822 10.6667 14.263 10.6667H8L15.9961 17.6632C16.9226 18.474 16.3492 20 15.1181 20H2C0.895428 20 0 19.1046 0 18V2Z" fill="white"/>
<mask id="mask0_748_5955" style="mask-type:luminance" maskUnits="userSpaceOnUse" x="0" y="0" width="17" height="20">
<path fill-rule="evenodd" clip-rule="evenodd" d="M0 2C0 0.895431 0.89543 -1.06478e-09 2 0L2.46482 4.56679e-10C2.59643 5.84276e-10 2.7251 0.0389587 2.83462 0.111966L15.0026 8.22393C16.1002 8.9557 15.5822 10.6667 14.263 10.6667H8L15.9961 17.6632C16.9226 18.474 16.3492 20 15.1181 20H2C0.895428 20 0 19.1046 0 18V2Z" fill="white"/>
</mask>
<g mask="url(#mask0_748_5955)">
<path d="M15.1181 19.3333H0.666667V0.666667L2.46482 0.666667L14.6328 8.77863C15.1816 9.14452 14.9226 10 14.263 10H8C7.72226 10 7.47362 10.1722 7.37593 10.4322C7.27824 10.6922 7.35198 10.9855 7.561 11.1684L15.5571 18.1649C16.0203 18.5703 15.7336 19.3333 15.1181 19.3333Z" fill="#EE1B44" stroke="#0543A8" stroke-width="1.33333" stroke-linejoin="round"/>
<path fill-rule="evenodd" clip-rule="evenodd" d="M6.85108 7.80077C7.23519 7.6955 7.58931 7.55153 7.9025 7.37614C7.59185 8.50451 6.55834 9.33333 5.33125 9.33333C4.10416 9.33333 3.07064 8.50451 2.75999 7.37614C3.07406 7.55202 3.42927 7.6963 3.81461 7.80164L4.33333 7.33333L3.48557 6.56797L4.62622 6.62622L4.56796 5.48557L5.33333 6.33333L6.09869 5.48557L6.04043 6.62622L7.18109 6.56797L6.33333 7.33333L6.85108 7.80077ZM4.31284 17.1303L5.33333 16L6.35382 17.1303L6.27614 15.6095L7.79701 15.6872L6.66666 14.6667L7.79701 13.6462L6.27614 13.7239L6.35382 12.203L5.33333 13.3333L4.31284 12.203L4.39052 13.7239L2.86965 13.6462L3.99999 14.6667L2.86965 15.6872L4.39052 15.6095L4.31284 17.1303Z" fill="white"/>
</g>
</svg>
