<svg width="28" height="20" viewBox="0 0 28 20" fill="none" xmlns="http://www.w3.org/2000/svg">
<path d="M0.25 0.25H27.75V19.75H0.25V0.25Z" fill="white" stroke="#F5F5F5" stroke-width="0.5"/>
<mask id="mask0_748_5975" style="mask-type:luminance" maskUnits="userSpaceOnUse" x="0" y="0" width="28" height="20">
<path d="M0.25 0.25H27.75V19.75H0.25V0.25Z" fill="white" stroke="white" stroke-width="0.5"/>
</mask>
<g mask="url(#mask0_748_5975)">
<path fill-rule="evenodd" clip-rule="evenodd" d="M28 9.33333H13.3333V0H28V9.33333Z" fill="#E52448"/>
<path fill-rule="evenodd" clip-rule="evenodd" d="M13.3333 20H0V9.33333H13.3333V20Z" fill="#1367AE"/>
<path fill-rule="evenodd" clip-rule="evenodd" d="M6.66667 5.76L5.09924 6.82405L5.62684 5.00453L4.13052 3.84262L6.02402 3.78214L6.66667 2L7.30931 3.78214L9.20282 3.84262L7.70649 5.00453L8.23409 6.82405L6.66667 5.76Z" fill="#1367AE"/>
<path fill-rule="evenodd" clip-rule="evenodd" d="M20.6667 15.76L19.0992 16.824L19.6268 15.0045L18.1305 13.8426L20.024 13.7821L20.6667 12L21.3093 13.7821L23.2028 13.8426L21.7065 15.0045L22.2341 16.824L20.6667 15.76Z" fill="#E52448"/>
</g>
</svg>
