<svg width="28" height="20" viewBox="0 0 28 20" fill="none" xmlns="http://www.w3.org/2000/svg">
<path d="M0.25 0.25H27.75V19.75H0.25V0.25Z" fill="white" stroke="#F5F5F5" stroke-width="0.5"/>
<mask id="mask0_748_6040" style="mask-type:luminance" maskUnits="userSpaceOnUse" x="0" y="0" width="28" height="20">
<path d="M0.25 0.25H27.75V19.75H0.25V0.25Z" fill="white" stroke="white" stroke-width="0.5"/>
</mask>
<g mask="url(#mask0_748_6040)">
<path fill-rule="evenodd" clip-rule="evenodd" d="M0 0H28V4H0V0ZM0 8H28V12H0V8ZM0 16V20H28V16H0Z" fill="#FA2222"/>
<path fill-rule="evenodd" clip-rule="evenodd" d="M0 0L13.3333 10L0 20V0Z" fill="#1D63F9"/>
<g filter="url(#filter0_d_748_6040)">
<path fill-rule="evenodd" clip-rule="evenodd" d="M4.66667 11.2741L2.70738 12.6967L3.45494 10.3937L1.49648 8.96995L3.91778 8.96925L4.66667 6.66667L5.41555 8.96925L7.83685 8.96995L5.87839 10.3937L6.62595 12.6967L4.66667 11.2741Z" fill="url(#paint0_linear_748_6040)"/>
</g>
</g>
<defs>
<filter id="filter0_d_748_6040" x="1.49648" y="6.66667" width="6.34038" height="7.03006" filterUnits="userSpaceOnUse" color-interpolation-filters="sRGB">
<feFlood flood-opacity="0" result="BackgroundImageFix"/>
<feColorMatrix in="SourceAlpha" type="matrix" values="0 0 0 0 0 0 0 0 0 0 0 0 0 0 0 0 0 0 127 0" result="hardAlpha"/>
<feOffset dy="1"/>
<feColorMatrix type="matrix" values="0 0 0 0 0 0 0 0 0 0 0 0 0 0 0 0 0 0 0.06 0"/>
<feBlend mode="normal" in2="BackgroundImageFix" result="effect1_dropShadow_748_6040"/>
<feBlend mode="normal" in="SourceGraphic" in2="effect1_dropShadow_748_6040" result="shape"/>
</filter>
<linearGradient id="paint0_linear_748_6040" x1="1.33333" y1="6.66667" x2="1.33333" y2="13.3333" gradientUnits="userSpaceOnUse">
<stop stop-color="white"/>
<stop offset="1" stop-color="#F0F0F0"/>
</linearGradient>
</defs>
</svg>
