<svg width="28" height="20" viewBox="0 0 28 20" fill="none" xmlns="http://www.w3.org/2000/svg">
<path d="M0 0H28V20H0V0Z" fill="white"/>
<mask id="mask0_748_6152" style="mask-type:luminance" maskUnits="userSpaceOnUse" x="0" y="0" width="28" height="20">
<path d="M0 0H28V20H0V0Z" fill="white"/>
</mask>
<g mask="url(#mask0_748_6152)">
<path d="M0 0H28V20H0V0Z" fill="url(#paint0_linear_748_6152)"/>
<g filter="url(#filter0_d_748_6152)">
<path fill-rule="evenodd" clip-rule="evenodd" d="M0 0H28L0 20V0Z" fill="url(#paint1_linear_748_6152)"/>
</g>
<path fill-rule="evenodd" clip-rule="evenodd" d="M28 0L0 20H28V0Z" fill="#2C7442"/>
<path d="M-2.77365 19.7057L25.0383 0.946275L38.3655 20.7046L10.5535 39.4641L-2.77365 19.7057Z" fill="#FFD646"/>
<path fill-rule="evenodd" clip-rule="evenodd" d="M2.02035 4.34837L2.20745 3.25752L1.4149 2.48498L2.51017 2.32583L3 1.33334L3.48982 2.32583L4.58509 2.48498L3.79254 3.25752L3.97964 4.34837L3 3.83334L2.02035 4.34837ZM8.68702 4.34837L8.87412 3.25752L8.08157 2.48498L9.17684 2.32583L9.66666 1.33334L10.1565 2.32583L11.2518 2.48498L10.4592 3.25752L10.6463 4.34837L9.66666 3.83334L8.68702 4.34837ZM8.87412 7.25752L8.68702 8.34837L9.66666 7.83334L10.6463 8.34837L10.4592 7.25752L11.2518 6.48498L10.1565 6.32583L9.66666 5.33334L9.17684 6.32583L8.08157 6.48498L8.87412 7.25752ZM3 7.83334L2.02035 8.34837L2.20745 7.25752L1.4149 6.48498L2.51017 6.32583L3 5.33334L3.48982 6.32583L4.58509 6.48498L3.79254 7.25752L3.97964 8.34837L3 7.83334ZM5.35369 6.34837L6.33333 5.83334L7.31297 6.34837L7.12588 5.25752L7.91842 4.48498L6.82315 4.32583L6.33333 3.33334L5.84351 4.32583L4.74824 4.48498L5.54078 5.25752L5.35369 6.34837Z" fill="white"/>
</g>
<defs>
<filter id="filter0_d_748_6152" x="0" y="0" width="28" height="20" filterUnits="userSpaceOnUse" color-interpolation-filters="sRGB">
<feFlood flood-opacity="0" result="BackgroundImageFix"/>
<feColorMatrix in="SourceAlpha" type="matrix" values="0 0 0 0 0 0 0 0 0 0 0 0 0 0 0 0 0 0 127 0" result="hardAlpha"/>
<feOffset/>
<feColorMatrix type="matrix" values="0 0 0 0 0 0 0 0 0 0 0 0 0 0 0 0 0 0 0.06 0"/>
<feBlend mode="normal" in2="BackgroundImageFix" result="effect1_dropShadow_748_6152"/>
<feBlend mode="normal" in="SourceGraphic" in2="effect1_dropShadow_748_6152" result="shape"/>
</filter>
<linearGradient id="paint0_linear_748_6152" x1="0" y1="0" x2="0" y2="20" gradientUnits="userSpaceOnUse">
<stop stop-color="#1DBE4F"/>
<stop offset="1" stop-color="#159B3F"/>
</linearGradient>
<linearGradient id="paint1_linear_748_6152" x1="0" y1="0" x2="0" y2="20" gradientUnits="userSpaceOnUse">
<stop stop-color="#0660D4"/>
<stop offset="1" stop-color="#0051BB"/>
</linearGradient>
</defs>
</svg>
