<svg width="28" height="20" viewBox="0 0 28 20" fill="none" xmlns="http://www.w3.org/2000/svg">
<path d="M0.25 0.25H27.75V19.75H0.25V0.25Z" fill="white" stroke="#F5F5F5" stroke-width="0.5"/>
<mask id="mask0_748_6145" style="mask-type:luminance" maskUnits="userSpaceOnUse" x="0" y="0" width="28" height="20">
<path d="M0.25 0.25H27.75V19.75H0.25V0.25Z" fill="white" stroke="white" stroke-width="0.5"/>
</mask>
<g mask="url(#mask0_748_6145)">
<path fill-rule="evenodd" clip-rule="evenodd" d="M0 20H28V13.3333H0V20Z" fill="#262626"/>
<path fill-rule="evenodd" clip-rule="evenodd" d="M0 6.66667H28V0H0V6.66667Z" fill="#E32139"/>
<path fill-rule="evenodd" clip-rule="evenodd" d="M9.33333 11.0933L7.7659 12.1574L8.29351 10.3379L6.79718 9.17596L8.69069 9.11548L9.33333 7.33334L9.97598 9.11548L11.8695 9.17596L10.3732 10.3379L10.9008 12.1574L9.33333 11.0933Z" fill="#128A49"/>
<path fill-rule="evenodd" clip-rule="evenodd" d="M18.6667 11.0933L17.0992 12.1574L17.6268 10.3379L16.1305 9.17596L18.024 9.11548L18.6667 7.33334L19.3093 9.11548L21.2028 9.17596L19.7065 10.3379L20.2341 12.1574L18.6667 11.0933Z" fill="#128A49"/>
</g>
</svg>
