<svg width="28" height="20" viewBox="0 0 28 20" fill="none" xmlns="http://www.w3.org/2000/svg">
<path d="M0 0H28V20H0V0Z" fill="white"/>
<mask id="mask0_748_6309" style="mask-type:luminance" maskUnits="userSpaceOnUse" x="0" y="0" width="28" height="20">
<path d="M0 0H28V20H0V0Z" fill="white"/>
</mask>
<g mask="url(#mask0_748_6309)">
<path d="M0 0H28V20H0V0Z" fill="#07319C"/>
<path d="M17.6667 10V9.9486V9.8969V9.84494V9.79273V9.74027V9.68759V9.63469V9.58158V9.52828V9.4748V9.42115V9.36735V9.3134V9.28638V9.27962V9.27286V9.25933V9.20514V9.15084V9.09645V9.04198V8.98745V8.93286V8.87822V8.82356V8.76888V8.74153V8.7347V8.72786V8.72103V8.71419V8.70736V8.70052V8.69368V8.68685V8.68001V8.67318V8.66635V8.65951V8.65268V8.64584V8.63901V8.63218V8.62535V8.61852V8.61168V8.60485V8.59802V8.59119V8.58436V8.57753V8.57071V8.56388V8.55705V8.55023V8.5434V8.53658V8.52975V8.52293V8.51611V8.50928V8.50246V8.49564V8.48883V8.48201V8.47519V8.46837V8.46156V8.45474V8.44793V8.44112V8.43431V8.4275V8.42069V8.41388V8.40708V8.40027V8.39347V8.38667V8.37986V8.37306V8.36627V8.35947V8.35267V8.34588V8.33908V8.33229V8.3255V8.31871V8.31193V8.30514V8.29836V8.29157V8.28479V8.27801V8.27124V8.26446V8.25769V8.25092V8.24414V8.23738V8.23061V8.22384V8.21708V8.21032V8.20356V8.1968V8.19005V8.18329V8.17654V8.16979V8.16305V8.1563V8.14956V8.14282V8.13608V8.12934V8.12261V8.11588V8.10915V8.10242V8.09569V8.08897V8.08225V8.07553V8.06881V8.0621V8.05539V8.04868V8.04198V8.03527V8.02857V8.02187V8.01518V8.00848V8.00179V7.99511V7.98842V7.98174V7.97506V7.96838V7.96171V7.95504V7.94837V7.9417V7.93504V7.92838V7.92172V7.91507V7.90842V7.90177V7.89513V7.88849V7.87521V7.8487V7.79584V7.74319V7.69078V7.63862V7.58671V7.53506V7.48371V7.43264V7.38188V7.33144V7.28134V7.23158V7.18217V7.13313V7.08448V7.03622V6.94093V6.84737V6.75564V6.66583C17.6667 6.11382 18.1141 5.66668 18.6667 5.66668H22.6667C23.2192 5.66668 23.6667 6.11382 23.6667 6.66583V6.67138V6.67695V6.68252V6.6881V6.69368V6.69928V6.70488V6.71049V6.7161V6.72173V6.72736V6.733V6.73865V6.7443V6.74997V6.75564V6.76132V6.767V6.77269V6.7784V6.7841V6.78982V6.79554V6.80127V6.80701V6.81275V6.8185V6.82426V6.83003V6.8358V6.84158V6.84737V6.85317V6.85897V6.86478V6.8706V6.87642V6.88225V6.88809V6.89393V6.89978V6.90564V6.91151V6.91738V6.92326V6.92914V6.93503V6.94093V6.94684V6.95275V6.95867V6.9646V6.97053V6.97647V6.98242V6.98837V6.99433V7.00029V7.00626V7.01224V7.01823V7.02422V7.03022V7.03622V7.04223V7.04825V7.05427V7.0603V7.06634V7.07238V7.07843V7.08448V7.09054V7.09661V7.10268V7.10876V7.11485V7.12094V7.12703V7.13314V7.13924V7.14536V7.15148V7.15761V7.16374V7.16988V7.17602V7.18217V7.18833V7.19449V7.20066V7.20683V7.21301V7.21919V7.22538V7.23158V7.23778V7.24398V7.2502V7.25641V7.26264V7.26887V7.2751V7.28134V7.28758V7.29383V7.30009V7.30635V7.31262V7.31889V7.32516V7.33145V7.33773V7.34402V7.35032V7.35662V7.36293V7.36924V7.37556V7.38188V7.38821V7.39454V7.40088V7.40722V7.41357V7.41992V7.42628V7.43264V7.43901V7.44538V7.45176V7.45814V7.46452V7.47091V7.47731V7.48371V7.49011V7.49652V7.50293V7.50935V7.51577V7.5222V7.52863V7.53507V7.54151V7.54795V7.5544V7.56085V7.56731V7.57377V7.58024V7.58671V7.59318V7.59966V7.60614V7.61263V7.61912V7.62561V7.63211V7.63862V7.64512V7.65163V7.65815V7.66467V7.67119V7.67772V7.68425V7.69078V7.69732V7.70386V7.71041V7.71696V7.72351V7.73007V7.73663V7.7432V7.74976V7.75634V7.76291V7.76949V7.77607V7.78266V7.78925V7.79584V7.80244V7.80904V7.81564V7.82224V7.82885V7.83547V7.84208V7.8487V7.85533V7.86195V7.86858V7.87521V7.88185V7.88849V7.89513V7.90177V7.90842V7.91507V7.92173V7.92838V7.93504V7.9417V7.94837V7.95504V7.96171V7.96838V7.97506V7.98174V7.98842V7.99511V8.00179V8.00849V8.01518V8.02187V8.02857V8.03527V8.04198V8.04868V8.05539V8.0621V8.06882V8.07553V8.08225V8.08897V8.09569V8.10242V8.10915V8.11588V8.12261V8.12934V8.13608V8.14282V8.14956V8.1563V8.16305V8.16979V8.17654V8.1833V8.19005V8.1968V8.20356V8.21032V8.21708V8.22385V8.23061V8.23738V8.24415V8.25092V8.25769V8.26446V8.27124V8.27802V8.28479V8.29158V8.29836V8.30514V8.31193V8.31871V8.3255V8.33229V8.33908V8.34588V8.35267V8.35947V8.36627V8.37306V8.37986V8.38667V8.39347V8.40027V8.40708V8.41388V8.42069V8.4275V8.43431V8.44112V8.44793V8.45475V8.46156V8.46837V8.47519V8.48201V8.48883V8.49564V8.50246V8.50929V8.51611V8.52293V8.52975V8.53658V8.5434V8.55023V8.55705V8.56388V8.57071V8.57754V8.58436V8.59119V8.59802V8.60485V8.61168V8.61852V8.62535V8.63218V8.63901V8.64585V8.65268V8.65951V8.66635V8.67318V8.68002V8.68685V8.69369V8.70052V8.70736V8.71419V8.72103V8.72786V8.7347V8.74153V8.74837V8.75521V8.76204V8.76888V8.77571V8.78255V8.78938V8.79622V8.80305V8.80989V8.81672V8.82356V8.83039V8.83723V8.84406V8.85089V8.85773V8.86456V8.87139V8.87822V8.88505V8.89188V8.89871V8.90554V8.91237V8.9192V8.92603V8.93286V8.93968V8.94651V8.95333V8.96016V8.96698V8.9738V8.98063V8.98745V8.99427V9.00109V9.00791V9.01472V9.02154V9.02836V9.03517V9.04198V9.0488V9.05561V9.06242V9.06923V9.07604V9.08284V9.08965V9.09645V9.10326V9.11006V9.11686V9.12366V9.13046V9.13725V9.14405V9.15084V9.15763V9.16442V9.17121V9.178V9.18479V9.19157V9.19836V9.20514V9.21192V9.2187V9.22547V9.23225V9.23902V9.24579V9.25256V9.25933V9.2661V9.27286V9.27962V9.28638V9.29314V9.2999V9.30665V9.3134V9.32015V9.3269V9.33365V9.34039V9.34713V9.35387V9.36061V9.36735V9.37408V9.38081V9.38754V9.39427V9.40099V9.40771V9.41443V9.42115V9.42786V9.43458V9.44129V9.44799V9.4547V9.4614V9.4681V9.4748V9.48149V9.48818V9.49487V9.50156V9.50824V9.51492V9.5216V9.52828V9.53495V9.54162V9.54829V9.55495V9.56161V9.56827V9.57492V9.58158V9.58823V9.59487V9.60152V9.60816V9.61479V9.62143V9.62806V9.63469V9.64131V9.64793V9.65455V9.66116V9.66777V9.67438V9.68099V9.68759V9.69419V9.70078V9.70737V9.71396V9.72054V9.72712V9.7337V9.74027V9.74684V9.75341V9.75997V9.76653V9.77309V9.77964V9.78619V9.79273V9.79927V9.80581V9.81234V9.81887V9.82539V9.83191V9.83843V9.84494V9.85145V9.85796V9.86446V9.87096V9.87745V9.88394V9.89042V9.8969V9.90338V9.90985V9.91632V9.92278V9.92924V9.9357V9.94215V9.9486V9.95504V9.96148V9.96791V9.97434V9.98076V9.98718V9.9936V10C23.6667 11.5427 22.8988 12.6259 22.1103 13.3356C21.7158 13.6906 21.3202 13.9479 21.0232 14.1163C20.875 14.2002 20.7523 14.2615 20.6678 14.3014C20.6674 14.3015 20.667 14.3017 20.6667 14.3019C20.6663 14.3017 20.6659 14.3015 20.6656 14.3014C20.5811 14.2615 20.4584 14.2002 20.3102 14.1163C20.0131 13.9479 19.6175 13.6906 19.223 13.3356C18.4345 12.6259 17.6667 11.5427 17.6667 10Z" fill="#FFD033" stroke="white" stroke-width="0.666667"/>
<mask id="mask1_748_6309" style="mask-type:luminance" maskUnits="userSpaceOnUse" x="17" y="5" width="7" height="10">
<path d="M17.6667 10V9.9486V9.8969V9.84494V9.79273V9.74027V9.68759V9.63469V9.58158V9.52828V9.4748V9.42115V9.36735V9.3134V9.28638V9.27962V9.27286V9.25933V9.20514V9.15084V9.09645V9.04198V8.98745V8.93286V8.87822V8.82356V8.76888V8.74153V8.7347V8.72786V8.72103V8.71419V8.70736V8.70052V8.69368V8.68685V8.68001V8.67318V8.66635V8.65951V8.65268V8.64584V8.63901V8.63218V8.62535V8.61852V8.61168V8.60485V8.59802V8.59119V8.58436V8.57753V8.57071V8.56388V8.55705V8.55023V8.5434V8.53658V8.52975V8.52293V8.51611V8.50928V8.50246V8.49564V8.48883V8.48201V8.47519V8.46837V8.46156V8.45474V8.44793V8.44112V8.43431V8.4275V8.42069V8.41388V8.40708V8.40027V8.39347V8.38667V8.37986V8.37306V8.36627V8.35947V8.35267V8.34588V8.33908V8.33229V8.3255V8.31871V8.31193V8.30514V8.29836V8.29157V8.28479V8.27801V8.27124V8.26446V8.25769V8.25092V8.24414V8.23738V8.23061V8.22384V8.21708V8.21032V8.20356V8.1968V8.19005V8.18329V8.17654V8.16979V8.16305V8.1563V8.14956V8.14282V8.13608V8.12934V8.12261V8.11588V8.10915V8.10242V8.09569V8.08897V8.08225V8.07553V8.06881V8.0621V8.05539V8.04868V8.04198V8.03527V8.02857V8.02187V8.01518V8.00848V8.00179V7.99511V7.98842V7.98174V7.97506V7.96838V7.96171V7.95504V7.94837V7.9417V7.93504V7.92838V7.92172V7.91507V7.90842V7.90177V7.89513V7.88849V7.87521V7.8487V7.79584V7.74319V7.69078V7.63862V7.58671V7.53506V7.48371V7.43264V7.38188V7.33144V7.28134V7.23158V7.18217V7.13313V7.08448V7.03622V6.94093V6.84737V6.75564V6.66583C17.6667 6.11382 18.1141 5.66668 18.6667 5.66668H22.6667C23.2192 5.66668 23.6667 6.11382 23.6667 6.66583V6.67138V6.67695V6.68252V6.6881V6.69368V6.69928V6.70488V6.71049V6.7161V6.72173V6.72736V6.733V6.73865V6.7443V6.74997V6.75564V6.76132V6.767V6.77269V6.7784V6.7841V6.78982V6.79554V6.80127V6.80701V6.81275V6.8185V6.82426V6.83003V6.8358V6.84158V6.84737V6.85317V6.85897V6.86478V6.8706V6.87642V6.88225V6.88809V6.89393V6.89978V6.90564V6.91151V6.91738V6.92326V6.92914V6.93503V6.94093V6.94684V6.95275V6.95867V6.9646V6.97053V6.97647V6.98242V6.98837V6.99433V7.00029V7.00626V7.01224V7.01823V7.02422V7.03022V7.03622V7.04223V7.04825V7.05427V7.0603V7.06634V7.07238V7.07843V7.08448V7.09054V7.09661V7.10268V7.10876V7.11485V7.12094V7.12703V7.13314V7.13924V7.14536V7.15148V7.15761V7.16374V7.16988V7.17602V7.18217V7.18833V7.19449V7.20066V7.20683V7.21301V7.21919V7.22538V7.23158V7.23778V7.24398V7.2502V7.25641V7.26264V7.26887V7.2751V7.28134V7.28758V7.29383V7.30009V7.30635V7.31262V7.31889V7.32516V7.33145V7.33773V7.34402V7.35032V7.35662V7.36293V7.36924V7.37556V7.38188V7.38821V7.39454V7.40088V7.40722V7.41357V7.41992V7.42628V7.43264V7.43901V7.44538V7.45176V7.45814V7.46452V7.47091V7.47731V7.48371V7.49011V7.49652V7.50293V7.50935V7.51577V7.5222V7.52863V7.53507V7.54151V7.54795V7.5544V7.56085V7.56731V7.57377V7.58024V7.58671V7.59318V7.59966V7.60614V7.61263V7.61912V7.62561V7.63211V7.63862V7.64512V7.65163V7.65815V7.66467V7.67119V7.67772V7.68425V7.69078V7.69732V7.70386V7.71041V7.71696V7.72351V7.73007V7.73663V7.7432V7.74976V7.75634V7.76291V7.76949V7.77607V7.78266V7.78925V7.79584V7.80244V7.80904V7.81564V7.82224V7.82885V7.83547V7.84208V7.8487V7.85533V7.86195V7.86858V7.87521V7.88185V7.88849V7.89513V7.90177V7.90842V7.91507V7.92173V7.92838V7.93504V7.9417V7.94837V7.95504V7.96171V7.96838V7.97506V7.98174V7.98842V7.99511V8.00179V8.00849V8.01518V8.02187V8.02857V8.03527V8.04198V8.04868V8.05539V8.0621V8.06882V8.07553V8.08225V8.08897V8.09569V8.10242V8.10915V8.11588V8.12261V8.12934V8.13608V8.14282V8.14956V8.1563V8.16305V8.16979V8.17654V8.1833V8.19005V8.1968V8.20356V8.21032V8.21708V8.22385V8.23061V8.23738V8.24415V8.25092V8.25769V8.26446V8.27124V8.27802V8.28479V8.29158V8.29836V8.30514V8.31193V8.31871V8.3255V8.33229V8.33908V8.34588V8.35267V8.35947V8.36627V8.37306V8.37986V8.38667V8.39347V8.40027V8.40708V8.41388V8.42069V8.4275V8.43431V8.44112V8.44793V8.45475V8.46156V8.46837V8.47519V8.48201V8.48883V8.49564V8.50246V8.50929V8.51611V8.52293V8.52975V8.53658V8.5434V8.55023V8.55705V8.56388V8.57071V8.57754V8.58436V8.59119V8.59802V8.60485V8.61168V8.61852V8.62535V8.63218V8.63901V8.64585V8.65268V8.65951V8.66635V8.67318V8.68002V8.68685V8.69369V8.70052V8.70736V8.71419V8.72103V8.72786V8.7347V8.74153V8.74837V8.75521V8.76204V8.76888V8.77571V8.78255V8.78938V8.79622V8.80305V8.80989V8.81672V8.82356V8.83039V8.83723V8.84406V8.85089V8.85773V8.86456V8.87139V8.87822V8.88505V8.89188V8.89871V8.90554V8.91237V8.9192V8.92603V8.93286V8.93968V8.94651V8.95333V8.96016V8.96698V8.9738V8.98063V8.98745V8.99427V9.00109V9.00791V9.01472V9.02154V9.02836V9.03517V9.04198V9.0488V9.05561V9.06242V9.06923V9.07604V9.08284V9.08965V9.09645V9.10326V9.11006V9.11686V9.12366V9.13046V9.13725V9.14405V9.15084V9.15763V9.16442V9.17121V9.178V9.18479V9.19157V9.19836V9.20514V9.21192V9.2187V9.22547V9.23225V9.23902V9.24579V9.25256V9.25933V9.2661V9.27286V9.27962V9.28638V9.29314V9.2999V9.30665V9.3134V9.32015V9.3269V9.33365V9.34039V9.34713V9.35387V9.36061V9.36735V9.37408V9.38081V9.38754V9.39427V9.40099V9.40771V9.41443V9.42115V9.42786V9.43458V9.44129V9.44799V9.4547V9.4614V9.4681V9.4748V9.48149V9.48818V9.49487V9.50156V9.50824V9.51492V9.5216V9.52828V9.53495V9.54162V9.54829V9.55495V9.56161V9.56827V9.57492V9.58158V9.58823V9.59487V9.60152V9.60816V9.61479V9.62143V9.62806V9.63469V9.64131V9.64793V9.65455V9.66116V9.66777V9.67438V9.68099V9.68759V9.69419V9.70078V9.70737V9.71396V9.72054V9.72712V9.7337V9.74027V9.74684V9.75341V9.75997V9.76653V9.77309V9.77964V9.78619V9.79273V9.79927V9.80581V9.81234V9.81887V9.82539V9.83191V9.83843V9.84494V9.85145V9.85796V9.86446V9.87096V9.87745V9.88394V9.89042V9.8969V9.90338V9.90985V9.91632V9.92278V9.92924V9.9357V9.94215V9.9486V9.95504V9.96148V9.96791V9.97434V9.98076V9.98718V9.9936V10C23.6667 11.5427 22.8988 12.6259 22.1103 13.3356C21.7158 13.6906 21.3202 13.9479 21.0232 14.1163C20.875 14.2002 20.7523 14.2615 20.6678 14.3014C20.6674 14.3015 20.667 14.3017 20.6667 14.3019C20.6663 14.3017 20.6659 14.3015 20.6656 14.3014C20.5811 14.2615 20.4584 14.2002 20.3102 14.1163C20.0131 13.9479 19.6175 13.6906 19.223 13.3356C18.4345 12.6259 17.6667 11.5427 17.6667 10Z" fill="white" stroke="white" stroke-width="0.666667"/>
</mask>
<g mask="url(#mask1_748_6309)">
<path fill-rule="evenodd" clip-rule="evenodd" d="M22 9.33335C22.3682 9.33335 22.6667 8.7364 22.6667 8.00002C22.6667 7.26364 22.3682 6.66669 22 6.66669C21.6318 6.66669 21.3333 7.26364 21.3333 8.00002C21.3333 8.7364 21.6318 9.33335 22 9.33335Z" fill="#BA5B1F"/>
<path fill-rule="evenodd" clip-rule="evenodd" d="M19.5385 9.29315C19.8845 9.16723 19.9608 8.50419 19.709 7.81222C19.4571 7.12025 18.9724 6.66138 18.6265 6.78731C18.2805 6.91323 18.2042 7.57627 18.456 8.26824C18.7079 8.96021 19.1925 9.41908 19.5385 9.29315Z" fill="#FF9F3E"/>
<path fill-rule="evenodd" clip-rule="evenodd" d="M19.0516 9.27089C19.3853 9.4265 19.9081 9.01161 20.2193 8.34423C20.5305 7.67684 20.5123 7.00968 20.1786 6.85407C19.8449 6.69847 19.3221 7.11335 19.0109 7.78074C18.6997 8.44812 18.7179 9.11529 19.0516 9.27089Z" fill="#FF937F"/>
<path fill-rule="evenodd" clip-rule="evenodd" d="M20 10.6667L20.6667 9.33334L21.3333 10.6667V12H20V10.6667Z" fill="#01A827"/>
</g>
<path d="M0 -0.333333H-0.901086L-0.21693 0.253086L4.33333 4.15331V5.16179L-0.193746 8.39542L-0.333333 8.49513V8.66667V9.33333V9.93475L0.176666 9.616L5.42893 6.33333H6.55984L11.0821 9.56351C11.176 9.6306 11.2886 9.66667 11.404 9.66667C11.9182 9.66667 12.1548 9.02698 11.7644 8.69237L7.66667 5.18002V4.17154L12.0542 1.03762C12.2294 0.912475 12.3333 0.710428 12.3333 0.495127V0V-0.601416L11.8233 -0.282666L6.57107 3H5.44016L0.860413 -0.271244L0.773488 -0.333333H0.666667H0Z" fill="#DB1E36" stroke="white" stroke-width="0.666667"/>
<path fill-rule="evenodd" clip-rule="evenodd" d="M0 3.33333V6H4.66667V9.33333C4.66667 9.70152 4.96514 10 5.33333 10H6.66667C7.03486 10 7.33333 9.70152 7.33333 9.33333V6H12C12.3682 6 12.6667 5.70152 12.6667 5.33333V4C12.6667 3.63181 12.3682 3.33333 12 3.33333H7.33333V0H4.66667V3.33333H0Z" fill="white"/>
<path fill-rule="evenodd" clip-rule="evenodd" d="M0 4H5.33333V3.33333V0H6.66667V3.33333V4H12V5.33333H6.66667V6V9.33333H5.33333V6V5.33333H0V4Z" fill="#DB1E36"/>
</g>
</svg>
