<svg width="28" height="20" viewBox="0 0 28 20" fill="none" xmlns="http://www.w3.org/2000/svg">
<path d="M0 0H28V20H0V0Z" fill="white"/>
<mask id="mask0_748_6339" style="mask-type:luminance" maskUnits="userSpaceOnUse" x="0" y="0" width="28" height="20">
<path d="M0 0H28V20H0V0Z" fill="white"/>
</mask>
<g mask="url(#mask0_748_6339)">
<path fill-rule="evenodd" clip-rule="evenodd" d="M0 20H28V0H0V20Z" fill="#30C375"/>
<path d="M4 0H8V20H4V0Z" fill="#DE414F"/>
<path fill-rule="evenodd" clip-rule="evenodd" d="M6 4.00001C7.10457 4.00001 8 3.40306 8 2.66668C8 1.9303 7.10457 1.33334 6 1.33334C4.89543 1.33334 4 1.9303 4 2.66668C4 3.40306 4.89543 4.00001 6 4.00001Z" fill="white"/>
<mask id="mask1_748_6339" style="mask-type:luminance" maskUnits="userSpaceOnUse" x="4" y="1" width="4" height="3">
<path fill-rule="evenodd" clip-rule="evenodd" d="M6 4.00001C7.10457 4.00001 8 3.40306 8 2.66668C8 1.9303 7.10457 1.33334 6 1.33334C4.89543 1.33334 4 1.9303 4 2.66668C4 3.40306 4.89543 4.00001 6 4.00001Z" fill="white"/>
</mask>
<g mask="url(#mask1_748_6339)">
<path fill-rule="evenodd" clip-rule="evenodd" d="M6 3.33333C6.36819 3.33333 6.66667 3.03486 6.66667 2.66667C6.66667 2.29848 6.36819 2 6 2C5.63181 2 5.33334 2.29848 5.33334 2.66667C5.33334 3.03486 5.63181 3.33333 6 3.33333Z" fill="#DD404F"/>
<path d="M4 1.33334H6V2.66668H4V1.33334Z" fill="#FBAF29"/>
<path d="M6 2.66669H8V4.00002H6V2.66669Z" fill="#FBAF29"/>
</g>
<path fill-rule="evenodd" clip-rule="evenodd" d="M6 18.6667C7.10457 18.6667 8 18.0697 8 17.3333C8 16.597 7.10457 16 6 16C4.89543 16 4 16.597 4 17.3333C4 18.0697 4.89543 18.6667 6 18.6667Z" fill="white"/>
<mask id="mask2_748_6339" style="mask-type:luminance" maskUnits="userSpaceOnUse" x="4" y="16" width="4" height="3">
<path fill-rule="evenodd" clip-rule="evenodd" d="M6 18.6667C7.10457 18.6667 8 18.0697 8 17.3333C8 16.597 7.10457 16 6 16C4.89543 16 4 16.597 4 17.3333C4 18.0697 4.89543 18.6667 6 18.6667Z" fill="white"/>
</mask>
<g mask="url(#mask2_748_6339)">
<path fill-rule="evenodd" clip-rule="evenodd" d="M6 18C6.36819 18 6.66667 17.7015 6.66667 17.3333C6.66667 16.9651 6.36819 16.6667 6 16.6667C5.63181 16.6667 5.33334 16.9651 5.33334 17.3333C5.33334 17.7015 5.63181 18 6 18Z" fill="#DD404F"/>
<path d="M4 16H6V17.3333H4V16Z" fill="#FBAF29"/>
<path d="M6 17.3333H8V18.6667H6V17.3333Z" fill="#FBAF29"/>
</g>
<path fill-rule="evenodd" clip-rule="evenodd" d="M6 12C7.10457 12 8 11.4031 8 10.6667C8 9.9303 7.10457 9.33334 6 9.33334C4.89543 9.33334 4 9.9303 4 10.6667C4 11.4031 4.89543 12 6 12Z" fill="#28AE67"/>
<mask id="mask3_748_6339" style="mask-type:luminance" maskUnits="userSpaceOnUse" x="4" y="9" width="4" height="3">
<path fill-rule="evenodd" clip-rule="evenodd" d="M6 12C7.10457 12 8 11.4031 8 10.6667C8 9.9303 7.10457 9.33334 6 9.33334C4.89543 9.33334 4 9.9303 4 10.6667C4 11.4031 4.89543 12 6 12Z" fill="white"/>
</mask>
<g mask="url(#mask3_748_6339)">
<path fill-rule="evenodd" clip-rule="evenodd" d="M6 11.3333C6.73638 11.3333 7.33333 11.0349 7.33333 10.6667C7.33333 10.2985 6.73638 10 6 10C5.26362 10 4.66666 10.2985 4.66666 10.6667C4.66666 11.0349 5.26362 11.3333 6 11.3333Z" fill="#DD404F"/>
</g>
<path fill-rule="evenodd" clip-rule="evenodd" d="M6 14.6667C7.10457 14.6667 8 14.3682 8 14C8 13.6318 7.10457 13.3333 6 13.3333C4.89543 13.3333 4 13.6318 4 14C4 14.3682 4.89543 14.6667 6 14.6667Z" fill="#28AE67"/>
<mask id="mask4_748_6339" style="mask-type:luminance" maskUnits="userSpaceOnUse" x="4" y="13" width="4" height="2">
<path fill-rule="evenodd" clip-rule="evenodd" d="M6 14.6667C7.10457 14.6667 8 14.3682 8 14C8 13.6318 7.10457 13.3333 6 13.3333C4.89543 13.3333 4 13.6318 4 14C4 14.3682 4.89543 14.6667 6 14.6667Z" fill="white"/>
</mask>
<g mask="url(#mask4_748_6339)">
</g>
<path fill-rule="evenodd" clip-rule="evenodd" d="M6 8.00001C7.10457 8.00001 8 7.40306 8 6.66668C8 5.9303 7.10457 5.33334 6 5.33334C4.89543 5.33334 4 5.9303 4 6.66668C4 7.40306 4.89543 8.00001 6 8.00001Z" fill="#FBAF29"/>
<mask id="mask5_748_6339" style="mask-type:luminance" maskUnits="userSpaceOnUse" x="4" y="5" width="4" height="3">
<path fill-rule="evenodd" clip-rule="evenodd" d="M6 8.00001C7.10457 8.00001 8 7.40306 8 6.66668C8 5.9303 7.10457 5.33334 6 5.33334C4.89543 5.33334 4 5.9303 4 6.66668C4 7.40306 4.89543 8.00001 6 8.00001Z" fill="white"/>
</mask>
<g mask="url(#mask5_748_6339)">
<path fill-rule="evenodd" clip-rule="evenodd" d="M6 7.33333C6.36819 7.33333 6.66667 7.03486 6.66667 6.66667C6.66667 6.29848 6.36819 6 6 6C5.63181 6 5.33334 6.29848 5.33334 6.66667C5.33334 7.03486 5.63181 7.33333 6 7.33333Z" fill="#DD404F"/>
<path d="M4 5.33334H5.33333V8.00001H4V5.33334Z" fill="#28AE67"/>
<path d="M6.66666 5.33334H8V8.00001H6.66666V5.33334Z" fill="#28AE67"/>
</g>
<path fill-rule="evenodd" clip-rule="evenodd" d="M14.8226 4.23815C14.586 4.5202 14.6228 4.9407 14.9048 5.17737C15.1869 5.41404 15.6074 5.37725 15.844 5.0952C16.0807 4.81315 16.0439 4.39264 15.7619 4.15598C15.4798 3.91931 15.0593 3.9561 14.8226 4.23815ZM13.0952 6.82264C12.8132 6.58597 12.3927 6.62276 12.156 6.90481C11.9193 7.18686 11.9561 7.60737 12.2382 7.84404C12.5202 8.0807 12.9407 8.04391 13.1774 7.76186C13.414 7.47981 13.3773 7.05931 13.0952 6.82264ZM11.7619 5.48931C11.4798 5.25264 11.0593 5.28943 10.8227 5.57148C10.586 5.85353 10.6228 6.27403 10.9048 6.5107C11.1869 6.74737 11.6074 6.71058 11.844 6.42853C12.0807 6.14648 12.0439 5.72598 11.7619 5.48931ZM14.4285 2.82264C14.1465 2.58597 13.726 2.62276 13.4893 2.90481C13.2526 3.18686 13.2894 3.60737 13.5715 3.84404C13.8535 4.0807 14.274 4.04391 14.5107 3.76186C14.7474 3.47981 14.7106 3.05931 14.4285 2.82264ZM13.7619 4.82264C13.4798 4.58597 13.0593 4.62276 12.8226 4.90481C12.586 5.18686 12.6228 5.60737 12.9048 5.84404C13.1869 6.0807 13.6074 6.04391 13.844 5.76186C14.0807 5.47981 14.0439 5.05931 13.7619 4.82264Z" fill="white"/>
<path fill-rule="evenodd" clip-rule="evenodd" d="M17.4761 9.45051C15.888 11.0386 13.3133 11.0386 11.7253 9.45051C11.5714 9.29664 11.4324 9.13349 11.3084 8.96288C12.8985 10.1191 15.1374 9.98015 16.5716 8.54598C18.0057 7.11181 18.1447 4.8729 16.9885 3.28278C17.1591 3.40683 17.3222 3.5458 17.4761 3.69968C19.0641 5.28773 19.0641 7.86246 17.4761 9.45051Z" fill="white"/>
</g>
</svg>
