<svg width="28" height="20" viewBox="0 0 28 20" fill="none" xmlns="http://www.w3.org/2000/svg">
<path d="M0.25 0.25H27.75V19.75H0.25V0.25Z" fill="white" stroke="#F5F5F5" stroke-width="0.5"/>
<mask id="mask0_748_6406" style="mask-type:luminance" maskUnits="userSpaceOnUse" x="0" y="0" width="28" height="20">
<path d="M0.25 0.25H27.75V19.75H0.25V0.25Z" fill="white" stroke="white" stroke-width="0.5"/>
</mask>
<g mask="url(#mask0_748_6406)">
<path fill-rule="evenodd" clip-rule="evenodd" d="M28 2.66666H13.3333V5.33332H28V2.66666ZM13.3333 7.99999V10.6667H28V7.99999H13.3333ZM13.3333 13.3333L0 13.3333V16H28V13.3333H13.3333ZM0 20V18.6667H28V20H0Z" fill="#0E4DC5"/>
<path fill-rule="evenodd" clip-rule="evenodd" d="M6.66666 9.3213L5.77657 10.6499L5.55111 9.06668L4.1727 9.87756L4.65652 8.35327L3.06278 8.48577L4.16006 7.32235L2.66666 6.75024L4.16006 6.17812L3.06278 5.0147L4.65652 5.14721L4.1727 3.62291L5.55111 4.43379L5.77657 2.85052L6.66666 4.17917L7.55674 2.85052L7.7822 4.43379L9.16062 3.62291L8.67679 5.14721L10.2705 5.0147L9.17326 6.17812L10.6667 6.75024L9.17326 7.32235L10.2705 8.48577L8.67679 8.35327L9.16062 9.87756L7.7822 9.06668L7.55674 10.6499L6.66666 9.3213ZM6.66666 9.29569C8.07247 9.29569 9.21211 8.15605 9.21211 6.75024C9.21211 5.34442 8.07247 4.20478 6.66666 4.20478C5.26084 4.20478 4.1212 5.34442 4.1212 6.75024C4.1212 8.15605 5.26084 9.29569 6.66666 9.29569ZM8.66666 6.66666C8.66666 7.77123 7.77123 8.66666 6.66666 8.66666C5.56209 8.66666 4.66666 7.77123 4.66666 6.66666C4.66666 5.56209 5.56209 4.66666 6.66666 4.66666C7.77123 4.66666 8.66666 5.56209 8.66666 6.66666Z" fill="#FED443"/>
</g>
</svg>
