<svg width="28" height="20" viewBox="0 0 28 20" fill="none" xmlns="http://www.w3.org/2000/svg">
<path d="M0 0H28V20H0V0Z" fill="white"/>
<mask id="mask0_748_6464" style="mask-type:luminance" maskUnits="userSpaceOnUse" x="0" y="0" width="28" height="20">
<path d="M0 0H28V20H0V0Z" fill="white"/>
</mask>
<g mask="url(#mask0_748_6464)">
<path d="M13.3333 0H28V20H13.3333V0Z" fill="#08C47A"/>
<path fill-rule="evenodd" clip-rule="evenodd" d="M0 20H9.33333V0H0V20Z" fill="#0C87E1"/>
<path fill-rule="evenodd" clip-rule="evenodd" d="M8 20H20V0H8V20Z" fill="#FECB2F"/>
<path fill-rule="evenodd" clip-rule="evenodd" d="M9.33334 8L11.3333 4L13.3333 8L11.3333 12L9.33334 8ZM14.6667 8L16.6667 4L18.6667 8L16.6667 12L14.6667 8ZM14 9.33333L12 13.3333L14 17.3333L16 13.3333L14 9.33333Z" fill="#08C47A"/>
</g>
</svg>
