<svg width="28" height="20" viewBox="0 0 28 20" fill="none" xmlns="http://www.w3.org/2000/svg">
<path d="M0 0H28V20H0V0Z" fill="white"/>
<mask id="mask0_748_6483" style="mask-type:luminance" maskUnits="userSpaceOnUse" x="0" y="0" width="28" height="20">
<path d="M0 0H28V20H0V0Z" fill="white"/>
</mask>
<g mask="url(#mask0_748_6483)">
<path d="M0 0H28V20H0V0Z" fill="#07319C"/>
<path fill-rule="evenodd" clip-rule="evenodd" d="M17.3333 10C17.3333 8.90627 17.3333 7.61316 17.3333 6.66583C17.3333 5.92945 17.9303 5.33334 18.6667 5.33334H22.6667C23.403 5.33334 24 5.92945 24 6.66583C24 7.61316 24 8.90627 24 10C24 13.3333 20.6667 14.6667 20.6667 14.6667C20.6667 14.6667 17.3333 13.3333 17.3333 10Z" fill="#008339"/>
<mask id="mask1_748_6483" style="mask-type:luminance" maskUnits="userSpaceOnUse" x="17" y="5" width="7" height="10">
<path fill-rule="evenodd" clip-rule="evenodd" d="M17.3333 10C17.3333 8.90627 17.3333 7.61316 17.3333 6.66583C17.3333 5.92945 17.9303 5.33334 18.6667 5.33334H22.6667C23.403 5.33334 24 5.92945 24 6.66583C24 7.61316 24 8.90627 24 10C24 13.3333 20.6667 14.6667 20.6667 14.6667C20.6667 14.6667 17.3333 13.3333 17.3333 10Z" fill="white"/>
</mask>
<g mask="url(#mask1_748_6483)">
<path fill-rule="evenodd" clip-rule="evenodd" d="M19.3333 8.00002C19.7015 8.00002 20 7.70154 20 7.33335C20 6.96516 19.7015 6.66669 19.3333 6.66669C18.9651 6.66669 18.6667 6.96516 18.6667 7.33335C18.6667 7.70154 18.9651 8.00002 19.3333 8.00002ZM19.3333 9.33335C19.7015 9.33335 20 9.03488 20 8.66669C20 8.2985 19.7015 8.00002 19.3333 8.00002C18.9651 8.00002 18.6667 8.2985 18.6667 8.66669C18.6667 9.03488 18.9651 9.33335 19.3333 9.33335ZM19.3333 10.6667C18.9651 10.6667 18.6667 10.3682 18.6667 10C18.6667 9.63183 18.9651 9.33335 19.3333 9.33335C19.7015 9.33335 20 9.63183 20 10C20 10.3682 19.7015 10.6667 19.3333 10.6667ZM19.3333 10.6667C19.7015 10.6667 20 10.9652 20 11.3334C20 11.7015 19.7015 12 19.3333 12C18.9651 12 18.6667 11.7015 18.6667 11.3334C18.6667 10.9652 18.9651 10.6667 19.3333 10.6667ZM22.6667 11.3334C22.6667 11.7015 22.3682 12 22 12C21.6318 12 21.3333 11.7015 21.3333 11.3334C21.3333 10.9652 21.6318 10.6667 22 10.6667C22.3682 10.6667 22.6667 10.9652 22.6667 11.3334ZM22 9.33335C22.3682 9.33335 22.6667 9.63183 22.6667 10C22.6667 10.3682 22.3682 10.6667 22 10.6667C21.6318 10.6667 21.3333 10.3682 21.3333 10C21.3333 9.63183 21.6318 9.33335 22 9.33335ZM22 8.00002C21.6318 8.00002 21.3333 8.2985 21.3333 8.66669C21.3333 9.03488 21.6318 9.33335 22 9.33335C22.3682 9.33335 22.6667 9.03488 22.6667 8.66669C22.6667 8.2985 22.3682 8.00002 22 8.00002ZM22 8.00002C21.6318 8.00002 21.3333 7.70154 21.3333 7.33335C21.3333 6.96516 21.6318 6.66669 22 6.66669C22.3682 6.66669 22.6667 6.96516 22.6667 7.33335C22.6667 7.70154 22.3682 8.00002 22 8.00002Z" fill="#FFD033"/>
<path fill-rule="evenodd" clip-rule="evenodd" d="M20.6667 11.3333C21.0349 11.3333 21.3333 10.4379 21.3333 9.33334C21.3333 8.22877 21.0349 7.33334 20.6667 7.33334C20.2985 7.33334 20 8.22877 20 9.33334C20 10.4379 20.2985 11.3333 20.6667 11.3333Z" fill="white"/>
</g>
<path d="M16.6667 13.3333C16.6667 14.6048 18.4879 15.3333 20.6667 15.3333C22.8455 15.3333 24.6667 14.6048 24.6667 13.3333C24.6667 12.9651 24.3682 12.6667 24 12.6667C23.6318 12.6667 23.3333 12.9651 23.3333 13.3333C23.3333 13.3461 23.1717 13.4989 22.7761 13.6571C22.239 13.872 21.4824 14 20.6667 14C19.8509 14 19.0943 13.872 18.5572 13.6571C18.1616 13.4989 18 13.3461 18 13.3333C18 12.9651 17.7015 12.6667 17.3333 12.6667C16.9651 12.6667 16.6667 12.9651 16.6667 13.3333Z" fill="#FFD033"/>
<path d="M0 -0.333333H-0.901086L-0.21693 0.253086L4.33333 4.15331V5.16179L-0.193746 8.39542L-0.333333 8.49513V8.66667V9.33333V9.93475L0.176666 9.616L5.42893 6.33333H6.55984L11.0821 9.56351C11.176 9.6306 11.2886 9.66667 11.404 9.66667C11.9182 9.66667 12.1548 9.02698 11.7644 8.69237L7.66667 5.18002V4.17154L12.0542 1.03762C12.2294 0.912475 12.3333 0.710428 12.3333 0.495127V0V-0.601416L11.8233 -0.282666L6.57107 3H5.44016L0.860413 -0.271244L0.773488 -0.333333H0.666667H0Z" fill="#DB1E36" stroke="white" stroke-width="0.666667"/>
<path fill-rule="evenodd" clip-rule="evenodd" d="M0 3.33333V6H4.66667V9.33333C4.66667 9.70152 4.96514 10 5.33333 10H6.66667C7.03486 10 7.33333 9.70152 7.33333 9.33333V6H12C12.3682 6 12.6667 5.70152 12.6667 5.33333V4C12.6667 3.63181 12.3682 3.33333 12 3.33333H7.33333V0H4.66667V3.33333H0Z" fill="white"/>
<path fill-rule="evenodd" clip-rule="evenodd" d="M0 4H5.33333V3.33333V0H6.66667V3.33333V4H12V5.33333H6.66667V6V9.33333H5.33333V6V5.33333H0V4Z" fill="#DB1E36"/>
</g>
</svg>
