<svg width="28" height="20" viewBox="0 0 28 20" fill="none" xmlns="http://www.w3.org/2000/svg">
<path d="M0 0H28V20H0V0Z" fill="#06A86E"/>
<mask id="mask0_748_6527" style="mask-type:luminance" maskUnits="userSpaceOnUse" x="0" y="0" width="28" height="20">
<path d="M0 0H28V20H0V0Z" fill="white"/>
</mask>
<g mask="url(#mask0_748_6527)">
<path fill-rule="evenodd" clip-rule="evenodd" d="M0 2.66669L9.33333 10L0 17.3334V2.66669Z" fill="#FFBF2E"/>
<path fill-rule="evenodd" clip-rule="evenodd" d="M-1.33334 3L7.66666 10L-1.33334 17V3Z" fill="#262626"/>
<path fill-rule="evenodd" clip-rule="evenodd" d="M12 8L2.66666 0H28V8H12Z" fill="white"/>
<path fill-rule="evenodd" clip-rule="evenodd" d="M12.3333 6.66667L4.33334 0H28V6.66667H12.3333Z" fill="#F44E46"/>
<path fill-rule="evenodd" clip-rule="evenodd" d="M2.66666 20H28V12H12L2.66666 20Z" fill="white"/>
<path fill-rule="evenodd" clip-rule="evenodd" d="M4.33334 20H28V13.3333H12.3333L4.33334 20Z" fill="#072CB4"/>
</g>
</svg>
